<?xml version="1.0" encoding="UTF-8"?>
<svg xmlns="http://www.w3.org/2000/svg" xmlns:xlink="http://www.w3.org/1999/xlink" viewBox="0 0 382.38 552.64">
  <defs>
    <style>
      .cls-1 {
        fill: none;
      }

      .cls-2 {
        fill: #480000;
      }

      .cls-3 {
        fill: #001f7e;
      }

      .cls-4 {
        fill: #777;
      }

      .cls-5 {
        fill: url(#linear-gradient-8);
      }

      .cls-6 {
        fill: url(#linear-gradient-7);
      }

      .cls-7 {
        fill: url(#linear-gradient-5);
      }

      .cls-8 {
        fill: url(#linear-gradient-6);
      }

      .cls-9 {
        fill: url(#linear-gradient-4);
      }

      .cls-10 {
        fill: url(#linear-gradient-3);
      }

      .cls-11 {
        fill: url(#linear-gradient-2);
      }

      .cls-12 {
        fill: #0061ee;
      }

      .cls-13 {
        fill: #001f7d;
      }

      .cls-14 {
        fill: url(#linear-gradient);
      }

      .cls-15 {
        isolation: isolate;
      }

      .cls-16 {
        fill: #8cc4ed;
      }

      .cls-17 {
        clip-path: url(#clippath-1);
      }

      .cls-18 {
        fill: #fff;
      }

      .cls-19 {
        fill: #44a0e3;
      }

      .cls-20 {
        fill: #0091ff;
      }

      .cls-21 {
        fill: #e06c7c;
      }

      .cls-22 {
        fill: #b3b3b3;
      }

      .cls-23 {
        fill: #cf0c27;
      }

      .cls-24 {
        fill: #840000;
      }

      .cls-25 {
        fill: #68b2e8;
      }

      .cls-26 {
        fill: #ce0c27;
      }

      .cls-27 {
        fill: #9f0a27;
      }

      .cls-28 {
        fill: #357fb0;
      }

      .cls-29 {
        fill: #fdfdfd;
      }
    </style>
    <linearGradient id="linear-gradient" x1="57.74" y1="423.46" x2="57.74" y2="319.82" gradientUnits="userSpaceOnUse">
      <stop offset="0" stop-color="#a2bdd3"/>
      <stop offset="1" stop-color="#fff"/>
    </linearGradient>
    <linearGradient id="linear-gradient-2" x1="147.63" x2="147.63" xlink:href="#linear-gradient"/>
    <linearGradient id="linear-gradient-3" x1="237.52" x2="237.52" xlink:href="#linear-gradient"/>
    <linearGradient id="linear-gradient-4" x1="326.91" x2="326.91" xlink:href="#linear-gradient"/>
    <linearGradient id="linear-gradient-5" x1="97.91" y1="533.5" x2="97.91" y2="437.59" gradientUnits="userSpaceOnUse">
      <stop offset="0" stop-color="#2849e7"/>
      <stop offset="1" stop-color="#0091ff"/>
    </linearGradient>
    <linearGradient id="linear-gradient-6" x1="161.64" x2="161.64" xlink:href="#linear-gradient-5"/>
    <linearGradient id="linear-gradient-7" x1="222.87" x2="222.87" xlink:href="#linear-gradient-5"/>
    <linearGradient id="linear-gradient-8" x1="286.74" x2="286.74" xlink:href="#linear-gradient-5"/>
    <clipPath id="clippath-1">
      <path class="cls-1" d="M117.14,437.59h-48.52v95.91h48.89c-.12,0,3.11-2.93,9.71-8.8v-34.9l-9.89-8.68c3.05-2.62,6.35-5.57,9.89-8.84v-26.19c-6.96-5.67-10.32-8.51-10.07-8.51ZM107.62,454.78v17.51h-19.41v-17.51h19.41ZM107.62,489.8v26.19h-19.41v-26.19h19.41ZM151.75,515.99h39.37v17.51h-58.96v-95.91h19.59v78.4ZM232.76,437.59h19.59v87.25l-10.25,8.66h-38.45l-10.25-8.82v-87.09h19.59v78.4h19.77v-78.4ZM277.03,455.1v17.19h19.59v17.51h-19.59v26.19h39v17.51h-48.74c-2.31-2.07-5.6-5.01-9.86-8.82v-78.43c6.45-5.77,9.79-8.66,10.04-8.66h48.56v17.51h-39Z"/>
    </clipPath>
  </defs>
  <g class="cls-15">
    <g id="Layer_1" data-name="Layer 1">
      <g>
        <path class="cls-13" d="M223.49,123.43c.4-1.33-.04-1.58.57-1.93,6.48-3.75,12.29-8.3,17.17-14.05,13.09-15.38,19.13-36.75,14.22-56.53-4.8-20.85-18.73-37.44-37.49-45.63-7.26-3.17-15.09-4.84-23.01-5.2l-.5-.02c-24.8-1.13-48.42,11.68-60.2,33.53-.3.56-.59,1.12-.88,1.69-16.07,29.71-4.25,69.36,24.98,86.06.96.58,1.2,1.14,1.34,2.87.31,3.73.13,4.94.34,9.02.19,3.71.33,3.59-2.17,3.58-19.89,0-39.77,0-59.66-.01-1.49,0-2.96.23-4.38.7-6.43,2.11-12.73,4.45-17.38,9.76-2.81,2.79-5.56,5.65-7.32,9.27-2.1,4.21-3.53,8.7-5.47,12.97-10.43,23.9-21.68,47.84-27.03,73.49-.86,4.05-1.31,8.18-1.31,12.32.01,13.82,4.17,30.2,4.17,30.2,3.4,13.27,6.16,26.69,9.75,39.92,1.54,5.99,3.23,11.92,5.61,17.64,1.96,4.74,5.14,8.54,8.9,11.93,2.72,2.45,5.97,3.95,9.56,3.95,79.26.06,158.52.05,237.79.04,7.39-.47,12.46-5.93,16.12-11.6,2.42-3.7,3.92-7.86,5.18-12.1,2.05-6.88,4.93-18.26,6.56-25.26,2.87-11.64,5.69-23.3,8.25-35.01.69-3.11,1.55-6.24,1.74-9.4,1.03-10.52-.28-18.1-.28-18.1-2.61-10.32-4.21-15.87-6.85-25.14-4.74-14.56-11.25-28.48-17.06-42.63-1.84-4.33-3.71-8.65-5.63-12.95-2.29-5.14-3.94-10.54-7.63-15.06-5.08-6.22-11.28-10.62-18.92-13.21-2.76-.93-5.69-1.3-8.61-1.29-20.22.08-40.45.02-60.66.04-.96.12-1.07-.47-.88-1.13l1.07-12.73Z"/>
        <path class="cls-28" d="M337.08,268.68c-3.61,16.55-7.56,33.03-11.7,49.46-1.69,6.44-3.31,12.9-5.53,19.18-.96,2.72-2.23,5.28-4.06,7.51-1.94,2.37-4.65,3.28-7.58,3.29-33.48.07-66.97.02-100.45-.02-.6-.65-.52-1.47-.52-2.25-.01-22.04-.01-44.08,0-66.12,0-.73-.03-1.48.37-2.14.9-.84,2.02-.59,3.07-.59,28.66.11,57.33.01,85.97-.42,9.94-.31,20.11-.25,29.74-3.12,2.26-.65,4.2-1.93,5.89-3.57.52-.51.96-1.12,1.64-1.46,1.08-.26,2.16-.51,3.16.26Z"/>
        <path class="cls-28" d="M176.24,348.09c-32.97.12-65.95-.01-98.92.06-6.69,0-9.36-2.7-11.7-8.21-4.06-9.57-6.21-19.72-8.61-29.8-3.36-13.8-6.73-27.59-9.75-41.47.86-.63,1.85-.53,2.83-.56.21.05.39.14.56.27,5.48,6.88,15.78,6.83,23.82,7.61,32.92,1.17,65.87.77,98.8.99,1.05.01,2.17-.24,3.1.53.48.77.4,1.63.4,2.48,0,21.83,0,43.67,0,65.5,0,.89.15,1.83-.52,2.59Z"/>
        <path class="cls-19" d="M246.14,64.95c-1.28,31.32-22.75,53.68-55.83,54.34-29.87-2.1-52.16-22.48-52.8-56.01,1.96-27,18.9-47.88,47.25-51.94,5.99-.86,12.07-.65,17.98.62,25.07,5.35,42.09,24.47,43.41,53Z"/>
        <path class="cls-26" d="M153.46,196.99c6.2,9.47,16.39,15.08,27.3,17.26,1.64.36,3.48.89,5.19.89,2.26,0,4.18.07,6.38-.06,6.66-.4,13.2-1.01,19.56-3.5,7.47-3.09,14.12-7.96,18.63-14.58.42-.33.91-.46,1.43-.44,3.11.09,6.2-.37,9.31-.41,12.19-.29,24.37-1.19,36.54-2.02,12.68-.98,25.33-2.21,37.98-3.54.57-.06,1.13-.08,1.6.36,1.95,4.63,3.9,9.25,5.84,13.89.8,1.92,1.77,3.78,2.31,5.81-.47.52-1.12.5-1.73.57-8.42,1.05-16.85,1.92-25.3,2.71-13.67,1.3-27.36,2.36-41.08,3.06-10.05.48-20.1.78-30.16,1.08-6.34.19-12.66.08-18.99.24-1.8.04-3.61.07-5.33.7-.65.66-.44,1.49-.44,2.26-.02,16.51,0,33.01-.01,49.52-.04,2.11-.38,2.5-2.47,2.52-6.15-.04-12.32.23-18.46-.15-.17-17.31,0-34.63-.07-51.94,0-.77.21-1.6-.47-2.24-3.85-1.09-8.46-.59-12.42-.66-7.52.16-15.03-.29-22.55-.45-28.26-.79-56.46-3.22-84.54-6.43-.94-.11-1.94-.09-2.71-.8,2.49-6.66,5.29-13.19,8.15-19.69,1.2-.63,2.46-.23,3.65-.09,11.45,1.34,22.93,2.28,34.42,3.22,7.82.64,15.66,1.07,23.5,1.5,7.73.42,15.46.56,23.18.96.63.03,1.25.06,1.77.47Z"/>
        <path class="cls-29" d="M325.45,216.44c-6.4.77-12.8,1.52-19.21,2.16-14.98,1.52-29.99,2.67-45.01,3.62-4.25.29-8.5.57-12.76.55-.56,0-1.11-.05-1.65-.22,26.39,7.01,52.75,14.17,79.28,20.62,2.74.68,5.48,1.38,8.23,2.07.77.19,1.56.33,2.06,1.05.34,1.01.67,2.02,1.01,3.04-.63.53-1.3.23-1.94.07-19.27-4.8-38.54-9.59-57.74-14.66-13.86-3.5-27.56-7.7-41.33-11.41-8.78-.09-17.55.59-26.34.34-.37-.01-.79-.1-1.12.28.34.7,1.07.77,1.67,1,12.38,4.9,25.12,8.69,37.91,12.34,28.13,8.02,56.57,14.89,84.91,22.1,1.6.47,3.28.67,4.74,1.54,0,2.35-1.64,7.27-4.27,7.6-1.34.28-2.54-.28-3.78-.6-14.04-3.48-28.11-6.82-42.11-10.45-26.77-7.14-53.76-13.94-79.74-23.63,0,12.13,0,24.26-.02,36.39,0,.97.31,2.08-.72,2.81-1.76.64-3.62-.06-5.35.41.03-18.13-.08-36.25.04-54.38,0-.41.3-.76.7-.82,3.03-.46,6.08-.65,9.15-.49,14.13.08,28.24-.43,42.36-1.08,13.88-.66,27.74-1.77,41.57-3.02,5.14-.49,10.26-1.26,15.4-1.62,4.72-.34,9.37-1.32,14.11-1.41l1.73,5.17-1.8.65Z"/>
        <path class="cls-29" d="M58.8,210.62c10.66,1.1,21.29,2.58,31.98,3.34,8.79.67,17.56,1.44,26.36,2.09,13.23.69,26.51,1.03,39.74,1.46,8.05.47,16.14-.39,24.14.76.43.06.75.41.75.84.09,17.39.01,34.79.03,52.18,0,1.72-.18,1.92-1.92,1.99-1.12.04-2.26.15-3.36-.21-1.09-.68-.77-1.8-.77-2.77-.03-11.2-.02-22.4-.02-33.61,0-3.05,0-3.04-2.78-1.98-37.37,13.46-76.26,22.12-114.66,32.03-1.91.46-3.84.89-5.72,1.46-.76.23-1.53.4-2.32.18-.1-.03-.2-.06-.3-.09-1.02-.53-2.16-.99-1.69-2.52,1.88-1.15,4.11-1.19,6.12-1.93,36.25-8.99,72.55-17.86,108.14-29.26,4.03-1.3,8.04-2.71,11.92-4.42,1.23-.54,1.32-.92,1.32-2.7,0-1.98-1.51-3.69-3.49-3.86-6.21-.52-11.96,1-17.75,2.93-35.07,11.24-71,19.57-106.68,28.62-.53.04-1.07.35-1.58-.07.37-3.06,1.12-6.82,1.69-9.14.2-.83,1.39-.72,2.16-.91,14.77-3.67,29.54-7.36,44.27-11.17,13.95-3.39,27.85-7.72,41.75-11.1-17.05-.35-34.24-2.03-51.27-3.48-8.72-.84-17.47-1.59-26.13-2.86-.66-.16-1.87-.08-1.71-1.06s1.27-3.14,1.81-4.74Z"/>
        <path class="cls-24" d="M202.2,348.09c-6.8,0-13.6,0-20.41,0-.89-.65-.69-1.62-.69-2.49-.04-21.66,0-43.32,0-64.98,0-1.06-.19-2.16.43-3.14.56-.48,1.24-.5,1.92-.5,5.68-.03,11.36-.02,17.04,0,.67,0,1.36.02,1.94.45.56.73.48,1.6.48,2.44.01,21.91.01,43.82,0,65.74,0,.87.19,1.84-.7,2.49Z"/>
        <path class="cls-26" d="M229.73,232.15c34.18,10.51,68.91,19.14,103.63,27.66.84-.52,1.38-1.32,1.87-2.15,1.43-2.41,2.25-5.03,2.53-7.83l-.36-.5c-23.47-5.5-46.98-11.72-70.33-17.97-8.66-2.24-20.57-6.19-29.15-8.69l-28.88.75c-.61,0-.79.84-.22,1.08l18.1,6.67c.93.36,1.86.69,2.81.98Z"/>
        <path class="cls-19" d="M314.74,184.51c-2.12-4.77-4.25-9.54-6.31-14.34-1.73-4.01-2.73-8.35-5.53-11.85-.43.6-.93,1.08-1.59,1.46-4.92,2.83-9.81,5.71-14.73,8.55-12.93,7.33-25.75,14.85-38.6,22.32.69.29,1.25.31,1.81.28,3.86-.22,7.73-.57,11.59-.63,4.38-.21,8.73-.68,13.12-.75,1.1-.02,40.52-4.34,40.52-4.34l-.27-.69Z"/>
        <path class="cls-19" d="M326.8,215.69c-4.42.58-8.84,1.21-13.27,1.7-5.61.63-11.22,1.18-16.84,1.7-9.97,1-19.98,1.58-29.97,2.35-6.96.61-13.62.33-20.62,1.19,30.14,8.61,59.98,16.08,90.3,23.66l-9.17-30.6h-.43Z"/>
        <path class="cls-19" d="M56.99,215.37c1.31.86,2.87.77,4.31.99,6.57.96,13.2,1.55,19.82,2.08,13.63,1.47,27.3,2.4,40.97,3.36,2.35.16,4.71.09,7.07.3,2.67.24,5.39-.02,8.26.58-29.72,8.39-59.52,16.15-89.5,23.27,2.26-10.4,4.87-20.78,9.06-30.59Z"/>
        <path class="cls-29" d="M299.71,161.28c-16.99,9.79-33.51,19.37-50.7,29.3,16.74-1.03,32.86-2.02,49.45-3.64,4.84-.43,9.68-.92,14.5-1.52l2.06-.21,2.37,5.73s-.04,0-.05,0c-12.8,1.44-25.61,2.75-38.47,3.68-16.09,1.02-32.21,2.05-48.33,2.37.96-2.46,2.39-4.74,2.77-7.41,1.73-1.77,4.04-2.65,6.12-3.86,18.93-11.16,38.43-44.96,56.97-33.21,2.55,1.62,3.72,2.65,5.3,4.28l1.58,2.03-1.32.99c-.72.53-1.47,1.03-2.24,1.47Z"/>
        <path class="cls-19" d="M69.26,185.79c2.82-7.84,6.6-15.02,9.53-22.84.57-1.43,1.1-3.33,2.47-4.31.56-.16.88.51,1.31.77,17.33,10,34.66,20.02,51.99,30.03.51.32,1.42.7,1.23,1.42-.12.34-.51.43-.85.46-1.35.13-2.71.14-4.06,0-3.2-.35-6.42-.36-9.63-.58-8.95-.6-17.91-1.22-26.84-2.04-6.63-.6-13.28-1.1-19.89-1.91-1.76-.22-3.62,0-5.24-.99Z"/>
        <path class="cls-26" d="M92.7,150.13c.84-.06,1.53.33,2.22.73,14.6,8.52,29.26,16.92,43.89,25.38,3.33,1.92,6.64,3.87,9.98,5.77.65.37,2.6.21,2.86.98-.05,2.74-1.04,5.93-.61,8.63-.91.7-1.95.41-2.94.34-.62-.04-1.23-.31-1.84-.22-3.25.47-5.85-.98-8.54-2.55-17.68-10.28-35.4-20.51-53.13-30.72"/>
        <path class="cls-26" d="M296.39,152.51c-1.97,1.62-3.81,2.9-5.85,4.11-18.97,11.17-37.05,24.19-57.24,32.96.11-.05.12-1.85.24-2.78.04-.34-1.91.53-1.9.18.07-2.87-6.45-3.22-7-6,1.73-1.68,11.93-6.22,13.97-7.4,8.31-4.79,16.59-9.64,24.93-14.39,4.98-4.23,10.64-7.57,16.46-10.54.45-.24.98-.25,1.45-.44,5.52-.43,10.32,1.61,14.94,4.3Z"/>
        <path class="cls-19" d="M222.83,148.13c-.35,0-.62.06-.82.16l-1.94,32.46,11.48-5.75h0c.7.25,1.18-.24,1.7-.54,7.85-4.5,15.67-9.05,23.51-13.57,2.35-1.35,4.85-2.51,6.97-4.2,2.43-1.94,6.05-2.64,8.85-4.08,1.49-.77,3.67-2.86,4.52-4.52-17.51-.02-36.75.08-54.26.04Z"/>
        <path class="cls-29" d="M150.35,183.46c-19.13-11.26-38.38-22.31-57.66-33.33,4.97-2.47,8.88-2.12,14.17-2.03l50.84,29.45-6.07,7.43-1.29-1.52Z"/>
        <path class="cls-22" d="M181.77,277.59c0,23.5.02,47,.02,70.5-1.85,0-3.7,0-5.56,0-.02-23.52,0-47.04-.04-70.55,1.87-.87,3.73-.93,5.57.05Z"/>
        <path class="cls-22" d="M202.2,348.09c0-23.5.02-47,.02-70.5,1.85-.99,3.71-.92,5.58-.05-.03,23.52.03,47.04-.04,70.55-1.85,0-3.7,0-5.56,0Z"/>
        <path class="cls-29" d="M281.45,148.2l-15.36,9.43c-3.05,1.94-5.89,3.87-8.89,5.69-5.54,3.35-11.16,6.59-16.82,9.73-2.58,1.43-11.97,6.82-14.73,7.92-.37-.78-2.65-.03-3-1,8.54-4.96,25.93-15,34.55-19.83l19.08-12.05,5.18.11Z"/>
        <path class="cls-21" d="M55.65,264.09c-2.04.59-5.37,1.32-7.42,1.91-.16.08-.31.09-.47,0-.97-1.2-1.32-2.62-1.53-4.11,0-2.26,0-4.53,0-6.79.44-.1.89-.19,1.33-.29,1.48,2.23,2.94,4.47,4.63,6.55.75.92,3.34,1.33,3.44,2.73Z"/>
        <path class="cls-21" d="M333.36,259.81c2.23-2.92,3.3-6.36,4.39-9.79.47,3.61.47,7.23.34,10.86-1.68.09-3.14-.77-4.73-1.07Z"/>
        <path class="cls-4" d="M334.09,268.39c2.26-1.61,3.06-4.11,4.01-6.52.12,2.34-.73,4.53-1.02,6.8-1.01,0-2.01-.02-3.02-.02-.11-.07-.14-.13-.1-.19.04-.05.08-.07.13-.07Z"/>
        <path class="cls-4" d="M47.87,265.94c.12.02.24.04.36.07.64,1.1,1.29,1.42,1.7,2.3-.83.59-1.78.32-2.68.37-.07-.91-.61-1.76-.34-2.71.31-.3.63-.26.96-.03Z"/>
        <path class="cls-2" d="M47.87,265.94c-.32.01-.64.02-.96.03-.53-1.31-.86-2.65-.68-4.08.55,1.35,1.09,2.7,1.64,4.05Z"/>
        <path class="cls-16" d="M204.89,272.76c.96.01,1.92,0,2.88,0,.94-.75,2.05-.52,3.11-.53,25.06-.01,50.12.1,75.18-.07,13.34.09,27-.72,39.49-5.81,2.85.68,5.69,1.36,8.54,2.04-.01.09-.02.17-.03.26-2.23,2.91-5.14,4.68-8.7,5.62-5.34,1.41-10.76,1.92-16.26,2.27-33.76,1.17-67.54.75-101.3.99-40.28.17-80.55-.04-120.83-.44-9.75-.25-19.77-.25-29.19-3.08-3.06-.96-5.84-2.67-7.55-5.62,2.62-.68,5.24-1.36,7.87-2.04,5.03,1.9,10.13,3.54,15.49,4.27,5.33.72,10.65,1.2,16.04,1.32,28,.63,55.99.09,83.99.29.89,0,1.83-.12,2.6.53"/>
        <path class="cls-25" d="M191.67,51.39c-10.78.26-24.91-6.21-23.87-18.78,1.08-11.84,14.73-17,25.15-16.48,5.91.22,11.56,1.63,16.44,5.32,7.18,5.43,8.94,14.82,2.96,21.79-5.18,6-13.03,8.19-20.69,8.15Z"/>
        <path class="cls-19" d="M325.3,266.35c-1.06,1.21-3.21,1.51-4.61,1.99-5.19,1.77-10.63,2.61-16.07,3.44-32.51,1.98-65.15.53-97.71.97,0-13.16,0-26.33,0-39.68,16.64,6.62,33.64,11.1,50.78,15.97,22.31,6.28,45.13,11.7,67.6,17.31Z"/>
        <path class="cls-19" d="M176.22,272.76c-31-.23-62.07.55-93.04-.41-7.12-.72-14.3-1.41-21.07-4-1.38-.53-2.94-.79-4-1.99,39.63-10.26,79.66-19.07,118.12-33.34v39.74Z"/>
        <path class="cls-26" d="M171.35,231.87c-12.94,4.71-26.1,8.73-39.38,12.36-18.51,4.91-36.94,10.13-55.56,14.59-7.1,1.9-14.25,3.63-21.38,5.43-.21.05-.45-.02-.67-.03-2.41-2.67-5.15-5.3-6.52-8.69-.15-.38.08-.81.48-.92,31.72-8.22,63.68-15.67,95.09-25.04,6.44-2.04,14.26-4.41,20.58-6.86.08-.03.16-.05.25-.05h11.23c.38,0,.69.31.69.69v6.34c0,.3-.19.56-.47.66l-4.35,1.5Z"/>
        <path class="cls-19" d="M160.89,148.14c-.16-.02-.33-.03-.52-.02-17.35.09-36.14-.08-53.5-.02.04.83,1.75,1.1,2.26,1.51l53.05,30.64-1.28-32.1Z"/>
        <path class="cls-26" d="M85.01,158.29l-2.48-1.56c4.28-4.18,10.17-6.6,10.17-6.6"/>
        <path class="cls-29" d="M151,191.42l-2.47-.05c-.43,0-.86-.03-1.29-.06l-5.82-.46-.07-.02c-6.36-3.69-12.7-7.4-19.06-11.08-10.85-6.25-21.76-12.39-32.52-18.8-2.34-1.4-4.93-2.42-6.98-4.3-.14-.36-1.71,1.9-2.17,2.57-.06.09-.02.22.09.26l1.63.58c.59.21,1.17.48,1.71.8l51.1,29.75c.16.09.08.33-.1.33-10.26-.4-20.07-1.14-30.26-1.72-11.83-1.08-23.68-1.97-35.47-3.43-.07,0-.14.02-.17.09-.71,1.43-1.52,3.19-2.13,4.86-.04.11.03.22.14.23,5.61.73,11.22,1.29,16.86,1.72,8.33.78,16.65,1.68,25,2.29,9.72.77,19.51,1.27,29.24,1.64,3.21.02,6.41.28,9.62.39l5.75.24s-2.19-3.93-2.64-5.83Z"/>
        <ellipse class="cls-13" cx="192.14" cy="199.48" rx="45.5" ry="33.5"/>
        <path class="cls-19" d="M215,125.08c.49-2.82-.47-1.86-1.48-1.4-7,3.22-14.15,5.43-21.63,5.07-1.29-.06-1.44.65-1.44,2.08.04,12.01.02,24.02.02,36.03,0,11.94.05,23.87-.03,35.81-.01,1.9.43,2.53,1.81,2.26.94-.19,10.29-.65,14.64-5.03,2.4-2.42,4.59-4.82,4.61-9.09.04-6.63.66-13.2.99-19.79.39-7.84.84-15.67,1.38-23.49l1.13-22.43Z"/>
        <path class="cls-19" d="M221.01,186.16c.04-1.35,1.82-1.81,2.49-.64.15.26.3.52.45.76,5.16,7.95,2.54,17.5-4.74,23.2-5.44,4.47-11.48,7.32-18.22,8.19-4.68.6-9.03,1.04-14.27.79-2.53-.12-5.88-1.05-8.37-1.88-3.22-1.07-6.41-2.14-9.5-3.61-3-1.43-5.45-3.57-7.62-5.81-5.36-5.17-6.35-14.53-2.25-20.8.12-.2.23-.4.35-.61.62-1.14,2.33-.81,2.5.47.1.76.2,1.51.17,2.27-.15,4.22.92,8.08,3.53,11.39,4.14,5.32,10.72,8.11,17.08,9.75,10.35,2.48,21.33.83,30.15-5.32,4.59-3.14,8.03-7.57,8.09-13.43.02-1.57.12-3.12.17-4.72Z"/>
      </g>
      <g>
        <g>
          <path class="cls-3" d="M296.77,444.73l-14.41-9.94c-4.03,2.94-7.66,5.51-10.82,7.67l-3.33,2.27h-60.73l-7.65-5.27v5.27h-51.03v-47.19h-2.03v47.19h-51.03v-5.33l-7.87,5.33H27.54l-21.88-15.08v-120.7h51.06v84.72h2.03v-84.72h51.06v.08h36.96v37.47h2.03v-37.47h51.03v4.93l7.16-4.93h56.73c4.51,0,7.04,1.75,11.25,4.64,1.78,1.23,4.24,2.95,7.34,5.15l14.21-9.79h60.85l21.61,14.92v105.92l-21.92,14.86h-60.3Z"/>
          <path class="cls-3" d="M105.29,313.48v.08h36.96v37.47h11.08v-37.47h41.98v9l10.92-7.51,2.18-1.5h55.33c3.1,0,4.73,1.12,8.68,3.84,2.25,1.55,5.57,3.89,9.86,6.95l13.48-9.29,2.18-1.5h58.03l2.18,1.5,13.57,9.37,2.75,1.9v101.14l-2.8,1.9-13.82,9.37-2.17,1.47h-57.5l-2.18-1.5-13.72-9.46c-5.03,3.71-9.51,6.9-13.29,9.48l-2.17,1.48h-57.92l-2.18-1.5-11.41-7.85v9.35h-41.98v-47.19h-11.08v47.19h-41.98v-9.33l-11.62,7.86-2.17,1.47H28.95l-2.18-1.5-13.83-9.53-2.75-1.9v-113.79h42.01v84.72h11.09v-84.72h42.01M71.07,323.89h0v-4.07h0v4.07M187.39,323.97h.13v-4.08h-.13v4.08M134.29,323.97h.17v-4.08h-.17v4.08M277.34,331.27v-2s-.05-.03-.07-.05v2s.05.03.07.05M366.68,331.37v-2.1h0s0,2.1,0,2.1h0M277.34,368.77v-2.04c-.93-.66-1.88-1.33-2.82-1.99h0c.93.65,1.85,1.3,2.76,1.95v2.04s.05.03.07.05M187.52,378.33v-2.05l-.11-.08-.04.03h.01v2l.13.09M195.31,388.86h6.65c-2.45-1.62-4.42-2.96-5.95-4.07-.23-.17-.47-.34-.7-.51v4.58M321.41,398.22h11.08v-5.38h-11.08v5.38M232.08,398.22h11.08v-5.2h-11.08v5.2M224.18,399.27h.11v-4.08h-.11v4.08M114.34,304.43H1.13v127.6l3.91,2.7,2.75,1.9,13.83,9.53,2.18,1.5,2.32,1.6h63.13l1.96-1.33v1.33h113.14v-1.18l1.72,1.18h63.53l2.31-1.58,2.17-1.48c2.5-1.71,5.28-3.67,8.33-5.86l8.44,5.82,2.18,1.5,2.32,1.6h63.1l2.3-1.56,2.17-1.47,13.82-9.37,2.8-1.9,3.97-2.69v-110.69l-3.91-2.7-2.75-1.9-13.57-9.37-2.18-1.5-2.32-1.6h-63.67l-2.32,1.6-2.18,1.5-8.27,5.7c-1.92-1.36-3.53-2.48-4.81-3.36-4.41-3.04-7.9-5.44-13.81-5.44h-58.14l-1.23.85v-.85h-90.02v-.08h0Z"/>
        </g>
        <path class="cls-27" d="M371.72,334.85l-13.57-9.37-2.18-1.5h-58.03l-2.18,1.5-13.48,9.29c-4.29-3.06-7.61-5.4-9.86-6.95-3.95-2.72-5.58-3.84-8.68-3.84h-55.33l-2.18,1.5-10.92,7.51v-9h-41.98v37.47h-11.08v-37.47h-36.96v-.08h-42.01v84.72h-11.09v-84.72H10.19v103.38l2.75,1.9,13.83,9.53,2.18,1.5h57.54l2.17-1.47,11.62-7.86v9.33h41.98v-47.19h11.08v47.19h41.98v-9.35l11.41,7.85,2.18,1.5h57.92l2.17-1.48c3.78-2.58,8.26-5.77,13.29-9.48l13.72,9.46,2.18,1.5h57.5l2.17-1.47,13.82-9.37,2.8-1.9v-90.73l-2.75-1.9ZM326.95,392.84h5.54v15.79h-11.08v-15.79h5.54ZM321.41,361.27v-5.72h11.08v5.72h-11.08ZM279.43,370.23c-2.59-1.82-5.23-3.66-7.89-5.49h7.89v5.49ZM232.08,361.44v-5.9h11.08v5.9h-11.08ZM190.1,374.35v2.79c0,1.69.75,3.07,1.87,4.3l-6.03-4.23,4.16-2.86ZM195.31,386.69v-2.41c.23.17.47.34.7.51,2.33,1.69,5.69,3.93,10.25,6.86l2.12,1.36h34.77v15.61h-11.08v-9.37h-36.77v-12.58Z"/>
        <path class="cls-23" d="M97.5,319.82v94.29l-13.83,9.36H31.81l-13.83-9.53v-94.11h26.42v84.72h26.67v-84.72h26.42M105.29,313.48h-42.01v84.72h-11.09v-84.72H10.19v103.38l2.75,1.9,13.83,9.53,2.18,1.5h57.54l2.17-1.47,13.83-9.36,2.81-1.9v-103.59h0Z"/>
        <path class="cls-14" d="M97.5,414.1l-13.83,9.36H31.81l-13.83-9.53v-94.11h26.42v84.72h26.67v-84.72h26.42v94.29Z"/>
        <path class="cls-18" d="M84.08,424.82H31.38l-14.76-10.18v-96.18h29.14v84.72h23.95v-84.72h29.14v96.37l-14.77,10ZM32.23,422.1h51.02l12.89-8.72v-92.21h-23.71v84.72h-29.39v-84.72h-23.71v92.04l12.89,8.89Z"/>
        <path class="cls-23" d="M187.52,319.89v37.53l-13.57,9.34,13.57,9.51v47.19h-26.41v-47.19h-26.65v47.19h-26.4v-103.57h26.4v37.47h26.65v-37.47h26.41M195.31,313.56h-41.98v37.47h-11.08v-37.47h-41.98v116.24h41.98v-47.19h11.08v47.19h41.98v-56.42l-2.7-1.89-6.67-4.67,6.61-4.55,2.76-1.9v-46.8h0Z"/>
        <path class="cls-11" d="M187.39,423.46h-26.42v-47.22h-26.67v47.22h-26.42v-103.65h26.42v37.5h26.67v-37.5h26.42v37.56l-13.58,9.35,13.58,9.52v47.22Z"/>
        <path class="cls-18" d="M188.74,424.82h-29.14v-47.22h-23.95v47.22h-29.14v-106.36h29.14v37.5h23.95v-37.5h29.14v39.63l-12.56,8.64,12.56,8.8v49.29ZM162.32,422.1h23.71v-45.16l-14.6-10.24,14.6-10.05v-35.48h-23.71v37.5h-29.39v-37.5h-23.71v100.93h23.71v-47.22h29.39v47.22Z"/>
        <path class="cls-23" d="M263.73,319.89c.33,0,4.87,3.12,13.62,9.37v18.73h-26.41v-9.19h-26.65v18.56h39.61c4.65,3.18,9.13,6.3,13.45,9.37v47.19c-5.12,3.77-9.57,6.95-13.37,9.54h-52.23l-13.86-9.54v-18.73h26.41v9.37h26.65v-28.28h-39.85c-8.8-5.66-13.2-8.84-13.2-9.55v-37.65l13.37-9.19h52.48M263.73,313.56h-55.33l-2.18,1.5-13.37,9.19-2.76,1.9v40.58c0,3.37,3.01,5.55,5.91,7.65,2.33,1.69,5.69,3.93,10.25,6.86l2.12,1.36h34.77v15.61h-11.08v-9.37h-41.98v28l2.76,1.9,13.86,9.54,2.18,1.5h57.92l2.17-1.48c3.86-2.64,8.43-5.9,13.59-9.7l2.56-1.88v-52.88l-2.67-1.89c-3.56-2.52-7.22-5.08-10.92-7.63h13.59v-27.93l-2.65-1.89c-4.39-3.14-7.78-5.52-10.07-7.1-3.95-2.72-5.58-3.84-8.68-3.84h0ZM232.08,345.14h11.08v5.9h-11.08v-5.9h0Z"/>
        <path class="cls-10" d="M277.28,347.94h-26.42v-9.2h-26.67v18.57h39.63c4.65,3.18,9.14,6.31,13.46,9.37v47.23c-5.12,3.77-9.58,6.96-13.38,9.55h-52.27l-13.87-9.55v-18.75h26.42v9.37h26.67v-28.3h-39.88c-8.81-5.66-13.21-8.84-13.21-9.55v-37.67l13.38-9.2h52.51c.33,0,4.87,3.13,13.63,9.38v18.75Z"/>
        <path class="cls-18" d="M264.32,424.82h-53.11l-14.81-10.19v-20.82h29.14v9.37h23.95v-25.58h-38.92l-.34-.22c-13.84-8.89-13.84-9.69-13.84-10.69v-38.39l14.31-9.84h52.94c.62,0,.93,0,14.41,9.63l.57.41v20.8h-29.14v-9.2h-23.95v15.86h38.7l.35.24c4.57,3.13,9.1,6.28,13.48,9.39l.57.41v48.61l-.55.41c-5.11,3.77-9.62,6.99-13.42,9.58l-.35.24ZM212.05,422.1h51.43c3.56-2.44,7.74-5.42,12.44-8.88v-45.84c-4.07-2.88-8.28-5.81-12.52-8.72h-40.57v-21.29h29.39v9.2h23.71v-16.69c-9.18-6.55-11.84-8.31-12.56-8.72h-51.8l-12.44,8.55v36.6c.58.62,2.93,2.55,12.25,8.55h40.84v31.01h-29.39v-9.37h-23.71v16.68l12.94,8.91ZM198.98,366.17"/>
        <path class="cls-23" d="M353.1,319.89l13.57,9.37v18.73h-26.4v-9.19h-26.65v65.75h26.65v-28.46h-13.33v-18.91h39.73v56.91l-13.82,9.37h-51.82l-13.82-9.53v-84.69l13.57-9.35h52.32M355.96,313.56h-58.03l-2.18,1.5-13.57,9.35-2.75,1.9v90.56l2.75,1.9,13.82,9.53,2.18,1.5h57.5l2.17-1.47,13.82-9.37,2.8-1.9v-90.73l-2.75-1.9-13.57-9.37-2.18-1.5h0ZM321.41,345.14h11.08v5.72h-11.08v-5.72h0ZM321.41,382.43h11.08v15.79h-11.08v-15.79h0Z"/>
        <path class="cls-9" d="M366.67,347.94h-26.42v-9.2h-26.67v65.8h26.67v-28.48h-13.34v-18.93h39.76v56.95l-13.83,9.38h-51.86l-13.83-9.53v-84.75l13.58-9.36h52.35l13.58,9.38v18.75Z"/>
        <path class="cls-18" d="M353.26,424.82h-52.7l-14.76-10.18v-86.18l14.52-10h53.2l14.52,10.02v20.82h-29.14v-9.2h-23.95v63.08h23.95v-25.76h-13.34v-21.64h42.48v59.03l-14.77,10.01ZM301.4,422.1h51.02l12.89-8.74v-54.87h-37.04v16.21h13.34v31.19h-29.39v-68.51h29.39v9.2h23.71v-16.68l-12.65-8.73h-51.51l-12.65,8.71v83.33l12.89,8.89Z"/>
      </g>
      <g>
        <polygon class="cls-3" points="324.65 428.98 324.65 437.59 324.65 447.61 324.65 455.1 324.65 465.12 324.65 473.73 316.03 473.73 305.24 473.73 305.24 482.31 305.24 489.8 305.24 499.82 305.24 507.38 316.03 507.38 324.65 507.38 324.65 515.99 324.65 526.01 324.65 533.5 324.65 543.52 324.65 552.13 316.03 552.13 267.3 552.13 264.01 552.13 261.55 549.94 259.69 548.27 259.58 548.17 259.52 548.12 259.12 547.76 257.98 546.74 254.9 543.98 247.66 550.1 245.25 552.13 242.1 552.13 203.65 552.13 200.45 552.13 199.73 551.51 199.73 552.13 191.12 552.13 132.16 552.13 123.54 552.13 123.54 549.67 123.29 549.9 120.83 552.13 117.5 552.13 68.62 552.13 60 552.13 60 543.52 60 533.5 60 447.61 60 437.59 60 428.98 68.62 428.98 117.14 428.98 120.29 428.98 122.7 431.01 123.54 431.72 123.54 428.98 132.16 428.98 151.75 428.98 160.36 428.98 160.36 437.59 160.36 447.61 160.36 507.38 184.78 507.38 184.78 447.61 184.78 437.59 184.78 428.98 324.65 428.98"/>
        <g>
          <g>
            <path class="cls-12" d="M119.47,449.73c-1.68-1.42-2.46-2.13-2.33-2.13h-48.52v95.91h48.89s.15-.18.54-.55c.1-.09.21-.19.33-.31,1.36-1.26,4.3-3.91,8.84-7.95v-34.9l-9.89-8.68c3.05-2.62,6.35-5.57,9.89-8.84h0v-26.19c-2.17-1.77-4-3.27-5.47-4.49-.88-.73-1.64-1.36-2.27-1.9ZM107.62,526.01h-19.41v-26.19h19.41v26.19ZM107.62,482.31h-19.41v-17.51h19.41v17.51Z"/>
            <polygon class="cls-12" points="151.75 526.01 151.75 447.61 132.16 447.61 132.16 543.52 191.12 543.52 191.12 543.52 191.12 526.01 191.12 526.01 151.75 526.01"/>
            <polygon class="cls-12" points="232.76 447.61 232.76 447.61 232.76 526.01 212.99 526.01 212.99 447.61 193.39 447.61 193.39 534.7 203.65 543.52 242.1 543.52 252.35 534.86 252.35 447.61 252.35 447.61 232.76 447.61"/>
            <path class="cls-12" d="M316.03,465.12v-17.51h-48.56s-.04.01-.08.03c-.44.25-2.33,1.86-5.7,4.84-1.22,1.08-2.64,2.35-4.25,3.79v78.43c1.06.95,2.07,1.85,3.01,2.7,1.19,1.07,2.28,2.04,3.27,2.93.54.48,1.06.95,1.54,1.38.06.05.12.1.17.15.68.61,1.3,1.16,1.86,1.67h48.74v-17.51h-39v-26.19h19.59v-17.51h0s-19.59,0-19.59,0v-17.19h39Z"/>
          </g>
          <g>
            <rect class="cls-1" x="88.21" y="489.8" width="19.41" height="26.19"/>
            <path class="cls-7" d="M117.14,437.59h-48.52v95.91h48.89c-.12,0,3.11-2.93,9.71-8.8v-34.9l-9.89-8.68c3.05-2.62,6.35-5.57,9.89-8.84v-26.19c-6.96-5.67-10.32-8.51-10.07-8.51ZM107.62,515.99h-19.41v-26.19h19.41v26.19ZM107.62,472.29h-19.41v-17.51h19.41v17.51Z"/>
            <polygon class="cls-8" points="151.75 437.59 132.16 437.59 132.16 533.5 191.12 533.5 191.12 515.99 151.75 515.99 151.75 437.59"/>
            <polygon class="cls-6" points="232.76 515.99 212.99 515.99 212.99 437.59 193.39 437.59 193.39 524.68 203.65 533.5 242.1 533.5 252.35 524.84 252.35 437.59 232.76 437.59 232.76 515.99"/>
            <path class="cls-5" d="M316.03,455.1v-17.51h-48.56c-.25,0-3.59,2.89-10.04,8.66v78.43c4.26,3.81,7.54,6.75,9.86,8.82h48.74v-17.51h-39v-26.19h19.59v-17.51h-19.59v-17.19h39Z"/>
            <g class="cls-17">
              <g>
                <path class="cls-20" d="M91,289.45c-4.68,0-8.03-4.22-11.27-8.3-3.12-3.92-6.34-7.98-10.7-8.38-5.02-.45-8.62,2.74-12.43,6.12-3.14,2.79-6.38,5.67-10.48,6.26-6.4.9-11.47-2.2-15.17-4.46-1.46-.89-2.72-1.67-3.78-2.03l.33-.95c1.16.4,2.47,1.2,3.97,2.12,3.77,2.31,8.46,5.18,14.5,4.32,3.8-.54,6.79-3.2,9.95-6.01,3.8-3.38,7.73-6.89,13.19-6.37,4.79.44,8.15,4.67,11.39,8.76,3.49,4.39,6.78,8.53,11.52,7.85,4.54-.67,7.88-6.16,11.11-11.47,3.38-5.56,6.87-11.3,11.94-11.89,5.19-.61,8.74,4.32,12.18,9.07,3.18,4.39,6.46,8.93,10.9,8.93s7.75-4.27,11.14-8.79c3.37-4.5,6.85-9.16,11.89-9.22h.11c5.1,0,8.62,4.48,12.03,8.81,3.18,4.03,6.47,8.21,10.94,8.64,4.65.45,7.87-2.8,11.28-6.24,3.28-3.3,6.66-6.71,11.46-6.71.08,0,.17,0,.25,0,4.93.12,8.37,3.75,11.71,7.27,3.42,3.6,6.66,6.99,11.29,6.8,4.48-.19,7.78-4.13,10.96-7.94,3.43-4.11,6.99-8.34,12.12-8.1,5.06.25,8.55,4.86,11.94,9.32,3.22,4.25,6.55,8.64,11.1,8.97,4.6.34,7.83-3.33,11.23-7.22,3.32-3.79,6.75-7.7,11.65-7.7h.11c5.21.06,8.82,3.98,12.3,7.76,3.14,3.41,6.38,6.94,10.81,7.72,4.9.87,8.24-1.18,11.78-3.35,3.2-1.97,6.49-3.99,11.17-3.97,6.98.04,13.51,3.18,18.28,5.47,1.92.92,3.57,1.71,4.9,2.15l-.31.95c-1.4-.46-3.08-1.27-5.03-2.2-4.68-2.25-11.1-5.33-17.85-5.37-.03,0-.06,0-.09,0-4.32,0-7.48,1.94-10.55,3.82-3.54,2.17-7.2,4.42-12.48,3.49-4.76-.84-8.13-4.5-11.38-8.03-3.49-3.8-6.79-7.38-11.57-7.44-.03,0-.07,0-.1,0-4.45,0-7.58,3.57-10.9,7.36-3.42,3.9-6.94,7.93-12.06,7.56-5-.37-8.47-4.94-11.83-9.37-3.39-4.47-6.6-8.7-11.19-8.92-4.64-.22-7.87,3.64-11.3,7.74-3.32,3.98-6.76,8.09-11.69,8.3-5.1.21-8.64-3.51-12.06-7.12-3.34-3.52-6.49-6.84-11-6.95-4.48-.06-7.64,3.06-10.97,6.41-3.43,3.46-6.98,7.04-12.09,6.53-4.9-.48-8.32-4.82-11.63-9.02-3.41-4.33-6.64-8.42-11.24-8.42-.03,0-.06,0-.1,0-4.54.05-7.72,4.31-11.1,8.82-3.38,4.52-6.88,9.19-11.94,9.19s-8.39-4.75-11.72-9.35c-3.42-4.73-6.65-9.2-11.25-8.66-4.58.53-7.94,6.06-11.19,11.41-3.35,5.51-6.81,11.21-11.82,11.94-.4.06-.79.09-1.18.09Z"/>
                <path class="cls-20" d="M91,565.22c-4.68,0-8.03-4.22-11.27-8.3-3.12-3.92-6.34-7.98-10.7-8.38-5.02-.47-8.62,2.74-12.43,6.12-3.14,2.79-6.38,5.67-10.48,6.26-6.4.9-11.47-2.2-15.17-4.46-1.46-.89-2.72-1.67-3.78-2.03l.33-.95c1.16.4,2.47,1.2,3.98,2.12,3.77,2.31,8.46,5.18,14.5,4.32,3.8-.54,6.79-3.2,9.95-6.01,3.8-3.38,7.73-6.87,13.19-6.37,4.79.44,8.15,4.67,11.39,8.76,3.49,4.39,6.78,8.53,11.52,7.85,4.54-.67,7.88-6.16,11.11-11.47,3.38-5.56,6.87-11.3,11.94-11.89,5.19-.61,8.74,4.32,12.18,9.07,3.18,4.39,6.46,8.93,10.9,8.93s7.75-4.27,11.14-8.79c3.37-4.5,6.85-9.16,11.89-9.22h.11c5.1,0,8.62,4.48,12.03,8.81,3.18,4.03,6.47,8.21,10.94,8.64,4.64.45,7.87-2.8,11.28-6.24,3.28-3.3,6.66-6.71,11.46-6.71.08,0,.17,0,.25,0,4.93.12,8.38,3.75,11.71,7.26,3.42,3.6,6.65,6.98,11.29,6.81,4.48-.19,7.78-4.13,10.96-7.94,3.43-4.11,6.98-8.34,12.12-8.1,5.06.25,8.55,4.86,11.94,9.32,3.22,4.25,6.55,8.64,11.1,8.97,4.6.34,7.83-3.33,11.23-7.22,3.32-3.79,6.75-7.7,11.65-7.7h.11c5.21.06,8.82,3.98,12.3,7.76,3.14,3.41,6.38,6.94,10.81,7.72,4.9.87,8.24-1.18,11.78-3.35,3.2-1.97,6.56-4.01,11.17-3.97,6.98.04,13.51,3.18,18.28,5.47,1.92.92,3.57,1.71,4.9,2.15l-.31.95c-1.4-.46-3.08-1.27-5.03-2.2-4.68-2.25-11.1-5.33-17.85-5.37-.03,0-.06,0-.09,0-4.32,0-7.48,1.94-10.55,3.82-3.54,2.17-7.2,4.42-12.48,3.48-4.77-.84-8.13-4.5-11.38-8.03-3.49-3.79-6.79-7.38-11.57-7.44-.03,0-.07,0-.1,0-4.45,0-7.58,3.57-10.9,7.36-3.42,3.9-6.94,7.93-12.06,7.56-5-.37-8.47-4.94-11.83-9.37-3.39-4.47-6.6-8.7-11.19-8.92-4.64-.22-7.87,3.64-11.3,7.74-3.32,3.98-6.76,8.09-11.69,8.3-5.09.22-8.64-3.51-12.06-7.12-3.34-3.52-6.49-6.84-11-6.95-.08,0-.15,0-.23,0-4.38,0-7.47,3.12-10.75,6.42-3.43,3.46-6.98,7.04-12.09,6.53-4.9-.48-8.32-4.82-11.63-9.02-3.41-4.33-6.64-8.42-11.24-8.42-.03,0-.06,0-.1,0-4.54.05-7.72,4.31-11.1,8.82-3.38,4.52-6.88,9.19-11.94,9.19s-8.39-4.75-11.72-9.35c-3.42-4.73-6.65-9.2-11.25-8.66-4.58.53-7.94,6.06-11.19,11.41-3.35,5.51-6.81,11.21-11.82,11.94-.4.06-.79.09-1.18.09Z"/>
                <path class="cls-20" d="M91,551.43c-4.68,0-8.03-4.22-11.27-8.3-3.12-3.92-6.34-7.98-10.7-8.38-5.02-.47-8.62,2.74-12.43,6.12-3.14,2.79-6.38,5.67-10.48,6.26-6.4.9-11.47-2.2-15.17-4.46-1.46-.89-2.72-1.67-3.78-2.03l.33-.95c1.16.4,2.47,1.2,3.97,2.12,3.77,2.31,8.46,5.18,14.5,4.32,3.8-.54,6.79-3.2,9.95-6.01,3.8-3.38,7.73-6.87,13.19-6.37,4.79.44,8.15,4.67,11.39,8.76,3.49,4.39,6.77,8.54,11.52,7.85,4.54-.67,7.88-6.16,11.11-11.47,3.38-5.56,6.87-11.3,11.94-11.89,5.19-.61,8.74,4.32,12.18,9.07,3.18,4.39,6.46,8.93,10.9,8.93s7.75-4.27,11.14-8.79c3.37-4.5,6.85-9.16,11.89-9.22h.11c5.1,0,8.62,4.48,12.03,8.81,3.18,4.03,6.47,8.21,10.94,8.64,4.64.46,7.87-2.8,11.28-6.24,3.28-3.3,6.66-6.71,11.46-6.71.08,0,.17,0,.25,0,4.93.12,8.37,3.75,11.71,7.27,3.42,3.6,6.66,6.98,11.29,6.8,4.48-.19,7.78-4.13,10.96-7.94,3.43-4.11,6.99-8.35,12.12-8.1,5.06.25,8.55,4.86,11.94,9.32,3.22,4.25,6.55,8.64,11.1,8.97,4.6.33,7.83-3.33,11.23-7.22,3.32-3.79,6.75-7.7,11.65-7.7h.11c5.21.06,8.82,3.98,12.3,7.76,3.14,3.41,6.38,6.94,10.81,7.72,4.9.87,8.24-1.18,11.78-3.35,3.18-1.95,6.47-3.97,11.07-3.97h.1c6.98.04,13.51,3.18,18.28,5.47,1.92.92,3.57,1.71,4.9,2.15l-.31.95c-1.4-.46-3.08-1.27-5.02-2.2-4.68-2.25-11.1-5.33-17.85-5.37-.03,0-.06,0-.09,0-4.32,0-7.48,1.94-10.55,3.82-3.54,2.17-7.2,4.42-12.48,3.49-4.77-.84-8.13-4.5-11.38-8.03-3.49-3.8-6.79-7.38-11.57-7.44-.03,0-.07,0-.1,0-4.45,0-7.58,3.57-10.9,7.36-3.42,3.9-6.96,7.93-12.06,7.55-5-.37-8.47-4.94-11.83-9.37-3.39-4.47-6.6-8.7-11.19-8.92-4.64-.2-7.87,3.64-11.3,7.74-3.32,3.98-6.76,8.09-11.69,8.3-5.1.21-8.64-3.51-12.06-7.12-3.34-3.52-6.49-6.84-11-6.95-4.52-.06-7.64,3.06-10.97,6.41-3.43,3.46-6.98,7.04-12.09,6.53-4.9-.48-8.32-4.82-11.63-9.02-3.41-4.33-6.64-8.42-11.24-8.42-.03,0-.06,0-.1,0-4.54.05-7.72,4.31-11.1,8.82-3.38,4.52-6.88,9.19-11.94,9.19s-8.39-4.75-11.72-9.35c-3.42-4.73-6.65-9.21-11.25-8.66-4.58.53-7.94,6.06-11.19,11.41-3.35,5.51-6.81,11.21-11.82,11.94-.4.06-.79.09-1.18.09Z"/>
                <path class="cls-20" d="M91,537.64c-4.68,0-8.03-4.22-11.27-8.3-3.12-3.92-6.34-7.98-10.7-8.38-5.02-.45-8.62,2.74-12.43,6.12-3.14,2.79-6.38,5.68-10.48,6.26-6.4.91-11.47-2.2-15.17-4.46-1.46-.89-2.72-1.67-3.78-2.03l.33-.95c1.16.4,2.47,1.2,3.98,2.12,3.77,2.31,8.46,5.19,14.5,4.32,3.8-.54,6.79-3.2,9.95-6.01,3.8-3.38,7.74-6.88,13.19-6.37,4.79.44,8.15,4.67,11.39,8.76,3.49,4.39,6.78,8.53,11.52,7.85,4.54-.67,7.88-6.16,11.11-11.47,3.38-5.56,6.87-11.3,11.94-11.89,5.18-.6,8.74,4.32,12.18,9.07,3.18,4.39,6.46,8.93,10.9,8.93s7.75-4.27,11.14-8.79c3.37-4.5,6.85-9.16,11.89-9.22h.11c5.1,0,8.62,4.48,12.03,8.81,3.18,4.03,6.47,8.21,10.94,8.64,4.65.46,7.87-2.8,11.28-6.24,3.33-3.36,6.81-6.82,11.71-6.71,4.93.12,8.38,3.75,11.71,7.27,3.42,3.6,6.65,6.98,11.29,6.81,4.48-.19,7.78-4.13,10.96-7.94,3.43-4.11,6.99-8.34,12.12-8.1,5.05.25,8.55,4.86,11.94,9.32,3.22,4.25,6.55,8.64,11.1,8.97,4.62.33,7.83-3.33,11.23-7.22,3.32-3.79,6.75-7.7,11.65-7.7h.11c5.21.06,8.81,3.98,12.3,7.76,3.14,3.41,6.38,6.94,10.81,7.72,4.9.87,8.24-1.18,11.78-3.35,3.2-1.97,6.49-3.99,11.17-3.97,6.98.04,13.51,3.18,18.28,5.47,1.92.92,3.57,1.71,4.9,2.15l-.31.95c-1.4-.46-3.08-1.27-5.03-2.2-4.68-2.25-11.1-5.33-17.85-5.37-.03,0-.06,0-.09,0-4.32,0-7.48,1.94-10.55,3.82-3.54,2.17-7.2,4.42-12.48,3.49-4.77-.84-8.13-4.5-11.38-8.03-3.49-3.79-6.79-7.38-11.57-7.44-.03,0-.07,0-.1,0-4.45,0-7.58,3.57-10.9,7.36-3.42,3.9-6.94,7.93-12.06,7.56-5-.37-8.47-4.94-11.83-9.37-3.39-4.47-6.6-8.7-11.19-8.92-4.64-.22-7.87,3.64-11.3,7.74-3.32,3.98-6.76,8.09-11.69,8.3-5.12.2-8.64-3.51-12.06-7.12-3.34-3.52-6.49-6.84-11-6.95-4.52-.1-7.64,3.06-10.97,6.41-3.43,3.46-6.97,7.04-12.09,6.53-4.9-.48-8.32-4.82-11.63-9.02-3.41-4.33-6.64-8.42-11.24-8.42-.03,0-.06,0-.1,0-4.54.05-7.72,4.31-11.1,8.82-3.38,4.52-6.88,9.19-11.94,9.19s-8.39-4.75-11.72-9.35c-3.42-4.73-6.65-9.2-11.25-8.66-4.58.53-7.94,6.06-11.19,11.41-3.35,5.51-6.81,11.21-11.82,11.94-.4.06-.79.09-1.18.09Z"/>
                <path class="cls-20" d="M91,523.85c-4.68,0-8.03-4.22-11.27-8.3-3.12-3.92-6.34-7.98-10.7-8.38-5.02-.47-8.62,2.74-12.43,6.12-3.14,2.79-6.38,5.67-10.48,6.26-6.4.9-11.47-2.2-15.17-4.46-1.46-.89-2.72-1.67-3.78-2.03l.33-.95c1.16.4,2.47,1.2,3.98,2.12,3.77,2.31,8.46,5.18,14.5,4.32,3.8-.54,6.79-3.2,9.95-6.01,3.8-3.38,7.73-6.87,13.19-6.37,4.79.44,8.15,4.67,11.39,8.76,3.49,4.39,6.78,8.53,11.52,7.85,4.54-.67,7.88-6.16,11.11-11.47,3.38-5.56,6.87-11.3,11.94-11.89,5.19-.61,8.74,4.32,12.18,9.07,3.18,4.39,6.46,8.93,10.9,8.93s7.75-4.27,11.14-8.79c3.37-4.5,6.85-9.16,11.89-9.22h.11c5.1,0,8.62,4.48,12.03,8.81,3.18,4.03,6.47,8.21,10.94,8.64,4.65.45,7.87-2.8,11.28-6.24,3.33-3.36,6.78-6.81,11.71-6.71,4.93.12,8.37,3.75,11.71,7.27,3.42,3.6,6.66,7.02,11.29,6.8,4.48-.19,7.78-4.13,10.96-7.94,3.43-4.11,6.98-8.34,12.12-8.1,5.06.25,8.55,4.86,11.94,9.32,3.22,4.25,6.55,8.64,11.1,8.97,4.6.34,7.83-3.33,11.23-7.22,3.32-3.79,6.75-7.7,11.65-7.7h.11c5.21.06,8.82,3.98,12.3,7.76,3.14,3.41,6.38,6.94,10.81,7.72,4.9.87,8.24-1.18,11.78-3.35,3.18-1.95,6.47-3.97,11.07-3.97h.1c6.98.04,13.51,3.18,18.28,5.47,1.92.92,3.57,1.71,4.9,2.15l-.31.95c-1.4-.46-3.08-1.27-5.03-2.2-4.68-2.25-11.1-5.33-17.85-5.37-.03,0-.06,0-.09,0-4.32,0-7.48,1.94-10.55,3.82-3.54,2.17-7.2,4.42-12.48,3.48-4.77-.84-8.13-4.5-11.38-8.03-3.49-3.79-6.79-7.38-11.57-7.44-.03,0-.07,0-.1,0-4.45,0-7.58,3.57-10.9,7.36-3.42,3.9-6.94,7.94-12.06,7.56-5-.37-8.47-4.94-11.83-9.37-3.39-4.47-6.6-8.7-11.19-8.92-4.64-.21-7.87,3.64-11.3,7.74-3.32,3.98-6.76,8.09-11.69,8.3-5.1.2-8.64-3.51-12.06-7.12-3.34-3.52-6.49-6.84-11-6.95-4.48-.12-7.64,3.06-10.97,6.41-3.43,3.46-6.98,7.03-12.09,6.53-4.9-.48-8.32-4.82-11.63-9.02-3.41-4.33-6.64-8.42-11.24-8.42-.03,0-.06,0-.1,0-4.54.05-7.72,4.31-11.1,8.82-3.38,4.52-6.88,9.19-11.94,9.19s-8.39-4.75-11.72-9.35c-3.42-4.73-6.65-9.2-11.25-8.66-4.58.53-7.94,6.06-11.19,11.41-3.35,5.51-6.81,11.21-11.82,11.94-.4.06-.79.09-1.18.09Z"/>
                <path class="cls-20" d="M91,510.07c-4.68,0-8.03-4.22-11.27-8.3-3.12-3.92-6.34-7.98-10.7-8.38-5.02-.47-8.62,2.74-12.43,6.12-3.14,2.79-6.38,5.68-10.48,6.26-6.4.91-11.47-2.2-15.17-4.46-1.46-.89-2.72-1.67-3.78-2.03l.33-.95c1.16.4,2.47,1.2,3.97,2.12,3.77,2.31,8.46,5.19,14.5,4.32,3.8-.54,6.79-3.2,9.95-6.01,3.8-3.38,7.74-6.87,13.19-6.37,4.79.44,8.15,4.67,11.39,8.76,3.49,4.39,6.77,8.54,11.52,7.85,4.54-.67,7.88-6.16,11.11-11.47,3.38-5.56,6.87-11.3,11.94-11.89,5.19-.61,8.74,4.32,12.18,9.07,3.18,4.39,6.46,8.93,10.9,8.93s7.75-4.27,11.14-8.79c3.37-4.5,6.85-9.16,11.89-9.22h.11c5.1,0,8.62,4.48,12.03,8.81,3.18,4.03,6.47,8.21,10.94,8.64,4.63.45,7.87-2.8,11.28-6.24,3.28-3.3,6.66-6.71,11.46-6.71.08,0,.17,0,.25,0,4.93.12,8.37,3.75,11.71,7.27,3.42,3.6,6.66,7,11.29,6.8,4.48-.19,7.78-4.13,10.96-7.94,3.43-4.11,7-8.34,12.12-8.1,5.05.25,8.55,4.86,11.94,9.32,3.22,4.25,6.55,8.64,11.1,8.97,4.6.33,7.83-3.33,11.23-7.22,3.32-3.79,6.75-7.7,11.65-7.7h.11c5.21.06,8.82,3.98,12.3,7.76,3.14,3.41,6.38,6.94,10.81,7.72,4.9.87,8.24-1.18,11.78-3.35,3.18-1.95,6.47-3.97,11.07-3.97h.1c6.98.04,13.51,3.18,18.28,5.47,1.92.92,3.57,1.71,4.9,2.15l-.31.95c-1.4-.46-3.08-1.27-5.02-2.2-4.68-2.25-11.1-5.33-17.85-5.37-.03,0-.06,0-.09,0-4.32,0-7.48,1.94-10.55,3.82-3.54,2.17-7.2,4.42-12.48,3.49-4.77-.84-8.13-4.5-11.38-8.03-3.49-3.8-6.79-7.38-11.57-7.44-.03,0-.07,0-.1,0-4.45,0-7.58,3.57-10.9,7.36-3.42,3.9-6.96,7.94-12.06,7.55-5-.37-8.47-4.94-11.83-9.37-3.39-4.47-6.6-8.7-11.19-8.92-4.64-.22-7.87,3.64-11.3,7.74-3.32,3.98-6.76,8.09-11.69,8.3-5.1.23-8.64-3.51-12.06-7.12-3.34-3.52-6.49-6.84-11-6.95-.08,0-.15,0-.23,0-4.38,0-7.47,3.12-10.75,6.42-3.43,3.46-6.98,7.04-12.09,6.53-4.9-.48-8.32-4.82-11.63-9.02-3.41-4.33-6.64-8.42-11.24-8.42-.03,0-.06,0-.1,0-4.54.05-7.72,4.31-11.1,8.82-3.38,4.52-6.88,9.19-11.94,9.19s-8.39-4.75-11.72-9.35c-3.42-4.73-6.65-9.2-11.25-8.66-4.58.53-7.94,6.06-11.19,11.41-3.35,5.51-6.81,11.21-11.82,11.94-.4.06-.79.09-1.18.09Z"/>
                <path class="cls-20" d="M91,496.28c-4.68,0-8.03-4.22-11.27-8.3-3.12-3.92-6.34-7.98-10.7-8.38-5.02-.45-8.62,2.74-12.43,6.12-3.14,2.79-6.38,5.68-10.48,6.26-6.4.91-11.47-2.2-15.17-4.46-1.46-.89-2.72-1.67-3.78-2.03l.33-.95c1.16.4,2.47,1.2,3.98,2.12,3.77,2.31,8.46,5.19,14.5,4.32,3.8-.54,6.79-3.2,9.95-6.01,3.8-3.38,7.74-6.89,13.19-6.37,4.79.44,8.15,4.67,11.39,8.76,3.49,4.39,6.78,8.53,11.52,7.85,4.54-.67,7.88-6.16,11.11-11.47,3.38-5.56,6.87-11.3,11.94-11.89,5.18-.61,8.74,4.32,12.18,9.07,3.18,4.39,6.46,8.93,10.9,8.93s7.75-4.27,11.14-8.79c3.37-4.5,6.85-9.16,11.89-9.22,5.12-.05,8.71,4.45,12.14,8.81,3.18,4.03,6.47,8.21,10.94,8.64,4.65.45,7.87-2.79,11.28-6.24,3.33-3.36,6.81-6.81,11.71-6.71,4.93.12,8.38,3.75,11.71,7.27,3.42,3.6,6.65,6.98,11.29,6.81,4.48-.19,7.78-4.13,10.96-7.94,3.43-4.11,6.99-8.34,12.12-8.1,5.05.25,8.55,4.86,11.94,9.32,3.22,4.25,6.55,8.64,11.1,8.97,4.62.34,7.83-3.33,11.23-7.22,3.32-3.79,6.75-7.7,11.65-7.7h.11c5.21.06,8.82,3.98,12.3,7.76,3.14,3.41,6.38,6.94,10.81,7.72,4.9.87,8.24-1.18,11.78-3.35,3.18-1.95,6.47-3.97,11.07-3.97h.1c6.98.04,13.51,3.18,18.28,5.47,1.92.92,3.57,1.71,4.9,2.15l-.31.95c-1.4-.46-3.08-1.27-5.03-2.2-4.68-2.25-11.1-5.33-17.85-5.37-.03,0-.06,0-.09,0-4.32,0-7.48,1.94-10.55,3.82-3.54,2.17-7.2,4.42-12.48,3.49-4.77-.84-8.13-4.5-11.38-8.03-3.49-3.79-6.79-7.38-11.57-7.44-.03,0-.07,0-.1,0-4.45,0-7.58,3.57-10.9,7.36-3.42,3.9-6.94,7.93-12.06,7.56-5-.37-8.47-4.94-11.83-9.37-3.39-4.47-6.6-8.7-11.19-8.92-4.64-.2-7.87,3.64-11.3,7.74-3.32,3.98-6.76,8.09-11.69,8.3-5.1.2-8.64-3.51-12.06-7.12-3.34-3.52-6.49-6.84-11-6.95-4.52-.14-7.64,3.06-10.97,6.41-3.43,3.46-6.97,7.04-12.09,6.53-4.9-.48-8.32-4.82-11.63-9.02-3.41-4.33-6.64-8.42-11.24-8.42-.03,0-.06,0-.1,0-4.54.05-7.72,4.31-11.1,8.82-3.38,4.52-6.88,9.19-11.94,9.19s-8.39-4.75-11.72-9.35c-3.42-4.73-6.65-9.2-11.25-8.66-4.58.53-7.94,6.06-11.19,11.41-3.35,5.51-6.81,11.21-11.82,11.94-.4.06-.79.09-1.18.09Z"/>
                <path class="cls-20" d="M91,482.49c-4.68,0-8.03-4.22-11.27-8.3-3.12-3.92-6.34-7.98-10.7-8.38-5.02-.47-8.62,2.74-12.43,6.12-3.14,2.79-6.38,5.67-10.48,6.26-6.4.9-11.47-2.2-15.17-4.46-1.46-.89-2.72-1.67-3.78-2.03l.33-.95c1.16.4,2.47,1.2,3.98,2.12,3.77,2.31,8.46,5.18,14.5,4.32,3.8-.54,6.79-3.2,9.95-6.01,3.8-3.38,7.73-6.87,13.19-6.37,4.79.44,8.15,4.67,11.39,8.76,3.49,4.39,6.78,8.53,11.52,7.85,4.54-.67,7.88-6.16,11.11-11.47,3.38-5.56,6.87-11.3,11.94-11.89,5.19-.61,8.74,4.32,12.18,9.07,3.18,4.39,6.46,8.93,10.9,8.93s7.75-4.27,11.14-8.79c3.37-4.5,6.85-9.16,11.89-9.22,5.12-.04,8.71,4.45,12.14,8.81,3.18,4.03,6.47,8.21,10.94,8.64,4.65.45,7.87-2.8,11.28-6.24,3.33-3.36,6.78-6.81,11.71-6.71,4.93.12,8.37,3.75,11.71,7.27,3.42,3.6,6.66,7.04,11.29,6.8,4.48-.19,7.78-4.13,10.96-7.94,3.43-4.11,6.98-8.34,12.12-8.1,5.06.25,8.55,4.86,11.94,9.32,3.22,4.25,6.55,8.64,11.1,8.97,4.6.34,7.83-3.33,11.23-7.22,3.32-3.79,6.75-7.7,11.65-7.7h.11c5.21.06,8.82,3.98,12.3,7.76,3.14,3.41,6.38,6.94,10.81,7.72,4.9.87,8.24-1.18,11.78-3.35,3.18-1.95,6.47-3.97,11.07-3.97h.1c6.98.04,13.51,3.18,18.28,5.47,1.92.92,3.57,1.71,4.9,2.15l-.31.95c-1.4-.46-3.08-1.27-5.03-2.2-4.68-2.25-11.1-5.33-17.85-5.37-.03,0-.06,0-.09,0-4.32,0-7.48,1.94-10.55,3.82-3.54,2.17-7.2,4.42-12.48,3.48-4.77-.84-8.13-4.5-11.38-8.03-3.49-3.79-6.79-7.38-11.57-7.44-.03,0-.07,0-.1,0-4.45,0-7.58,3.57-10.9,7.36-3.42,3.9-6.94,7.93-12.06,7.56-5-.37-8.47-4.94-11.83-9.37-3.39-4.47-6.6-8.7-11.19-8.92-4.64-.21-7.87,3.64-11.3,7.74-3.32,3.98-6.76,8.09-11.69,8.3-5.1.22-8.64-3.51-12.06-7.12-3.34-3.52-6.49-6.84-11-6.95-4.48-.11-7.64,3.06-10.97,6.41-3.43,3.46-6.98,7.03-12.09,6.53-4.9-.48-8.32-4.82-11.63-9.02-3.41-4.33-6.64-8.42-11.24-8.42-.03,0-.06,0-.1,0-4.54.05-7.72,4.31-11.1,8.82-3.38,4.52-6.88,9.19-11.94,9.19s-8.39-4.75-11.72-9.35c-3.42-4.73-6.65-9.2-11.25-8.66-4.58.53-7.94,6.06-11.19,11.41-3.35,5.51-6.81,11.21-11.82,11.94-.4.06-.79.09-1.18.09Z"/>
                <path class="cls-20" d="M91,468.7c-4.68,0-8.03-4.22-11.27-8.3-3.12-3.92-6.34-7.98-10.7-8.38-5.02-.47-8.62,2.74-12.43,6.12-3.14,2.79-6.38,5.68-10.48,6.26-6.4.91-11.47-2.2-15.17-4.46-1.46-.89-2.72-1.67-3.78-2.03l.33-.95c1.16.4,2.47,1.2,3.97,2.12,3.77,2.31,8.46,5.19,14.5,4.32,3.8-.54,6.79-3.2,9.95-6.01,3.8-3.38,7.74-6.87,13.19-6.37,4.79.44,8.15,4.67,11.39,8.76,3.49,4.39,6.77,8.54,11.52,7.85,4.54-.67,7.88-6.16,11.11-11.47,3.38-5.56,6.87-11.3,11.94-11.89,5.18-.61,8.74,4.32,12.18,9.07,3.18,4.39,6.46,8.93,10.9,8.93s7.75-4.27,11.14-8.79c3.37-4.5,6.85-9.16,11.89-9.22,5.12-.07,8.71,4.45,12.14,8.81,3.18,4.03,6.47,8.21,10.94,8.64,4.63.45,7.87-2.8,11.28-6.24,3.33-3.36,6.81-6.86,11.71-6.71,4.93.12,8.37,3.75,11.71,7.27,3.42,3.6,6.66,6.98,11.29,6.8,4.48-.19,7.78-4.13,10.96-7.94,3.43-4.11,7-8.34,12.12-8.1,5.05.25,8.55,4.86,11.94,9.32,3.22,4.25,6.55,8.64,11.1,8.97,4.6.34,7.83-3.33,11.23-7.22,3.32-3.79,6.75-7.7,11.65-7.7h.11c5.21.06,8.81,3.98,12.3,7.76,3.14,3.41,6.38,6.94,10.81,7.72,4.9.87,8.24-1.18,11.78-3.35,3.18-1.95,6.47-3.97,11.07-3.97h.09c6.98.04,13.51,3.18,18.28,5.47,1.92.92,3.57,1.71,4.9,2.15l-.31.95c-1.4-.46-3.08-1.27-5.03-2.2-4.68-2.25-11.1-5.33-17.85-5.37-.03,0-.06,0-.09,0-4.32,0-7.48,1.94-10.55,3.82-3.54,2.17-7.2,4.42-12.48,3.49-4.77-.84-8.13-4.5-11.38-8.03-3.49-3.8-6.79-7.38-11.57-7.44-.03,0-.07,0-.1,0-4.45,0-7.58,3.57-10.9,7.36-3.42,3.9-6.94,7.93-12.06,7.56-5-.37-8.47-4.94-11.83-9.37-3.39-4.47-6.6-8.7-11.19-8.92-4.64-.2-7.87,3.64-11.3,7.74-3.32,3.98-6.76,8.09-11.69,8.3-5.1.21-8.64-3.51-12.06-7.12-3.34-3.52-6.49-6.84-11-6.95-.08,0-.15,0-.23,0-4.38,0-7.47,3.12-10.75,6.42-3.43,3.46-6.98,7.03-12.09,6.53-4.9-.48-8.33-4.82-11.63-9.02-3.41-4.33-6.64-8.42-11.24-8.42-.03,0-.06,0-.09,0-4.54.05-7.72,4.31-11.09,8.82-3.38,4.52-6.88,9.19-11.94,9.19s-8.39-4.75-11.72-9.35c-3.42-4.73-6.65-9.2-11.25-8.66-4.58.53-7.94,6.06-11.19,11.41-3.35,5.51-6.81,11.21-11.82,11.94-.4.06-.79.09-1.18.09Z"/>
                <path class="cls-20" d="M91,454.91c-4.68,0-8.03-4.22-11.27-8.3-3.12-3.92-6.34-7.98-10.7-8.38-5.02-.45-8.62,2.74-12.43,6.12-3.14,2.79-6.38,5.67-10.48,6.26-6.4.91-11.47-2.2-15.17-4.46-1.46-.89-2.72-1.67-3.78-2.03l.33-.95c1.16.4,2.47,1.2,3.98,2.12,3.77,2.31,8.46,5.19,14.5,4.32,3.8-.54,6.79-3.2,9.95-6.01,3.8-3.38,7.73-6.88,13.19-6.37,4.79.44,8.15,4.67,11.39,8.76,3.49,4.39,6.78,8.53,11.52,7.85,4.54-.67,7.88-6.16,11.11-11.47,3.38-5.56,6.87-11.3,11.94-11.89,5.19-.61,8.74,4.32,12.18,9.07,3.18,4.39,6.46,8.93,10.9,8.93s7.75-4.27,11.14-8.79c3.37-4.5,6.85-9.16,11.89-9.22h.11c5.1,0,8.62,4.48,12.03,8.81,3.18,4.03,6.47,8.21,10.94,8.64,4.65.46,7.87-2.8,11.28-6.24,3.33-3.36,6.81-6.8,11.71-6.71,4.93.12,8.38,3.75,11.71,7.27,3.42,3.6,6.65,6.99,11.29,6.81,4.48-.19,7.78-4.13,10.96-7.94,3.43-4.11,6.99-8.34,12.12-8.1,5.06.25,8.55,4.86,11.94,9.32,3.22,4.25,6.55,8.64,11.1,8.97,4.62.35,7.83-3.33,11.23-7.22,3.32-3.79,6.75-7.7,11.65-7.7h.11c5.21.06,8.82,3.98,12.3,7.76,3.14,3.41,6.38,6.94,10.81,7.72,4.9.87,8.24-1.18,11.78-3.35,3.2-1.97,6.49-4.04,11.17-3.97,6.98.04,13.51,3.18,18.28,5.47,1.92.92,3.57,1.71,4.9,2.15l-.31.95c-1.4-.46-3.08-1.27-5.03-2.2-4.68-2.25-11.1-5.33-17.85-5.37-.03,0-.06,0-.09,0-4.32,0-7.48,1.94-10.55,3.82-3.54,2.17-7.2,4.42-12.48,3.49-4.77-.84-8.13-4.5-11.38-8.03-3.49-3.79-6.79-7.38-11.57-7.44-4.47-.08-7.66,3.55-11,7.36-3.42,3.9-6.94,7.94-12.06,7.56-5-.37-8.47-4.94-11.83-9.37-3.39-4.47-6.6-8.7-11.19-8.92-4.64-.22-7.87,3.64-11.3,7.74-3.32,3.98-6.76,8.09-11.69,8.3-5.1.21-8.64-3.51-12.06-7.12-3.34-3.52-6.49-6.84-11-6.95-4.52-.13-7.64,3.06-10.97,6.41-3.43,3.46-6.97,7.04-12.09,6.53-4.9-.48-8.32-4.82-11.63-9.02-3.41-4.33-6.64-8.42-11.24-8.42-.03,0-.06,0-.1,0-4.54.05-7.72,4.31-11.1,8.82-3.38,4.52-6.88,9.19-11.94,9.19s-8.39-4.75-11.72-9.35c-3.42-4.73-6.65-9.2-11.25-8.66-4.58.53-7.94,6.06-11.19,11.41-3.35,5.51-6.81,11.21-11.82,11.94-.4.06-.79.09-1.18.09Z"/>
                <path class="cls-20" d="M91,441.13c-4.68,0-8.03-4.22-11.27-8.3-3.12-3.92-6.34-7.98-10.7-8.38-5.02-.47-8.62,2.74-12.43,6.12-3.14,2.79-6.38,5.67-10.48,6.26-6.4.9-11.47-2.2-15.17-4.46-1.46-.89-2.72-1.67-3.78-2.03l.33-.95c1.16.4,2.47,1.2,3.97,2.12,3.77,2.31,8.46,5.18,14.5,4.32,3.8-.54,6.79-3.2,9.95-6.01,3.8-3.38,7.73-6.87,13.19-6.37,4.79.44,8.15,4.67,11.39,8.76,3.49,4.39,6.78,8.53,11.52,7.85,4.54-.67,7.88-6.16,11.11-11.47,3.38-5.56,6.87-11.3,11.94-11.89,5.19-.61,8.74,4.32,12.18,9.07,3.18,4.39,6.46,8.93,10.9,8.93s7.75-4.27,11.14-8.79c3.37-4.5,6.85-9.16,11.89-9.22h.11c5.1,0,8.62,4.48,12.03,8.81,3.18,4.03,6.47,8.21,10.94,8.64,4.65.46,7.87-2.8,11.28-6.24,3.33-3.36,6.78-6.81,11.71-6.71,4.93.12,8.37,3.75,11.71,7.27,3.42,3.6,6.66,7.02,11.29,6.8,4.48-.19,7.78-4.13,10.96-7.94,3.43-4.11,6.98-8.34,12.12-8.1,5.06.25,8.55,4.86,11.94,9.32,3.22,4.25,6.55,8.64,11.1,8.97,4.6.33,7.83-3.33,11.23-7.22,3.32-3.79,6.75-7.7,11.65-7.7h.11c5.21.06,8.82,3.98,12.3,7.76,3.14,3.41,6.38,6.94,10.81,7.72,4.9.87,8.24-1.18,11.78-3.35,3.18-1.95,6.47-3.97,11.07-3.97h.1c6.98.04,13.51,3.18,18.28,5.47,1.91.92,3.57,1.71,4.9,2.15l-.31.95c-1.4-.46-3.08-1.27-5.02-2.2-4.68-2.25-11.1-5.33-17.85-5.37-.03,0-.06,0-.09,0-4.32,0-7.48,1.94-10.55,3.82-3.54,2.17-7.2,4.42-12.48,3.48-4.76-.84-8.13-4.5-11.38-8.03-3.49-3.8-6.79-7.38-11.57-7.44-.03,0-.07,0-.1,0-4.45,0-7.58,3.57-10.9,7.36-3.42,3.9-6.94,7.94-12.06,7.56-5-.37-8.47-4.94-11.83-9.37-3.39-4.47-6.6-8.7-11.19-8.92-4.64-.22-7.87,3.64-11.3,7.74-3.32,3.98-6.76,8.09-11.69,8.3-5.1.2-8.64-3.51-12.06-7.12-3.34-3.52-6.49-6.84-11-6.95-4.48-.1-7.64,3.06-10.97,6.41-3.43,3.46-6.98,7.03-12.09,6.53-4.9-.48-8.32-4.82-11.63-9.02-3.41-4.33-6.64-8.42-11.24-8.42-.03,0-.06,0-.1,0-4.54.05-7.72,4.31-11.1,8.82-3.38,4.52-6.88,9.19-11.94,9.19s-8.39-4.75-11.72-9.35c-3.42-4.73-6.65-9.2-11.25-8.66-4.58.53-7.94,6.06-11.19,11.41-3.35,5.51-6.81,11.21-11.82,11.94-.4.06-.79.09-1.18.09Z"/>
                <path class="cls-20" d="M91,427.34c-4.68,0-8.03-4.22-11.27-8.3-3.12-3.92-6.34-7.98-10.7-8.38-5.02-.45-8.62,2.74-12.43,6.12-3.14,2.79-6.38,5.68-10.48,6.26-6.4.91-11.47-2.2-15.17-4.46-1.46-.89-2.72-1.67-3.78-2.03l.33-.95c1.16.4,2.47,1.2,3.98,2.12,3.77,2.31,8.46,5.19,14.5,4.32,3.8-.54,6.79-3.2,9.95-6.01,3.8-3.38,7.74-6.88,13.19-6.37,4.79.44,8.15,4.67,11.39,8.76,3.49,4.39,6.78,8.53,11.52,7.85,4.54-.67,7.88-6.16,11.11-11.47,3.38-5.56,6.87-11.3,11.94-11.89,5.18-.61,8.74,4.32,12.18,9.07,3.18,4.39,6.46,8.93,10.9,8.93s7.75-4.27,11.14-8.79c3.37-4.5,6.85-9.16,11.89-9.22,5.12-.04,8.71,4.45,12.14,8.81,3.18,4.03,6.47,8.21,10.94,8.64,4.65.45,7.87-2.8,11.28-6.24,3.28-3.3,6.66-6.71,11.46-6.71.08,0,.17,0,.25,0,4.93.12,8.38,3.75,11.71,7.27,3.42,3.6,6.65,6.99,11.29,6.81,4.48-.19,7.78-4.13,10.96-7.94,3.43-4.11,6.99-8.34,12.12-8.1,5.05.25,8.55,4.86,11.94,9.32,3.22,4.25,6.55,8.64,11.1,8.97,4.62.34,7.83-3.33,11.23-7.22,3.32-3.79,6.75-7.7,11.65-7.7h.11c5.21.06,8.81,3.98,12.3,7.76,3.14,3.41,6.38,6.94,10.81,7.72,4.9.87,8.24-1.18,11.78-3.35,3.18-1.95,6.47-3.97,11.07-3.97h.1c6.98.04,13.51,3.18,18.28,5.47,1.92.92,3.57,1.71,4.9,2.15l-.31.95c-1.4-.46-3.08-1.27-5.03-2.2-4.68-2.25-11.1-5.33-17.85-5.37-.03,0-.06,0-.09,0-4.32,0-7.48,1.94-10.55,3.82-3.54,2.17-7.2,4.42-12.48,3.49-4.77-.84-8.13-4.5-11.38-8.03-3.49-3.8-6.79-7.38-11.57-7.44-.03,0-.07,0-.1,0-4.45,0-7.58,3.57-10.9,7.36-3.42,3.9-6.94,7.94-12.06,7.56-5-.37-8.47-4.94-11.83-9.37-3.39-4.47-6.6-8.7-11.19-8.92-4.64-.19-7.87,3.64-11.3,7.74-3.32,3.98-6.76,8.09-11.69,8.3-5.12.21-8.64-3.51-12.06-7.12-3.34-3.52-6.49-6.84-11-6.95-4.52-.14-7.64,3.06-10.97,6.41-3.43,3.46-6.97,7.04-12.09,6.53-4.9-.48-8.32-4.82-11.63-9.02-3.41-4.33-6.64-8.42-11.24-8.42-.03,0-.06,0-.09,0-4.54.05-7.72,4.31-11.09,8.82-3.38,4.52-6.88,9.19-11.94,9.19s-8.39-4.75-11.72-9.35c-3.42-4.73-6.65-9.2-11.25-8.66-4.58.53-7.94,6.06-11.19,11.41-3.35,5.51-6.81,11.21-11.82,11.94-.4.06-.79.09-1.18.09Z"/>
                <path class="cls-20" d="M91,413.55c-4.68,0-8.03-4.22-11.27-8.3-3.12-3.92-6.34-7.98-10.7-8.38-5.02-.45-8.62,2.74-12.43,6.12-3.14,2.79-6.38,5.67-10.48,6.26-6.39.9-11.47-2.2-15.17-4.46-1.46-.89-2.72-1.67-3.78-2.03l.33-.95c1.16.4,2.47,1.2,3.98,2.12,3.77,2.31,8.46,5.18,14.5,4.32,3.8-.54,6.79-3.2,9.95-6.01,3.8-3.38,7.73-6.88,13.19-6.37,4.79.44,8.15,4.67,11.39,8.76,3.49,4.39,6.78,8.53,11.52,7.85,4.54-.67,7.88-6.16,11.11-11.47,3.38-5.56,6.87-11.3,11.94-11.89,5.19-.61,8.74,4.32,12.18,9.07,3.18,4.39,6.46,8.93,10.9,8.93s7.75-4.27,11.14-8.79c3.37-4.5,6.85-9.16,11.89-9.22h.11c5.1,0,8.62,4.48,12.03,8.81,3.18,4.03,6.47,8.21,10.94,8.64,4.65.45,7.87-2.8,11.28-6.24,3.28-3.3,6.66-6.71,11.46-6.71.08,0,.17,0,.25,0,4.93.12,8.38,3.75,11.71,7.27,3.42,3.6,6.65,6.99,11.29,6.81,4.48-.19,7.78-4.13,10.96-7.94,3.43-4.11,6.99-8.33,12.12-8.1,5.06.25,8.55,4.86,11.94,9.32,3.22,4.25,6.55,8.64,11.1,8.97,4.62.34,7.83-3.33,11.23-7.22,3.32-3.79,6.75-7.7,11.65-7.7h.11c5.21.06,8.82,3.98,12.3,7.76,3.14,3.41,6.38,6.94,10.81,7.72,4.9.87,8.24-1.18,11.78-3.35,3.2-1.97,6.49-3.99,11.17-3.97,6.98.04,13.51,3.18,18.28,5.47,1.92.92,3.57,1.71,4.9,2.15l-.31.95c-1.4-.46-3.08-1.27-5.03-2.2-4.68-2.25-11.1-5.33-17.85-5.37-.03,0-.06,0-.09,0-4.32,0-7.48,1.94-10.55,3.82-3.54,2.17-7.2,4.42-12.48,3.49-4.77-.84-8.13-4.5-11.38-8.03-3.49-3.79-6.79-7.38-11.57-7.44-.03,0-.07,0-.1,0-4.45,0-7.58,3.57-10.9,7.36-3.42,3.9-6.94,7.94-12.06,7.56-5-.37-8.47-4.94-11.83-9.37-3.39-4.47-6.6-8.7-11.19-8.92-4.64-.21-7.87,3.64-11.3,7.74-3.32,3.98-6.76,8.09-11.69,8.3-5.1.19-8.64-3.51-12.06-7.12-3.34-3.52-6.49-6.84-11-6.95-4.52-.12-7.64,3.06-10.97,6.41-3.43,3.46-6.97,7.04-12.09,6.53-4.9-.48-8.32-4.82-11.63-9.02-3.41-4.33-6.64-8.42-11.24-8.42-.03,0-.06,0-.1,0-4.54.05-7.72,4.31-11.1,8.82-3.38,4.52-6.88,9.19-11.94,9.19s-8.39-4.75-11.72-9.35c-3.42-4.73-6.65-9.2-11.25-8.66-4.58.53-7.94,6.06-11.19,11.41-3.35,5.51-6.81,11.21-11.82,11.94-.4.06-.79.09-1.18.09Z"/>
                <path class="cls-20" d="M91,399.76c-4.68,0-8.03-4.22-11.27-8.3-3.12-3.92-6.34-7.98-10.7-8.38-5.02-.45-8.62,2.74-12.43,6.12-3.14,2.79-6.38,5.67-10.48,6.26-6.4.9-11.47-2.2-15.17-4.46-1.46-.89-2.72-1.67-3.78-2.03l.33-.95c1.16.4,2.47,1.2,3.97,2.12,3.77,2.31,8.46,5.18,14.5,4.32,3.8-.54,6.79-3.2,9.95-6.01,3.8-3.38,7.73-6.87,13.19-6.37,4.79.44,8.15,4.67,11.39,8.76,3.49,4.39,6.77,8.54,11.52,7.85,4.54-.67,7.88-6.16,11.11-11.47,3.38-5.56,6.87-11.3,11.94-11.89,5.19-.61,8.74,4.32,12.18,9.07,3.18,4.39,6.46,8.93,10.9,8.93s7.75-4.27,11.14-8.79c3.37-4.5,6.85-9.16,11.89-9.22h.11c5.1,0,8.62,4.48,12.03,8.81,3.18,4.03,6.47,8.21,10.94,8.64,4.64.45,7.87-2.8,11.28-6.24,3.28-3.3,6.66-6.71,11.46-6.71.08,0,.17,0,.25,0,4.93.12,8.37,3.75,11.71,7.27,3.42,3.6,6.66,7,11.29,6.8,4.48-.19,7.78-4.13,10.96-7.94,3.43-4.11,6.98-8.34,12.12-8.1,5.06.25,8.55,4.86,11.94,9.32,3.22,4.25,6.55,8.64,11.1,8.97,4.6.33,7.83-3.33,11.23-7.22,3.32-3.79,6.75-7.7,11.65-7.7h.11c5.21.06,8.82,3.98,12.3,7.76,3.14,3.41,6.38,6.94,10.81,7.72,4.9.87,8.24-1.18,11.78-3.35,3.2-1.97,6.56-4,11.17-3.97,6.98.04,13.51,3.18,18.28,5.47,1.91.92,3.57,1.71,4.9,2.15l-.31.95c-1.4-.46-3.08-1.27-5.02-2.2-4.68-2.25-11.1-5.33-17.85-5.37-.03,0-.06,0-.09,0-4.32,0-7.48,1.94-10.55,3.82-3.54,2.17-7.2,4.42-12.48,3.48-4.76-.84-8.13-4.5-11.38-8.03-3.49-3.8-6.79-7.38-11.57-7.44-.03,0-.07,0-.1,0-4.45,0-7.58,3.57-10.9,7.36-3.42,3.9-6.94,7.94-12.06,7.56-5-.37-8.47-4.94-11.83-9.37-3.39-4.47-6.6-8.7-11.19-8.92-4.64-.21-7.87,3.64-11.3,7.74-3.32,3.98-6.76,8.09-11.69,8.3-5.1.21-8.64-3.51-12.06-7.12-3.34-3.52-6.49-6.84-11-6.95-4.51-.09-7.64,3.06-10.97,6.41-3.43,3.46-6.98,7.04-12.09,6.53-4.9-.48-8.32-4.82-11.63-9.02-3.41-4.33-6.64-8.42-11.24-8.42-.03,0-.06,0-.1,0-4.54.05-7.72,4.31-11.1,8.82-3.38,4.52-6.88,9.19-11.94,9.19s-8.39-4.75-11.72-9.35c-3.42-4.73-6.65-9.2-11.25-8.66-4.58.53-7.94,6.06-11.19,11.41-3.35,5.51-6.81,11.21-11.82,11.94-.4.06-.79.09-1.18.09Z"/>
                <path class="cls-20" d="M91,385.97c-4.68,0-8.03-4.22-11.27-8.3-3.12-3.92-6.34-7.98-10.7-8.38-5.02-.45-8.62,2.74-12.43,6.12-3.14,2.79-6.38,5.68-10.48,6.26-6.4.91-11.47-2.2-15.17-4.46-1.46-.89-2.72-1.67-3.78-2.03l.33-.95c1.16.4,2.47,1.2,3.98,2.12,3.77,2.31,8.46,5.19,14.5,4.32,3.8-.54,6.79-3.2,9.95-6.01,3.8-3.38,7.74-6.89,13.19-6.37,4.79.44,8.15,4.67,11.39,8.76,3.49,4.39,6.78,8.53,11.52,7.85,4.54-.67,7.88-6.16,11.11-11.47,3.38-5.56,6.87-11.3,11.94-11.89,5.18-.61,8.74,4.32,12.18,9.07,3.18,4.39,6.46,8.93,10.9,8.93s7.75-4.27,11.14-8.79c3.37-4.5,6.85-9.16,11.89-9.22h.11c5.1,0,8.62,4.48,12.03,8.81,3.18,4.03,6.47,8.21,10.94,8.64,4.65.45,7.87-2.8,11.28-6.24,3.33-3.36,6.81-6.83,11.71-6.71,4.93.12,8.38,3.75,11.71,7.27,3.42,3.6,6.65,6.99,11.29,6.81,4.48-.19,7.78-4.13,10.96-7.94,3.43-4.11,6.99-8.33,12.12-8.1,5.05.25,8.55,4.86,11.94,9.32,3.22,4.25,6.55,8.64,11.1,8.97,4.62.35,7.83-3.33,11.23-7.22,3.32-3.79,6.75-7.7,11.65-7.7h.11c5.21.06,8.81,3.98,12.3,7.76,3.14,3.41,6.38,6.94,10.81,7.72,4.9.87,8.24-1.18,11.78-3.35,3.18-1.95,6.47-3.97,11.07-3.97h.1c6.98.04,13.51,3.18,18.28,5.47,1.92.92,3.57,1.71,4.9,2.15l-.31.95c-1.4-.46-3.08-1.27-5.03-2.2-4.68-2.25-11.1-5.33-17.85-5.37-.03,0-.06,0-.09,0-4.32,0-7.48,1.94-10.55,3.82-3.54,2.17-7.2,4.42-12.48,3.49-4.77-.84-8.13-4.5-11.38-8.03-3.49-3.79-6.79-7.38-11.57-7.44-.03,0-.07,0-.1,0-4.45,0-7.58,3.57-10.9,7.36-3.42,3.9-6.94,7.93-12.06,7.56-5-.37-8.47-4.94-11.83-9.37-3.39-4.47-6.6-8.7-11.19-8.92-4.64-.21-7.87,3.64-11.3,7.74-3.32,3.98-6.76,8.09-11.69,8.3-5.12.22-8.64-3.51-12.06-7.12-3.34-3.52-6.49-6.84-11-6.95-4.52-.13-7.64,3.06-10.97,6.41-3.43,3.46-6.97,7.04-12.09,6.53-4.9-.48-8.32-4.82-11.63-9.02-3.41-4.33-6.64-8.42-11.24-8.42-.03,0-.06,0-.1,0-4.54.05-7.72,4.31-11.1,8.82-3.38,4.52-6.88,9.19-11.94,9.19s-8.39-4.75-11.72-9.35c-3.42-4.73-6.65-9.2-11.25-8.66-4.58.53-7.94,6.06-11.19,11.41-3.35,5.51-6.81,11.21-11.82,11.94-.4.06-.79.09-1.18.09Z"/>
                <path class="cls-20" d="M91,372.18c-4.68,0-8.03-4.22-11.27-8.3-3.12-3.92-6.34-7.98-10.7-8.38-5.02-.45-8.62,2.74-12.43,6.12-3.14,2.79-6.38,5.67-10.48,6.26-6.39.9-11.47-2.2-15.17-4.46-1.46-.89-2.72-1.67-3.78-2.03l.33-.95c1.16.4,2.47,1.2,3.98,2.12,3.77,2.31,8.46,5.18,14.5,4.32,3.8-.54,6.79-3.2,9.95-6.01,3.8-3.38,7.73-6.89,13.19-6.37,4.79.44,8.15,4.67,11.39,8.76,3.49,4.39,6.78,8.53,11.52,7.85,4.54-.67,7.88-6.16,11.11-11.47,3.38-5.56,6.87-11.3,11.94-11.89,5.19-.61,8.74,4.32,12.18,9.07,3.18,4.39,6.46,8.93,10.9,8.93s7.75-4.27,11.14-8.79c3.37-4.5,6.85-9.16,11.89-9.22h.11c5.1,0,8.62,4.48,12.03,8.81,3.18,4.03,6.47,8.21,10.94,8.64,4.65.45,7.87-2.8,11.28-6.24,3.28-3.3,6.66-6.71,11.46-6.71.08,0,.17,0,.25,0,4.93.12,8.38,3.75,11.71,7.27,3.42,3.6,6.65,6.99,11.29,6.81,4.48-.19,7.78-4.13,10.96-7.94,3.43-4.11,6.99-8.33,12.12-8.1,5.06.25,8.55,4.86,11.94,9.32,3.22,4.25,6.55,8.64,11.1,8.97,4.62.34,7.83-3.33,11.23-7.22,3.32-3.79,6.75-7.7,11.65-7.7h.11c5.21.06,8.82,3.98,12.3,7.76,3.14,3.41,6.38,6.94,10.81,7.72,4.9.87,8.24-1.18,11.78-3.35,3.18-1.95,6.47-3.97,11.07-3.97h.1c6.98.04,13.51,3.18,18.28,5.47,1.92.92,3.57,1.71,4.9,2.15l-.31.95c-1.4-.46-3.08-1.27-5.03-2.2-4.68-2.25-11.1-5.33-17.85-5.37-.03,0-.06,0-.09,0-4.32,0-7.48,1.94-10.55,3.82-3.54,2.17-7.2,4.42-12.48,3.49-4.77-.84-8.13-4.5-11.38-8.03-3.49-3.79-6.79-7.38-11.57-7.44-.03,0-.07,0-.1,0-4.45,0-7.58,3.57-10.9,7.36-3.42,3.9-6.94,7.93-12.06,7.56-5-.37-8.47-4.94-11.83-9.37-3.39-4.47-6.6-8.7-11.19-8.92-4.64-.21-7.87,3.64-11.3,7.74-3.32,3.98-6.76,8.09-11.69,8.3-5.1.21-8.64-3.51-12.06-7.12-3.34-3.52-6.49-6.84-11-6.95-.08,0-.15,0-.23,0-4.38,0-7.47,3.12-10.75,6.42-3.43,3.46-6.98,7.03-12.09,6.53-4.9-.48-8.32-4.82-11.63-9.02-3.41-4.33-6.64-8.42-11.24-8.42-.03,0-.06,0-.1,0-4.54.05-7.72,4.31-11.1,8.82-3.38,4.52-6.88,9.19-11.94,9.19s-8.39-4.75-11.72-9.35c-3.42-4.73-6.65-9.2-11.25-8.66-4.58.53-7.94,6.06-11.19,11.41-3.35,5.51-6.81,11.21-11.82,11.94-.4.06-.79.09-1.18.09Z"/>
                <path class="cls-20" d="M91,358.39c-4.68,0-8.03-4.22-11.27-8.3-3.12-3.92-6.34-7.98-10.7-8.38-5.02-.45-8.62,2.74-12.43,6.12-3.14,2.79-6.38,5.68-10.48,6.26-6.4.91-11.47-2.2-15.17-4.46-1.46-.89-2.72-1.67-3.78-2.03l.33-.95c1.16.4,2.47,1.2,3.97,2.12,3.77,2.31,8.46,5.19,14.5,4.32,3.8-.54,6.79-3.2,9.95-6.01,3.8-3.38,7.74-6.88,13.19-6.37,4.79.44,8.15,4.67,11.39,8.76,3.49,4.39,6.77,8.54,11.52,7.85,4.54-.67,7.88-6.16,11.11-11.47,3.38-5.56,6.87-11.3,11.94-11.89,5.19-.61,8.74,4.32,12.18,9.07,3.18,4.39,6.46,8.93,10.9,8.93s7.75-4.27,11.14-8.79c3.37-4.5,6.85-9.16,11.89-9.22h.11c5.1,0,8.62,4.48,12.03,8.81,3.18,4.03,6.47,8.21,10.94,8.64,4.64.45,7.87-2.8,11.28-6.24,3.33-3.36,6.82-6.83,11.71-6.71,4.93.12,8.37,3.75,11.71,7.27,3.42,3.6,6.66,7.02,11.29,6.8,4.48-.19,7.78-4.13,10.96-7.94,3.43-4.11,6.98-8.34,12.12-8.1,5.06.25,8.55,4.86,11.94,9.32,3.22,4.25,6.55,8.64,11.1,8.97,4.6.33,7.83-3.33,11.23-7.22,3.32-3.79,6.75-7.7,11.65-7.7h.11c5.21.06,8.82,3.98,12.3,7.76,3.14,3.41,6.38,6.94,10.81,7.72,4.9.87,8.24-1.18,11.78-3.35,3.18-1.95,6.47-3.97,11.07-3.97h.1c6.98.04,13.51,3.18,18.28,5.47,1.92.92,3.57,1.71,4.9,2.15l-.31.95c-1.4-.46-3.08-1.27-5.02-2.2-4.68-2.25-11.1-5.33-17.85-5.37-.03,0-.06,0-.09,0-4.32,0-7.48,1.94-10.55,3.82-3.54,2.17-7.2,4.42-12.48,3.48-4.77-.84-8.13-4.5-11.38-8.03-3.49-3.8-6.79-7.38-11.57-7.44-.03,0-.07,0-.1,0-4.45,0-7.58,3.57-10.9,7.36-3.42,3.9-6.96,7.93-12.06,7.55-5-.37-8.47-4.94-11.83-9.37-3.39-4.47-6.6-8.7-11.19-8.92-4.64-.21-7.87,3.64-11.3,7.74-3.32,3.98-6.76,8.09-11.69,8.3-5.1.21-8.64-3.51-12.06-7.12-3.34-3.52-6.49-6.84-11-6.95-4.51-.14-7.64,3.06-10.97,6.41-3.43,3.46-6.98,7.04-12.09,6.53-4.9-.48-8.32-4.82-11.63-9.02-3.41-4.33-6.64-8.42-11.24-8.42-.03,0-.06,0-.1,0-4.54.05-7.72,4.31-11.1,8.82-3.38,4.52-6.88,9.19-11.94,9.19s-8.39-4.75-11.72-9.35c-3.42-4.73-6.65-9.2-11.25-8.66-4.58.53-7.94,6.06-11.19,11.41-3.35,5.51-6.81,11.21-11.82,11.94-.4.06-.79.09-1.18.09Z"/>
                <path class="cls-20" d="M91,344.61c-4.68,0-8.03-4.22-11.27-8.3-3.12-3.92-6.34-7.98-10.7-8.38-5.02-.45-8.62,2.74-12.43,6.12-3.14,2.79-6.38,5.68-10.48,6.26-6.4.91-11.47-2.2-15.17-4.46-1.46-.89-2.72-1.67-3.78-2.03l.33-.95c1.16.4,2.47,1.2,3.98,2.12,3.77,2.31,8.46,5.19,14.5,4.32,3.8-.54,6.79-3.2,9.95-6.01,3.8-3.38,7.74-6.88,13.19-6.37,4.79.44,8.15,4.67,11.39,8.76,3.49,4.39,6.78,8.53,11.52,7.85,4.54-.67,7.88-6.16,11.11-11.47,3.38-5.56,6.87-11.3,11.94-11.89,5.18-.61,8.74,4.32,12.18,9.07,3.18,4.39,6.46,8.93,10.9,8.93s7.75-4.27,11.14-8.79c3.37-4.5,6.85-9.16,11.89-9.22,5.12-.05,8.71,4.45,12.14,8.81,3.18,4.03,6.47,8.21,10.94,8.64,4.65.46,7.87-2.8,11.28-6.24,3.33-3.36,6.81-6.82,11.71-6.71,4.93.12,8.38,3.75,11.71,7.27,3.42,3.6,6.65,6.99,11.29,6.81,4.48-.19,7.78-4.13,10.96-7.94,3.43-4.11,6.99-8.33,12.12-8.1,5.05.25,8.55,4.86,11.94,9.32,3.22,4.25,6.55,8.64,11.1,8.97,4.62.34,7.83-3.33,11.23-7.22,3.32-3.79,6.75-7.7,11.65-7.7h.11c5.21.06,8.82,3.98,12.3,7.76,3.14,3.41,6.38,6.94,10.81,7.72,4.9.87,8.24-1.18,11.78-3.35,3.2-1.97,6.49-4,11.17-3.97,6.98.04,13.51,3.18,18.28,5.47,1.92.92,3.57,1.71,4.9,2.15l-.31.95c-1.4-.46-3.08-1.27-5.03-2.2-4.68-2.25-11.1-5.33-17.85-5.37-.03,0-.06,0-.09,0-4.32,0-7.48,1.94-10.55,3.82-3.54,2.17-7.2,4.42-12.48,3.49-4.77-.84-8.13-4.5-11.38-8.03-3.49-3.79-6.79-7.38-11.57-7.44-.03,0-.07,0-.1,0-4.45,0-7.58,3.57-10.9,7.36-3.42,3.9-6.94,7.93-12.06,7.56-5-.37-8.47-4.94-11.83-9.37-3.39-4.47-6.6-8.7-11.19-8.92-4.64-.21-7.87,3.64-11.3,7.74-3.32,3.98-6.76,8.09-11.69,8.3-5.1.21-8.64-3.51-12.06-7.12-3.34-3.52-6.49-6.84-11-6.95-4.52-.12-7.64,3.06-10.97,6.41-3.43,3.46-6.97,7.04-12.09,6.53-4.9-.48-8.32-4.82-11.63-9.02-3.41-4.33-6.64-8.42-11.24-8.42-.03,0-.06,0-.1,0-4.54.05-7.72,4.31-11.1,8.82-3.38,4.52-6.88,9.19-11.94,9.19s-8.39-4.75-11.72-9.35c-3.42-4.73-6.65-9.19-11.25-8.66-4.58.53-7.94,6.06-11.19,11.41-3.35,5.51-6.81,11.21-11.82,11.94-.4.06-.79.09-1.18.09Z"/>
                <path class="cls-20" d="M91,330.82c-4.68,0-8.03-4.22-11.27-8.3-3.12-3.92-6.34-7.98-10.7-8.38-5.02-.45-8.62,2.74-12.43,6.12-3.14,2.79-6.38,5.67-10.48,6.26-6.39.9-11.47-2.2-15.17-4.46-1.46-.89-2.72-1.67-3.78-2.03l.33-.95c1.16.4,2.47,1.2,3.98,2.12,3.77,2.31,8.46,5.18,14.5,4.32,3.8-.54,6.79-3.2,9.95-6.01,3.8-3.38,7.73-6.88,13.19-6.37,4.79.44,8.15,4.67,11.39,8.76,3.49,4.39,6.78,8.53,11.52,7.85,4.54-.67,7.88-6.16,11.11-11.47,3.38-5.56,6.87-11.3,11.94-11.89,5.19-.61,8.74,4.32,12.18,9.07,3.18,4.39,6.46,8.93,10.9,8.93s7.75-4.27,11.14-8.79c3.37-4.5,6.85-9.16,11.89-9.22,5.12-.04,8.71,4.45,12.14,8.81,3.18,4.03,6.47,8.21,10.94,8.64,4.65.45,7.87-2.79,11.28-6.24,3.28-3.3,6.66-6.71,11.46-6.71.08,0,.17,0,.25,0,4.93.12,8.37,3.75,11.71,7.27,3.42,3.6,6.66,6.99,11.29,6.8,4.48-.19,7.78-4.13,10.96-7.94,3.43-4.11,6.99-8.33,12.12-8.1,5.06.25,8.55,4.86,11.94,9.32,3.22,4.25,6.55,8.64,11.1,8.97,4.62.34,7.83-3.33,11.23-7.22,3.32-3.79,6.75-7.7,11.65-7.7h.11c5.21.06,8.82,3.98,12.3,7.76,3.14,3.41,6.38,6.94,10.81,7.72,4.9.87,8.24-1.18,11.78-3.35,3.2-1.97,6.49-4.03,11.17-3.97,6.98.04,13.51,3.18,18.28,5.47,1.92.92,3.57,1.71,4.9,2.15l-.31.95c-1.4-.46-3.08-1.27-5.03-2.2-4.68-2.25-11.1-5.33-17.85-5.37-.03,0-.06,0-.09,0-4.32,0-7.48,1.94-10.55,3.82-3.54,2.17-7.2,4.42-12.48,3.49-4.77-.84-8.13-4.5-11.38-8.03-3.49-3.79-6.79-7.38-11.57-7.44-.03,0-.07,0-.1,0-4.45,0-7.58,3.57-10.9,7.36-3.42,3.9-6.94,7.93-12.06,7.56-5-.37-8.47-4.94-11.83-9.37-3.39-4.47-6.6-8.7-11.19-8.92-4.64-.22-7.87,3.64-11.3,7.74-3.32,3.98-6.76,8.09-11.69,8.3-5.1.21-8.64-3.51-12.06-7.12-3.34-3.52-6.49-6.84-11-6.95-.08,0-.15,0-.23,0-4.38,0-7.47,3.12-10.75,6.42-3.43,3.46-6.98,7.03-12.09,6.53-4.9-.48-8.32-4.82-11.63-9.02-3.41-4.33-6.64-8.42-11.24-8.42-.03,0-.06,0-.1,0-4.54.05-7.72,4.31-11.1,8.82-3.38,4.52-6.88,9.19-11.94,9.19s-8.39-4.75-11.72-9.35c-3.42-4.73-6.65-9.2-11.25-8.66-4.58.53-7.94,6.06-11.19,11.41-3.35,5.51-6.81,11.21-11.82,11.94-.4.06-.79.09-1.18.09Z"/>
                <path class="cls-20" d="M91,317.03c-4.68,0-8.03-4.22-11.27-8.3-3.12-3.92-6.34-7.98-10.7-8.38-5.02-.45-8.62,2.74-12.43,6.12-3.14,2.79-6.38,5.68-10.48,6.26-6.4.91-11.47-2.2-15.17-4.46-1.46-.89-2.72-1.67-3.78-2.03l.33-.95c1.16.4,2.47,1.2,3.97,2.12,3.77,2.31,8.46,5.19,14.5,4.32,3.8-.54,6.79-3.2,9.95-6.01,3.8-3.38,7.74-6.88,13.19-6.37,4.79.44,8.15,4.67,11.39,8.76,3.49,4.39,6.77,8.54,11.52,7.85,4.54-.67,7.88-6.16,11.11-11.47,3.38-5.56,6.87-11.3,11.94-11.89,5.18-.61,8.74,4.32,12.18,9.07,3.18,4.39,6.46,8.93,10.9,8.93s7.75-4.27,11.14-8.79c3.37-4.5,6.85-9.16,11.89-9.22,5.12-.04,8.71,4.45,12.14,8.81,3.18,4.03,6.47,8.21,10.94,8.64,4.63.44,7.87-2.8,11.28-6.24,3.33-3.36,6.81-6.81,11.71-6.71,4.93.12,8.37,3.75,11.71,7.27,3.42,3.6,6.66,7.03,11.29,6.8,4.48-.19,7.78-4.13,10.96-7.94,3.43-4.11,6.99-8.34,12.12-8.1,5.05.25,8.55,4.86,11.94,9.32,3.22,4.25,6.55,8.64,11.1,8.97,4.6.34,7.83-3.33,11.23-7.22,3.32-3.79,6.75-7.7,11.65-7.7h.11c5.21.06,8.81,3.98,12.3,7.76,3.14,3.41,6.38,6.94,10.81,7.72,4.9.87,8.24-1.18,11.78-3.35,3.18-1.95,6.47-3.97,11.07-3.97h.1c6.98.04,13.51,3.18,18.28,5.47,1.92.92,3.57,1.71,4.9,2.15l-.31.95c-1.4-.46-3.08-1.27-5.02-2.2-4.68-2.25-11.1-5.33-17.85-5.37-.03,0-.06,0-.09,0-4.32,0-7.48,1.94-10.55,3.82-3.54,2.17-7.2,4.42-12.48,3.48-4.77-.84-8.13-4.5-11.38-8.03-3.49-3.8-6.79-7.38-11.57-7.44-4.47-.09-7.66,3.55-11,7.36-3.42,3.9-6.96,7.94-12.06,7.55-5-.37-8.47-4.94-11.83-9.37-3.39-4.47-6.6-8.7-11.19-8.92-4.64-.22-7.87,3.64-11.3,7.74-3.32,3.98-6.76,8.09-11.69,8.3-5.1.21-8.64-3.51-12.06-7.12-3.34-3.52-6.49-6.84-11-6.95-4.52-.13-7.64,3.06-10.97,6.41-3.43,3.46-6.97,7.04-12.09,6.53-4.9-.48-8.33-4.82-11.63-9.02-3.41-4.33-6.64-8.42-11.24-8.42-.03,0-.06,0-.09,0-4.54.05-7.72,4.31-11.09,8.82-3.38,4.52-6.88,9.19-11.94,9.19s-8.39-4.75-11.72-9.35c-3.42-4.73-6.65-9.19-11.25-8.66-4.58.53-7.94,6.06-11.19,11.41-3.35,5.51-6.81,11.21-11.82,11.94-.4.06-.79.09-1.18.09Z"/>
                <path class="cls-20" d="M91,303.24c-4.68,0-8.03-4.22-11.27-8.3-3.12-3.92-6.34-7.98-10.7-8.38-5.02-.47-8.62,2.74-12.43,6.12-3.14,2.79-6.38,5.68-10.48,6.26-6.4.91-11.47-2.2-15.17-4.46-1.46-.89-2.72-1.67-3.78-2.03l.33-.95c1.16.4,2.47,1.2,3.98,2.12,3.77,2.31,8.46,5.19,14.5,4.32,3.8-.54,6.79-3.2,9.95-6.01,3.8-3.38,7.74-6.87,13.19-6.37,4.79.44,8.15,4.67,11.39,8.76,3.49,4.39,6.78,8.53,11.52,7.85,4.54-.67,7.88-6.16,11.11-11.47,3.38-5.56,6.87-11.3,11.94-11.89,5.19-.61,8.74,4.32,12.18,9.07,3.18,4.39,6.46,8.93,10.9,8.93s7.75-4.27,11.14-8.79c3.37-4.5,6.85-9.16,11.89-9.22h.11c5.1,0,8.62,4.48,12.03,8.81,3.18,4.03,6.47,8.21,10.94,8.64,4.64.44,7.87-2.8,11.28-6.24,3.28-3.3,6.66-6.71,11.46-6.71.08,0,.17,0,.25,0,4.93.12,8.38,3.75,11.71,7.26,3.42,3.6,6.65,6.99,11.29,6.81,4.48-.19,7.78-4.13,10.96-7.94,3.43-4.11,6.99-8.34,12.12-8.1,5.06.25,8.55,4.86,11.94,9.32,3.22,4.25,6.55,8.64,11.1,8.97,4.6.33,7.83-3.33,11.23-7.22,3.32-3.79,6.75-7.7,11.65-7.7h.11c5.21.06,8.82,3.98,12.3,7.76,3.14,3.41,6.38,6.94,10.81,7.72,4.9.87,8.24-1.18,11.78-3.35,3.18-1.95,6.47-3.97,11.07-3.97h.1c6.98.04,13.51,3.18,18.28,5.47,1.92.92,3.57,1.71,4.9,2.15l-.31.95c-1.4-.46-3.08-1.27-5.03-2.2-4.68-2.25-11.1-5.33-17.85-5.37-.03,0-.06,0-.09,0-4.32,0-7.48,1.94-10.55,3.82-3.54,2.17-7.2,4.42-12.48,3.48-4.77-.84-8.13-4.5-11.38-8.03-3.49-3.79-6.79-7.38-11.57-7.44-.03,0-.07,0-.1,0-4.45,0-7.58,3.57-10.9,7.36-3.42,3.9-6.94,7.93-12.06,7.56-5-.37-8.47-4.94-11.83-9.37-3.39-4.47-6.6-8.7-11.19-8.92-4.64-.21-7.87,3.64-11.3,7.74-3.32,3.98-6.76,8.09-11.69,8.3-5.09.21-8.64-3.51-12.06-7.12-3.34-3.52-6.49-6.84-11-6.95-.08,0-.15,0-.23,0-4.38,0-7.47,3.12-10.75,6.42-3.43,3.46-6.98,7.03-12.09,6.53-4.9-.48-8.32-4.82-11.63-9.02-3.41-4.33-6.64-8.42-11.24-8.42-.03,0-.06,0-.1,0-4.54.05-7.72,4.31-11.1,8.82-3.38,4.52-6.88,9.19-11.94,9.19s-8.39-4.75-11.72-9.35c-3.42-4.73-6.65-9.2-11.25-8.66-4.58.53-7.94,6.06-11.19,11.41-3.35,5.51-6.81,11.21-11.82,11.94-.4.06-.79.09-1.18.09Z"/>
              </g>
            </g>
            <path class="cls-18" d="M116.27,439.6c.5.47,1.17,1.03,2.04,1.77,1.56,1.32,3.88,3.23,6.89,5.69v24.35c-3.27,3.01-6.36,5.76-9.19,8.19l-1.76,1.51,1.74,1.53,9.2,8.07v33.08c-2.96,2.64-5.14,4.59-6.64,5.96-.8.73-1.42,1.28-1.88,1.74h-46.05v-91.89h45.65M86.2,474.3h23.43v-21.53h-23.43v21.53M86.2,518h23.43v-30.21h-23.43v30.21M117.14,437.59h-48.52v95.91h48.89c-.12,0,3.11-2.93,9.71-8.8v-34.9l-9.89-8.68c3.05-2.62,6.35-5.57,9.89-8.84v-26.19c-6.96-5.67-10.32-8.51-10.07-8.51h0ZM88.21,472.29v-17.51h19.41v17.51h-19.41ZM88.21,515.99v-26.19h19.41v26.19h-19.41Z"/>
            <path class="cls-18" d="M149.74,439.6v78.4h39.37v13.49h-54.94v-91.89h15.57M151.75,437.59h-19.59v95.91h58.96v-17.51h-39.37v-78.4h0Z"/>
            <path class="cls-18" d="M250.34,439.6v84.31l-8.98,7.58h-36.97l-8.99-7.73v-84.16h15.57v78.4h23.79v-78.4h15.57M252.35,437.59h-19.59v78.4h-19.77v-78.4h-19.59v87.09l10.25,8.82h38.45l10.25-8.66v-87.25h0Z"/>
            <path class="cls-18" d="M314.02,439.6v13.49h-39v21.21h19.59v13.49h-19.59v30.21h39v13.49h-45.96l-1.14-1.02-7.47-6.69v-76.63c5.73-5.12,7.86-6.94,8.64-7.55h45.93M316.03,437.59h-48.56c-.25,0-3.59,2.89-10.04,8.66v78.43c4.26,3.81,7.54,6.75,9.86,8.82h48.74v-17.51h-39v-26.19h19.59v-17.51h-19.59v-17.19h39v-17.51h0Z"/>
          </g>
        </g>
      </g>
    </g>
  </g>
</svg>