<?xml version="1.0" encoding="UTF-8"?>
<svg xmlns="http://www.w3.org/2000/svg" xmlns:xlink="http://www.w3.org/1999/xlink" viewBox="0 0 822.02 146.17">
  <defs>
    <style>
      .cls-1 {
        fill: none;
      }

      .cls-2 {
        fill: #480000;
      }

      .cls-3 {
        fill: #001f7e;
      }

      .cls-4 {
        fill: #777;
      }

      .cls-5 {
        fill: url(#linear-gradient-8);
      }

      .cls-6 {
        fill: url(#linear-gradient-7);
      }

      .cls-7 {
        fill: url(#linear-gradient-5);
      }

      .cls-8 {
        fill: url(#linear-gradient-6);
      }

      .cls-9 {
        fill: url(#linear-gradient-4);
      }

      .cls-10 {
        fill: url(#linear-gradient-3);
      }

      .cls-11 {
        fill: url(#linear-gradient-2);
      }

      .cls-12 {
        fill: #0061ee;
      }

      .cls-13 {
        fill: #001f7d;
      }

      .cls-14 {
        fill: url(#linear-gradient);
      }

      .cls-15 {
        isolation: isolate;
      }

      .cls-16 {
        fill: #8cc4ed;
      }

      .cls-17 {
        clip-path: url(#clippath-1);
      }

      .cls-18 {
        fill: #fff;
      }

      .cls-19 {
        fill: #44a0e3;
      }

      .cls-20 {
        fill: #0091ff;
      }

      .cls-21 {
        fill: #e06c7c;
      }

      .cls-22 {
        fill: #b3b3b3;
      }

      .cls-23 {
        fill: #cf0c27;
      }

      .cls-24 {
        fill: #840000;
      }

      .cls-25 {
        fill: #68b2e8;
      }

      .cls-26 {
        fill: #ce0c27;
      }

      .cls-27 {
        fill: #9f0a27;
      }

      .cls-28 {
        fill: #357fb0;
      }

      .cls-29 {
        fill: #fdfdfd;
      }
    </style>
    <linearGradient id="linear-gradient" x1="56.96" y1="119.79" x2="56.96" y2="15.49" gradientUnits="userSpaceOnUse">
      <stop offset="0" stop-color="#a2bdd3"/>
      <stop offset="1" stop-color="#fff"/>
    </linearGradient>
    <linearGradient id="linear-gradient-2" x1="147.42" x2="147.42" xlink:href="#linear-gradient"/>
    <linearGradient id="linear-gradient-3" x1="237.87" x2="237.87" xlink:href="#linear-gradient"/>
    <linearGradient id="linear-gradient-4" x1="327.83" x2="327.83" xlink:href="#linear-gradient"/>
    <linearGradient id="linear-gradient-5" x1="553.05" y1="124.07" x2="553.05" y2="10.28" gradientUnits="userSpaceOnUse">
      <stop offset="0" stop-color="#2849e7"/>
      <stop offset="1" stop-color="#0091ff"/>
    </linearGradient>
    <linearGradient id="linear-gradient-6" x1="628.65" x2="628.65" xlink:href="#linear-gradient-5"/>
    <linearGradient id="linear-gradient-7" x1="701.29" x2="701.29" xlink:href="#linear-gradient-5"/>
    <linearGradient id="linear-gradient-8" x1="777.05" x2="777.05" xlink:href="#linear-gradient-5"/>
    <clipPath id="clippath-1">
      <path class="cls-1" d="M575.86,10.28h-57.56v113.78h58c-.14,0,3.69-3.48,11.51-10.44v-41.4l-11.73-10.29c3.62-3.11,7.53-6.6,11.73-10.48v-31.07c-8.25-6.73-12.24-10.1-11.95-10.1ZM564.56,30.67v20.78h-23.02v-20.78h23.02ZM564.56,72.22v31.06h-23.02v-31.06h23.02ZM616.92,103.29h46.7v20.78h-69.94V10.28h23.24v93ZM713.02,10.28h23.24v103.51l-12.16,10.27h-45.62l-12.16-10.47V10.28h23.24v93h23.46V10.28ZM765.54,31.06v20.39h23.24v20.78h-23.24v31.06h46.27v20.78h-57.82c-2.74-2.45-6.64-5.94-11.69-10.47V20.56c7.65-6.85,11.62-10.27,11.91-10.27h57.6v20.78h-46.27Z"/>
    </clipPath>
  </defs>
  <g class="cls-15">
    <g id="Layer_1" data-name="Layer 1">
      <g>
        <g>
          <path class="cls-3" d="M297.5,141.19l-14.5-10c-4.06,2.96-7.71,5.55-10.88,7.71l-3.35,2.29h-61.11l-7.7-5.3v5.3h-51.35v-47.49h-2.04v47.49h-51.35v-5.36l-7.92,5.36H26.57l-22.02-15.18V4.55h51.38v85.26h2.05V4.55h51.38v.08h37.19v37.71h2.04V4.64h51.35v4.96l7.21-4.96h57.09c4.53,0,7.08,1.76,11.31,4.67,1.8,1.24,4.28,2.98,7.39,5.19l14.3-9.85h61.23l21.75,15.01v106.58l-22.06,14.96h-60.68Z"/>
          <path class="cls-3" d="M104.81,9.11v.08h37.19v37.71h11.15V9.19h42.24v9.06l10.99-7.55,2.19-1.51h55.68c3.12,0,4.76,1.13,8.73,3.86,2.27,1.56,5.61,3.92,9.92,6.99l13.57-9.35,2.19-1.51h58.4l2.19,1.51,13.66,9.43,2.76,1.91v101.78l-2.82,1.91-13.91,9.43-2.18,1.48h-57.86l-2.19-1.51-13.81-9.52c-5.07,3.73-9.57,6.94-13.37,9.54l-2.19,1.49h-58.29l-2.19-1.51-11.48-7.9v9.41h-42.24v-47.49h-11.15v47.49h-42.24v-9.39l-11.69,7.91-2.18,1.48H27.99l-2.19-1.51-13.92-9.59-2.77-1.91V9.11h42.27v85.26h11.16V9.11h42.27M70.38,19.58h0v-4.1h0v4.1M187.43,19.67h.13v-4.1h-.13v4.1M134,19.67h.17v-4.1h-.17v4.1M277.95,27.01v-2.01s-.05-.03-.07-.05v2.02s.05.03.07.05M367.85,27.11v-2.12h0s0,2.11,0,2.11h0M277.95,64.75v-2.05c-.94-.67-1.89-1.33-2.84-2.01h0c.93.66,1.86,1.31,2.78,1.96v2.05s.05.03.07.05M187.56,74.37v-2.06l-.11-.08-.04.03h.01v2.02l.13.09M195.4,84.96h6.69c-2.47-1.63-4.45-2.98-5.99-4.09-.24-.17-.47-.34-.71-.51v4.61M322.29,94.39h11.15v-5.42h-11.15v5.42M232.4,94.39h11.15v-5.24h-11.15v5.24M224.45,95.44h.11v-4.1h-.11v4.1M113.92,0H0v128.41l3.94,2.72,2.77,1.91,13.92,9.59,2.19,1.51,2.33,1.61h63.53l1.97-1.33v1.33h113.85v-1.19l1.73,1.19h63.93l2.32-1.59,2.19-1.49c2.51-1.72,5.32-3.69,8.38-5.9l8.49,5.86,2.19,1.51,2.33,1.61h63.49l2.31-1.57,2.18-1.48,13.91-9.43,2.82-1.91,4-2.71V17.26l-3.93-2.72-2.76-1.91-13.66-9.43-2.19-1.51-2.34-1.61h-64.07l-2.33,1.61-2.19,1.51-8.32,5.73c-1.94-1.37-3.55-2.5-4.84-3.38-4.44-3.06-7.95-5.47-13.9-5.47h-58.51l-1.24.85V.08h-90.59v-.08h0Z"/>
        </g>
        <path class="cls-27" d="M372.92,30.61l-13.66-9.43-2.19-1.51h-58.4l-2.19,1.51-13.57,9.35c-4.32-3.08-7.66-5.43-9.92-6.99-3.97-2.73-5.62-3.86-8.73-3.86h-55.68l-2.19,1.51-10.99,7.55v-9.06h-42.24v37.71h-11.15V19.67h-37.19v-.08h-42.27v85.26h-11.16V19.58H9.11v104.04l2.77,1.91,13.92,9.59,2.19,1.51h57.9l2.18-1.48,11.69-7.91v9.39h42.24v-47.49h11.15v47.49h42.24v-9.41l11.48,7.9,2.19,1.51h58.29l2.19-1.49c3.81-2.6,8.31-5.81,13.37-9.54l13.81,9.52,2.19,1.51h57.86l2.18-1.48,13.91-9.43,2.82-1.91V32.52l-2.76-1.91ZM327.87,88.97h5.57v15.89h-11.15v-15.89h5.57ZM322.29,57.2v-5.75h11.15v5.75h-11.15ZM280.05,66.22c-2.61-1.83-5.26-3.68-7.94-5.52h7.94v5.52ZM232.4,57.38v-5.93h11.15v5.93h-11.15ZM190.15,70.37v2.8c0,1.7.76,3.09,1.88,4.33l-6.07-4.25,4.19-2.88ZM195.4,82.78v-2.42c.24.17.47.34.71.51,2.35,1.7,5.72,3.96,10.31,6.91l2.14,1.37h34.99v15.71h-11.15v-9.43h-37v-12.66Z"/>
        <path class="cls-23" d="M96.97,15.49v94.88l-13.92,9.42H30.87l-13.92-9.59V15.49h26.59v85.26h26.84V15.49h26.59M104.81,9.11h-42.27v85.26h-11.16V9.11H9.11v104.04l2.77,1.91,13.92,9.59,2.19,1.51h57.9l2.18-1.48,13.92-9.42,2.83-1.91V9.11h0Z"/>
        <path class="cls-14" d="M96.97,110.37l-13.92,9.42H30.87l-13.92-9.59V15.49h26.59v85.26h26.84V15.49h26.59v94.88Z"/>
        <path class="cls-18" d="M83.47,121.15H30.44l-14.86-10.24V14.12h29.32v85.26h24.11V14.12h29.32v96.97l-14.86,10.06ZM31.29,118.42h51.34l12.97-8.78V16.85h-23.86v85.26h-29.57V16.85h-23.86v92.62l12.97,8.94Z"/>
        <path class="cls-23" d="M187.56,15.56v37.77l-13.66,9.4,13.66,9.57v47.49h-26.57v-47.49h-26.82v47.49h-26.57V15.56h26.57v37.71h26.82V15.56h26.57M195.4,9.19h-42.24v37.71h-11.15V9.19h-42.24v116.97h42.24v-47.49h11.15v47.49h42.24v-56.78l-2.72-1.91-6.71-4.7,6.65-4.58,2.77-1.91V9.19h0Z"/>
        <path class="cls-11" d="M187.43,119.79h-26.59v-47.52h-26.84v47.52h-26.59V15.49h26.59v37.73h26.84V15.49h26.59v37.79l-13.67,9.41,13.67,9.58v47.52Z"/>
        <path class="cls-18" d="M188.79,121.15h-29.32v-47.52h-24.11v47.52h-29.32V14.12h29.32v37.73h24.11V14.12h29.32v39.88l-12.64,8.7,12.64,8.86v49.6ZM162.2,118.42h23.86v-45.44l-14.7-10.3,14.7-10.11V16.85h-23.86v37.73h-29.57V16.85h-23.86v101.57h23.86v-47.52h29.57v47.52Z"/>
        <path class="cls-23" d="M264.25,15.56c.33,0,4.9,3.14,13.7,9.43v18.85h-26.57v-9.25h-26.82v18.68h39.86c4.68,3.2,9.19,6.34,13.54,9.43v47.49c-5.15,3.79-9.63,7-13.45,9.6h-52.56l-13.95-9.6v-18.85h26.57v9.43h26.82v-28.46h-40.11c-8.86-5.69-13.29-8.89-13.29-9.61V24.81l13.45-9.25h52.81M264.25,9.19h-55.68l-2.19,1.51-13.45,9.25-2.78,1.91v40.84c0,3.39,3.02,5.58,5.95,7.7,2.35,1.7,5.72,3.96,10.31,6.91l2.14,1.37h34.99v15.71h-11.15v-9.43h-42.24v28.18l2.77,1.91,13.95,9.6,2.19,1.51h58.29l2.19-1.49c3.88-2.65,8.48-5.94,13.67-9.76l2.57-1.9v-53.21l-2.69-1.9c-3.58-2.54-7.26-5.11-10.99-7.68h13.68v-28.11l-2.67-1.9c-4.42-3.16-7.83-5.56-10.14-7.15-3.97-2.73-5.62-3.86-8.73-3.86h0ZM232.4,40.97h11.15v5.93h-11.15v-5.93h0Z"/>
        <path class="cls-10" d="M277.88,43.79h-26.59v-9.26h-26.84v18.69h39.88c4.68,3.2,9.19,6.35,13.54,9.43v47.52c-5.15,3.8-9.64,7-13.46,9.61h-52.6l-13.96-9.61v-18.87h26.59v9.43h26.84v-28.48h-40.13c-8.86-5.7-13.3-8.9-13.3-9.61V24.74l13.46-9.26h52.85c.33,0,4.9,3.15,13.71,9.43v18.87Z"/>
        <path class="cls-18" d="M264.84,121.15h-53.44l-14.9-10.26v-20.95h29.32v9.43h24.11v-25.74h-39.17l-.34-.22c-13.92-8.95-13.92-9.75-13.92-10.76V24.02l14.4-9.9h53.27c.62,0,.93,0,14.51,9.69l.57.41v20.94h-29.32v-9.26h-24.11v15.96h38.94l.35.24c4.6,3.15,9.16,6.32,13.56,9.44l.58.41v48.92l-.56.41c-5.14,3.79-9.69,7.03-13.5,9.64l-.35.24ZM212.25,118.42h51.75c3.58-2.45,7.79-5.45,12.52-8.93v-46.13c-4.1-2.9-8.34-5.85-12.6-8.77h-40.83v-21.42h29.57v9.26h23.86v-16.8c-9.24-6.59-11.92-8.36-12.64-8.77h-52.13l-12.52,8.61v36.83c.58.62,2.95,2.57,12.33,8.61h41.1v31.21h-29.57v-9.43h-23.86v16.78l13.02,8.96ZM199.1,62.13"/>
        <path class="cls-23" d="M354.19,15.56l13.66,9.43v18.85h-26.57v-9.25h-26.82v66.16h26.82v-28.63h-13.41v-19.03h39.98v57.27l-13.91,9.43h-52.15l-13.91-9.59V24.98l13.66-9.41h52.65M357.07,9.19h-58.4l-2.19,1.51-13.66,9.41-2.77,1.91v91.13l2.77,1.91,13.91,9.59,2.19,1.51h57.86l2.18-1.48,13.91-9.43,2.82-1.91V22.04l-2.76-1.91-13.66-9.43-2.19-1.51h0ZM322.29,40.97h11.15v5.75h-11.15v-5.75h0ZM322.29,78.5h11.15v15.89h-11.15v-15.89h0Z"/>
        <path class="cls-9" d="M367.84,43.79h-26.59v-9.26h-26.84v66.21h26.84v-28.66h-13.42v-19.04h40.01v57.31l-13.92,9.43h-52.19l-13.92-9.59V24.9l13.67-9.42h52.68l13.67,9.43v18.87Z"/>
        <path class="cls-18" d="M354.34,121.15h-53.03l-14.86-10.24V24.18l14.61-10.07h53.53l14.61,10.08v20.95h-29.32v-9.26h-24.11v63.48h24.11v-25.92h-13.42v-21.78h42.74v59.4l-14.86,10.08ZM302.16,118.42h51.34l12.97-8.79v-55.22h-37.28v16.31h13.42v31.39h-29.57V33.16h29.57v9.26h23.86v-16.78l-12.73-8.78h-51.83l-12.73,8.77v83.85l12.97,8.94Z"/>
      </g>
      <g>
        <polygon class="cls-3" points="822.02 .07 822.02 10.28 822.02 22.17 822.02 31.06 822.02 42.94 822.02 53.16 811.81 53.16 799 53.16 799 63.33 799 72.22 799 84.11 799 93.07 811.81 93.07 822.02 93.07 822.02 103.29 822.02 115.17 822.02 124.07 822.02 135.95 822.02 146.17 811.81 146.17 753.99 146.17 750.09 146.17 747.18 143.56 744.97 141.59 744.84 141.47 744.77 141.41 744.29 140.97 742.94 139.77 739.28 136.5 730.69 143.75 727.84 146.17 724.1 146.17 678.49 146.17 674.69 146.17 673.83 145.42 673.83 146.17 663.62 146.17 593.67 146.17 583.46 146.17 583.46 143.24 583.16 143.52 580.24 146.17 576.29 146.17 518.3 146.17 508.08 146.17 508.08 135.95 508.08 124.07 508.08 22.17 508.08 10.28 508.08 .07 518.3 .07 575.86 .07 579.6 .07 582.45 2.48 583.46 3.33 583.46 .07 593.67 .07 616.92 .07 627.13 .07 627.13 10.28 627.13 22.17 627.13 93.07 656.1 93.07 656.1 22.17 656.1 10.28 656.1 .07 822.02 .07"/>
        <g>
          <g>
            <path class="cls-12" d="M578.63,24.69c-1.99-1.68-2.91-2.53-2.77-2.53h-57.56v113.78h58s.18-.22.64-.65c.12-.11.25-.23.39-.37,1.61-1.5,5.11-4.64,10.48-9.43v-41.4l-11.73-10.29c3.62-3.11,7.53-6.6,11.73-10.48h0v-31.07c-2.58-2.1-4.74-3.88-6.49-5.32-1.05-.87-1.94-1.62-2.69-2.25ZM564.56,115.17h-23.02v-31.06h23.02v31.06ZM564.56,63.33h-23.02v-20.78h23.02v20.78Z"/>
            <polygon class="cls-12" points="616.92 115.17 616.92 22.17 593.67 22.17 593.67 135.95 663.62 135.95 663.62 135.95 663.62 115.17 663.62 115.17 616.92 115.17"/>
            <polygon class="cls-12" points="713.02 22.17 713.02 22.17 713.02 115.17 689.56 115.17 689.56 22.17 666.32 22.17 666.32 125.48 678.49 135.95 724.1 135.95 736.26 125.67 736.26 22.17 736.26 22.17 713.02 22.17"/>
            <path class="cls-12" d="M811.81,42.94v-20.78h-57.6s-.05.01-.1.04c-.52.29-2.77,2.21-6.76,5.74-1.45,1.28-3.13,2.78-5.05,4.49v93.04c1.26,1.13,2.45,2.2,3.57,3.2,1.41,1.27,2.7,2.42,3.88,3.48.64.57,1.26,1.12,1.83,1.64.07.06.14.12.2.18.8.72,1.54,1.38,2.21,1.98h57.82v-20.78h-46.27v-31.06h23.24v-20.78h0s-23.24,0-23.24,0v-20.39h46.27Z"/>
          </g>
          <g>
            <rect class="cls-1" x="541.54" y="72.22" width="23.02" height="31.06"/>
            <path class="cls-7" d="M575.86,10.28h-57.56v113.78h58c-.14,0,3.69-3.48,11.51-10.44v-41.4l-11.73-10.29c3.62-3.11,7.53-6.6,11.73-10.48v-31.07c-8.25-6.73-12.24-10.1-11.95-10.1ZM564.56,103.29h-23.02v-31.06h23.02v31.06ZM564.56,51.45h-23.02v-20.78h23.02v20.78Z"/>
            <polygon class="cls-8" points="616.92 10.28 593.67 10.28 593.67 124.07 663.62 124.07 663.62 103.29 616.92 103.29 616.92 10.28"/>
            <polygon class="cls-6" points="713.02 103.29 689.56 103.29 689.56 10.28 666.32 10.28 666.32 113.6 678.49 124.07 724.1 124.07 736.26 113.79 736.26 10.28 713.02 10.28 713.02 103.29"/>
            <path class="cls-5" d="M811.81,31.06V10.28h-57.6c-.29,0-4.26,3.43-11.91,10.27v93.04c5.05,4.52,8.95,8.01,11.69,10.47h57.82v-20.78h-46.27v-31.06h23.24v-20.78h-23.24v-20.39h46.27Z"/>
            <g class="cls-17">
              <g>
                <path class="cls-20" d="M544.85,161.69c-5.55,0-9.52-5-13.37-9.85-3.7-4.66-7.52-9.47-12.69-9.94-5.96-.56-10.23,3.25-14.75,7.26-3.72,3.31-7.57,6.73-12.43,7.42-7.59,1.06-13.6-2.61-17.99-5.29-1.73-1.06-3.23-1.98-4.48-2.41l.39-1.13c1.38.48,2.92,1.42,4.72,2.52,4.47,2.74,10.04,6.14,17.2,5.13,4.5-.64,8.05-3.79,11.81-7.13,4.51-4.01,9.17-8.15,15.65-7.56,5.68.52,9.66,5.54,13.52,10.39,4.14,5.21,8.05,10.12,13.66,9.31,5.39-.79,9.35-7.31,13.18-13.61,4.01-6.59,8.15-13.41,14.16-14.1,6.15-.72,10.37,5.12,14.45,10.76,3.77,5.21,7.66,10.6,12.93,10.6s9.2-5.06,13.21-10.43c4-5.34,8.13-10.86,14.1-10.94h.13c6.04,0,10.23,5.31,14.28,10.45,3.77,4.79,7.67,9.73,12.98,10.25,5.51.53,9.33-3.32,13.38-7.4,3.89-3.92,7.9-7.96,13.6-7.96.1,0,.2,0,.3,0,5.85.14,9.94,4.45,13.89,8.62,4.05,4.27,7.89,8.28,13.39,8.07,5.32-.23,9.22-4.9,13-9.42,4.07-4.87,8.28-9.89,14.37-9.61,6,.29,10.15,5.77,14.16,11.06,3.82,5.04,7.77,10.25,13.17,10.64,5.46.4,9.28-3.95,13.32-8.56,3.94-4.49,8.01-9.13,13.83-9.13h.13c6.19.08,10.46,4.72,14.59,9.21,3.72,4.05,7.57,8.23,12.83,9.16,5.81,1.03,9.78-1.4,13.97-3.98,3.8-2.33,7.78-4.75,13.25-4.71,8.28.05,16.03,3.77,21.68,6.49,2.27,1.09,4.23,2.03,5.82,2.56l-.37,1.13c-1.66-.55-3.65-1.5-5.96-2.61-5.56-2.67-13.17-6.32-21.17-6.37-.03,0-.07,0-.1,0-5.12,0-8.88,2.31-12.51,4.54-4.2,2.58-8.54,5.24-14.8,4.13-5.65-1-9.64-5.34-13.5-9.53-4.14-4.5-8.05-8.75-13.73-8.82-.04,0-.08,0-.12,0-5.28,0-9,4.24-12.93,8.73-4.05,4.62-8.24,9.4-14.31,8.96-5.93-.43-10.05-5.86-14.03-11.11-4.03-5.31-7.83-10.32-13.27-10.59-5.5-.26-9.34,4.32-13.4,9.18-3.94,4.72-8.02,9.59-13.86,9.85-6.04.26-10.25-4.16-14.31-8.44-3.96-4.17-7.7-8.12-13.05-8.25-.09,0-.18,0-.27,0-5.19,0-8.87,3.7-12.75,7.61-4.07,4.1-8.28,8.35-14.35,7.74-5.82-.57-9.88-5.72-13.8-10.7-4.05-5.14-7.87-9.99-13.34-9.99-.04,0-.08,0-.11,0-5.38.06-9.16,5.11-13.16,10.46-4.01,5.36-8.16,10.91-14.16,10.91s-9.96-5.64-13.9-11.09c-4.06-5.61-7.88-10.91-13.35-10.28-5.43.63-9.42,7.19-13.28,13.54-3.97,6.54-8.08,13.29-14.02,14.16-.48.07-.94.1-1.39.1Z"/>
                <path class="cls-20" d="M544.85,145.33c-5.55,0-9.52-5-13.37-9.85-3.7-4.66-7.52-9.47-12.69-9.94-5.96-.56-10.23,3.25-14.75,7.26-3.72,3.31-7.57,6.73-12.43,7.42-7.59,1.07-13.6-2.61-17.99-5.3-1.73-1.06-3.23-1.98-4.48-2.41l.39-1.13c1.38.48,2.92,1.42,4.71,2.52,4.47,2.74,10.04,6.14,17.2,5.13,4.5-.64,8.05-3.79,11.81-7.13,4.51-4.01,9.17-8.15,15.65-7.56,5.68.52,9.66,5.54,13.52,10.39,4.14,5.21,8.03,10.14,13.66,9.31,5.39-.79,9.35-7.3,13.18-13.6,4.01-6.59,8.15-13.41,14.16-14.1,6.15-.72,10.37,5.12,14.45,10.76,3.77,5.21,7.66,10.6,12.93,10.6s9.2-5.06,13.21-10.43c4-5.34,8.13-10.86,14.1-10.94h.13c6.04,0,10.23,5.31,14.28,10.45,3.77,4.79,7.67,9.73,12.98,10.25,5.51.54,9.33-3.32,13.38-7.4,3.89-3.92,7.9-7.96,13.6-7.96.1,0,.2,0,.3,0,5.85.14,9.94,4.45,13.89,8.62,4.05,4.27,7.9,8.28,13.39,8.07,5.32-.23,9.22-4.9,13-9.42,4.07-4.87,8.29-9.9,14.37-9.61,6,.29,10.15,5.76,14.16,11.06,3.82,5.04,7.77,10.25,13.17,10.64,5.46.4,9.28-3.95,13.32-8.56,3.94-4.49,8.01-9.14,13.83-9.14h.13c6.19.08,10.46,4.72,14.59,9.21,3.72,4.05,7.57,8.23,12.83,9.16,5.81,1.03,9.78-1.4,13.97-3.98,3.77-2.32,7.68-4.71,13.13-4.71h.11c8.28.05,16.03,3.77,21.68,6.49,2.27,1.09,4.23,2.03,5.82,2.56l-.37,1.13c-1.66-.55-3.65-1.5-5.96-2.61-5.56-2.67-13.17-6.32-21.18-6.37-.03,0-.07,0-.1,0-5.12,0-8.88,2.31-12.51,4.54-4.2,2.58-8.54,5.24-14.8,4.13-5.65-1-9.64-5.34-13.5-9.53-4.14-4.5-8.05-8.76-13.73-8.82-.04,0-.08,0-.12,0-5.28,0-9,4.24-12.93,8.73-4.05,4.62-8.25,9.41-14.31,8.96-5.93-.43-10.05-5.86-14.03-11.11-4.03-5.31-7.83-10.32-13.27-10.59-5.51-.24-9.34,4.32-13.4,9.18-3.94,4.72-8.02,9.59-13.86,9.84-6.05.24-10.25-4.16-14.31-8.44-3.96-4.17-7.7-8.12-13.05-8.25-5.36-.08-9.07,3.63-13.02,7.61-4.07,4.1-8.28,8.35-14.35,7.74-5.82-.57-9.88-5.72-13.8-10.7-4.05-5.14-7.87-9.99-13.34-9.99-.04,0-.08,0-.11,0-5.39.06-9.16,5.11-13.16,10.46-4.01,5.36-8.16,10.91-14.16,10.91s-9.96-5.64-13.9-11.09c-4.06-5.61-7.88-10.92-13.35-10.28-5.43.63-9.42,7.19-13.28,13.54-3.97,6.53-8.08,13.29-14.02,14.16-.48.07-.94.1-1.4.1Z"/>
                <path class="cls-20" d="M544.85,128.98c-5.55,0-9.52-5-13.37-9.85-3.7-4.66-7.52-9.47-12.69-9.95-5.95-.54-10.23,3.25-14.75,7.26-3.72,3.31-7.57,6.73-12.43,7.42-7.59,1.08-13.6-2.61-17.99-5.29-1.73-1.06-3.23-1.98-4.48-2.41l.39-1.13c1.38.48,2.92,1.42,4.72,2.52,4.47,2.74,10.04,6.16,17.2,5.13,4.5-.64,8.05-3.79,11.81-7.13,4.51-4.01,9.18-8.17,15.65-7.56,5.68.52,9.66,5.54,13.52,10.39,4.14,5.21,8.05,10.12,13.66,9.31,5.39-.79,9.35-7.3,13.18-13.6,4.01-6.59,8.15-13.41,14.16-14.11,6.15-.72,10.37,5.12,14.45,10.76,3.77,5.21,7.66,10.6,12.93,10.6s9.2-5.07,13.21-10.43c4-5.34,8.13-10.86,14.1-10.94h.13c6.04,0,10.23,5.31,14.28,10.45,3.77,4.79,7.67,9.73,12.98,10.25,5.51.54,9.33-3.32,13.38-7.4,3.95-3.98,8.08-8.09,13.89-7.96,5.85.14,9.94,4.45,13.89,8.62,4.05,4.27,7.89,8.28,13.39,8.07,5.32-.23,9.22-4.9,13-9.42,4.07-4.87,8.29-9.9,14.37-9.61,6,.29,10.15,5.77,14.16,11.06,3.82,5.04,7.77,10.25,13.17,10.64,5.48.39,9.28-3.95,13.32-8.56,3.94-4.49,8.01-9.13,13.83-9.13h.13c6.19.08,10.46,4.72,14.59,9.21,3.72,4.05,7.57,8.23,12.83,9.16,5.81,1.03,9.78-1.4,13.97-3.98,3.8-2.33,7.69-4.73,13.25-4.71,8.28.05,16.03,3.77,21.68,6.49,2.27,1.09,4.23,2.03,5.82,2.56l-.37,1.13c-1.66-.55-3.65-1.5-5.96-2.61-5.56-2.67-13.17-6.32-21.17-6.37-.03,0-.07,0-.1,0-5.12,0-8.88,2.31-12.51,4.54-4.2,2.58-8.54,5.25-14.8,4.13-5.65-1-9.64-5.34-13.5-9.53-4.14-4.5-8.05-8.75-13.73-8.82-.04,0-.08,0-.12,0-5.28,0-9,4.24-12.93,8.73-4.05,4.63-8.24,9.41-14.31,8.96-5.93-.43-10.05-5.86-14.03-11.11-4.03-5.31-7.83-10.32-13.27-10.59-5.5-.26-9.34,4.32-13.4,9.18-3.94,4.72-8.02,9.6-13.86,9.85-6.07.24-10.25-4.16-14.31-8.44-3.96-4.17-7.7-8.12-13.05-8.25-5.36-.12-9.07,3.63-13.02,7.61-4.07,4.1-8.27,8.35-14.35,7.74-5.82-.57-9.88-5.72-13.8-10.7-4.05-5.14-7.87-9.99-13.34-9.99-.04,0-.08,0-.11,0-5.38.06-9.16,5.11-13.16,10.46-4.01,5.36-8.16,10.91-14.16,10.91s-9.96-5.64-13.9-11.09c-4.06-5.61-7.88-10.91-13.35-10.28-5.43.63-9.42,7.19-13.28,13.54-3.97,6.54-8.08,13.29-14.02,14.16-.48.07-.94.1-1.4.1Z"/>
                <path class="cls-20" d="M544.85,112.62c-5.55,0-9.52-5-13.37-9.85-3.7-4.66-7.52-9.47-12.69-9.94-5.96-.56-10.23,3.25-14.75,7.26-3.72,3.31-7.57,6.73-12.43,7.42-7.59,1.06-13.6-2.61-17.99-5.29-1.73-1.06-3.23-1.98-4.48-2.41l.39-1.13c1.38.48,2.92,1.42,4.72,2.52,4.47,2.74,10.04,6.14,17.2,5.13,4.5-.64,8.05-3.79,11.81-7.13,4.51-4.01,9.17-8.15,15.65-7.56,5.68.52,9.66,5.54,13.52,10.39,4.14,5.21,8.05,10.12,13.66,9.31,5.39-.79,9.35-7.31,13.18-13.61,4.01-6.59,8.15-13.41,14.16-14.1,6.15-.72,10.37,5.12,14.45,10.76,3.77,5.21,7.66,10.6,12.93,10.6s9.2-5.06,13.21-10.43c4-5.34,8.13-10.86,14.1-10.94h.13c6.04,0,10.23,5.31,14.28,10.45,3.77,4.79,7.67,9.73,12.98,10.25,5.51.54,9.33-3.32,13.38-7.4,3.95-3.98,8.04-8.08,13.89-7.96,5.85.14,9.94,4.45,13.89,8.62,4.05,4.27,7.9,8.32,13.39,8.07,5.32-.23,9.22-4.9,13-9.42,4.07-4.87,8.28-9.89,14.37-9.61,6,.29,10.15,5.77,14.16,11.06,3.82,5.04,7.77,10.25,13.17,10.64,5.46.4,9.28-3.95,13.32-8.56,3.94-4.49,8.01-9.13,13.83-9.13h.13c6.19.08,10.46,4.72,14.59,9.21,3.72,4.05,7.57,8.23,12.83,9.16,5.81,1.03,9.78-1.4,13.97-3.98,3.77-2.32,7.68-4.71,13.13-4.71h.11c8.28.05,16.03,3.77,21.68,6.49,2.27,1.09,4.23,2.03,5.82,2.56l-.37,1.13c-1.66-.55-3.65-1.5-5.96-2.61-5.56-2.67-13.17-6.32-21.17-6.37-.03,0-.07,0-.1,0-5.12,0-8.88,2.31-12.51,4.54-4.2,2.58-8.54,5.24-14.8,4.13-5.65-1-9.64-5.34-13.5-9.53-4.14-4.5-8.05-8.75-13.73-8.82-.04,0-.08,0-.12,0-5.28,0-9,4.24-12.93,8.73-4.05,4.62-8.24,9.42-14.31,8.96-5.93-.43-10.05-5.86-14.03-11.11-4.03-5.31-7.83-10.32-13.27-10.59-5.51-.24-9.34,4.32-13.4,9.18-3.94,4.72-8.02,9.6-13.86,9.85-6.05.24-10.25-4.16-14.31-8.44-3.96-4.17-7.7-8.12-13.05-8.25-5.31-.14-9.07,3.63-13.02,7.61-4.07,4.1-8.28,8.34-14.35,7.74-5.82-.57-9.88-5.72-13.8-10.7-4.05-5.14-7.87-9.99-13.34-9.99-.04,0-.08,0-.11,0-5.38.06-9.16,5.11-13.16,10.46-4.01,5.36-8.16,10.91-14.16,10.91s-9.96-5.64-13.9-11.09c-4.06-5.61-7.88-10.91-13.35-10.28-5.43.63-9.42,7.19-13.28,13.54-3.97,6.54-8.08,13.29-14.02,14.16-.48.07-.94.1-1.39.1Z"/>
                <path class="cls-20" d="M544.85,96.26c-5.55,0-9.52-5-13.37-9.85-3.7-4.66-7.52-9.47-12.69-9.94-5.96-.56-10.23,3.25-14.75,7.26-3.72,3.31-7.57,6.73-12.43,7.42-7.59,1.08-13.6-2.61-17.99-5.29-1.73-1.06-3.23-1.98-4.48-2.41l.39-1.13c1.38.48,2.92,1.42,4.71,2.52,4.47,2.74,10.04,6.16,17.2,5.13,4.5-.64,8.05-3.79,11.81-7.13,4.51-4.01,9.18-8.15,15.65-7.56,5.68.52,9.66,5.54,13.52,10.39,4.14,5.21,8.03,10.13,13.66,9.31,5.39-.79,9.35-7.3,13.18-13.6,4.01-6.59,8.15-13.41,14.16-14.1,6.15-.72,10.37,5.12,14.45,10.76,3.77,5.21,7.66,10.6,12.93,10.6s9.2-5.06,13.21-10.43c4-5.34,8.13-10.86,14.1-10.94h.13c6.04,0,10.23,5.31,14.28,10.45,3.77,4.79,7.67,9.73,12.98,10.25,5.5.53,9.33-3.32,13.38-7.4,3.89-3.92,7.9-7.96,13.6-7.96.1,0,.2,0,.3,0,5.85.14,9.94,4.45,13.89,8.62,4.05,4.27,7.9,8.3,13.39,8.07,5.32-.23,9.22-4.9,13-9.42,4.07-4.87,8.3-9.89,14.37-9.61,6,.29,10.15,5.77,14.16,11.06,3.82,5.04,7.77,10.25,13.17,10.64,5.46.39,9.28-3.95,13.32-8.56,3.94-4.49,8.01-9.14,13.83-9.14h.13c6.19.08,10.46,4.72,14.59,9.21,3.72,4.05,7.57,8.23,12.83,9.16,5.81,1.03,9.78-1.4,13.97-3.98,3.77-2.32,7.68-4.71,13.13-4.71h.11c8.28.05,16.03,3.77,21.68,6.49,2.27,1.09,4.23,2.03,5.82,2.56l-.37,1.13c-1.66-.55-3.65-1.5-5.96-2.61-5.56-2.67-13.17-6.32-21.18-6.37-.03,0-.07,0-.1,0-5.12,0-8.88,2.31-12.51,4.54-4.2,2.58-8.54,5.25-14.8,4.13-5.65-1-9.64-5.34-13.5-9.53-4.14-4.5-8.05-8.76-13.73-8.82-.04,0-.08,0-.12,0-5.28,0-9,4.24-12.93,8.73-4.05,4.63-8.25,9.42-14.31,8.96-5.93-.43-10.05-5.86-14.03-11.11-4.03-5.31-7.83-10.32-13.27-10.59-5.5-.26-9.34,4.32-13.4,9.18-3.94,4.72-8.02,9.6-13.86,9.85-6.05.27-10.25-4.16-14.31-8.44-3.96-4.17-7.7-8.12-13.05-8.25-.09,0-.18,0-.27,0-5.19,0-8.86,3.7-12.75,7.61-4.07,4.1-8.28,8.35-14.35,7.74-5.82-.57-9.88-5.72-13.8-10.7-4.05-5.14-7.87-9.99-13.34-9.99-.04,0-.08,0-.11,0-5.39.06-9.16,5.11-13.16,10.46-4.01,5.36-8.16,10.91-14.16,10.91s-9.96-5.64-13.9-11.09c-4.06-5.61-7.88-10.91-13.35-10.28-5.43.63-9.42,7.19-13.28,13.54-3.97,6.53-8.08,13.29-14.02,14.16-.48.07-.94.1-1.4.1Z"/>
                <path class="cls-20" d="M544.85,79.91c-5.55,0-9.52-5-13.37-9.85-3.7-4.66-7.52-9.47-12.69-9.95-5.95-.54-10.23,3.25-14.75,7.26-3.72,3.31-7.57,6.73-12.43,7.42-7.59,1.07-13.6-2.61-17.99-5.29-1.73-1.06-3.23-1.98-4.48-2.41l.39-1.13c1.38.48,2.92,1.42,4.72,2.52,4.47,2.74,10.04,6.16,17.2,5.13,4.5-.64,8.05-3.79,11.81-7.13,4.51-4.01,9.18-8.17,15.65-7.56,5.68.52,9.66,5.54,13.52,10.39,4.14,5.21,8.05,10.12,13.66,9.31,5.39-.79,9.35-7.3,13.18-13.6,4.01-6.59,8.15-13.41,14.16-14.11,6.15-.72,10.37,5.12,14.45,10.76,3.77,5.21,7.66,10.6,12.93,10.6s9.2-5.06,13.21-10.43c4-5.34,8.13-10.86,14.1-10.94,6.08-.06,10.33,5.27,14.4,10.45,3.77,4.79,7.67,9.73,12.98,10.25,5.51.54,9.33-3.32,13.38-7.4,3.95-3.98,8.08-8.08,13.89-7.96,5.85.14,9.94,4.45,13.89,8.62,4.05,4.27,7.89,8.29,13.39,8.07,5.32-.23,9.22-4.9,13-9.42,4.07-4.87,8.29-9.9,14.37-9.61,6,.29,10.15,5.77,14.16,11.06,3.82,5.04,7.77,10.25,13.17,10.64,5.48.4,9.28-3.95,13.32-8.56,3.94-4.49,8.01-9.13,13.83-9.13h.13c6.19.08,10.46,4.72,14.59,9.21,3.72,4.05,7.57,8.23,12.83,9.16,5.81,1.03,9.78-1.4,13.97-3.98,3.77-2.32,7.68-4.71,13.13-4.71h.11c8.28.05,16.03,3.77,21.68,6.49,2.27,1.09,4.23,2.03,5.82,2.56l-.37,1.13c-1.66-.55-3.65-1.5-5.96-2.61-5.56-2.67-13.17-6.32-21.17-6.37-.03,0-.07,0-.1,0-5.12,0-8.88,2.31-12.51,4.54-4.2,2.58-8.54,5.24-14.8,4.13-5.65-1-9.64-5.34-13.5-9.53-4.14-4.5-8.05-8.75-13.73-8.82-.04,0-.08,0-.12,0-5.28,0-9,4.24-12.93,8.73-4.05,4.63-8.24,9.41-14.31,8.96-5.93-.43-10.05-5.86-14.03-11.11-4.03-5.31-7.83-10.32-13.27-10.59-5.5-.24-9.34,4.32-13.4,9.18-3.94,4.72-8.02,9.6-13.86,9.85-6.05.24-10.25-4.16-14.31-8.44-3.96-4.17-7.7-8.12-13.05-8.25-5.36-.17-9.07,3.63-13.02,7.61-4.07,4.1-8.27,8.35-14.35,7.74-5.82-.57-9.88-5.72-13.8-10.7-4.05-5.14-7.87-9.99-13.34-9.99-.04,0-.08,0-.11,0-5.38.06-9.16,5.11-13.16,10.46-4.01,5.36-8.16,10.91-14.16,10.91s-9.96-5.64-13.9-11.09c-4.06-5.61-7.88-10.91-13.35-10.28-5.43.63-9.42,7.19-13.28,13.54-3.97,6.54-8.08,13.29-14.02,14.16-.48.07-.94.1-1.4.1Z"/>
                <path class="cls-20" d="M544.85,63.55c-5.55,0-9.52-5-13.37-9.85-3.7-4.66-7.52-9.47-12.69-9.94-5.96-.56-10.23,3.25-14.75,7.26-3.72,3.31-7.57,6.73-12.43,7.42-7.59,1.06-13.6-2.61-17.99-5.29-1.73-1.06-3.23-1.98-4.48-2.41l.39-1.13c1.38.48,2.92,1.42,4.72,2.52,4.47,2.74,10.04,6.14,17.2,5.13,4.5-.64,8.05-3.79,11.81-7.13,4.51-4.01,9.17-8.15,15.65-7.56,5.68.52,9.66,5.54,13.52,10.39,4.14,5.21,8.05,10.12,13.66,9.31,5.39-.79,9.35-7.31,13.18-13.61,4.01-6.59,8.15-13.41,14.16-14.1,6.15-.72,10.37,5.12,14.45,10.76,3.77,5.21,7.66,10.6,12.93,10.6s9.2-5.06,13.21-10.43c4-5.34,8.13-10.86,14.1-10.94,6.08-.04,10.33,5.27,14.4,10.45,3.77,4.79,7.67,9.73,12.98,10.25,5.51.53,9.33-3.32,13.38-7.4,3.95-3.98,8.04-8.08,13.89-7.96,5.85.14,9.94,4.45,13.89,8.62,4.05,4.27,7.9,8.35,13.39,8.07,5.32-.23,9.22-4.9,13-9.42,4.07-4.87,8.28-9.89,14.37-9.61,6,.29,10.15,5.77,14.16,11.06,3.82,5.04,7.77,10.25,13.17,10.64,5.46.4,9.28-3.95,13.32-8.56,3.94-4.49,8.01-9.13,13.83-9.13h.13c6.19.08,10.46,4.72,14.59,9.21,3.72,4.05,7.57,8.23,12.83,9.16,5.81,1.03,9.78-1.4,13.97-3.98,3.77-2.32,7.68-4.71,13.13-4.71h.11c8.28.05,16.03,3.77,21.68,6.49,2.27,1.09,4.23,2.03,5.82,2.56l-.37,1.13c-1.66-.55-3.65-1.5-5.96-2.61-5.56-2.67-13.17-6.32-21.17-6.37-.03,0-.07,0-.1,0-5.12,0-8.88,2.31-12.51,4.54-4.2,2.58-8.54,5.24-14.8,4.13-5.65-1-9.64-5.34-13.5-9.53-4.14-4.5-8.05-8.75-13.73-8.82-.04,0-.08,0-.12,0-5.28,0-9,4.24-12.93,8.73-4.05,4.62-8.24,9.41-14.31,8.96-5.93-.43-10.05-5.86-14.03-11.11-4.03-5.31-7.83-10.32-13.27-10.59-5.51-.25-9.34,4.32-13.4,9.18-3.94,4.72-8.02,9.6-13.86,9.85-6.05.26-10.25-4.16-14.31-8.44-3.96-4.17-7.7-8.12-13.05-8.25-5.31-.13-9.07,3.63-13.02,7.61-4.07,4.1-8.28,8.34-14.35,7.74-5.82-.57-9.88-5.72-13.8-10.7-4.05-5.14-7.87-9.99-13.34-9.99-.04,0-.08,0-.11,0-5.38.06-9.16,5.11-13.16,10.46-4.01,5.36-8.16,10.91-14.16,10.91s-9.96-5.64-13.9-11.09c-4.06-5.61-7.88-10.92-13.35-10.28-5.43.63-9.42,7.19-13.28,13.54-3.97,6.54-8.08,13.29-14.02,14.16-.48.07-.94.1-1.39.1Z"/>
                <path class="cls-20" d="M544.85,47.19c-5.55,0-9.52-5-13.37-9.85-3.7-4.66-7.52-9.47-12.69-9.94-5.96-.56-10.23,3.25-14.75,7.26-3.72,3.31-7.57,6.73-12.43,7.42-7.59,1.08-13.6-2.61-17.99-5.29-1.73-1.06-3.23-1.98-4.48-2.41l.39-1.13c1.38.48,2.92,1.42,4.71,2.52,4.47,2.74,10.04,6.16,17.2,5.13,4.5-.64,8.05-3.79,11.81-7.13,4.51-4.01,9.18-8.15,15.65-7.56,5.68.52,9.66,5.54,13.52,10.39,4.14,5.21,8.03,10.13,13.66,9.31,5.39-.79,9.35-7.3,13.18-13.6,4.01-6.59,8.15-13.41,14.16-14.11,6.15-.73,10.37,5.12,14.45,10.76,3.77,5.21,7.66,10.6,12.93,10.6s9.2-5.07,13.21-10.43c4-5.34,8.13-10.86,14.1-10.94,6.08-.08,10.33,5.27,14.4,10.45,3.77,4.79,7.67,9.73,12.98,10.25,5.5.53,9.33-3.32,13.38-7.4,3.95-3.98,8.08-8.14,13.89-7.96,5.85.14,9.94,4.45,13.89,8.62,4.05,4.27,7.9,8.28,13.39,8.07,5.32-.23,9.22-4.9,13-9.42,4.07-4.87,8.3-9.89,14.37-9.61,6,.29,10.15,5.77,14.16,11.06,3.82,5.04,7.77,10.25,13.17,10.64,5.46.4,9.28-3.95,13.32-8.56,3.94-4.49,8.01-9.13,13.83-9.13h.13c6.19.08,10.46,4.72,14.59,9.21,3.72,4.05,7.57,8.23,12.83,9.16,5.81,1.03,9.78-1.4,13.97-3.98,3.77-2.32,7.68-4.71,13.13-4.71h.11c8.28.05,16.03,3.77,21.68,6.49,2.27,1.09,4.23,2.03,5.82,2.56l-.37,1.13c-1.66-.55-3.65-1.5-5.96-2.61-5.56-2.67-13.17-6.32-21.17-6.37-.03,0-.07,0-.1,0-5.12,0-8.88,2.31-12.51,4.54-4.2,2.58-8.54,5.24-14.8,4.13-5.65-1-9.64-5.34-13.5-9.53-4.14-4.5-8.05-8.76-13.73-8.82-.04,0-.08,0-.12,0-5.28,0-9,4.24-12.93,8.73-4.05,4.63-8.24,9.41-14.31,8.96-5.93-.43-10.05-5.86-14.03-11.11-4.03-5.31-7.83-10.32-13.27-10.59-5.5-.24-9.34,4.32-13.4,9.18-3.94,4.72-8.02,9.6-13.86,9.85-6.05.25-10.25-4.16-14.31-8.44-3.96-4.17-7.7-8.12-13.05-8.25-.09,0-.18,0-.27,0-5.19,0-8.86,3.7-12.75,7.61-4.07,4.1-8.28,8.34-14.35,7.74-5.82-.57-9.88-5.72-13.8-10.7-4.05-5.14-7.87-9.99-13.34-9.99-.04,0-.07,0-.11,0-5.38.06-9.16,5.11-13.16,10.46-4.01,5.36-8.16,10.91-14.16,10.91s-9.96-5.64-13.9-11.09c-4.06-5.61-7.88-10.92-13.35-10.28-5.43.63-9.42,7.19-13.28,13.54-3.97,6.54-8.08,13.29-14.02,14.16-.48.07-.94.1-1.4.1Z"/>
                <path class="cls-20" d="M544.85,30.84c-5.55,0-9.52-5-13.37-9.85-3.7-4.66-7.52-9.47-12.69-9.95-5.95-.54-10.23,3.25-14.75,7.26-3.72,3.31-7.57,6.73-12.43,7.42-7.59,1.08-13.6-2.61-17.99-5.29-1.73-1.06-3.23-1.98-4.48-2.41l.39-1.13c1.38.48,2.92,1.42,4.72,2.52,4.47,2.74,10.04,6.16,17.2,5.13,4.5-.64,8.05-3.79,11.81-7.13,4.51-4.01,9.17-8.16,15.65-7.56,5.68.52,9.66,5.54,13.52,10.39,4.14,5.21,8.05,10.12,13.66,9.31,5.39-.79,9.35-7.3,13.18-13.6,4.01-6.59,8.15-13.41,14.16-14.11,6.15-.72,10.37,5.12,14.45,10.76,3.77,5.21,7.66,10.6,12.93,10.6s9.2-5.06,13.21-10.43c4-5.34,8.13-10.86,14.1-10.94h.13c6.04,0,10.23,5.31,14.28,10.45,3.77,4.79,7.67,9.73,12.98,10.25,5.51.54,9.33-3.32,13.38-7.4,3.95-3.98,8.08-8.06,13.89-7.96,5.85.14,9.94,4.45,13.89,8.62,4.05,4.27,7.89,8.29,13.39,8.07,5.32-.23,9.22-4.9,13-9.42,4.07-4.87,8.29-9.89,14.37-9.61,6,.29,10.15,5.77,14.16,11.06,3.82,5.04,7.77,10.25,13.17,10.64,5.48.41,9.28-3.95,13.32-8.56,3.94-4.49,8.01-9.13,13.83-9.13h.13c6.19.08,10.46,4.72,14.59,9.21,3.72,4.05,7.57,8.23,12.83,9.16,5.81,1.03,9.78-1.4,13.97-3.98,3.8-2.33,7.69-4.79,13.25-4.71,8.28.05,16.03,3.77,21.68,6.49,2.27,1.09,4.23,2.03,5.82,2.56l-.37,1.13c-1.66-.55-3.65-1.5-5.96-2.61-5.56-2.67-13.17-6.32-21.17-6.37-.03,0-.07,0-.1,0-5.12,0-8.88,2.31-12.51,4.54-4.2,2.58-8.54,5.24-14.8,4.13-5.65-1-9.64-5.34-13.5-9.53-4.14-4.5-8.05-8.75-13.73-8.82-5.3-.1-9.09,4.21-13.05,8.73-4.05,4.63-8.24,9.41-14.31,8.96-5.93-.43-10.05-5.86-14.03-11.11-4.03-5.31-7.83-10.32-13.27-10.59-5.5-.26-9.34,4.32-13.4,9.18-3.94,4.72-8.02,9.6-13.86,9.85-6.05.25-10.25-4.16-14.31-8.44-3.96-4.17-7.7-8.12-13.05-8.25-5.36-.16-9.07,3.63-13.02,7.61-4.07,4.1-8.27,8.35-14.35,7.74-5.82-.57-9.88-5.72-13.8-10.7-4.05-5.14-7.87-9.99-13.34-9.99-.04,0-.08,0-.11,0-5.38.06-9.16,5.11-13.16,10.46-4.01,5.36-8.16,10.91-14.16,10.91s-9.96-5.64-13.9-11.09c-4.06-5.61-7.88-10.91-13.35-10.28-5.43.63-9.42,7.19-13.28,13.54-3.97,6.54-8.08,13.29-14.02,14.16-.48.07-.94.1-1.4.1Z"/>
                <path class="cls-20" d="M544.85,14.48c-5.55,0-9.52-5-13.37-9.85-3.7-4.66-7.52-9.47-12.69-9.94-5.96-.56-10.23,3.25-14.75,7.26-3.72,3.31-7.57,6.73-12.43,7.42-7.59,1.07-13.6-2.61-17.99-5.3-1.73-1.06-3.23-1.98-4.48-2.41l.39-1.13c1.38.48,2.92,1.42,4.71,2.52,4.47,2.74,10.03,6.14,17.2,5.13,4.5-.64,8.05-3.79,11.81-7.13,4.51-4.01,9.17-8.15,15.65-7.56,5.68.52,9.66,5.54,13.52,10.39,4.14,5.21,8.05,10.12,13.66,9.31,5.39-.79,9.35-7.31,13.18-13.61,4.01-6.59,8.15-13.41,14.16-14.1,6.15-.72,10.37,5.12,14.45,10.76,3.77,5.21,7.66,10.6,12.93,10.6s9.2-5.06,13.21-10.43c4-5.34,8.13-10.86,14.1-10.94h.13c6.04,0,10.23,5.31,14.28,10.45,3.77,4.79,7.67,9.73,12.98,10.25,5.51.54,9.33-3.32,13.38-7.4,3.95-3.98,8.04-8.08,13.89-7.96,5.85.14,9.94,4.45,13.89,8.62,4.05,4.27,7.9,8.33,13.39,8.07,5.32-.23,9.22-4.9,13-9.42,4.07-4.87,8.28-9.89,14.37-9.61,6,.29,10.15,5.77,14.16,11.06,3.82,5.04,7.77,10.25,13.17,10.64,5.46.4,9.28-3.95,13.32-8.56,3.94-4.49,8.01-9.13,13.83-9.13h.13c6.19.08,10.46,4.72,14.59,9.21,3.72,4.05,7.57,8.23,12.83,9.16,5.81,1.03,9.78-1.4,13.97-3.98,3.77-2.32,7.68-4.71,13.13-4.71h.11c8.28.05,16.03,3.77,21.69,6.49,2.27,1.09,4.23,2.03,5.82,2.55l-.37,1.13c-1.66-.55-3.65-1.5-5.96-2.61-5.56-2.67-13.17-6.32-21.18-6.37-.03,0-.07,0-.1,0-5.12,0-8.88,2.31-12.51,4.54-4.2,2.58-8.54,5.24-14.8,4.13-5.65-1-9.64-5.34-13.5-9.53-4.14-4.5-8.05-8.75-13.73-8.82-.04,0-.08,0-.12,0-5.28,0-9,4.24-12.93,8.73-4.05,4.62-8.24,9.41-14.31,8.96-5.93-.44-10.05-5.86-14.03-11.11-4.03-5.31-7.83-10.32-13.27-10.59-5.51-.26-9.34,4.32-13.4,9.18-3.94,4.72-8.02,9.6-13.86,9.85-6.05.23-10.25-4.16-14.31-8.44-3.96-4.17-7.7-8.12-13.05-8.25-5.31-.12-9.07,3.63-13.02,7.61-4.07,4.1-8.28,8.34-14.35,7.74-5.82-.57-9.88-5.72-13.8-10.7-4.05-5.14-7.87-9.99-13.34-9.99-.04,0-.08,0-.11,0-5.38.06-9.16,5.11-13.16,10.46-4.01,5.36-8.16,10.91-14.16,10.91s-9.96-5.64-13.9-11.09c-4.06-5.61-7.88-10.91-13.35-10.28-5.43.63-9.42,7.19-13.28,13.54-3.97,6.54-8.08,13.29-14.02,14.16-.48.07-.94.1-1.39.1Z"/>
              </g>
            </g>
            <path class="cls-18" d="M574.83,12.67c.59.55,1.39,1.22,2.42,2.1,1.85,1.56,4.6,3.83,8.17,6.74v28.89c-3.88,3.57-7.54,6.84-10.9,9.72l-2.08,1.79,2.06,1.81,10.92,9.58v39.25c-3.52,3.13-6.1,5.45-7.88,7.07-.95.86-1.68,1.52-2.23,2.06h-54.63V12.67h54.15M539.16,53.83h27.79v-25.54h-27.79v25.54M539.16,105.67h27.79v-35.83h-27.79v35.83M575.86,10.28h-57.56v113.78h58c-.14,0,3.69-3.48,11.51-10.44v-41.4l-11.73-10.29c3.62-3.11,7.53-6.6,11.73-10.48v-31.07c-8.25-6.73-12.24-10.1-11.95-10.1h0ZM541.54,51.45v-20.78h23.02v20.78h-23.02ZM541.54,103.29v-31.06h23.02v31.06h-23.02Z"/>
            <path class="cls-18" d="M614.53,12.67v93h46.7v16.01h-65.17V12.67h18.47M616.92,10.28h-23.24v113.78h69.94v-20.78h-46.7V10.28h0Z"/>
            <path class="cls-18" d="M733.88,12.67v100.02l-10.65,9h-43.86l-10.66-9.18V12.67h18.47v93h28.23V12.67h18.47M736.26,10.28h-23.24v93h-23.46V10.28h-23.24v103.32l12.16,10.47h45.62l12.16-10.27V10.28h0Z"/>
            <path class="cls-18" d="M809.42,12.67v16.01h-46.27v25.16h23.24v16.01h-23.24v35.83h46.27v16.01h-54.52l-1.35-1.21-8.87-7.94V21.62c6.8-6.07,9.33-8.23,10.25-8.96h54.49M811.81,10.28h-57.6c-.29,0-4.26,3.43-11.91,10.27v93.04c5.05,4.52,8.95,8.01,11.69,10.47h57.82v-20.78h-46.27v-31.06h23.24v-20.78h-23.24v-20.39h46.27V10.28h0Z"/>
          </g>
        </g>
      </g>
      <g>
        <g>
          <path class="cls-3" d="M458.11,51.51c.15-.51-.01-.61.22-.74,2.49-1.44,4.72-3.19,6.6-5.4,5.03-5.91,7.35-14.13,5.47-21.73-1.84-8.02-7.2-14.39-14.41-17.54-2.79-1.22-5.8-1.86-8.85-2h-.19c-9.53-.44-18.61,4.48-23.14,12.88-.12.21-.23.43-.34.65-6.18,11.42-1.64,26.66,9.6,33.08.37.22.46.44.52,1.1.12,1.43.05,1.9.13,3.47.07,1.43.13,1.38-.83,1.38-7.64,0-15.29,0-22.93,0-.57,0-1.14.09-1.68.27-2.47.81-4.89,1.71-6.68,3.75-1.08,1.07-2.14,2.17-2.81,3.56-.81,1.62-1.36,3.34-2.1,4.99-4.01,9.19-8.33,18.39-10.39,28.25-.33,1.56-.5,3.14-.5,4.73,0,5.31,1.6,11.61,1.6,11.61,1.31,5.1,2.37,10.26,3.75,15.34.59,2.3,1.24,4.58,2.16,6.78.75,1.82,1.98,3.28,3.42,4.59,1.04.94,2.3,1.52,3.67,1.52,30.47.02,60.94.02,91.41.02,2.84-.18,4.79-2.28,6.2-4.46.93-1.42,1.51-3.02,1.99-4.65.79-2.65,1.9-7.02,2.52-9.71,1.1-4.47,2.19-8.96,3.17-13.46.26-1.2.6-2.4.67-3.61.4-4.04-.11-6.96-.11-6.96-1-3.97-1.62-6.1-2.63-9.66-1.82-5.6-4.32-10.95-6.56-16.39-.71-1.66-1.43-3.32-2.16-4.98-.88-1.98-1.52-4.05-2.93-5.79-1.95-2.39-4.33-4.08-7.27-5.08-1.06-.36-2.19-.5-3.31-.49-7.77.03-15.55,0-23.32.02-.37.05-.41-.18-.34-.43l.41-4.89Z"/>
          <path class="cls-3" d="M455.65,146.07c-18.42,0-36.85,0-55.27-.02-2.31,0-4.5-.88-6.35-2.55-2.08-1.88-3.54-3.85-4.44-6.03-1.05-2.54-1.77-5.13-2.33-7.32-.78-2.88-1.47-5.84-2.15-8.71-.51-2.19-1.04-4.44-1.6-6.64-.07-.29-1.72-6.85-1.73-12.6,0-1.84.2-3.71.59-5.56,1.92-9.2,5.7-17.79,9.35-26.08l1.29-2.94c.31-.69.57-1.35.83-2.01.4-1.02.82-2.08,1.36-3.16.9-1.85,2.21-3.25,3.48-4.52,2.42-2.7,5.45-3.85,8.34-4.81.94-.31,1.93-.47,2.92-.47h0c6.05,0,12.1,0,18.15,0h.6c-11.42-8.2-15.49-24.42-8.79-36.88.12-.24.24-.47.37-.7,5.18-9.6,15.7-15.49,26.84-14.98h.18c3.66.18,7.11.96,10.27,2.34,8.5,3.71,14.59,11.11,16.71,20.31,2.1,8.47-.31,18.16-6.32,25.22-1.55,1.83-3.34,3.44-5.43,4.88,3,0,6,0,8.99,0,3.27,0,6.54,0,9.81-.02,1.63,0,3.2.23,4.61.71,3.59,1.21,6.65,3.35,9.09,6.34,1.45,1.78,2.24,3.69,2.93,5.37.18.44.36.88.56,1.32.75,1.67,1.47,3.36,2.19,5.04.64,1.56,1.28,3.06,1.92,4.56,1.67,3.91,3.39,7.96,4.76,12.16l.16.54c.95,3.32,1.57,5.51,2.55,9.38l.06.3c.06.35.58,3.54.15,7.96-.08,1.28-.36,2.45-.6,3.48l-.16.68c-1.02,4.67-2.13,9.28-3.19,13.56-.63,2.73-1.76,7.16-2.57,9.89-.52,1.74-1.22,3.78-2.48,5.7-2.53,3.91-5.66,6.03-9.29,6.26h-.25s-5.62,0-5.62,0c-10.17,0-20.34,0-30.51,0ZM409.94,60.66c-.15,0-.29.02-.43.07-2.04.67-3.81,1.33-4.92,2.59l-.19.2c-.88.88-1.65,1.67-2.04,2.48-.4.8-.73,1.65-1.09,2.55-.31.78-.62,1.57-.96,2.33l-1.28,2.91c-3.49,7.92-7.09,16.11-8.84,24.51-.28,1.32-.42,2.63-.42,3.92,0,4.73,1.47,10.57,1.48,10.63.58,2.26,1.12,4.56,1.64,6.79.66,2.8,1.33,5.7,2.09,8.49.51,1.97,1.13,4.22,1.99,6.3.44,1.07,1.21,2.07,2.4,3.15.36.33.7.49,1,.49,28.59.02,57.18.02,85.78.02h5.48c.44-.04,1.48-.3,2.99-2.63.71-1.08,1.16-2.44,1.52-3.62.74-2.48,1.83-6.77,2.46-9.47,1.06-4.28,2.16-8.82,3.16-13.41l.18-.77c.19-.82.37-1.59.41-2.22v-.16c.3-2.96.04-5.23-.04-5.77-.92-3.64-1.5-5.66-2.44-8.96l-.09-.33c-1.25-3.84-2.83-7.52-4.49-11.43-.65-1.54-1.31-3.07-1.94-4.61-.68-1.6-1.39-3.24-2.12-4.87-.23-.51-.44-1.02-.65-1.53-.55-1.34-1.03-2.49-1.73-3.35-1.5-1.83-3.28-3.08-5.45-3.82-.57-.19-1.26-.29-2.01-.28-4.8.02-9.59.02-14.4.02-2.93,0-5.86,0-8.8,0-1.37.06-2.63-.47-3.49-1.47-.84-.98-1.17-2.24-.95-3.54l.48-5.25c.21-1.96,1.53-2.94,2.11-3.27,2.27-1.31,4.08-2.79,5.56-4.53,4.37-5.13,6.14-12.1,4.63-18.18-1.56-6.77-5.97-12.15-12.13-14.84-2.26-.98-4.76-1.55-7.43-1.67h-.18c-8.09-.37-15.71,3.86-19.45,10.78-.1.19-.2.37-.29.55l-.05.1c-5.08,9.4-1.31,22.35,8.07,27.71l.1.06c2.18,1.33,2.35,3.4,2.42,4.18.08.95.09,1.56.1,2.16,0,.39.01.82.04,1.43v.21c.07,1.05.15,2.65-1.16,4.03-1.29,1.36-2.9,1.35-3.6,1.35h-4.85c-6.06,0-12.11,0-18.16,0h0Z"/>
        </g>
        <path class="cls-28" d="M501.77,107.35c-1.39,6.36-2.91,12.7-4.5,19.01-.65,2.48-1.27,4.96-2.13,7.37-.37,1.04-.86,2.03-1.56,2.89-.74.91-1.79,1.26-2.91,1.26-12.87.03-25.74,0-38.61,0-.23-.25-.2-.57-.2-.87,0-8.47,0-16.94,0-25.42,0-.28-.01-.57.14-.82.34-.32.78-.23,1.18-.23,11.02.04,22.04,0,33.05-.16,3.82-.12,7.73-.1,11.43-1.2.87-.25,1.61-.74,2.26-1.37.2-.2.37-.43.63-.56.42-.1.83-.19,1.22.1Z"/>
        <path class="cls-28" d="M439.95,137.87c-12.67.05-25.35,0-38.03.02-2.57,0-3.6-1.04-4.5-3.16-1.56-3.68-2.39-7.58-3.31-11.45-1.29-5.3-2.59-10.61-3.75-15.94.33-.24.71-.2,1.09-.22.08.02.15.05.21.1,2.11,2.64,6.06,2.63,9.16,2.93,12.66.45,25.32.3,37.98.38.4,0,.83-.09,1.19.21.19.3.15.63.15.95,0,8.39,0,16.79,0,25.18,0,.34.06.7-.2,1Z"/>
        <path class="cls-19" d="M466.82,29.03c-.49,12.04-8.75,20.64-21.46,20.89-11.48-.81-20.05-8.64-20.3-21.53.75-10.38,7.27-18.41,18.16-19.97,2.3-.33,4.64-.25,6.91.24,9.64,2.06,16.18,9.41,16.69,20.37Z"/>
        <path class="cls-26" d="M431.19,79.79c2.38,3.64,6.3,5.8,10.49,6.64.63.14,1.34.34,2,.34.87,0,1.61.03,2.45-.02,2.56-.15,5.07-.39,7.52-1.35,2.87-1.19,5.43-3.06,7.16-5.61.16-.13.35-.18.55-.17,1.2.03,2.38-.14,3.58-.16,4.69-.11,9.37-.46,14.05-.78,4.87-.38,9.74-.85,14.6-1.36.22-.02.44-.03.61.14.75,1.78,1.5,3.56,2.24,5.34.31.74.68,1.45.89,2.23-.18.2-.43.19-.66.22-3.24.4-6.48.74-9.72,1.04-5.26.5-10.52.91-15.79,1.18-3.86.18-7.73.3-11.59.42-2.44.07-4.87.03-7.3.09-.69.02-1.39.03-2.05.27-.25.25-.17.57-.17.87,0,6.35,0,12.69,0,19.04-.02.81-.15.96-.95.97-2.36-.02-4.74.09-7.1-.06-.06-6.65,0-13.31-.03-19.97,0-.3.08-.62-.18-.86-1.48-.42-3.25-.23-4.78-.25-2.89.06-5.78-.11-8.67-.17-10.86-.3-21.7-1.24-32.5-2.47-.36-.04-.75-.04-1.04-.31.96-2.56,2.03-5.07,3.13-7.57.46-.24.94-.09,1.4-.04,4.4.52,8.82.88,13.23,1.24,3.01.25,6.02.41,9.03.58,2.97.16,5.94.21,8.91.37.24.01.48.02.68.18Z"/>
        <path class="cls-29" d="M497.31,87.27c-2.46.29-4.92.58-7.38.83-5.76.59-11.53,1.02-17.3,1.39-1.63.11-3.27.22-4.9.21-.21,0-.43-.02-.63-.08,10.14,2.69,20.28,5.45,30.48,7.93,1.05.26,2.11.53,3.16.8.29.07.6.13.79.4.13.39.26.78.39,1.17-.24.2-.5.09-.75.03-7.41-1.84-14.81-3.69-22.2-5.64-5.33-1.34-10.59-2.96-15.89-4.39-3.38-.03-6.75.22-10.12.13-.14,0-.3-.04-.43.11.13.27.41.29.64.39,4.76,1.88,9.66,3.34,14.57,4.74,10.81,3.08,21.74,5.73,32.64,8.5.61.18,1.26.26,1.82.59,0,.9-.63,2.8-1.64,2.92-.51.11-.98-.11-1.45-.23-5.4-1.34-10.81-2.62-16.19-4.02-10.29-2.74-20.67-5.36-30.65-9.08,0,4.66,0,9.33,0,13.99,0,.37.12.8-.28,1.08-.67.25-1.39-.02-2.06.16.01-6.97-.03-13.94.01-20.9,0-.16.12-.29.27-.31,1.17-.18,2.34-.25,3.52-.19,5.43.03,10.86-.16,16.28-.42,5.33-.25,10.66-.68,15.98-1.16,1.98-.19,3.94-.48,5.92-.62,1.81-.13,3.6-.51,5.42-.54l.66,1.99-.69.25Z"/>
        <path class="cls-29" d="M394.8,85.03c4.1.42,8.19.99,12.29,1.28,3.38.26,6.75.56,10.13.8,5.09.26,10.19.39,15.28.56,3.1.18,6.2-.15,9.28.29.16.02.29.16.29.32.04,6.69,0,13.37.01,20.06,0,.66-.07.74-.74.77-.43.02-.87.06-1.29-.08-.42-.26-.3-.69-.3-1.06,0-4.31,0-8.61,0-12.92,0-1.17,0-1.17-1.07-.76-14.37,5.17-29.31,8.5-44.08,12.31-.74.18-1.48.34-2.2.56-.29.09-.59.15-.89.07-.04-.01-.08-.02-.12-.03-.39-.21-.83-.38-.65-.97.72-.44,1.58-.46,2.35-.74,13.93-3.46,27.89-6.86,41.57-11.25,1.55-.5,3.09-1.04,4.58-1.7.47-.21.51-.35.51-1.04,0-.76-.58-1.42-1.34-1.48-2.39-.2-4.6.39-6.82,1.13-13.48,4.32-27.29,7.52-41.01,11-.2.01-.41.13-.61-.03.14-1.17.43-2.62.65-3.52.08-.32.54-.28.83-.35,5.68-1.41,11.35-2.83,17.02-4.29,5.36-1.3,10.7-2.97,16.05-4.27-6.56-.13-13.16-.78-19.71-1.34-3.35-.32-6.72-.61-10.04-1.1-.26-.06-.72-.03-.66-.41s.49-1.21.7-1.82Z"/>
        <path class="cls-24" d="M449.93,137.87c-2.61,0-5.23,0-7.84,0-.34-.25-.26-.62-.27-.96-.01-8.33,0-16.65,0-24.98,0-.41-.07-.83.17-1.21.21-.18.48-.19.74-.19,2.18-.01,4.37,0,6.55,0,.26,0,.52,0,.74.17.22.28.18.62.18.94,0,8.42,0,16.85,0,25.27,0,.34.07.71-.27.96Z"/>
        <path class="cls-26" d="M460.51,93.31c13.14,4.04,26.49,7.36,39.84,10.63.32-.2.53-.51.72-.83.55-.93.87-1.94.97-3.01l-.14-.19c-9.02-2.12-18.06-4.51-27.04-6.91-3.33-.86-7.91-2.38-11.2-3.34l-11.1.29c-.24,0-.3.32-.09.42l6.96,2.56c.36.14.72.26,1.08.38Z"/>
        <path class="cls-19" d="M493.19,74.99c-.81-1.83-1.63-3.67-2.43-5.51-.66-1.54-1.05-3.21-2.13-4.55-.16.23-.36.41-.61.56-1.89,1.09-3.77,2.2-5.66,3.29-4.97,2.82-9.9,5.71-14.84,8.58.27.11.48.12.69.11,1.49-.08,2.97-.22,4.46-.24,1.68-.08,3.35-.26,5.04-.29.42,0,15.58-1.67,15.58-1.67l-.11-.27Z"/>
        <path class="cls-19" d="M497.82,86.98c-1.7.22-3.4.46-5.1.65-2.16.24-4.31.45-6.47.65-3.83.38-7.68.61-11.52.9-2.68.24-5.24.13-7.93.46,11.58,3.31,23.06,6.18,34.71,9.09l-3.53-11.76h-.16Z"/>
        <path class="cls-19" d="M394.11,86.85c.5.33,1.1.3,1.66.38,2.53.37,5.07.6,7.62.8,5.24.57,10.49.92,15.75,1.29.9.06,1.81.03,2.72.12,1.03.09,2.07,0,3.17.22-11.42,3.22-22.88,6.21-34.4,8.95.87-4,1.87-7.99,3.48-11.76Z"/>
        <path class="cls-29" d="M487.41,66.06c-6.53,3.76-12.88,7.45-19.49,11.26,6.44-.4,12.63-.78,19.01-1.4,1.86-.16,3.72-.35,5.57-.58l.79-.08.91,2.2s-.01,0-.02,0c-4.92.55-9.85,1.06-14.79,1.41-6.19.39-12.38.79-18.58.91.37-.95.92-1.82,1.07-2.85.67-.68,1.55-1.02,2.35-1.48,7.27-4.29,14.77-17.28,21.9-12.76.98.62,1.43,1.02,2.04,1.65l.61.78-.51.38c-.28.21-.56.39-.86.57Z"/>
        <path class="cls-19" d="M398.82,75.48c1.08-3.02,2.54-5.77,3.66-8.78.22-.55.42-1.28.95-1.66.22-.06.34.2.5.29,6.66,3.85,13.32,7.7,19.98,11.54.2.12.54.27.47.55-.05.13-.2.17-.33.18-.52.05-1.04.05-1.56,0-1.23-.13-2.47-.14-3.7-.22-3.44-.23-6.88-.47-10.32-.78-2.55-.23-5.1-.42-7.65-.74-.68-.08-1.39,0-2.01-.38Z"/>
        <path class="cls-26" d="M407.83,61.78c.32-.02.59.13.85.28,5.61,3.27,11.25,6.5,16.87,9.75,1.28.74,2.55,1.49,3.84,2.22.25.14,1,.08,1.1.37-.02,1.05-.4,2.28-.23,3.32-.35.27-.75.16-1.13.13-.24-.02-.47-.12-.71-.09-1.25.18-2.25-.38-3.28-.98-6.8-3.95-13.61-7.89-20.42-11.81"/>
        <path class="cls-26" d="M486.13,62.69c-.76.62-1.46,1.12-2.25,1.58-7.29,4.29-14.24,9.3-22,12.67.04-.02.05-.71.09-1.07.02-.13-.73.2-.73.07.03-1.1-2.48-1.24-2.69-2.31.66-.64,4.59-2.39,5.37-2.84,3.19-1.84,6.38-3.71,9.58-5.53,1.91-1.63,4.09-2.91,6.33-4.05.17-.09.38-.1.56-.17,2.12-.16,3.97.62,5.74,1.65Z"/>
        <path class="cls-19" d="M457.86,61.01c-.14,0-.24.02-.32.06l-.74,12.48,4.41-2.21h0c.27.1.45-.09.65-.21,3.02-1.73,6.03-3.48,9.04-5.22.9-.52,1.86-.96,2.68-1.61.94-.75,2.32-1.01,3.4-1.57.57-.29,1.41-1.1,1.74-1.74-6.73,0-14.13.03-20.86.01Z"/>
        <path class="cls-29" d="M430,74.59c-7.35-4.33-14.76-8.58-22.16-12.81,1.91-.95,3.41-.82,5.45-.78l19.54,11.32-2.33,2.86-.5-.58Z"/>
        <path class="cls-22" d="M442.07,110.77c0,9.03,0,18.07,0,27.1-.71,0-1.42,0-2.14,0,0-9.04,0-18.08-.02-27.12.72-.33,1.43-.36,2.14.02Z"/>
        <path class="cls-22" d="M449.93,137.87c0-9.03,0-18.07,0-27.1.71-.38,1.43-.35,2.14-.02-.01,9.04.01,18.08-.02,27.12-.71,0-1.42,0-2.14,0Z"/>
        <path class="cls-29" d="M480.39,61.04l-5.91,3.62c-1.17.74-2.26,1.49-3.42,2.19-2.13,1.29-4.29,2.53-6.47,3.74-.99.55-4.6,2.62-5.66,3.05-.14-.3-1.02-.01-1.15-.38,3.28-1.91,9.97-5.77,13.28-7.62l7.33-4.63,1.99.04Z"/>
        <path class="cls-21" d="M393.59,105.59c-.78.23-2.07.51-2.85.73-.06.03-.12.03-.18,0-.37-.46-.51-1.01-.59-1.58,0-.87,0-1.74,0-2.61.17-.04.34-.07.51-.11.57.86,1.13,1.72,1.78,2.52.29.35,1.28.51,1.32,1.05Z"/>
        <path class="cls-21" d="M500.35,103.94c.86-1.12,1.27-2.44,1.69-3.76.18,1.39.18,2.78.13,4.18-.64.04-1.21-.3-1.82-.41Z"/>
        <path class="cls-4" d="M500.63,107.24c.87-.62,1.17-1.58,1.54-2.51.05.9-.28,1.74-.39,2.62-.39,0-.77,0-1.16,0-.04-.03-.06-.05-.04-.07.02-.02.03-.03.05-.03Z"/>
        <path class="cls-4" d="M390.6,106.29s.09.02.14.03c.24.42.5.54.65.88-.32.23-.68.12-1.03.14-.03-.35-.23-.68-.13-1.04.12-.11.24-.1.37-.01Z"/>
        <path class="cls-2" d="M390.6,106.29c-.12,0-.25,0-.37.01-.2-.5-.33-1.02-.26-1.57.21.52.42,1.04.63,1.56Z"/>
        <path class="cls-16" d="M450.96,108.92c.37,0,.74,0,1.11,0,.36-.29.79-.2,1.19-.2,9.63,0,19.27.04,28.9-.03,5.13.03,10.38-.27,15.18-2.24l3.28.78s0,.07-.01.1c-.86,1.12-1.97,1.8-3.34,2.16-2.05.54-4.14.74-6.25.87-12.98.45-25.96.29-38.94.38-15.48.06-30.97-.01-46.45-.17-3.75-.1-7.6-.1-11.22-1.19-1.18-.37-2.24-1.03-2.9-2.16,1.01-.26,2.02-.52,3.02-.78,1.93.73,3.89,1.36,5.95,1.64,2.05.28,4.09.46,6.17.51,10.76.24,21.52.03,32.29.11.34,0,.7-.05,1,.2"/>
        <path class="cls-25" d="M445.88,23.82c-4.14.1-9.57-2.39-9.17-7.22.42-4.55,5.66-6.54,9.67-6.33,2.27.09,4.44.63,6.32,2.04,2.76,2.09,3.44,5.7,1.14,8.38-1.99,2.3-5.01,3.15-7.95,3.13Z"/>
        <path class="cls-19" d="M497.25,106.45c-.41.46-1.23.58-1.77.77-1.99.68-4.09,1-6.18,1.32-12.5.76-25.04.21-37.56.37,0-5.06,0-10.12,0-15.25,6.4,2.54,12.93,4.27,19.52,6.14,8.58,2.41,17.35,4.5,25.98,6.65Z"/>
        <path class="cls-19" d="M439.94,108.92c-11.92-.09-23.86.21-35.76-.16-2.74-.28-5.5-.54-8.1-1.54-.53-.2-1.13-.3-1.54-.77,15.23-3.95,30.62-7.33,45.4-12.81v15.28Z"/>
        <path class="cls-26" d="M438.07,93.2c-4.97,1.81-10.03,3.35-15.14,4.75-7.12,1.89-14.2,3.89-21.36,5.61-2.73.73-5.48,1.4-8.22,2.09-.08.02-.17,0-.26-.01-.93-1.03-1.98-2.04-2.51-3.34-.06-.15.03-.31.18-.35,12.19-3.16,24.48-6.02,36.55-9.63,2.47-.78,5.48-1.7,7.91-2.64.03-.01.06-.02.09-.02h4.32c.15,0,.27.12.27.27v2.44c0,.11-.07.22-.18.25l-1.67.58Z"/>
        <path class="cls-19" d="M434.05,61.01c-.06,0-.13,0-.2,0-6.67.03-13.89-.03-20.57,0,.02.32.67.42.87.58l20.39,11.78-.49-12.34Z"/>
        <path class="cls-26" d="M404.88,64.91l-.95-.6c1.65-1.6,3.91-2.54,3.91-2.54"/>
        <path class="cls-29" d="M430.25,77.65l-.95-.02c-.16,0-.33-.01-.49-.02l-2.24-.18h-.03c-2.44-1.43-4.88-2.85-7.33-4.27-4.17-2.4-8.37-4.76-12.5-7.23-.9-.54-1.9-.93-2.68-1.65-.06-.14-.66.73-.83.99-.02.04,0,.09.03.1l.63.22c.23.08.45.18.66.31l19.64,11.43c.06.04.03.13-.04.13-3.94-.15-7.71-.44-11.63-.66-4.55-.42-9.1-.76-13.63-1.32-.03,0-.05,0-.06.03-.27.55-.58,1.23-.82,1.87-.01.04.01.08.06.09,2.15.28,4.31.5,6.48.66,3.2.3,6.4.65,9.61.88,3.74.3,7.5.49,11.24.63,1.23,0,2.47.11,3.7.15l2.21.09s-.84-1.51-1.01-2.24Z"/>
        <ellipse class="cls-13" cx="446.06" cy="80.75" rx="17.49" ry="12.88"/>
        <path class="cls-19" d="M454.85,52.15c.19-1.08-.18-.72-.57-.54-2.69,1.24-5.44,2.09-8.32,1.95-.5-.02-.55.25-.55.8.01,4.62,0,9.23,0,13.85,0,4.59.02,9.18-.01,13.76,0,.73.17.97.69.87.36-.07,3.95-.25,5.63-1.93.92-.93,1.77-1.85,1.77-3.49.01-2.55.25-5.07.38-7.61.15-3.01.32-6.02.53-9.03l.43-8.62Z"/>
        <path class="cls-19" d="M457.16,75.63c.02-.52.7-.69.96-.25.06.1.11.2.17.29,1.98,3.05.98,6.73-1.82,8.92-2.09,1.72-4.41,2.81-7,3.15-1.8.23-3.47.4-5.49.3-.97-.05-2.26-.4-3.22-.72-1.24-.41-2.46-.82-3.65-1.39-1.15-.55-2.09-1.37-2.93-2.23-2.06-1.99-2.44-5.59-.86-7.99.05-.08.09-.15.13-.24.24-.44.89-.31.96.18.04.29.08.58.07.87-.06,1.62.35,3.11,1.36,4.38,1.59,2.04,4.12,3.12,6.57,3.75,3.98.95,8.2.32,11.59-2.04,1.76-1.21,3.09-2.91,3.11-5.16,0-.6.05-1.2.07-1.82Z"/>
      </g>
    </g>
  </g>
</svg>