<?xml version="1.0" encoding="UTF-8"?>
<svg id="Layer_1" data-name="Layer 1" xmlns="http://www.w3.org/2000/svg" xmlns:xlink="http://www.w3.org/1999/xlink" viewBox="0 0 382.4 552.6">
  <defs>
    <style>
      .cls-1, .cls-2 {
        fill: none;
      }

      .cls-3 {
        fill: #480000;
      }

      .cls-4 {
        fill: #a00a27;
      }

      .cls-5 {
        fill: #001f7e;
      }

      .cls-6 {
        fill: #777;
      }

      .cls-7 {
        fill: url(#linear-gradient-8);
      }

      .cls-8 {
        fill: url(#linear-gradient-7);
      }

      .cls-9 {
        fill: url(#linear-gradient-5);
      }

      .cls-10 {
        fill: url(#linear-gradient-6);
      }

      .cls-11 {
        fill: url(#linear-gradient-4);
      }

      .cls-12 {
        fill: url(#linear-gradient-3);
      }

      .cls-13 {
        fill: url(#linear-gradient-2);
      }

      .cls-14 {
        fill: #001f7d;
      }

      .cls-15 {
        fill: url(#linear-gradient);
      }

      .cls-16 {
        fill: #8cc4ed;
      }

      .cls-17 {
        fill: #fff;
      }

      .cls-18 {
        fill: #44a0e3;
      }

      .cls-2 {
        stroke: #fc2222;
        stroke-linecap: square;
        stroke-linejoin: bevel;
        stroke-width: .7px;
      }

      .cls-19 {
        fill: #9e0b0b;
      }

      .cls-20 {
        fill: #e06c7c;
      }

      .cls-21 {
        fill: #b3b3b3;
      }

      .cls-22 {
        fill: #840000;
      }

      .cls-23 {
        fill: #68b2e8;
      }

      .cls-24 {
        fill: #ce0c27;
      }

      .cls-25 {
        fill: #357fb0;
      }

      .cls-26 {
        clip-path: url(#clippath);
      }

      .cls-27 {
        fill: #d00c27;
      }

      .cls-28 {
        fill: #fdfdfd;
      }
    </style>
    <linearGradient id="linear-gradient" x1="56.65" y1="637.5" x2="56.65" y2="533.9" gradientTransform="translate(0 -214)" gradientUnits="userSpaceOnUse">
      <stop offset="0" stop-color="#ff9494"/>
      <stop offset="0" stop-color="#ff9595"/>
      <stop offset=".1" stop-color="#ffb5b5"/>
      <stop offset=".2" stop-color="#ffd0d0"/>
      <stop offset=".4" stop-color="#ffe5e5"/>
      <stop offset=".5" stop-color="#fff3f3"/>
      <stop offset=".7" stop-color="#fffcfc"/>
      <stop offset="1" stop-color="#fff"/>
    </linearGradient>
    <linearGradient id="linear-gradient-2" x1="146.45" y1="637.6" x2="146.45" y2="533.9" gradientTransform="translate(0 -214)" gradientUnits="userSpaceOnUse">
      <stop offset="0" stop-color="#ff9494"/>
      <stop offset="0" stop-color="#ff9595"/>
      <stop offset=".1" stop-color="#ffb5b5"/>
      <stop offset=".2" stop-color="#ffd0d0"/>
      <stop offset=".4" stop-color="#ffe5e5"/>
      <stop offset=".5" stop-color="#fff3f3"/>
      <stop offset=".7" stop-color="#fffcfc"/>
      <stop offset="1" stop-color="#fff"/>
    </linearGradient>
    <linearGradient id="linear-gradient-3" x1="236.3" y1="637.4" x2="236.3" y2="533.8" gradientTransform="translate(0 -214)" gradientUnits="userSpaceOnUse">
      <stop offset="0" stop-color="#ff9494"/>
      <stop offset="0" stop-color="#ff9595"/>
      <stop offset=".1" stop-color="#ffb5b5"/>
      <stop offset=".2" stop-color="#ffd0d0"/>
      <stop offset=".4" stop-color="#ffe5e5"/>
      <stop offset=".5" stop-color="#fff3f3"/>
      <stop offset=".7" stop-color="#fffcfc"/>
      <stop offset="1" stop-color="#fff"/>
    </linearGradient>
    <linearGradient id="linear-gradient-4" x1="325.9" y1="637.5" x2="325.9" y2="533.8" gradientTransform="translate(0 -214)" gradientUnits="userSpaceOnUse">
      <stop offset="0" stop-color="#ff9494"/>
      <stop offset="0" stop-color="#ff9595"/>
      <stop offset=".1" stop-color="#ffb5b5"/>
      <stop offset=".2" stop-color="#ffd0d0"/>
      <stop offset=".4" stop-color="#ffe5e5"/>
      <stop offset=".5" stop-color="#fff3f3"/>
      <stop offset=".7" stop-color="#fffcfc"/>
      <stop offset="1" stop-color="#fff"/>
    </linearGradient>
    <linearGradient id="linear-gradient-5" x1="125.5" y1="758.2" x2="125.5" y2="664.5" gradientTransform="translate(0 -214)" gradientUnits="userSpaceOnUse">
      <stop offset="0" stop-color="#9e0b0b"/>
      <stop offset="1" stop-color="#9e0b0b"/>
    </linearGradient>
    <linearGradient id="linear-gradient-6" x1="125.45" y1="748.2" x2="125.45" y2="654.6" gradientTransform="translate(0 -214)" gradientUnits="userSpaceOnUse">
      <stop offset="0" stop-color="#b10007"/>
      <stop offset="1" stop-color="red"/>
    </linearGradient>
    <linearGradient id="linear-gradient-7" x1="192.85" y1="748.2" x2="192.85" y2="654.6" gradientTransform="translate(0 -214)" gradientUnits="userSpaceOnUse">
      <stop offset="0" stop-color="#b10007"/>
      <stop offset="1" stop-color="red"/>
    </linearGradient>
    <linearGradient id="linear-gradient-8" x1="257" y1="748.2" x2="257" y2="654.6" gradientTransform="translate(0 -214)" gradientUnits="userSpaceOnUse">
      <stop offset="0" stop-color="#b10007"/>
      <stop offset="1" stop-color="red"/>
    </linearGradient>
    <clipPath id="clippath">
      <path class="cls-1" d="M97.5,442.7v89.4h15.7v-42.6h24.3v42.6h15.7v-39.6l-9.5-8-1.9-1.6,2-1.6c3-2.4,6.1-5,9.4-7.8v-23.5c-5.7-4.9-7.8-6.7-8.6-7.3h-47.1,0ZM137.5,457.7v18.9h-24.3v-20.9h24.3v2.1-.1ZM173.9,442.7h46.6v12.9h-39.6v20.9h19.9v12.9h-19.9v29.7h39.6v12.9h-46.6l-.4-.3-8.3-7.2v-74.6c5.8-5,7.9-6.7,8.7-7.3v.1ZM229.1,442.7v89.4h46.6l9.1-7.3v-74.7l-8.9-7.3h-46.8v-.1ZM270,461.6v52.3l-.7.6-4.8,4.2-.6.5h-19v-63.6h19.3l.6.5,4.5,3.9.7.6v1Z"/>
    </clipPath>
  </defs>
  <g>
    <path class="cls-14" d="M222.25,123.63c.4-1.33-.04-1.58.57-1.93,6.48-3.75,12.29-8.3,17.17-14.05,13.09-15.38,19.13-36.75,14.22-56.53-4.8-20.85-18.73-37.44-37.49-45.63-7.26-3.17-15.09-4.84-23.01-5.2l-.5-.02c-24.8-1.13-48.42,11.68-60.2,33.53-.3.56-.59,1.12-.88,1.69-16.07,29.71-4.25,69.36,24.98,86.06.96.58,1.2,1.14,1.34,2.87.31,3.73.13,4.94.34,9.02.19,3.71.33,3.59-2.17,3.58-19.89,0-39.77,0-59.66-.01-1.49,0-2.96.23-4.38.7-6.43,2.11-12.73,4.45-17.38,9.76-2.81,2.79-5.56,5.65-7.32,9.27-2.1,4.21-3.53,8.7-5.47,12.97-10.43,23.9-21.68,47.84-27.03,73.49-.86,4.05-1.31,8.18-1.31,12.32.01,13.82,4.17,30.2,4.17,30.2,3.4,13.27,6.16,26.69,9.75,39.92,1.54,5.99,3.23,11.92,5.61,17.64,1.96,4.74,5.14,8.54,8.9,11.93,2.72,2.45,5.97,3.95,9.56,3.95,79.26.06,158.52.05,237.79.04,7.39-.47,12.46-5.93,16.12-11.6,2.42-3.7,3.92-7.86,5.18-12.1,2.05-6.88,4.93-18.26,6.56-25.26,2.87-11.64,5.69-23.3,8.25-35.01.69-3.11,1.55-6.24,1.74-9.4,1.03-10.52-.28-18.1-.28-18.1-2.61-10.32-4.21-15.87-6.85-25.14-4.74-14.56-11.25-28.48-17.06-42.63-1.84-4.33-3.71-8.65-5.63-12.95-2.29-5.14-3.94-10.54-7.63-15.06-5.08-6.22-11.28-10.62-18.92-13.21-2.76-.93-5.69-1.3-8.61-1.29-20.22.08-40.45.02-60.66.04-.96.12-1.07-.47-.88-1.13l1.07-12.73Z"/>
    <path class="cls-25" d="M335.84,268.88c-3.61,16.55-7.56,33.03-11.7,49.46-1.69,6.44-3.31,12.9-5.53,19.18-.96,2.72-2.23,5.28-4.06,7.51-1.94,2.37-4.65,3.28-7.58,3.29-33.48.07-66.97.02-100.45-.02-.6-.65-.52-1.47-.52-2.25-.01-22.04-.01-44.08,0-66.12,0-.73-.03-1.48.37-2.14.9-.84,2.02-.59,3.07-.59,28.66.11,57.33.01,85.97-.42,9.94-.31,20.11-.25,29.74-3.12,2.26-.65,4.2-1.93,5.89-3.57.52-.51.96-1.12,1.64-1.46,1.08-.26,2.16-.51,3.16.26Z"/>
    <path class="cls-25" d="M175,348.29c-32.97.12-65.95-.01-98.92.06-6.69,0-9.36-2.7-11.7-8.21-4.06-9.57-6.21-19.72-8.61-29.8-3.36-13.8-6.73-27.59-9.75-41.47.86-.63,1.85-.53,2.83-.56.21.05.39.14.56.27,5.48,6.88,15.78,6.83,23.82,7.61,32.92,1.17,65.87.77,98.8.99,1.05.01,2.17-.24,3.1.53.48.77.4,1.63.4,2.48,0,21.83,0,43.67,0,65.5,0,.89.15,1.83-.52,2.59Z"/>
    <path class="cls-18" d="M244.91,65.15c-1.28,31.32-22.75,53.68-55.83,54.34-29.87-2.1-52.16-22.48-52.8-56.01,1.96-27,18.9-47.88,47.25-51.94,5.99-.86,12.07-.65,17.98.62,25.07,5.35,42.09,24.47,43.41,53Z"/>
    <path class="cls-24" d="M152.23,197.19c6.2,9.47,16.39,15.08,27.3,17.26,1.64.36,3.48.89,5.19.89,2.26,0,4.18.07,6.38-.06,6.66-.4,13.2-1.01,19.56-3.5,7.47-3.09,14.12-7.96,18.63-14.58.42-.33.91-.46,1.43-.44,3.11.09,6.2-.37,9.31-.41,12.19-.29,24.37-1.19,36.54-2.02,12.68-.98,25.33-2.21,37.98-3.54.57-.06,1.13-.08,1.6.36,1.95,4.63,3.9,9.25,5.84,13.89.8,1.92,1.77,3.78,2.31,5.81-.47.52-1.12.5-1.73.57-8.42,1.05-16.85,1.92-25.3,2.71-13.67,1.3-27.36,2.36-41.08,3.06-10.05.48-20.1.78-30.16,1.08-6.34.19-12.66.08-18.99.24-1.8.04-3.61.07-5.33.7-.65.66-.44,1.49-.44,2.26-.02,16.51,0,33.01-.01,49.52-.04,2.11-.38,2.5-2.47,2.52-6.15-.04-12.32.23-18.46-.15-.17-17.31,0-34.63-.07-51.94,0-.77.21-1.6-.47-2.24-3.85-1.09-8.46-.59-12.42-.66-7.52.16-15.03-.29-22.55-.45-28.26-.79-56.46-3.22-84.54-6.43-.94-.11-1.94-.09-2.71-.8,2.49-6.66,5.29-13.19,8.15-19.69,1.2-.63,2.46-.23,3.65-.09,11.45,1.34,22.93,2.28,34.42,3.22,7.82.64,15.66,1.07,23.5,1.5,7.73.42,15.46.56,23.18.96.63.03,1.25.06,1.77.47Z"/>
    <path class="cls-28" d="M324.22,216.64c-6.4.77-12.8,1.52-19.21,2.16-14.98,1.52-29.99,2.67-45.01,3.62-4.25.29-8.5.57-12.76.55-.56,0-1.11-.05-1.65-.22,26.39,7.01,52.75,14.17,79.28,20.62,2.74.68,5.48,1.38,8.23,2.07.77.19,1.56.33,2.06,1.05.34,1.01.67,2.02,1.01,3.04-.63.53-1.3.23-1.94.07-19.27-4.8-38.54-9.59-57.74-14.66-13.86-3.5-27.56-7.7-41.33-11.41-8.78-.09-17.55.59-26.34.34-.37-.01-.79-.1-1.12.28.34.7,1.07.77,1.67,1,12.38,4.9,25.12,8.69,37.91,12.34,28.13,8.02,56.57,14.89,84.91,22.1,1.6.47,3.28.67,4.74,1.54,0,2.35-1.64,7.27-4.27,7.6-1.34.28-2.54-.28-3.78-.6-14.04-3.48-28.11-6.82-42.11-10.45-26.77-7.14-53.76-13.94-79.74-23.63,0,12.13,0,24.26-.02,36.39,0,.97.31,2.08-.72,2.81-1.76.64-3.62-.06-5.35.41.03-18.13-.08-36.25.04-54.38,0-.41.3-.76.7-.82,3.03-.46,6.08-.65,9.15-.49,14.13.08,28.24-.43,42.36-1.08,13.88-.66,27.74-1.77,41.57-3.02,5.14-.49,10.26-1.26,15.4-1.62,4.72-.34,9.37-1.32,14.11-1.41l1.73,5.17-1.8.65Z"/>
    <path class="cls-28" d="M57.57,210.82c10.66,1.1,21.29,2.58,31.98,3.34,8.79.67,17.56,1.44,26.36,2.09,13.23.69,26.51,1.03,39.74,1.46,8.05.47,16.14-.39,24.14.76.43.06.75.41.75.84.09,17.39.01,34.79.03,52.18,0,1.72-.18,1.92-1.92,1.99-1.12.04-2.26.15-3.36-.21-1.09-.68-.77-1.8-.77-2.77-.03-11.2-.02-22.4-.02-33.61,0-3.05,0-3.04-2.78-1.98-37.37,13.46-76.26,22.12-114.66,32.03-1.91.46-3.84.89-5.72,1.46-.76.23-1.53.4-2.32.18-.1-.03-.2-.06-.3-.09-1.02-.53-2.16-.99-1.69-2.52,1.88-1.15,4.11-1.19,6.12-1.93,36.25-8.99,72.55-17.86,108.14-29.26,4.03-1.3,8.04-2.71,11.92-4.42,1.23-.54,1.32-.92,1.32-2.7,0-1.98-1.51-3.69-3.49-3.86-6.21-.52-11.96,1-17.75,2.93-35.07,11.24-71,19.57-106.68,28.62-.53.04-1.07.35-1.58-.07.37-3.06,1.12-6.82,1.69-9.14.2-.83,1.39-.72,2.16-.91,14.77-3.67,29.54-7.36,44.27-11.17,13.95-3.39,27.85-7.72,41.75-11.1-17.05-.35-34.24-2.03-51.27-3.48-8.72-.84-17.47-1.59-26.13-2.86-.66-.16-1.87-.08-1.71-1.06s1.27-3.14,1.81-4.74Z"/>
    <path class="cls-22" d="M200.96,348.29c-6.8,0-13.6,0-20.41,0-.89-.65-.69-1.62-.69-2.49-.04-21.66,0-43.32,0-64.98,0-1.06-.19-2.16.43-3.14.56-.48,1.24-.5,1.92-.5,5.68-.03,11.36-.02,17.04,0,.67,0,1.36.02,1.94.45.56.73.48,1.6.48,2.44.01,21.91.01,43.82,0,65.74,0,.87.19,1.84-.7,2.49Z"/>
    <path class="cls-24" d="M228.5,232.35c34.18,10.51,68.91,19.14,103.63,27.66.84-.52,1.38-1.32,1.87-2.15,1.43-2.41,2.25-5.03,2.53-7.83l-.36-.5c-23.47-5.5-46.98-11.72-70.33-17.97-8.66-2.24-20.57-6.19-29.15-8.69l-28.88.75c-.61,0-.79.84-.22,1.08l18.1,6.67c.93.36,1.86.69,2.81.98Z"/>
    <path class="cls-18" d="M313.5,184.71c-2.12-4.77-4.25-9.54-6.31-14.34-1.73-4.01-2.73-8.35-5.53-11.85-.43.6-.93,1.08-1.59,1.46-4.92,2.83-9.81,5.71-14.73,8.55-12.93,7.33-25.75,14.85-38.6,22.32.69.29,1.25.31,1.81.28,3.86-.22,7.73-.57,11.59-.63,4.38-.21,8.73-.68,13.12-.75,1.1-.02,40.52-4.34,40.52-4.34l-.27-.69Z"/>
    <path class="cls-18" d="M325.56,215.89c-4.42.58-8.84,1.21-13.27,1.7-5.61.63-11.22,1.18-16.84,1.7-9.97,1-19.98,1.58-29.97,2.35-6.96.61-13.62.33-20.62,1.19,30.14,8.61,59.98,16.08,90.3,23.66l-9.17-30.6h-.43Z"/>
    <path class="cls-18" d="M55.76,215.57c1.31.86,2.87.77,4.31.99,6.57.96,13.2,1.55,19.82,2.08,13.63,1.47,27.3,2.4,40.97,3.36,2.35.16,4.71.09,7.07.3,2.67.24,5.39-.02,8.26.58-29.72,8.39-59.52,16.15-89.5,23.27,2.26-10.4,4.87-20.78,9.06-30.59Z"/>
    <path class="cls-28" d="M298.47,161.48c-16.99,9.79-33.51,19.37-50.7,29.3,16.74-1.03,32.86-2.02,49.45-3.64,4.84-.43,9.68-.92,14.5-1.52l2.06-.21,2.37,5.73s-.04,0-.05,0c-12.8,1.44-25.61,2.75-38.47,3.68-16.09,1.02-32.21,2.05-48.33,2.37.96-2.46,2.39-4.74,2.77-7.41,1.73-1.77,4.04-2.65,6.12-3.86,18.93-11.16,38.43-44.96,56.97-33.21,2.55,1.62,3.72,2.65,5.3,4.28l1.58,2.03-1.32.99c-.72.53-1.47,1.03-2.24,1.47Z"/>
    <path class="cls-18" d="M68.02,185.99c2.82-7.84,6.6-15.02,9.53-22.84.57-1.43,1.1-3.33,2.47-4.31.56-.16.88.51,1.31.77,17.33,10,34.66,20.02,51.99,30.03.51.32,1.42.7,1.23,1.42-.12.34-.51.43-.85.46-1.35.13-2.71.14-4.06,0-3.2-.35-6.42-.36-9.63-.58-8.95-.6-17.91-1.22-26.84-2.04-6.63-.6-13.28-1.1-19.89-1.91-1.76-.22-3.62,0-5.24-.99Z"/>
    <path class="cls-24" d="M91.46,150.33c.84-.06,1.53.33,2.22.73,14.6,8.52,29.26,16.92,43.89,25.38,3.33,1.92,6.64,3.87,9.98,5.77.65.37,2.6.21,2.86.98-.05,2.74-1.04,5.93-.61,8.63-.91.7-1.95.41-2.94.34-.62-.04-1.23-.31-1.84-.22-3.25.47-5.85-.98-8.54-2.55-17.68-10.28-35.4-20.51-53.13-30.72"/>
    <path class="cls-24" d="M295.15,152.71c-1.97,1.62-3.81,2.9-5.85,4.11-18.97,11.17-37.05,24.19-57.24,32.96.11-.05.12-1.85.24-2.78.04-.34-1.91.53-1.9.18.07-2.87-6.45-3.22-7-6,1.73-1.68,11.93-6.22,13.97-7.4,8.31-4.79,16.59-9.64,24.93-14.39,4.98-4.23,10.64-7.57,16.46-10.54.45-.24.98-.25,1.45-.44,5.52-.43,10.32,1.61,14.94,4.3Z"/>
    <path class="cls-18" d="M221.6,148.33c-.35,0-.62.06-.82.16l-1.94,32.46,11.48-5.75h0c.7.25,1.18-.24,1.7-.54,7.85-4.5,15.67-9.05,23.51-13.57,2.35-1.35,4.85-2.51,6.97-4.2,2.43-1.94,6.05-2.64,8.85-4.08,1.49-.77,3.67-2.86,4.52-4.52-17.51-.02-36.75.08-54.26.04Z"/>
    <path class="cls-28" d="M149.12,183.66c-19.13-11.26-38.38-22.31-57.66-33.33,4.97-2.47,8.88-2.12,14.17-2.03l50.84,29.45-6.07,7.43-1.29-1.52Z"/>
    <path class="cls-21" d="M180.53,277.79c0,23.5.02,47,.02,70.5-1.85,0-3.7,0-5.56,0-.02-23.52,0-47.04-.04-70.55,1.87-.87,3.73-.93,5.57.05Z"/>
    <path class="cls-21" d="M200.96,348.29c0-23.5.02-47,.02-70.5,1.85-.99,3.71-.92,5.58-.05-.03,23.52.03,47.04-.04,70.55-1.85,0-3.7,0-5.56,0Z"/>
    <path class="cls-28" d="M280.21,148.4l-15.36,9.43c-3.05,1.94-5.89,3.87-8.89,5.69-5.54,3.35-11.16,6.59-16.82,9.73-2.58,1.43-11.97,6.82-14.73,7.92-.37-.78-2.65-.03-3-1,8.54-4.96,25.93-15,34.55-19.83l19.08-12.05,5.18.11Z"/>
    <path class="cls-20" d="M54.41,264.29c-2.04.59-5.37,1.32-7.42,1.91-.16.08-.31.09-.47,0-.97-1.2-1.32-2.62-1.53-4.11,0-2.26,0-4.53,0-6.79.44-.1.89-.19,1.33-.29,1.48,2.23,2.94,4.47,4.63,6.55.75.92,3.34,1.33,3.44,2.73Z"/>
    <path class="cls-20" d="M332.13,260.01c2.23-2.92,3.3-6.36,4.39-9.79.47,3.61.47,7.23.34,10.86-1.68.09-3.14-.77-4.73-1.07Z"/>
    <path class="cls-6" d="M332.85,268.59c2.26-1.61,3.06-4.11,4.01-6.52.12,2.34-.73,4.53-1.02,6.8-1.01,0-2.01-.02-3.02-.02-.11-.07-.14-.13-.1-.19.04-.05.08-.07.13-.07Z"/>
    <path class="cls-6" d="M46.64,266.14c.12.02.24.04.36.07.64,1.1,1.29,1.42,1.7,2.3-.83.59-1.78.32-2.68.37-.07-.91-.61-1.76-.34-2.71.31-.3.63-.26.96-.03Z"/>
    <path class="cls-3" d="M46.64,266.14c-.32.01-.64.02-.96.03-.53-1.31-.86-2.65-.68-4.08.55,1.35,1.09,2.7,1.64,4.05Z"/>
    <path class="cls-16" d="M203.65,272.96c.96.01,1.92,0,2.88,0,.94-.75,2.05-.52,3.11-.53,25.06-.01,50.12.1,75.18-.07,13.34.09,27-.72,39.49-5.81,2.85.68,5.69,1.36,8.54,2.04-.01.09-.02.17-.03.26-2.23,2.91-5.14,4.68-8.7,5.62-5.34,1.41-10.76,1.92-16.26,2.27-33.76,1.17-67.54.75-101.3.99-40.28.17-80.55-.04-120.83-.44-9.75-.25-19.77-.25-29.19-3.08-3.06-.96-5.84-2.67-7.55-5.62,2.62-.68,5.24-1.36,7.87-2.04,5.03,1.9,10.13,3.54,15.49,4.27,5.33.72,10.65,1.2,16.04,1.32,28,.63,55.99.09,83.99.29.89,0,1.83-.12,2.6.53"/>
    <path class="cls-23" d="M190.44,51.59c-10.78.26-24.91-6.21-23.87-18.78,1.08-11.84,14.73-17,25.15-16.48,5.91.22,11.56,1.63,16.44,5.32,7.18,5.43,8.94,14.82,2.96,21.79-5.18,6-13.03,8.19-20.69,8.15Z"/>
    <path class="cls-18" d="M324.07,266.55c-1.06,1.21-3.21,1.51-4.61,1.99-5.19,1.77-10.63,2.61-16.07,3.44-32.51,1.98-65.15.53-97.71.97,0-13.16,0-26.33,0-39.68,16.64,6.62,33.64,11.1,50.78,15.97,22.31,6.28,45.13,11.7,67.6,17.31Z"/>
    <path class="cls-18" d="M174.99,272.96c-31-.23-62.07.55-93.04-.41-7.12-.72-14.3-1.41-21.07-4-1.38-.53-2.94-.79-4-1.99,39.63-10.26,79.66-19.07,118.12-33.34v39.74Z"/>
    <path class="cls-24" d="M170.12,232.07c-12.94,4.71-26.1,8.73-39.38,12.36-18.51,4.91-36.94,10.13-55.56,14.59-7.1,1.9-14.25,3.63-21.38,5.43-.21.05-.45-.02-.67-.03-2.41-2.67-5.15-5.3-6.52-8.69-.15-.38.08-.81.48-.92,31.72-8.22,63.68-15.67,95.09-25.04,6.44-2.04,14.26-4.41,20.58-6.86.08-.03.16-.05.25-.05h11.23c.38,0,.69.31.69.69v6.34c0,.3-.19.56-.47.66l-4.35,1.5Z"/>
    <path class="cls-18" d="M159.65,148.34c-.16-.02-.33-.03-.52-.02-17.35.09-36.14-.08-53.5-.02.04.83,1.75,1.1,2.26,1.51l53.05,30.64-1.28-32.1Z"/>
    <path class="cls-24" d="M83.77,158.49l-2.48-1.56c4.28-4.18,10.17-6.6,10.17-6.6"/>
    <path class="cls-28" d="M149.77,191.62l-2.47-.05c-.43,0-.86-.03-1.29-.06l-5.82-.46-.07-.02c-6.36-3.69-12.7-7.4-19.06-11.08-10.85-6.25-21.76-12.39-32.52-18.8-2.34-1.4-4.93-2.42-6.98-4.3-.14-.36-1.71,1.9-2.17,2.57-.06.09-.02.22.09.26l1.63.58c.59.21,1.17.48,1.71.8l51.1,29.75c.16.09.08.33-.1.33-10.26-.4-20.07-1.14-30.26-1.72-11.83-1.08-23.68-1.97-35.47-3.43-.07,0-.14.02-.17.09-.71,1.43-1.52,3.19-2.13,4.86-.04.11.03.22.14.23,5.61.73,11.22,1.29,16.86,1.72,8.33.78,16.65,1.68,25,2.29,9.72.77,19.51,1.27,29.24,1.64,3.21.02,6.41.28,9.62.39l5.75.24s-2.19-3.93-2.64-5.83Z"/>
    <ellipse class="cls-14" cx="190.91" cy="199.68" rx="45.5" ry="33.5"/>
    <path class="cls-18" d="M213.76,125.28c.49-2.82-.47-1.86-1.48-1.4-7,3.22-14.15,5.43-21.63,5.07-1.29-.06-1.44.65-1.44,2.08.04,12.01.02,24.02.02,36.03,0,11.94.05,23.87-.03,35.81-.01,1.9.43,2.53,1.81,2.26.94-.19,10.29-.65,14.64-5.03,2.4-2.42,4.59-4.82,4.61-9.09.04-6.63.66-13.2.99-19.79.39-7.84.84-15.67,1.38-23.49l1.13-22.43Z"/>
    <path class="cls-18" d="M219.77,186.36c.04-1.35,1.82-1.81,2.49-.64.15.26.3.52.45.76,5.16,7.95,2.54,17.5-4.74,23.2-5.44,4.47-11.48,7.32-18.22,8.19-4.68.6-9.03,1.04-14.27.79-2.53-.12-5.88-1.05-8.37-1.88-3.22-1.07-6.41-2.14-9.5-3.61-3-1.43-5.45-3.57-7.62-5.81-5.36-5.17-6.35-14.53-2.25-20.8.12-.2.23-.4.35-.61.62-1.14,2.33-.81,2.5.47.1.76.2,1.51.17,2.27-.15,4.22.92,8.08,3.53,11.39,4.14,5.32,10.72,8.11,17.08,9.75,10.35,2.48,21.33.83,30.15-5.32,4.59-3.14,8.03-7.57,8.09-13.43.02-1.57.12-3.12.17-4.72Z"/>
  </g>
  <g>
    <g>
      <path class="cls-5" d="M295.6,444.7l-14.4-9.9c-4,2.9-7.7,5.5-10.8,7.7l-3.3,2.3h-60.7l-7.6-5.3v5.3h-51v-47.2h-2v47.2h-51v-5.3l-7.9,5.3H26.4l-21.9-15.1v-120.7h51.1v84.7h2v-84.7h88.1v37.5h2v-37.5h51v4.9l7.2-4.9h56.7c4.5,0,7,1.8,11.2,4.6,1.8,1.2,4.2,3,7.3,5.1l14.2-9.8h60.9l21.6,14.9v105.9l-21.9,14.9h-60.3v.1Z"/>
      <path class="cls-5" d="M104.2,313.5h37v37.5h11.1v-37.5h42v9l10.9-7.5,2.2-1.5h55.3c3.1,0,4.7,1.1,8.7,3.8,2.2,1.5,5.6,3.9,9.9,7l13.5-9.3,2.2-1.5h58l2.2,1.5,13.6,9.4,2.8,1.9v101.1l-2.8,1.9-13.8,9.4-2.2,1.5h-57.5l-2.2-1.5-13.7-9.5c-5,3.7-9.5,6.9-13.3,9.5l-2.2,1.5h-57.9l-2.2-1.5-11.4-7.9v9.4h-42v-47.2h-11.1v47.2h-42v-9.3l-11.6,7.9-2.2,1.5H27.8l-2.2-1.5-13.8-9.5-2.8-1.9v-113.8h42v84.7h11.1v-84.7h42M69.9,323.9h0v-4.1h0v4.1M186.2,324h.1v-4.1h-.1v4.1M133.2,324h.2v-4.1h-.2v4.1M276.2,331.3v-2h0v2h0M365.5,331.4v-2.1h0v2.1h0M276.2,368.8v-2c-.9-.7-1.9-1.3-2.8-2h0c.9.6,1.9,1.3,2.8,2v2h0M186.4,378.3v-2h-.1v2h.1M194.2,388.9h6.6c-2.4-1.6-4.4-3-5.9-4.1-.2-.2-.5-.3-.7-.5v4.6M320.3,398.2h11.1v-5.4h-11.1v5.4M230.9,398.2h11.1v-5.2h-11.1v5.2M223.1,399.3h.1v-4.1h-.1v4.1M113.2,304.4H0v127.6l3.9,2.7,2.7,1.9,13.8,9.5,2.2,1.5,2.3,1.6h63.1l2-1.3v1.3h113.1v-1.2l1.7,1.2h63.5l2.3-1.6,2.2-1.5c2.5-1.7,5.3-3.7,8.3-5.9l8.4,5.8,2.2,1.5,2.3,1.6h63.1l2.3-1.6,2.2-1.5,13.8-9.4,2.8-1.9,4-2.7v-110.7l-3.9-2.7-2.8-1.9-13.6-9.4-2.2-1.5-2.3-1.6h-63.7l-2.3,1.6-2.2,1.5-8.3,5.7c-1.9-1.4-3.5-2.5-4.8-3.4-4.4-3-7.9-5.4-13.8-5.4h-58.1l-1.2.9v-.9h-90l.2.2Z"/>
    </g>
    <path class="cls-4" d="M370.6,334.8l-13.6-9.4-2.2-1.5h-58l-2.2,1.5-13.5,9.3c-4.3-3.1-7.6-5.4-9.9-7-4-2.7-5.6-3.8-8.7-3.8h-55.3l-2.2,1.5-10.9,7.5v-9h-42v37.5h-11.1v-37.5H62v84.7h-11.1v-84.7H9.1v103.4l2.8,1.9,13.8,9.5,2.2,1.5h57.5l2.2-1.5,11.6-7.9v9.3h42v-47.2h11.1v47.2h42v-9.4l11.4,7.9,2.2,1.5h57.9l2.2-1.5c3.8-2.6,8.3-5.8,13.3-9.5l13.7,9.5,2.2,1.5h57.5l2.2-1.5,13.8-9.4,2.8-1.9v-90.7l-2.8-1.9h0l-.1.1ZM325.8,392.8h5.5v15.8h-11.1v-15.8h5.6ZM320.3,361.3v-5.7h11.1v5.7h-11.1ZM278.3,370.2c-2.6-1.8-5.2-3.7-7.9-5.5h7.9v5.5ZM230.9,361.4v-5.9h11.1v5.9h-11.1ZM189,374.4v2.8c0,1.7.8,3.1,1.9,4.3l-6-4.2,4.2-2.9h-.1ZM194.2,386.7v-2.4c.2.2.5.3.7.5,2.3,1.7,5.7,3.9,10.2,6.9l2.1,1.4h34.8v15.6h-11.1v-9.4h-36.8v-12.6h.1Z"/>
    <path class="cls-27" d="M96.4,319.8v94.3l-13.8,9.4H30.7l-13.8-9.5v-94.1h26.4v84.7h26.7v-84.7h26.4M104.1,313.5h-42v84.7h-11.1v-84.7H9.1v103.4l2.8,1.9,13.8,9.5,2.2,1.5h57.5l2.2-1.5,13.8-9.4,2.8-1.9v-103.6h0l-.1.1Z"/>
    <path class="cls-15" d="M96.4,414.1l-13.8,9.4H30.7l-13.8-9.5v-94.1h26.4v84.7h26.7v-84.7h26.4v94.3h0v-.1Z"/>
    <path class="cls-17" d="M82.9,424.8H30.2l-14.8-10.2v-96.2h29.1v84.7h24v-84.7h29.1v96.4l-14.8,10h.1ZM31.1,422.1h51l12.9-8.7v-92.2h-23.7v84.7h-29.4v-84.7h-23.7v92l12.9,8.9h0Z"/>
    <path class="cls-27" d="M186.4,319.9v37.5l-13.6,9.3,13.6,9.5v47.2h-26.4v-47.2h-26.6v47.2h-26.4v-103.6h26.4v37.5h26.6v-37.5h26.4M194.2,313.6h-42v37.5h-11.1v-37.5h-42v116.2h42v-47.2h11.1v47.2h42v-56.4l-2.7-1.9-6.7-4.7,6.6-4.5,2.8-1.9v-46.8h0Z"/>
    <path class="cls-13" d="M186.2,423.5h-26.4v-47.2h-26.7v47.2h-26.4v-103.6h26.4v37.5h26.7v-37.5h26.4v37.6l-13.6,9.4,13.6,9.5v47.2-.1Z"/>
    <path class="cls-17" d="M187.6,424.8h-29.1v-47.2h-23.9v47.2h-29.1v-106.4h29.1v37.5h23.9v-37.5h29.1v39.6l-12.6,8.6,12.6,8.8v49.3h0v.1ZM161.2,422.1h23.7v-45.2l-14.6-10.2,14.6-10v-35.5h-23.7v37.5h-29.4v-37.5h-23.7v100.9h23.7v-47.2h29.4v47.2h0Z"/>
    <path class="cls-27" d="M262.6,319.9c.3,0,4.9,3.1,13.6,9.4v18.7h-26.4v-9.2h-26.6v18.6h39.6c4.6,3.2,9.1,6.3,13.5,9.4v47.2c-5.1,3.8-9.6,7-13.4,9.5h-52.2l-13.9-9.5v-18.7h26.4v9.4h26.6v-28.3h-39.9c-8.8-5.7-13.2-8.8-13.2-9.5v-37.6l13.4-9.2h52.5M262.6,313.6h-55.3l-2.2,1.5-13.4,9.2-2.8,1.9v40.6c0,3.4,3,5.5,5.9,7.6,2.3,1.7,5.7,3.9,10.2,6.9l2.1,1.4h34.8v15.6h-11.1v-9.4h-42v28l2.8,1.9,13.9,9.5,2.2,1.5h57.9l2.2-1.5c3.9-2.6,8.4-5.9,13.6-9.7l2.6-1.9v-52.9l-2.7-1.9c-3.6-2.5-7.2-5.1-10.9-7.6h13.6v-27.9l-2.6-1.9c-4.4-3.1-7.8-5.5-10.1-7.1-4-2.7-5.6-3.8-8.7-3.8h0ZM231,345.1h11.1v5.9h-11.1v-5.9h0Z"/>
    <path class="cls-12" d="M276.1,347.9h-26.4v-9.2h-26.7v18.6h39.6c4.6,3.2,9.1,6.3,13.5,9.4v47.2c-5.1,3.8-9.6,7-13.4,9.5h-52.3l-13.9-9.5v-18.8h26.4v9.4h26.7v-28.3h-39.9c-8.8-5.7-13.2-8.8-13.2-9.5v-37.7l13.4-9.2h52.5c.3,0,4.9,3.1,13.6,9.4v18.8l.1-.1Z"/>
    <path class="cls-17" d="M263.2,424.8h-53.1l-14.8-10.2v-20.8h29.1v9.4h23.9v-25.6h-38.9l-.3-.2c-13.8-8.9-13.8-9.7-13.8-10.7v-38.4l14.3-9.8h52.9c.6,0,.9,0,14.4,9.6l.6.4v20.8h-29.1v-9.2h-23.9v15.9h38.7l.4.2c4.6,3.1,9.1,6.3,13.5,9.4l.6.4v48.6l-.5.4c-5.1,3.8-9.6,7-13.4,9.6l-.4.2h-.2ZM210.9,422.1h51.4c3.6-2.4,7.7-5.4,12.4-8.9v-45.8c-4.1-2.9-8.3-5.8-12.5-8.7h-40.6v-21.3h29.4v9.2h23.7v-16.7c-9.2-6.5-11.8-8.3-12.6-8.7h-51.8l-12.4,8.5v36.6c.6.6,2.9,2.5,12.2,8.5h40.8v31h-29.4v-9.4h-23.7v16.7l12.9,8.9h0l.2.1Z"/>
    <path class="cls-27" d="M352,319.9l13.6,9.4v18.7h-26.4v-9.2h-26.6v65.8h26.6v-28.5h-13.3v-18.9h39.7v56.9l-13.8,9.4h-51.8l-13.8-9.5v-84.7l13.6-9.4h52.3M354.8,313.6h-58l-2.2,1.5-13.6,9.4-2.8,1.9v90.6l2.8,1.9,13.8,9.5,2.2,1.5h57.5l2.2-1.5,13.8-9.4,2.8-1.9v-90.7l-2.8-1.9-13.6-9.4-2.2-1.5h.1ZM320.3,345.1h11.1v5.7h-11.1v-5.7h0ZM320.3,382.4h11.1v15.8h-11.1v-15.8h0Z"/>
    <path class="cls-11" d="M365.5,347.9h-26.4v-9.2h-26.7v65.8h26.7v-28.5h-13.3v-18.9h39.8v57l-13.8,9.4h-51.9l-13.8-9.5v-84.8l13.6-9.4h52.4l13.6,9.4v18.8h0l-.2-.1Z"/>
    <path class="cls-17" d="M352.1,424.8h-52.7l-14.8-10.2v-86.2l14.5-10h53.2l14.5,10v20.8h-29.1v-9.2h-24v63.1h24v-25.8h-13.3v-21.6h42.5v59l-14.8,10h0v.1ZM300.3,422.1h51l12.9-8.7v-54.9h-37v16.2h13.3v31.2h-29.4v-68.5h29.4v9.2h23.7v-16.7l-12.6-8.7h-51.5l-12.6,8.7v83.3l12.9,8.9h-.1Z"/>
  </g>
  <g>
    <g>
      <g>
        <path class="cls-5" d="M130.9,548.1v-42.6h-11.1v42.6h-28.9v-112.5h54.3c1.4,0,5.7,3.2,13,9.5l1.6,1.4v39.5s-1.7,1.4-1.7,1.5l1.7,1.5v59.2h-28.9v-.1Z"/>
        <path class="cls-5" d="M145.3,440.1c.2,0,3.6,2.8,10.1,8.4v35.4c-1.4,1.2-2.9,2.4-4.2,3.5l4.2,3.6v52.6h-19.9v-42.6h-20.1v42.6h-19.9v-103.5h49.8M115.4,474h20.1v-6.8h-20.1v6.8M145.3,431.1h-58.8v121.5h37.9v-42.6h2.1v42.6h37.9v-108.2l-3.1-2.7c-3.3-2.9-5.8-5-7.5-6.4-3.1-2.6-5-4.2-8.5-4.2h0Z"/>
      </g>
      <g>
        <path class="cls-5" d="M171.5,548.1l-12.8-11v-90.6l1.6-1.4c7.4-6.4,11.8-9.5,13.1-9.5h53.8v36h-9.9v34.9h-29.7v5.5h39.6v36h-55.6l-.1.1Z"/>
        <path class="cls-5" d="M222.6,440.1v27h-39.6v6.8h29.7v28.1h-29.7v14.5h39.6v27h-49.5c-2.4-2-5.7-4.9-10-8.6v-86.5c6.6-5.6,9.9-8.5,10.2-8.5h49.3M231.6,431.1h-58.3c-3.4,0-5.3,1.6-8.5,4.2-1.7,1.4-4.2,3.5-7.6,6.4l-3.1,2.7v94.7l3.1,2.7,8.9,7.6,1.1,1,2.5,2.2h61.8v-45h-9.9v-31.4h9.9v-45h0l.1-.1Z"/>
      </g>
      <g>
        <path class="cls-5" d="M222.6,548.1v-112.5h55.8l13.1,10.8v90.9l-13.3,10.8h-55.6ZM261.4,512.1l2-1.7v-37.2l-1.7-1.5h-10.3v40.4h10Z"/>
        <path class="cls-5" d="M276.7,440.1l10.2,8.5v86.6l-10.4,8.5h-49.4v-103.5h49.6M247,516.6h16.1l4.8-4.2v-41.4l-4.5-3.9h-16.4v49.4M279.9,431.1h-61.9v121.5h61.6l2.5-2,10.4-8.5,3.3-2.7v-95.2l-3.3-2.7-10.2-8.5-2.5-2.1h0l.1.2ZM255.9,476.2h3v31.4h-3v-31.4h0Z"/>
      </g>
    </g>
    <g>
      <g>
        <path class="cls-19" d="M95.5,450.6v93.6h19.9v-42.6h20.1v42.6h19.9v-42.6l-10.2-8.6c3.1-2.5,6.6-5.4,10.2-8.5v-25.4c-6.5-5.6-9.8-8.4-10.1-8.4h-49.8v-.1ZM135.4,484.4h-20.1v-16.8h20.1v16.8Z"/>
        <path class="cls-9" d="M145.3,450.6c.2,0,3.6,2.8,10.1,8.4v25.4c-3.7,3.1-7.1,5.9-10.2,8.5l10.2,8.6v42.6h-19.9v-42.6h-20.1v42.6h-19.9v-93.6h49.8M115.4,484.4h20.1v-16.8h-20.1v16.8M145.3,450.5h-49.8v93.7h20v-42.6h20v42.6h20v-42.7h0l-10.2-8.6c3.2-2.6,6.6-5.4,10.2-8.4h0v-25.5h0c-8.6-7.5-9.9-8.5-10.1-8.5h-.1ZM115.4,467.7h20v16.6h-20v-16.6h0Z"/>
      </g>
      <path class="cls-19" d="M163.1,458.5v76.5c4.4,3.7,7.7,6.6,10.1,8.6h49.8v-17.1h-39.8v-25.5h20v-17.1h-20v-16.8h39.8v-17.1h-49.6c-.2,0-3.7,2.8-10.2,8.5h-.1Z"/>
      <path class="cls-19" d="M276.9,450.6h-49.9v93.6h49.7l10.5-8.5v-76.7l-10.3-8.5h0v.1ZM247.1,467.7h16.5l4.5,3.9v51.3l-4.9,4.2h-16.2v-59.4h.1Z"/>
    </g>
    <path class="cls-10" d="M95.5,440.6v93.6h19.9v-42.6h20.1v42.6h19.9v-42.6l-10.2-8.6c3.1-2.5,6.6-5.4,10.2-8.5v-25.4c-6.5-5.6-9.8-8.4-10.1-8.4h-49.8v-.1ZM135.4,474.5h-20.1v-16.8h20.1v16.8Z"/>
    <path class="cls-8" d="M163.1,449.1v76.5c4.3,3.7,7.7,6.6,10,8.6h49.5v-17.1h-39.6v-25.5h19.9v-17.1h-19.9v-16.8h39.6v-17.1h-49.3c-.2,0-3.6,2.8-10.2,8.5h0Z"/>
    <path class="cls-7" d="M276.7,440.6h-49.6v93.6h49.4l10.4-8.5v-76.7l-10.2-8.5h0v.1ZM247,457.7h16.4l4.5,3.9v51.3l-4.8,4.2h-16.1v-59.4h0Z"/>
    <g class="cls-26">
      <g>
        <path class="cls-2" d="M321.5,552.1l-9.3-8.5"/>
        <path class="cls-2" d="M302.9,552.1l9.3-8.5"/>
        <path class="cls-2" d="M293.6,552.1l9.3-8.5"/>
        <path class="cls-2" d="M284.3,552.1l9.3-8.5"/>
        <path class="cls-2" d="M284.3,552.1l-9.3-8.5"/>
        <path class="cls-2" d="M265.6,552.1l9.3-8.5"/>
        <path class="cls-2" d="M265.6,552.1l-9.3-8.5"/>
        <path class="cls-2" d="M256.3,552.1l-9.3-8.5"/>
        <path class="cls-2" d="M247,552.1l-9.3-8.5"/>
        <path class="cls-2" d="M228.4,552.1l9.3-8.5"/>
        <path class="cls-2" d="M219.1,552.1l9.3-8.5"/>
        <path class="cls-2" d="M219.1,552.1l-9.3-8.5"/>
        <path class="cls-2" d="M200.4,552.1l9.3-8.5"/>
        <path class="cls-2" d="M191.1,552.1l9.3-8.5"/>
        <path class="cls-2" d="M181.8,552.1l9.3-8.5"/>
        <path class="cls-2" d="M181.8,552.1l-9.3-8.5"/>
        <path class="cls-2" d="M163.2,552.1l9.3-8.5"/>
        <path class="cls-2" d="M153.9,552.1l9.3-8.5"/>
        <path class="cls-2" d="M144.6,552.1l9.3-8.5"/>
        <path class="cls-2" d="M135.3,552.1l9.3-8.5"/>
        <path class="cls-2" d="M135.3,552.1l-9.3-8.5"/>
        <path class="cls-2" d="M116.6,552.1l9.3-8.5"/>
        <path class="cls-2" d="M116.6,552.1l-9.3-8.5"/>
        <path class="cls-2" d="M107.3,552.1l-9.3-8.5"/>
        <path class="cls-2" d="M98,552.1l-9.3-8.5"/>
        <path class="cls-2" d="M88.7,552.1l-9.3-8.5"/>
        <path class="cls-2" d="M70.1,552.1l9.3-8.5"/>
        <path class="cls-2" d="M321.5,543.6l-9.3-8.5"/>
        <path class="cls-2" d="M302.9,543.6l9.3-8.5"/>
        <path class="cls-2" d="M293.6,543.6l9.3-8.5"/>
        <path class="cls-2" d="M284.3,543.6l9.3-8.5"/>
        <path class="cls-2" d="M275,543.6l9.3-8.5"/>
        <path class="cls-2" d="M275,543.6l-9.3-8.5"/>
        <path class="cls-2" d="M256.3,543.6l9.3-8.5"/>
        <path class="cls-2" d="M247,543.6l9.3-8.5"/>
        <path class="cls-2" d="M237.7,543.6l9.3-8.5"/>
        <path class="cls-2" d="M237.7,543.6l-9.3-8.5"/>
        <path class="cls-2" d="M228.4,543.6l-9.3-8.5"/>
        <path class="cls-2" d="M219.1,543.6l-9.3-8.5"/>
        <path class="cls-2" d="M209.8,543.6l-9.3-8.5"/>
        <path class="cls-2" d="M191.1,543.6l9.3-8.5"/>
        <path class="cls-2" d="M181.8,543.6l9.3-8.5"/>
        <path class="cls-2" d="M172.5,543.6l9.3-8.5"/>
        <path class="cls-2" d="M163.2,543.6l9.3-8.5"/>
        <path class="cls-2" d="M153.9,543.6l9.3-8.5"/>
        <path class="cls-2" d="M144.6,543.6l9.3-8.5"/>
        <path class="cls-2" d="M135.3,543.6l9.3-8.5"/>
        <path class="cls-2" d="M135.3,543.6l-9.3-8.5"/>
        <path class="cls-2" d="M125.9,543.6l-9.3-8.5"/>
        <path class="cls-2" d="M107.3,543.6l9.3-8.5"/>
        <path class="cls-2" d="M98,543.6l9.3-8.5"/>
        <path class="cls-2" d="M98,543.6l-9.3-8.5"/>
        <path class="cls-2" d="M88.7,543.6l-9.3-8.5"/>
        <path class="cls-2" d="M79.4,543.6l-9.3-8.5"/>
        <path class="cls-2" d="M321.5,535.1l-9.3-8.5"/>
        <path class="cls-2" d="M312.2,535.1l-9.3-8.5"/>
        <path class="cls-2" d="M293.6,535.1l9.3-8.5"/>
        <path class="cls-2" d="M284.3,535.1l9.3-8.5"/>
        <path class="cls-2" d="M275,535.1l9.3-8.5"/>
        <path class="cls-2" d="M265.6,535.1l9.3-8.5"/>
        <path class="cls-2" d="M256.3,535.1l9.3-8.5"/>
        <path class="cls-2" d="M247,535.1l9.3-8.5"/>
        <path class="cls-2" d="M237.7,535.1l9.3-8.5"/>
        <path class="cls-2" d="M228.4,535.1l9.3-8.5"/>
        <path class="cls-2" d="M228.4,535.1l-9.3-8.5"/>
        <path class="cls-2" d="M209.8,535.1l9.3-8.5"/>
        <path class="cls-2" d="M209.8,535.1l-9.3-8.5"/>
        <path class="cls-2" d="M191.1,535.1l9.3-8.5"/>
        <path class="cls-2" d="M181.8,535.1l9.3-8.5"/>
        <path class="cls-2" d="M172.5,535.1l9.3-8.5"/>
        <path class="cls-2" d="M163.2,535.1l9.3-8.5"/>
        <path class="cls-2" d="M163.2,535.1l-9.3-8.5"/>
        <path class="cls-2" d="M144.6,535.1l9.3-8.5"/>
        <path class="cls-2" d="M135.3,535.1l9.3-8.5"/>
        <path class="cls-2" d="M125.9,535.1l9.3-8.5"/>
        <path class="cls-2" d="M116.6,535.1l9.3-8.5"/>
        <path class="cls-2" d="M107.3,535.1l9.3-8.5"/>
        <path class="cls-2" d="M98,535.1l9.3-8.5"/>
        <path class="cls-2" d="M98,535.1l-9.3-8.5"/>
        <path class="cls-2" d="M88.7,535.1l-9.3-8.5"/>
        <path class="cls-2" d="M79.4,535.1l-9.3-8.5"/>
        <path class="cls-2" d="M321.5,526.5l-9.3-8.5"/>
        <path class="cls-2" d="M312.2,526.5l-9.3-8.5"/>
        <path class="cls-2" d="M293.6,526.5l9.3-8.5"/>
        <path class="cls-2" d="M284.3,526.5l9.3-8.5"/>
        <path class="cls-2" d="M275,526.5l9.3-8.5"/>
        <path class="cls-2" d="M275,526.5l-9.3-8.5"/>
        <path class="cls-2" d="M265.6,526.5l-9.3-8.5"/>
        <path class="cls-2" d="M247,526.5l9.3-8.5"/>
        <path class="cls-2" d="M237.7,526.5l9.3-8.5"/>
        <path class="cls-2" d="M228.4,526.5l9.3-8.5"/>
        <path class="cls-2" d="M219.1,526.5l9.3-8.5"/>
        <path class="cls-2" d="M209.8,526.5l9.3-8.5"/>
        <path class="cls-2" d="M200.4,526.5l9.3-8.5"/>
        <path class="cls-2" d="M200.4,526.5l-9.3-8.5"/>
        <path class="cls-2" d="M191.1,526.5l-9.3-8.5"/>
        <path class="cls-2" d="M181.8,526.5l-9.3-8.5"/>
        <path class="cls-2" d="M172.5,526.5l-9.3-8.5"/>
        <path class="cls-2" d="M153.9,526.5l9.3-8.5"/>
        <path class="cls-2" d="M144.6,526.5l9.3-8.5"/>
        <path class="cls-2" d="M135.3,526.5l9.3-8.5"/>
        <path class="cls-2" d="M125.9,526.5l9.3-8.5"/>
        <path class="cls-2" d="M116.6,526.5l9.3-8.5"/>
        <path class="cls-2" d="M107.3,526.5l9.3-8.5"/>
        <path class="cls-2" d="M98,526.5l9.3-8.5"/>
        <path class="cls-2" d="M88.7,526.5l9.3-8.5"/>
        <path class="cls-2" d="M79.4,526.5l9.3-8.5"/>
        <path class="cls-2" d="M70.1,526.5l9.3-8.5"/>
        <path class="cls-2" d="M312.2,518l9.3-8.5"/>
        <path class="cls-2" d="M302.9,518l9.3-8.5"/>
        <path class="cls-2" d="M293.6,518l9.3-8.5"/>
        <path class="cls-2" d="M284.3,518l9.3-8.5"/>
        <path class="cls-2" d="M275,518l9.3-8.5"/>
        <path class="cls-2" d="M265.6,518l9.3-8.5"/>
        <path class="cls-2" d="M265.6,518l-9.3-8.5"/>
        <path class="cls-2" d="M247,518l9.3-8.5"/>
        <path class="cls-2" d="M237.7,518l9.3-8.5"/>
        <path class="cls-2" d="M237.7,518l-9.3-8.5"/>
        <path class="cls-2" d="M228.4,518l-9.3-8.5"/>
        <path class="cls-2" d="M209.8,518l9.3-8.5"/>
        <path class="cls-2" d="M200.4,518l9.3-8.5"/>
        <path class="cls-2" d="M191.1,518l9.3-8.5"/>
        <path class="cls-2" d="M181.8,518l9.3-8.5"/>
        <path class="cls-2" d="M181.8,518l-9.3-8.5"/>
        <path class="cls-2" d="M163.2,518l9.3-8.5"/>
        <path class="cls-2" d="M153.9,518l9.3-8.5"/>
        <path class="cls-2" d="M153.9,518l-9.3-8.5"/>
        <path class="cls-2" d="M135.3,518l9.3-8.5"/>
        <path class="cls-2" d="M135.3,518l-9.3-8.5"/>
        <path class="cls-2" d="M116.6,518l9.3-8.5"/>
        <path class="cls-2" d="M107.3,518l9.3-8.5"/>
        <path class="cls-2" d="M98,518l9.3-8.5"/>
        <path class="cls-2" d="M88.7,518l9.3-8.5"/>
        <path class="cls-2" d="M88.7,518l-9.3-8.5"/>
        <path class="cls-2" d="M70.1,518l9.3-8.5"/>
        <path class="cls-2" d="M312.2,509.5l9.3-8.5"/>
        <path class="cls-2" d="M302.9,509.5l9.3-8.5"/>
        <path class="cls-2" d="M302.9,509.5l-9.3-8.5"/>
        <path class="cls-2" d="M284.3,509.5l9.3-8.5"/>
        <path class="cls-2" d="M275,509.5l9.3-8.5"/>
        <path class="cls-2" d="M265.6,509.5l9.3-8.5"/>
        <path class="cls-2" d="M256.3,509.5l9.3-8.5"/>
        <path class="cls-2" d="M247,509.5l9.3-8.5"/>
        <path class="cls-2" d="M237.7,509.5l9.3-8.5"/>
        <path class="cls-2" d="M228.4,509.5l9.3-8.5"/>
        <path class="cls-2" d="M219.1,509.5l9.3-8.5"/>
        <path class="cls-2" d="M209.8,509.5l9.3-8.5"/>
        <path class="cls-2" d="M209.8,509.5l-9.3-8.5"/>
        <path class="cls-2" d="M200.4,509.5l-9.3-8.5"/>
        <path class="cls-2" d="M191.1,509.5l-9.3-8.5"/>
        <path class="cls-2" d="M172.5,509.5l9.3-8.5"/>
        <path class="cls-2" d="M172.5,509.5l-9.3-8.5"/>
        <path class="cls-2" d="M153.9,509.5l9.3-8.5"/>
        <path class="cls-2" d="M144.6,509.5l9.3-8.5"/>
        <path class="cls-2" d="M144.6,509.5l-9.3-8.5"/>
        <path class="cls-2" d="M135.3,509.5l-9.3-8.5"/>
        <path class="cls-2" d="M125.9,509.5l-9.3-8.5"/>
        <path class="cls-2" d="M107.3,509.5l9.3-8.5"/>
        <path class="cls-2" d="M107.3,509.5l-9.3-8.5"/>
        <path class="cls-2" d="M98,509.5l-9.3-8.5"/>
        <path class="cls-2" d="M79.4,509.5l9.3-8.5"/>
        <path class="cls-2" d="M70.1,509.5l9.3-8.5"/>
        <path class="cls-2" d="M321.5,500.9l-9.3-8.5"/>
        <path class="cls-2" d="M302.9,500.9l9.3-8.5"/>
        <path class="cls-2" d="M293.6,500.9l9.3-8.5"/>
        <path class="cls-2" d="M284.3,500.9l9.3-8.5"/>
        <path class="cls-2" d="M275,500.9l9.3-8.5"/>
        <path class="cls-2" d="M275,500.9l-9.3-8.5"/>
        <path class="cls-2" d="M256.3,500.9l9.3-8.5"/>
        <path class="cls-2" d="M247,500.9l9.3-8.5"/>
        <path class="cls-2" d="M247,500.9l-9.3-8.5"/>
        <path class="cls-2" d="M228.4,500.9l9.3-8.5"/>
        <path class="cls-2" d="M219.1,500.9l9.3-8.5"/>
        <path class="cls-2" d="M209.8,500.9l9.3-8.5"/>
        <path class="cls-2" d="M209.8,500.9l-9.3-8.5"/>
        <path class="cls-2" d="M191.1,500.9l9.3-8.5"/>
        <path class="cls-2" d="M181.8,500.9l9.3-8.5"/>
        <path class="cls-2" d="M172.5,500.9l9.3-8.5"/>
        <path class="cls-2" d="M172.5,500.9l-9.3-8.5"/>
        <path class="cls-2" d="M153.9,500.9l9.3-8.5"/>
        <path class="cls-2" d="M144.6,500.9l9.3-8.5"/>
        <path class="cls-2" d="M135.3,500.9l9.3-8.5"/>
        <path class="cls-2" d="M125.9,500.9l9.3-8.5"/>
        <path class="cls-2" d="M116.6,500.9l9.3-8.5"/>
        <path class="cls-2" d="M116.6,500.9l-9.3-8.5"/>
        <path class="cls-2" d="M98,500.9l9.3-8.5"/>
        <path class="cls-2" d="M88.7,500.9l9.3-8.5"/>
        <path class="cls-2" d="M79.4,500.9l9.3-8.5"/>
        <path class="cls-2" d="M70.1,500.9l9.3-8.5"/>
        <path class="cls-2" d="M321.5,492.4l-9.3-8.5"/>
        <path class="cls-2" d="M302.9,492.4l9.3-8.5"/>
        <path class="cls-2" d="M302.9,492.4l-9.3-8.5"/>
        <path class="cls-2" d="M293.6,492.4l-9.3-8.5"/>
        <path class="cls-2" d="M275,492.4l9.3-8.5"/>
        <path class="cls-2" d="M275,492.4l-9.3-8.5"/>
        <path class="cls-2" d="M265.6,492.4l-9.3-8.5"/>
        <path class="cls-2" d="M247,492.4l9.3-8.5"/>
        <path class="cls-2" d="M247,492.4l-9.3-8.5"/>
        <path class="cls-2" d="M228.4,492.4l9.3-8.5"/>
        <path class="cls-2" d="M228.4,492.4l-9.3-8.5"/>
        <path class="cls-2" d="M209.8,492.4l9.3-8.5"/>
        <path class="cls-2" d="M209.8,492.4l-9.3-8.5"/>
        <path class="cls-2" d="M191.1,492.4l9.3-8.5"/>
        <path class="cls-2" d="M181.8,492.4l9.3-8.5"/>
        <path class="cls-2" d="M181.8,492.4l-9.3-8.5"/>
        <path class="cls-2" d="M163.2,492.4l9.3-8.5"/>
        <path class="cls-2" d="M153.9,492.4l9.3-8.5"/>
        <path class="cls-2" d="M144.6,492.4l9.3-8.5"/>
        <path class="cls-2" d="M135.3,492.4l9.3-8.5"/>
        <path class="cls-2" d="M125.9,492.4l9.3-8.5"/>
        <path class="cls-2" d="M116.6,492.4l9.3-8.5"/>
        <path class="cls-2" d="M107.3,492.4l9.3-8.5"/>
        <path class="cls-2" d="M98,492.4l9.3-8.5"/>
        <path class="cls-2" d="M98,492.4l-9.3-8.5"/>
        <path class="cls-2" d="M79.4,492.4l9.3-8.5"/>
        <path class="cls-2" d="M70.1,492.4l9.3-8.5"/>
        <path class="cls-2" d="M321.5,483.9l-9.3-8.5"/>
        <path class="cls-2" d="M302.9,483.9l9.3-8.5"/>
        <path class="cls-2" d="M293.6,483.9l9.3-8.5"/>
        <path class="cls-2" d="M284.3,483.9l9.3-8.5"/>
        <path class="cls-2" d="M275,483.9l9.3-8.5"/>
        <path class="cls-2" d="M275,483.9l-9.3-8.5"/>
        <path class="cls-2" d="M256.3,483.9l9.3-8.5"/>
        <path class="cls-2" d="M256.3,483.9l-9.3-8.5"/>
        <path class="cls-2" d="M237.7,483.9l9.3-8.5"/>
        <path class="cls-2" d="M228.4,483.9l9.3-8.5"/>
        <path class="cls-2" d="M228.4,483.9l-9.3-8.5"/>
        <path class="cls-2" d="M219.1,483.9l-9.3-8.5"/>
        <path class="cls-2" d="M200.4,483.9l9.3-8.5"/>
        <path class="cls-2" d="M191.1,483.9l9.3-8.5"/>
        <path class="cls-2" d="M181.8,483.9l9.3-8.5"/>
        <path class="cls-2" d="M181.8,483.9l-9.3-8.5"/>
        <path class="cls-2" d="M172.5,483.9l-9.3-8.5"/>
        <path class="cls-2" d="M153.9,483.9l9.3-8.5"/>
        <path class="cls-2" d="M144.6,483.9l9.3-8.5"/>
        <path class="cls-2" d="M135.3,483.9l9.3-8.5"/>
        <path class="cls-2" d="M135.3,483.9l-9.3-8.5"/>
        <path class="cls-2" d="M116.6,483.9l9.3-8.5"/>
        <path class="cls-2" d="M107.3,483.9l9.3-8.5"/>
        <path class="cls-2" d="M98,483.9l9.3-8.5"/>
        <path class="cls-2" d="M88.7,483.9l9.3-8.5"/>
        <path class="cls-2" d="M79.4,483.9l9.3-8.5"/>
        <path class="cls-2" d="M70.1,483.9l9.3-8.5"/>
        <path class="cls-2" d="M312.2,475.3l9.3-8.5"/>
        <path class="cls-2" d="M302.9,475.3l9.3-8.5"/>
        <path class="cls-2" d="M293.6,475.3l9.3-8.5"/>
        <path class="cls-2" d="M293.6,475.3l-9.3-8.5"/>
        <path class="cls-2" d="M284.3,475.3l-9.3-8.5"/>
        <path class="cls-2" d="M275,475.3l-9.3-8.5"/>
        <path class="cls-2" d="M256.3,475.3l9.3-8.5"/>
        <path class="cls-2" d="M247,475.3l9.3-8.5"/>
        <path class="cls-2" d="M247,475.3l-9.3-8.5"/>
        <path class="cls-2" d="M237.7,475.3l-9.3-8.5"/>
        <path class="cls-2" d="M219.1,475.3l9.3-8.5"/>
        <path class="cls-2" d="M209.8,475.3l9.3-8.5"/>
        <path class="cls-2" d="M200.4,475.3l9.3-8.5"/>
        <path class="cls-2" d="M191.1,475.3l9.3-8.5"/>
        <path class="cls-2" d="M191.1,475.3l-9.3-8.5"/>
        <path class="cls-2" d="M181.8,475.3l-9.3-8.5"/>
        <path class="cls-2" d="M163.2,475.3l9.3-8.5"/>
        <path class="cls-2" d="M153.9,475.3l9.3-8.5"/>
        <path class="cls-2" d="M144.6,475.3l9.3-8.5"/>
        <path class="cls-2" d="M135.3,475.3l9.3-8.5"/>
        <path class="cls-2" d="M125.9,475.3l9.3-8.5"/>
        <path class="cls-2" d="M125.9,475.3l-9.3-8.5"/>
        <path class="cls-2" d="M107.3,475.3l9.3-8.5"/>
        <path class="cls-2" d="M98,475.3l9.3-8.5"/>
        <path class="cls-2" d="M88.7,475.3l9.3-8.5"/>
        <path class="cls-2" d="M88.7,475.3l-9.3-8.5"/>
        <path class="cls-2" d="M70.1,475.3l9.3-8.5"/>
        <path class="cls-2" d="M312.2,466.8l9.3-8.5"/>
        <path class="cls-2" d="M302.9,466.8l9.3-8.5"/>
        <path class="cls-2" d="M302.9,466.8l-9.3-8.5"/>
        <path class="cls-2" d="M293.6,466.8l-9.3-8.5"/>
        <path class="cls-2" d="M275,466.8l9.3-8.5"/>
        <path class="cls-2" d="M265.6,466.8l9.3-8.5"/>
        <path class="cls-2" d="M256.3,466.8l9.3-8.5"/>
        <path class="cls-2" d="M247,466.8l9.3-8.5"/>
        <path class="cls-2" d="M237.7,466.8l9.3-8.5"/>
        <path class="cls-2" d="M228.4,466.8l9.3-8.5"/>
        <path class="cls-2" d="M219.1,466.8l9.3-8.5"/>
        <path class="cls-2" d="M209.8,466.8l9.3-8.5"/>
        <path class="cls-2" d="M200.4,466.8l9.3-8.5"/>
        <path class="cls-2" d="M191.1,466.8l9.3-8.5"/>
        <path class="cls-2" d="M191.1,466.8l-9.3-8.5"/>
        <path class="cls-2" d="M181.8,466.8l-9.3-8.5"/>
        <path class="cls-2" d="M163.2,466.8l9.3-8.5"/>
        <path class="cls-2" d="M153.9,466.8l9.3-8.5"/>
        <path class="cls-2" d="M153.9,466.8l-9.3-8.5"/>
        <path class="cls-2" d="M144.6,466.8l-9.3-8.5"/>
        <path class="cls-2" d="M125.9,466.8l9.3-8.5"/>
        <path class="cls-2" d="M116.6,466.8l9.3-8.5"/>
        <path class="cls-2" d="M107.3,466.8l9.3-8.5"/>
        <path class="cls-2" d="M107.3,466.8l-9.3-8.5"/>
        <path class="cls-2" d="M88.7,466.8l9.3-8.5"/>
        <path class="cls-2" d="M79.4,466.8l9.3-8.5"/>
        <path class="cls-2" d="M70.1,466.8l9.3-8.5"/>
        <path class="cls-2" d="M312.2,458.3l9.3-8.5"/>
        <path class="cls-2" d="M312.2,458.3l-9.3-8.5"/>
        <path class="cls-2" d="M293.6,458.3l9.3-8.5"/>
        <path class="cls-2" d="M293.6,458.3l-9.3-8.5"/>
        <path class="cls-2" d="M284.3,458.3l-9.3-8.5"/>
        <path class="cls-2" d="M265.6,458.3l9.3-8.5"/>
        <path class="cls-2" d="M265.6,458.3l-9.3-8.5"/>
        <path class="cls-2" d="M256.3,458.3l-9.3-8.5"/>
        <path class="cls-2" d="M237.7,458.3l9.3-8.5"/>
        <path class="cls-2" d="M228.4,458.3l9.3-8.5"/>
        <path class="cls-2" d="M228.4,458.3l-9.3-8.5"/>
        <path class="cls-2" d="M219.1,458.3l-9.3-8.5"/>
        <path class="cls-2" d="M200.4,458.3l9.3-8.5"/>
        <path class="cls-2" d="M191.1,458.3l9.3-8.5"/>
        <path class="cls-2" d="M191.1,458.3l-9.3-8.5"/>
        <path class="cls-2" d="M172.5,458.3l9.3-8.5"/>
        <path class="cls-2" d="M172.5,458.3l-9.3-8.5"/>
        <path class="cls-2" d="M163.2,458.3l-9.3-8.5"/>
        <path class="cls-2" d="M144.6,458.3l9.3-8.5"/>
        <path class="cls-2" d="M135.3,458.3l9.3-8.5"/>
        <path class="cls-2" d="M135.3,458.3l-9.3-8.5"/>
        <path class="cls-2" d="M116.6,458.3l9.3-8.5"/>
        <path class="cls-2" d="M107.3,458.3l9.3-8.5"/>
        <path class="cls-2" d="M107.3,458.3l-9.3-8.5"/>
        <path class="cls-2" d="M88.7,458.3l9.3-8.5"/>
        <path class="cls-2" d="M79.4,458.3l9.3-8.5"/>
        <path class="cls-2" d="M70.1,458.3l9.3-8.5"/>
        <path class="cls-2" d="M321.5,449.7l-9.3-8.5"/>
        <path class="cls-2" d="M302.9,449.7l9.3-8.5"/>
        <path class="cls-2" d="M293.6,449.7l9.3-8.5"/>
        <path class="cls-2" d="M293.6,449.7l-9.3-8.5"/>
        <path class="cls-2" d="M275,449.7l9.3-8.5"/>
        <path class="cls-2" d="M265.6,449.7l9.3-8.5"/>
        <path class="cls-2" d="M265.6,449.7l-9.3-8.5"/>
        <path class="cls-2" d="M256.3,449.7l-9.3-8.5"/>
        <path class="cls-2" d="M237.7,449.7l9.3-8.5"/>
        <path class="cls-2" d="M228.4,449.7l9.3-8.5"/>
        <path class="cls-2" d="M219.1,449.7l9.3-8.5"/>
        <path class="cls-2" d="M219.1,449.7l-9.3-8.5"/>
        <path class="cls-2" d="M200.4,449.7l9.3-8.5"/>
        <path class="cls-2" d="M191.1,449.7l9.3-8.5"/>
        <path class="cls-2" d="M181.8,449.7l9.3-8.5"/>
        <path class="cls-2" d="M172.5,449.7l9.3-8.5"/>
        <path class="cls-2" d="M163.2,449.7l9.3-8.5"/>
        <path class="cls-2" d="M153.9,449.7l9.3-8.5"/>
        <path class="cls-2" d="M153.9,449.7l-9.3-8.5"/>
        <path class="cls-2" d="M144.6,449.7l-9.3-8.5"/>
        <path class="cls-2" d="M125.9,449.7l9.3-8.5"/>
        <path class="cls-2" d="M116.6,449.7l9.3-8.5"/>
        <path class="cls-2" d="M107.3,449.7l9.3-8.5"/>
        <path class="cls-2" d="M107.3,449.7l-9.3-8.5"/>
        <path class="cls-2" d="M98,449.7l-9.3-8.5"/>
        <path class="cls-2" d="M88.7,449.7l-9.3-8.5"/>
        <path class="cls-2" d="M70.1,449.7l9.3-8.5"/>
        <path class="cls-2" d="M312.2,441.2l9.3-8.5"/>
        <path class="cls-2" d="M302.9,441.2l9.3-8.5"/>
        <path class="cls-2" d="M293.6,441.2l9.3-8.5"/>
        <path class="cls-2" d="M284.3,441.2l9.3-8.5"/>
        <path class="cls-2" d="M275,441.2l9.3-8.5"/>
        <path class="cls-2" d="M275,441.2l-9.3-8.5"/>
        <path class="cls-2" d="M265.6,441.2l-9.3-8.5"/>
        <path class="cls-2" d="M247,441.2l9.3-8.5"/>
        <path class="cls-2" d="M237.7,441.2l9.3-8.5"/>
        <path class="cls-2" d="M237.7,441.2l-9.3-8.5"/>
        <path class="cls-2" d="M228.4,441.2l-9.3-8.5"/>
        <path class="cls-2" d="M209.8,441.2l9.3-8.5"/>
        <path class="cls-2" d="M200.4,441.2l9.3-8.5"/>
        <path class="cls-2" d="M191.1,441.2l9.3-8.5"/>
        <path class="cls-2" d="M181.8,441.2l9.3-8.5"/>
        <path class="cls-2" d="M172.5,441.2l9.3-8.5"/>
        <path class="cls-2" d="M172.5,441.2l-9.3-8.5"/>
        <path class="cls-2" d="M163.2,441.2l-9.3-8.5"/>
        <path class="cls-2" d="M153.9,441.2l-9.3-8.5"/>
        <path class="cls-2" d="M135.3,441.2l9.3-8.5"/>
        <path class="cls-2" d="M125.9,441.2l9.3-8.5"/>
        <path class="cls-2" d="M125.9,441.2l-9.3-8.5"/>
        <path class="cls-2" d="M107.3,441.2l9.3-8.5"/>
        <path class="cls-2" d="M98,441.2l9.3-8.5"/>
        <path class="cls-2" d="M88.7,441.2l9.3-8.5"/>
        <path class="cls-2" d="M79.4,441.2l9.3-8.5"/>
        <path class="cls-2" d="M70.1,441.2l9.3-8.5"/>
        <path class="cls-2" d="M312.2,432.7l9.3-8.5"/>
        <path class="cls-2" d="M302.9,432.7l9.3-8.5"/>
        <path class="cls-2" d="M293.6,432.7l9.3-8.5"/>
        <path class="cls-2" d="M293.6,432.7l-9.3-8.5"/>
        <path class="cls-2" d="M275,432.7l9.3-8.5"/>
        <path class="cls-2" d="M265.6,432.7l9.3-8.5"/>
        <path class="cls-2" d="M256.3,432.7l9.3-8.5"/>
        <path class="cls-2" d="M247,432.7l9.3-8.5"/>
        <path class="cls-2" d="M237.7,432.7l9.3-8.5"/>
        <path class="cls-2" d="M237.7,432.7l-9.3-8.5"/>
        <path class="cls-2" d="M228.4,432.7l-9.3-8.5"/>
        <path class="cls-2" d="M219.1,432.7l-9.3-8.5"/>
        <path class="cls-2" d="M200.4,432.7l9.3-8.5"/>
        <path class="cls-2" d="M200.4,432.7l-9.3-8.5"/>
        <path class="cls-2" d="M181.8,432.7l9.3-8.5"/>
        <path class="cls-2" d="M172.5,432.7l9.3-8.5"/>
        <path class="cls-2" d="M172.5,432.7l-9.3-8.5"/>
        <path class="cls-2" d="M153.9,432.7l9.3-8.5"/>
        <path class="cls-2" d="M144.6,432.7l9.3-8.5"/>
        <path class="cls-2" d="M144.6,432.7l-9.3-8.5"/>
        <path class="cls-2" d="M125.9,432.7l9.3-8.5"/>
        <path class="cls-2" d="M116.6,432.7l9.3-8.5"/>
        <path class="cls-2" d="M116.6,432.7l-9.3-8.5"/>
        <path class="cls-2" d="M98,432.7l9.3-8.5"/>
        <path class="cls-2" d="M88.7,432.7l9.3-8.5"/>
        <path class="cls-2" d="M79.4,432.7l9.3-8.5"/>
        <path class="cls-2" d="M70.1,432.7l9.3-8.5"/>
      </g>
    </g>
    <path class="cls-17" d="M144.6,442.7c.8.6,2.9,2.4,8.6,7.3v23.5c-3.3,2.8-6.5,5.4-9.4,7.8l-2,1.6,1.9,1.6,9.5,8v39.6h-15.7v-42.6h-24.2v42.6h-15.7v-89.4h47.1M113.3,476.6h24.2v-20.9h-24.2v20.9M145.2,440.6h-49.8v93.6h19.9v-42.6h20.1v42.6h19.9v-42.6l-10.2-8.6c3.1-2.5,6.6-5.4,10.2-8.5v-25.4c-6.5-5.6-9.8-8.4-10.1-8.4h0v-.1ZM115.4,474.5v-16.8h20.1v16.8h-20.1Z"/>
    <path class="cls-17" d="M220.5,442.7v12.9h-39.6v20.9h19.9v12.9h-19.9v29.7h39.6v12.9h-46.6l-.4-.3-8.3-7.2v-74.6c5.8-5,7.9-6.7,8.7-7.3h46.6M222.6,440.6h-49.3c-.2,0-3.6,2.8-10.2,8.5v76.5c4.3,3.7,7.7,6.6,10,8.6h49.5v-17.1h-39.6v-25.5h19.9v-17.1h-19.9v-16.8h39.6v-17.1h0Z"/>
    <path class="cls-17" d="M275.9,442.7l8.9,7.3v74.7l-9.1,7.3h-46.6v-89.4h46.8M244.9,519.2h19l.6-.5,4.8-4.2.7-.6v-53.2l-.7-.6-4.5-3.9-.6-.5h-19.3v63.6M276.7,440.6h-49.6v93.6h49.4l10.4-8.5v-76.7l-10.2-8.5h0v.1ZM246.9,517.1v-59.4h16.4l4.5,3.9v51.3l-4.8,4.2h-16.1Z"/>
  </g>
</svg>