<?xml version="1.0" encoding="UTF-8"?>
<svg xmlns="http://www.w3.org/2000/svg" xmlns:xlink="http://www.w3.org/1999/xlink" viewBox="0 0 907.97 146.17">
  <defs>
    <style>
      .cls-1 {
        fill: none;
      }

      .cls-2 {
        fill: #480000;
      }

      .cls-3 {
        fill: #001f7e;
      }

      .cls-4 {
        fill: #777;
      }

      .cls-5 {
        fill: url(#linear-gradient-5);
      }

      .cls-6 {
        fill: url(#linear-gradient-4);
      }

      .cls-7 {
        fill: url(#linear-gradient-3);
      }

      .cls-8 {
        fill: url(#linear-gradient-2);
      }

      .cls-9 {
        fill: #4bd133;
      }

      .cls-10 {
        fill: #001f7d;
      }

      .cls-11 {
        fill: url(#linear-gradient);
      }

      .cls-12 {
        isolation: isolate;
      }

      .cls-13 {
        fill: #8cc4ed;
      }

      .cls-14 {
        clip-path: url(#clippath-1);
      }

      .cls-15 {
        fill: #fff;
      }

      .cls-16 {
        fill: #44a0e3;
      }

      .cls-17 {
        fill: #3fa059;
      }

      .cls-18 {
        fill: #e06c7c;
      }

      .cls-19 {
        fill: #b3b3b3;
      }

      .cls-20 {
        fill: #cf0c27;
      }

      .cls-21 {
        fill: #840000;
      }

      .cls-22 {
        fill: #68b2e8;
      }

      .cls-23 {
        fill: #ce0c27;
      }

      .cls-24 {
        fill: #9f0a27;
      }

      .cls-25 {
        fill: #357fb0;
      }

      .cls-26 {
        fill: #fdfdfd;
      }
    </style>
    <linearGradient id="linear-gradient" x1="56.96" y1="119.79" x2="56.96" y2="15.49" gradientUnits="userSpaceOnUse">
      <stop offset="0" stop-color="#a9e1cc"/>
      <stop offset=".71" stop-color="#fff"/>
    </linearGradient>
    <linearGradient id="linear-gradient-2" x1="147.42" x2="147.42" xlink:href="#linear-gradient"/>
    <linearGradient id="linear-gradient-3" x1="237.87" x2="237.87" xlink:href="#linear-gradient"/>
    <linearGradient id="linear-gradient-4" x1="327.83" x2="327.83" xlink:href="#linear-gradient"/>
    <linearGradient id="linear-gradient-5" x1="708.09" y1="538.86" x2="708.09" y2="427.19" gradientTransform="translate(0 551) scale(1 -1)" gradientUnits="userSpaceOnUse">
      <stop offset="0" stop-color="#4bd133"/>
      <stop offset="1" stop-color="#3fa059"/>
    </linearGradient>
    <clipPath id="clippath-1">
      <path class="cls-1" d="M531.39,12.94l-11.37,9.71v.79l-.18.14v89.93l.18.14v.79l11.6,9.9h45.08l11.59-9.73v-60.85h-33.13v2.01h-.18v14.72h.18v2.01h11.61v33.07h-25.39V31.69h25.39v8.04h.18v2.01h21.35v-19.09l-11.39-9.72h-45.52ZM665.43,52.33l.69-.61v-.76s.12-.1.18-.15v-28.12c-.06-.05-.12-.11-.18-.15v-.75l-.67-.6c-5.11-4.56-8.42-7.47-9.84-8.61l-.55-.44h-57.2v111.38h21.35v-2.01h.18v-49.62h25.39v51.63h21.35v-2.01h.18v-47.29l-.18-.15v-.76l-12.52-10.9.87-.73c3.44-2.88,7.13-6.03,10.96-9.35h-.02ZM644.76,53.13h-25.39v-22.25h25.39v22.25ZM688.48,12.13h56.63v18.75h-46.48v22.25h23.34v18.75h-23.34v32.88h46.48v18.75h-56.7l-11.14-9.89V21.8l.68-.6c5.11-4.53,8.55-7.52,9.98-8.65l.55-.44h0ZM763.55,12.13h56.63v18.75h-46.48v22.25h23.34v18.75h-23.34v32.88h46.48v18.75h-56.7l-11.14-9.89V21.8l.68-.6c6.41-5.67,8.96-7.84,9.98-8.65l.55-.44h0ZM895.45,12.13v111.38h-21.68l-25.02-60.51v60.51h-21.35V12.13h21.18l25.52,61.12V12.13h21.35Z"/>
    </clipPath>
  </defs>
  <g class="cls-12">
    <g id="Layer_1" data-name="Layer 1">
      <g>
        <g>
          <path class="cls-3" d="M297.5,141.19l-14.5-10c-4.05,2.95-7.7,5.54-10.88,7.71l-3.35,2.29h-61.11l-7.7-5.3v5.3h-51.35v-47.49h-2.04v47.49h-51.35v-5.36l-7.92,5.36H26.57l-22.02-15.18V4.55h51.38v85.25h2.05V4.55h51.38v.08h37.19v37.71h2.04V4.64h51.35v4.96l7.21-4.96h57.09c4.53,0,7.09,1.76,11.32,4.67,1.81,1.24,4.29,2.98,7.38,5.19l14.3-9.85h61.23l21.75,15.01v106.58l-22.06,14.96h-60.68Z"/>
          <path class="cls-3" d="M104.81,9.11v.08h37.19v37.71h11.15V9.19h42.24v9.06l10.99-7.55,2.19-1.51h55.68c3.12,0,4.76,1.13,8.73,3.86,2.27,1.56,5.61,3.92,9.92,6.99l13.57-9.35,2.19-1.51h58.4l2.19,1.51,13.66,9.43,2.76,1.91v101.78l-2.82,1.91-13.91,9.43-2.18,1.48h-57.86l-2.19-1.51-13.81-9.52c-5.07,3.73-9.57,6.94-13.37,9.54l-2.19,1.49h-58.29l-2.19-1.51-11.48-7.9v9.41h-42.24v-47.49h-11.15v47.49h-42.24v-9.39l-11.69,7.91-2.18,1.48H27.99l-2.19-1.51-13.92-9.59-2.77-1.91V9.11h42.27v85.26h11.16V9.11h42.27M70.38,19.58v-4.1,4.1M187.43,19.67h.13v-4.1h-.13v4.1M134,19.67h.17v-4.1h-.17v4.1M277.95,27.01v-2.01s-.05-.03-.07-.05v2.02s.05.03.07.05M367.85,27.11v-2.12h0s0,2.11,0,2.11h0M277.95,64.75v-2.05c-.94-.67-1.89-1.33-2.84-2.01h0c.93.66,1.86,1.31,2.78,1.96v2.05s.05.03.07.05M187.56,74.37v-2.06l-.11-.08-.04.03h.01v2.02l.13.09M195.4,84.96h6.69c-2.47-1.63-4.45-2.98-5.99-4.09-.24-.17-.47-.34-.71-.51v4.61M322.29,94.39h11.15v-5.42h-11.15v5.42M232.4,94.39h11.15v-5.24h-11.15v5.24M224.45,95.44h.11v-4.1h-.11v4.1M113.92,0H0v128.41l3.94,2.72,2.77,1.91,13.92,9.59,2.19,1.51,2.33,1.61h63.53l1.97-1.33v1.33h113.85v-1.19l1.73,1.19h63.93l2.32-1.59,2.19-1.49c2.51-1.72,5.32-3.69,8.38-5.9l8.49,5.86,2.19,1.51,2.33,1.61h63.49l2.31-1.57,2.18-1.48,13.91-9.43,2.82-1.91,4-2.71V17.26l-3.93-2.72-2.76-1.91-13.66-9.43-2.19-1.51-2.34-1.61h-64.07l-2.33,1.61-2.19,1.51-8.32,5.73c-1.94-1.37-3.55-2.5-4.84-3.38-4.44-3.06-7.95-5.47-13.9-5.47h-58.51l-1.24.85V.08h-90.59v-.08h0Z"/>
        </g>
        <path class="cls-24" d="M372.92,30.61l-13.66-9.43-2.19-1.51h-58.4l-2.19,1.51-13.57,9.35c-4.32-3.08-7.66-5.43-9.92-6.99-3.97-2.73-5.62-3.86-8.73-3.86h-55.68l-2.19,1.51-10.99,7.55v-9.06h-42.24v37.71h-11.15V19.67h-37.19v-.08h-42.27v85.26h-11.16V19.58H9.11v104.04l2.77,1.91,13.92,9.59,2.19,1.51h57.9l2.18-1.48,11.69-7.91v9.39h42.24v-47.49h11.15v47.49h42.24v-9.41l11.48,7.9,2.19,1.51h58.29l2.19-1.49c3.81-2.6,8.31-5.81,13.37-9.54l13.81,9.52,2.19,1.51h57.86l2.18-1.48,13.91-9.43,2.82-1.91V32.52l-2.76-1.91ZM327.87,88.97h5.57v15.89h-11.15v-15.89h5.57ZM322.29,57.2v-5.75h11.15v5.75h-11.15ZM280.05,66.22c-2.61-1.83-5.26-3.68-7.94-5.52h7.94v5.52ZM232.4,57.38v-5.93h11.15v5.93h-11.15ZM190.15,70.37v2.8c0,1.7.76,3.09,1.88,4.33l-6.07-4.25,4.19-2.88ZM195.4,82.78v-2.42c.24.17.47.34.71.51,2.35,1.7,5.72,3.96,10.31,6.91l2.14,1.37h34.99v15.71h-11.15v-9.43h-37v-12.66Z"/>
        <path class="cls-20" d="M96.97,15.49v94.88l-13.92,9.42H30.87l-13.92-9.59V15.49h26.59v85.26h26.84V15.49h26.59M104.81,9.11h-42.27v85.26h-11.16V9.11H9.11v104.04l2.77,1.91,13.92,9.59,2.19,1.51h57.9l2.18-1.48,13.92-9.42,2.83-1.91V9.11h0Z"/>
        <path class="cls-11" d="M96.97,110.37l-13.92,9.42H30.87l-13.92-9.59V15.49h26.59v85.26h26.84V15.49h26.59v94.88Z"/>
        <path class="cls-15" d="M83.47,121.15H30.44l-14.86-10.24V14.12h29.32v85.26h24.11V14.12h29.32v96.97l-14.86,10.06ZM31.29,118.42h51.34l12.97-8.78V16.85h-23.86v85.26h-29.57V16.85h-23.86v92.62l12.97,8.94Z"/>
        <path class="cls-20" d="M187.56,15.56v37.77l-13.66,9.4,13.66,9.57v47.49h-26.57v-47.49h-26.82v47.49h-26.57V15.56h26.57v37.71h26.82V15.56h26.57M195.4,9.19h-42.24v37.71h-11.15V9.19h-42.24v116.97h42.24v-47.49h11.15v47.49h42.24v-56.78l-2.72-1.91-6.71-4.7,6.65-4.58,2.77-1.91V9.19h0Z"/>
        <path class="cls-8" d="M187.43,119.79h-26.59v-47.52h-26.84v47.52h-26.59V15.49h26.59v37.73h26.84V15.49h26.59v37.79l-13.67,9.41,13.67,9.58v47.52Z"/>
        <path class="cls-15" d="M188.79,121.15h-29.32v-47.52h-24.11v47.52h-29.32V14.12h29.32v37.73h24.11V14.12h29.32v39.88l-12.64,8.7,12.64,8.86v49.6ZM162.2,118.42h23.86v-45.44l-14.7-10.3,14.7-10.11V16.85h-23.86v37.73h-29.57V16.85h-23.86v101.57h23.86v-47.52h29.57v47.52Z"/>
        <path class="cls-20" d="M264.25,15.56c.33,0,4.9,3.14,13.7,9.43v18.85h-26.57v-9.25h-26.82v18.68h39.86c4.68,3.2,9.19,6.34,13.54,9.43v47.49c-5.15,3.79-9.63,7-13.45,9.6h-52.56l-13.95-9.6v-18.85h26.57v9.43h26.82v-28.46h-40.11c-8.86-5.69-13.29-8.89-13.29-9.61V24.81l13.45-9.25h52.81M264.25,9.19h-55.68l-2.19,1.51-13.45,9.25-2.78,1.91v40.84c0,3.39,3.02,5.58,5.95,7.7,2.35,1.7,5.72,3.96,10.31,6.91l2.14,1.37h34.99v15.71h-11.15v-9.43h-42.24v28.18l2.77,1.91,13.95,9.6,2.19,1.51h58.29l2.19-1.49c3.88-2.65,8.48-5.94,13.67-9.76l2.57-1.9v-53.21l-2.69-1.9c-3.58-2.54-7.26-5.11-10.99-7.68h13.68v-28.11l-2.67-1.9c-4.42-3.16-7.83-5.56-10.14-7.15-3.97-2.73-5.62-3.86-8.73-3.86h0ZM232.4,40.97h11.15v5.93h-11.15v-5.93h0Z"/>
        <path class="cls-7" d="M277.88,43.79h-26.59v-9.26h-26.84v18.69h39.88c4.68,3.2,9.19,6.35,13.54,9.43v47.52c-5.15,3.8-9.64,7-13.46,9.61h-52.6l-13.96-9.61v-18.87h26.59v9.43h26.84v-28.48h-40.13c-8.86-5.7-13.3-8.9-13.3-9.61V24.74l13.46-9.26h52.85c.33,0,4.9,3.15,13.71,9.43v18.87Z"/>
        <path class="cls-15" d="M264.84,121.15h-53.44l-14.9-10.26v-20.95h29.32v9.43h24.11v-25.74h-39.17l-.34-.22c-13.92-8.95-13.92-9.75-13.92-10.76V24.02l14.4-9.9h53.27c.62,0,.93,0,14.51,9.69l.57.41v20.94h-29.32v-9.26h-24.11v15.96h38.94l.35.24c4.6,3.15,9.16,6.32,13.56,9.44l.58.41v48.92l-.56.41c-5.14,3.79-9.69,7.03-13.5,9.64l-.35.24ZM212.25,118.42h51.75c3.58-2.45,7.79-5.45,12.52-8.93v-46.13c-4.1-2.9-8.34-5.85-12.6-8.77h-40.83v-21.42h29.57v9.26h23.86v-16.8c-9.24-6.59-11.92-8.36-12.64-8.77h-52.13l-12.52,8.61v36.83c.58.62,2.95,2.57,12.33,8.61h41.1v31.21h-29.57v-9.43h-23.86v16.78l13.02,8.96ZM199.1,62.13"/>
        <path class="cls-20" d="M354.19,15.56l13.66,9.43v18.85h-26.57v-9.25h-26.82v66.16h26.82v-28.63h-13.41v-19.03h39.98v57.27l-13.91,9.43h-52.15l-13.91-9.59V24.98l13.66-9.41h52.65M357.07,9.19h-58.4l-2.19,1.51-13.66,9.41-2.77,1.91v91.13l2.77,1.91,13.91,9.59,2.19,1.51h57.86l2.18-1.48,13.91-9.43,2.82-1.91V22.04l-2.76-1.91-13.66-9.43-2.19-1.51h0ZM322.29,40.97h11.15v5.75h-11.15v-5.75h0ZM322.29,78.5h11.15v15.89h-11.15v-15.89h0Z"/>
        <path class="cls-6" d="M367.84,43.79h-26.59v-9.26h-26.84v66.21h26.84v-28.66h-13.42v-19.04h40.01v57.31l-13.92,9.43h-52.19l-13.92-9.59V24.9l13.67-9.42h52.68l13.67,9.43v18.87Z"/>
        <path class="cls-15" d="M354.34,121.15h-53.03l-14.86-10.24V24.18l14.61-10.07h53.53l14.61,10.08v20.95h-29.32v-9.26h-24.11v63.48h24.11v-25.92h-13.42v-21.78h42.74v59.4l-14.86,10.08ZM302.16,118.42h51.34l12.97-8.79v-55.22h-37.28v16.31h13.42v31.39h-29.57V33.16h29.57v9.26h23.86v-16.78l-12.73-8.78h-51.83l-12.73,8.77v83.85l12.97,8.94Z"/>
      </g>
      <g>
        <g>
          <path class="cls-3" d="M458.11,51.51c.15-.51-.01-.61.22-.74,2.49-1.44,4.72-3.19,6.6-5.4,5.03-5.91,7.35-14.13,5.47-21.73-1.84-8.02-7.2-14.39-14.41-17.54-2.79-1.22-5.8-1.86-8.85-2h-.19c-9.53-.44-18.61,4.48-23.14,12.88-.12.21-.23.43-.34.65-6.18,11.42-1.64,26.66,9.6,33.08.37.22.46.44.52,1.1.12,1.43.05,1.9.13,3.47.07,1.43.13,1.38-.83,1.38-7.64,0-15.29,0-22.93,0-.57,0-1.14.09-1.68.27-2.47.81-4.89,1.71-6.68,3.75-1.08,1.07-2.14,2.17-2.81,3.56-.81,1.62-1.36,3.34-2.1,4.99-4.01,9.19-8.33,18.39-10.39,28.25-.33,1.56-.5,3.14-.5,4.73,0,5.31,1.6,11.61,1.6,11.61,1.31,5.1,2.37,10.26,3.75,15.34.59,2.3,1.24,4.58,2.16,6.78.75,1.82,1.98,3.28,3.42,4.59,1.04.94,2.3,1.52,3.67,1.52,30.47.02,60.94.02,91.41.02,2.84-.18,4.79-2.28,6.2-4.46.93-1.42,1.51-3.02,1.99-4.65.79-2.65,1.9-7.02,2.52-9.71,1.1-4.47,2.19-8.96,3.17-13.46.26-1.2.6-2.4.67-3.61.4-4.04-.11-6.96-.11-6.96-1-3.97-1.62-6.1-2.63-9.66-1.82-5.6-4.32-10.95-6.56-16.39-.71-1.66-1.43-3.32-2.16-4.98-.88-1.98-1.52-4.05-2.93-5.79-1.95-2.39-4.33-4.08-7.27-5.08-1.06-.36-2.19-.5-3.31-.49-7.77.03-15.55,0-23.32.02-.37.05-.41-.18-.34-.43l.41-4.89Z"/>
          <path class="cls-3" d="M455.65,146.07c-18.42,0-36.85,0-55.27-.02-2.31,0-4.5-.88-6.35-2.55-2.08-1.88-3.54-3.85-4.44-6.03-1.05-2.54-1.77-5.13-2.33-7.32-.78-2.88-1.47-5.84-2.15-8.71-.51-2.19-1.04-4.44-1.6-6.64-.07-.29-1.72-6.85-1.73-12.6,0-1.84.2-3.71.59-5.56,1.92-9.2,5.7-17.79,9.35-26.08l1.29-2.94c.31-.69.57-1.35.83-2.01.4-1.02.82-2.08,1.36-3.16.9-1.85,2.21-3.25,3.48-4.52,2.42-2.7,5.45-3.85,8.34-4.81.94-.31,1.93-.47,2.92-.47h0c6.05,0,12.1,0,18.15,0h.6c-11.42-8.2-15.49-24.42-8.79-36.88.12-.24.24-.47.37-.7,5.18-9.6,15.7-15.49,26.84-14.98h.18c3.66.18,7.11.96,10.27,2.34,8.5,3.71,14.59,11.11,16.71,20.31,2.1,8.47-.31,18.16-6.32,25.22-1.55,1.83-3.34,3.44-5.43,4.88,3,0,6,0,8.99,0,3.27,0,6.54,0,9.81-.02,1.63,0,3.2.23,4.61.71,3.59,1.21,6.65,3.35,9.09,6.34,1.45,1.78,2.24,3.69,2.93,5.37.18.44.36.88.56,1.32.75,1.67,1.47,3.36,2.19,5.04.64,1.56,1.28,3.06,1.92,4.56,1.67,3.91,3.39,7.96,4.76,12.16l.16.54c.95,3.32,1.57,5.51,2.55,9.38l.06.3c.06.35.58,3.54.15,7.96-.08,1.28-.36,2.45-.6,3.48l-.16.68c-1.02,4.67-2.13,9.28-3.19,13.56-.63,2.73-1.76,7.16-2.57,9.89-.52,1.74-1.22,3.78-2.48,5.7-2.53,3.91-5.66,6.03-9.29,6.26h-.25s-5.62,0-5.62,0c-10.17,0-20.34,0-30.51,0ZM409.94,60.66c-.15,0-.29.02-.43.07-2.04.67-3.81,1.33-4.92,2.59l-.19.2c-.88.88-1.65,1.67-2.04,2.48-.4.8-.73,1.65-1.09,2.55-.31.78-.62,1.57-.96,2.33l-1.28,2.91c-3.49,7.92-7.09,16.11-8.84,24.51-.28,1.32-.42,2.63-.42,3.92,0,4.73,1.47,10.57,1.48,10.63.58,2.26,1.12,4.56,1.64,6.79.66,2.8,1.33,5.7,2.09,8.49.51,1.97,1.13,4.22,1.99,6.3.44,1.07,1.21,2.07,2.4,3.15.36.33.7.49,1,.49,28.59.02,57.18.02,85.78.02h5.48c.44-.04,1.48-.3,2.99-2.63.71-1.08,1.16-2.44,1.52-3.62.74-2.48,1.83-6.77,2.46-9.47,1.06-4.28,2.16-8.82,3.16-13.41l.18-.77c.19-.82.37-1.59.41-2.22v-.16c.3-2.96.04-5.23-.04-5.77-.92-3.64-1.5-5.66-2.44-8.96l-.09-.33c-1.25-3.84-2.83-7.52-4.49-11.43-.65-1.54-1.31-3.07-1.94-4.61-.68-1.6-1.39-3.24-2.12-4.87-.23-.51-.44-1.02-.65-1.53-.55-1.34-1.03-2.49-1.73-3.35-1.5-1.83-3.28-3.08-5.45-3.82-.57-.19-1.26-.29-2.01-.28-4.8.02-9.59.02-14.4.02-2.93,0-5.86,0-8.8,0-1.37.06-2.63-.47-3.49-1.47-.84-.98-1.17-2.24-.95-3.54l.48-5.25c.21-1.96,1.53-2.94,2.11-3.27,2.27-1.31,4.08-2.79,5.56-4.53,4.37-5.13,6.14-12.1,4.63-18.18-1.56-6.77-5.97-12.15-12.13-14.84-2.26-.98-4.76-1.55-7.43-1.67h-.18c-8.09-.37-15.71,3.86-19.45,10.78-.1.19-.2.37-.29.55l-.05.1c-5.08,9.4-1.31,22.35,8.07,27.71l.1.06c2.18,1.33,2.35,3.4,2.42,4.18.08.95.09,1.56.1,2.16,0,.39.01.82.04,1.43v.21c.07,1.05.15,2.65-1.16,4.03-1.29,1.36-2.9,1.35-3.6,1.35h-4.85c-6.06,0-12.11,0-18.16,0h0Z"/>
        </g>
        <path class="cls-25" d="M501.77,107.35c-1.39,6.36-2.91,12.7-4.5,19.01-.65,2.48-1.27,4.96-2.13,7.37-.37,1.04-.86,2.03-1.56,2.89-.74.91-1.79,1.26-2.91,1.26-12.87.03-25.74,0-38.61,0-.23-.25-.2-.57-.2-.87,0-8.47,0-16.94,0-25.42,0-.28-.01-.57.14-.82.34-.32.78-.23,1.18-.23,11.02.04,22.04,0,33.05-.16,3.82-.12,7.73-.1,11.43-1.2.87-.25,1.61-.74,2.26-1.37.2-.2.37-.43.63-.56.42-.1.83-.19,1.22.1Z"/>
        <path class="cls-25" d="M439.95,137.87c-12.67.05-25.35,0-38.03.02-2.57,0-3.6-1.04-4.5-3.16-1.56-3.68-2.39-7.58-3.31-11.45-1.29-5.3-2.59-10.61-3.75-15.94.33-.24.71-.2,1.09-.22.08.02.15.05.21.1,2.11,2.64,6.06,2.63,9.16,2.93,12.66.45,25.32.3,37.98.38.4,0,.83-.09,1.19.21.19.3.15.63.15.95,0,8.39,0,16.79,0,25.18,0,.34.06.7-.2,1Z"/>
        <path class="cls-16" d="M466.82,29.03c-.49,12.04-8.75,20.64-21.46,20.89-11.48-.81-20.05-8.64-20.3-21.53.75-10.38,7.27-18.41,18.16-19.97,2.3-.33,4.64-.25,6.91.24,9.64,2.06,16.18,9.41,16.69,20.37Z"/>
        <path class="cls-23" d="M431.19,79.79c2.38,3.64,6.3,5.8,10.49,6.64.63.14,1.34.34,2,.34.87,0,1.61.03,2.45-.02,2.56-.15,5.07-.39,7.52-1.35,2.87-1.19,5.43-3.06,7.16-5.61.16-.13.35-.18.55-.17,1.2.03,2.38-.14,3.58-.16,4.69-.11,9.37-.46,14.05-.78,4.87-.38,9.74-.85,14.6-1.36.22-.02.44-.03.61.14.75,1.78,1.5,3.56,2.24,5.34.31.74.68,1.45.89,2.23-.18.2-.43.19-.66.22-3.24.4-6.48.74-9.72,1.04-5.26.5-10.52.91-15.79,1.18-3.86.18-7.73.3-11.59.42-2.44.07-4.87.03-7.3.09-.69.02-1.39.03-2.05.27-.25.25-.17.57-.17.87,0,6.35,0,12.69,0,19.04-.02.81-.15.96-.95.97-2.36-.02-4.74.09-7.1-.06-.06-6.65,0-13.31-.03-19.97,0-.3.08-.62-.18-.86-1.48-.42-3.25-.23-4.78-.25-2.89.06-5.78-.11-8.67-.17-10.86-.3-21.7-1.24-32.5-2.47-.36-.04-.75-.04-1.04-.31.96-2.56,2.03-5.07,3.13-7.57.46-.24.94-.09,1.4-.04,4.4.52,8.82.88,13.23,1.24,3.01.25,6.02.41,9.03.58,2.97.16,5.94.21,8.91.37.24.01.48.02.68.18Z"/>
        <path class="cls-26" d="M497.31,87.27c-2.46.29-4.92.58-7.38.83-5.76.59-11.53,1.02-17.3,1.39-1.63.11-3.27.22-4.9.21-.21,0-.43-.02-.63-.08,10.14,2.69,20.28,5.45,30.48,7.93,1.05.26,2.11.53,3.16.8.29.07.6.13.79.4.13.39.26.78.39,1.17-.24.2-.5.09-.75.03-7.41-1.84-14.81-3.69-22.2-5.64-5.33-1.34-10.59-2.96-15.89-4.39-3.38-.03-6.75.22-10.12.13-.14,0-.3-.04-.43.11.13.27.41.29.64.39,4.76,1.88,9.66,3.34,14.57,4.74,10.81,3.08,21.74,5.73,32.64,8.5.61.18,1.26.26,1.82.59,0,.9-.63,2.8-1.64,2.92-.51.11-.98-.11-1.45-.23-5.4-1.34-10.81-2.62-16.19-4.02-10.29-2.74-20.67-5.36-30.65-9.08,0,4.66,0,9.33,0,13.99,0,.37.12.8-.28,1.08-.67.25-1.39-.02-2.06.16.01-6.97-.03-13.94.01-20.9,0-.16.12-.29.27-.31,1.17-.18,2.34-.25,3.52-.19,5.43.03,10.86-.16,16.28-.42,5.33-.25,10.66-.68,15.98-1.16,1.98-.19,3.94-.48,5.92-.62,1.81-.13,3.6-.51,5.42-.54l.66,1.99-.69.25Z"/>
        <path class="cls-26" d="M394.8,85.03c4.1.42,8.19.99,12.29,1.28,3.38.26,6.75.56,10.13.8,5.09.26,10.19.39,15.28.56,3.1.18,6.2-.15,9.28.29.16.02.29.16.29.32.04,6.69,0,13.37.01,20.06,0,.66-.07.74-.74.77-.43.02-.87.06-1.29-.08-.42-.26-.3-.69-.3-1.06,0-4.31,0-8.61,0-12.92,0-1.17,0-1.17-1.07-.76-14.37,5.17-29.31,8.5-44.08,12.31-.74.18-1.48.34-2.2.56-.29.09-.59.15-.89.07-.04-.01-.08-.02-.12-.03-.39-.21-.83-.38-.65-.97.72-.44,1.58-.46,2.35-.74,13.93-3.46,27.89-6.86,41.57-11.25,1.55-.5,3.09-1.04,4.58-1.7.47-.21.51-.35.51-1.04,0-.76-.58-1.42-1.34-1.48-2.39-.2-4.6.39-6.82,1.13-13.48,4.32-27.29,7.52-41.01,11-.2.01-.41.13-.61-.03.14-1.17.43-2.62.65-3.52.08-.32.54-.28.83-.35,5.68-1.41,11.35-2.83,17.02-4.29,5.36-1.3,10.7-2.97,16.05-4.27-6.56-.13-13.16-.78-19.71-1.34-3.35-.32-6.72-.61-10.04-1.1-.26-.06-.72-.03-.66-.41s.49-1.21.7-1.82Z"/>
        <path class="cls-21" d="M449.93,137.87c-2.61,0-5.23,0-7.84,0-.34-.25-.26-.62-.27-.96-.01-8.33,0-16.65,0-24.98,0-.41-.07-.83.17-1.21.21-.18.48-.19.74-.19,2.18-.01,4.37,0,6.55,0,.26,0,.52,0,.74.17.22.28.18.62.18.94,0,8.42,0,16.85,0,25.27,0,.34.07.71-.27.96Z"/>
        <path class="cls-23" d="M460.51,93.31c13.14,4.04,26.49,7.36,39.84,10.63.32-.2.53-.51.72-.83.55-.93.87-1.94.97-3.01l-.14-.19c-9.02-2.12-18.06-4.51-27.04-6.91-3.33-.86-7.91-2.38-11.2-3.34l-11.1.29c-.24,0-.3.32-.09.42l6.96,2.56c.36.14.72.26,1.08.38Z"/>
        <path class="cls-16" d="M493.19,74.99c-.81-1.83-1.63-3.67-2.43-5.51-.66-1.54-1.05-3.21-2.13-4.55-.16.23-.36.41-.61.56-1.89,1.09-3.77,2.2-5.66,3.29-4.97,2.82-9.9,5.71-14.84,8.58.27.11.48.12.69.11,1.49-.08,2.97-.22,4.46-.24,1.68-.08,3.35-.26,5.04-.29.42,0,15.58-1.67,15.58-1.67l-.11-.27Z"/>
        <path class="cls-16" d="M497.82,86.98c-1.7.22-3.4.46-5.1.65-2.16.24-4.31.45-6.47.65-3.83.38-7.68.61-11.52.9-2.68.24-5.24.13-7.93.46,11.58,3.31,23.06,6.18,34.71,9.09l-3.53-11.76h-.16Z"/>
        <path class="cls-16" d="M394.11,86.85c.5.33,1.1.3,1.66.38,2.53.37,5.07.6,7.62.8,5.24.57,10.49.92,15.75,1.29.9.06,1.81.03,2.72.12,1.03.09,2.07,0,3.17.22-11.42,3.22-22.88,6.21-34.4,8.95.87-4,1.87-7.99,3.48-11.76Z"/>
        <path class="cls-26" d="M487.41,66.06c-6.53,3.76-12.88,7.45-19.49,11.26,6.44-.4,12.63-.78,19.01-1.4,1.86-.16,3.72-.35,5.57-.58l.79-.08.91,2.2s-.01,0-.02,0c-4.92.55-9.85,1.06-14.79,1.41-6.19.39-12.38.79-18.58.91.37-.95.92-1.82,1.07-2.85.67-.68,1.55-1.02,2.35-1.48,7.27-4.29,14.77-17.28,21.9-12.76.98.62,1.43,1.02,2.04,1.65l.61.78-.51.38c-.28.21-.56.39-.86.57Z"/>
        <path class="cls-16" d="M398.82,75.48c1.08-3.02,2.54-5.77,3.66-8.78.22-.55.42-1.28.95-1.66.22-.06.34.2.5.29,6.66,3.85,13.32,7.7,19.98,11.54.2.12.54.27.47.55-.05.13-.2.17-.33.18-.52.05-1.04.05-1.56,0-1.23-.13-2.47-.14-3.7-.22-3.44-.23-6.88-.47-10.32-.78-2.55-.23-5.1-.42-7.65-.74-.68-.08-1.39,0-2.01-.38Z"/>
        <path class="cls-23" d="M407.83,61.78c.32-.02.59.13.85.28,5.61,3.27,11.25,6.5,16.87,9.75,1.28.74,2.55,1.49,3.84,2.22.25.14,1,.08,1.1.37-.02,1.05-.4,2.28-.23,3.32-.35.27-.75.16-1.13.13-.24-.02-.47-.12-.71-.09-1.25.18-2.25-.38-3.28-.98-6.8-3.95-13.61-7.89-20.42-11.81"/>
        <path class="cls-23" d="M486.13,62.69c-.76.62-1.46,1.12-2.25,1.58-7.29,4.29-14.24,9.3-22,12.67.04-.02.05-.71.09-1.07.02-.13-.73.2-.73.07.03-1.1-2.48-1.24-2.69-2.31.66-.64,4.59-2.39,5.37-2.84,3.19-1.84,6.38-3.71,9.58-5.53,1.91-1.63,4.09-2.91,6.33-4.05.17-.09.38-.1.56-.17,2.12-.16,3.97.62,5.74,1.65Z"/>
        <path class="cls-16" d="M457.86,61.01c-.14,0-.24.02-.32.06l-.74,12.48,4.41-2.21h0c.27.1.45-.09.65-.21,3.02-1.73,6.03-3.48,9.04-5.22.9-.52,1.86-.96,2.68-1.61.94-.75,2.32-1.01,3.4-1.57.57-.29,1.41-1.1,1.74-1.74-6.73,0-14.13.03-20.86.01Z"/>
        <path class="cls-26" d="M430,74.59c-7.35-4.33-14.76-8.58-22.16-12.81,1.91-.95,3.41-.82,5.45-.78l19.54,11.32-2.33,2.86-.5-.58Z"/>
        <path class="cls-19" d="M442.07,110.77c0,9.03,0,18.07,0,27.1-.71,0-1.42,0-2.14,0,0-9.04,0-18.08-.02-27.12.72-.33,1.43-.36,2.14.02Z"/>
        <path class="cls-19" d="M449.93,137.87c0-9.03,0-18.07,0-27.1.71-.38,1.43-.35,2.14-.02-.01,9.04.01,18.08-.02,27.12-.71,0-1.42,0-2.14,0Z"/>
        <path class="cls-26" d="M480.39,61.04l-5.91,3.62c-1.17.74-2.26,1.49-3.42,2.19-2.13,1.29-4.29,2.53-6.47,3.74-.99.55-4.6,2.62-5.66,3.05-.14-.3-1.02-.01-1.15-.38,3.28-1.91,9.97-5.77,13.28-7.62l7.33-4.63,1.99.04Z"/>
        <path class="cls-18" d="M393.59,105.59c-.78.23-2.07.51-2.85.73-.06.03-.12.03-.18,0-.37-.46-.51-1.01-.59-1.58,0-.87,0-1.74,0-2.61.17-.04.34-.07.51-.11.57.86,1.13,1.72,1.78,2.52.29.35,1.28.51,1.32,1.05Z"/>
        <path class="cls-18" d="M500.35,103.94c.86-1.12,1.27-2.44,1.69-3.76.18,1.39.18,2.78.13,4.18-.64.04-1.21-.3-1.82-.41Z"/>
        <path class="cls-4" d="M500.63,107.24c.87-.62,1.17-1.58,1.54-2.51.05.9-.28,1.74-.39,2.62-.39,0-.77,0-1.16,0-.04-.03-.06-.05-.04-.07.02-.02.03-.03.05-.03Z"/>
        <path class="cls-4" d="M390.6,106.29s.09.02.14.03c.24.42.5.54.65.88-.32.23-.68.12-1.03.14-.03-.35-.23-.68-.13-1.04.12-.11.24-.1.37-.01Z"/>
        <path class="cls-2" d="M390.6,106.29c-.12,0-.25,0-.37.01-.2-.5-.33-1.02-.26-1.57.21.52.42,1.04.63,1.56Z"/>
        <path class="cls-13" d="M450.96,108.92c.37,0,.74,0,1.11,0,.36-.29.79-.2,1.19-.2,9.63,0,19.27.04,28.9-.03,5.13.03,10.38-.27,15.18-2.24l3.28.78s0,.07-.01.1c-.86,1.12-1.97,1.8-3.34,2.16-2.05.54-4.14.74-6.25.87-12.98.45-25.96.29-38.94.38-15.48.06-30.97-.01-46.45-.17-3.75-.1-7.6-.1-11.22-1.19-1.18-.37-2.24-1.03-2.9-2.16,1.01-.26,2.02-.52,3.02-.78,1.93.73,3.89,1.36,5.95,1.64,2.05.28,4.09.46,6.17.51,10.76.24,21.52.03,32.29.11.34,0,.7-.05,1,.2"/>
        <path class="cls-22" d="M445.88,23.82c-4.14.1-9.57-2.39-9.17-7.22.42-4.55,5.66-6.54,9.67-6.33,2.27.09,4.44.63,6.32,2.04,2.76,2.09,3.44,5.7,1.14,8.38-1.99,2.3-5.01,3.15-7.95,3.13Z"/>
        <path class="cls-16" d="M497.25,106.45c-.41.46-1.23.58-1.77.77-1.99.68-4.09,1-6.18,1.32-12.5.76-25.04.21-37.56.37,0-5.06,0-10.12,0-15.25,6.4,2.54,12.93,4.27,19.52,6.14,8.58,2.41,17.35,4.5,25.98,6.65Z"/>
        <path class="cls-16" d="M439.94,108.92c-11.92-.09-23.86.21-35.76-.16-2.74-.28-5.5-.54-8.1-1.54-.53-.2-1.13-.3-1.54-.77,15.23-3.95,30.62-7.33,45.4-12.81v15.28Z"/>
        <path class="cls-23" d="M438.07,93.2c-4.97,1.81-10.03,3.35-15.14,4.75-7.12,1.89-14.2,3.89-21.36,5.61-2.73.73-5.48,1.4-8.22,2.09-.08.02-.17,0-.26-.01-.93-1.03-1.98-2.04-2.51-3.34-.06-.15.03-.31.18-.35,12.19-3.16,24.48-6.02,36.55-9.63,2.47-.78,5.48-1.7,7.91-2.64.03-.01.06-.02.09-.02h4.32c.15,0,.27.12.27.27v2.44c0,.11-.07.22-.18.25l-1.67.58Z"/>
        <path class="cls-16" d="M434.05,61.01c-.06,0-.13,0-.2,0-6.67.03-13.89-.03-20.57,0,.02.32.67.42.87.58l20.39,11.78-.49-12.34Z"/>
        <path class="cls-23" d="M404.88,64.91l-.95-.6c1.65-1.6,3.91-2.54,3.91-2.54"/>
        <path class="cls-26" d="M430.25,77.65l-.95-.02c-.16,0-.33-.01-.49-.02l-2.24-.18h-.03c-2.44-1.43-4.88-2.85-7.33-4.27-4.17-2.4-8.37-4.76-12.5-7.23-.9-.54-1.9-.93-2.68-1.65-.06-.14-.66.73-.83.99-.02.04,0,.09.03.1l.63.22c.23.08.45.18.66.31l19.64,11.43c.06.04.03.13-.04.13-3.94-.15-7.71-.44-11.63-.66-4.55-.42-9.1-.76-13.63-1.32-.03,0-.05,0-.06.03-.27.55-.58,1.23-.82,1.87-.01.04.01.08.06.09,2.15.28,4.31.5,6.48.66,3.2.3,6.4.65,9.61.88,3.74.3,7.5.49,11.24.63,1.23,0,2.47.11,3.7.15l2.21.09s-.84-1.51-1.01-2.24Z"/>
        <ellipse class="cls-10" cx="446.06" cy="80.75" rx="17.49" ry="12.88"/>
        <path class="cls-16" d="M454.85,52.15c.19-1.08-.18-.72-.57-.54-2.69,1.24-5.44,2.09-8.32,1.95-.5-.02-.55.25-.55.8.01,4.62,0,9.23,0,13.85,0,4.59.02,9.18-.01,13.76,0,.73.17.97.69.87.36-.07,3.95-.25,5.63-1.93.92-.93,1.77-1.85,1.77-3.49.01-2.55.25-5.07.38-7.61.15-3.01.32-6.02.53-9.03l.43-8.62Z"/>
        <path class="cls-16" d="M457.16,75.63c.02-.52.7-.69.96-.25.06.1.11.2.17.29,1.98,3.05.98,6.73-1.82,8.92-2.09,1.72-4.41,2.81-7,3.15-1.8.23-3.47.4-5.49.3-.97-.05-2.26-.4-3.22-.72-1.24-.41-2.46-.82-3.65-1.39-1.15-.55-2.09-1.37-2.93-2.23-2.06-1.99-2.44-5.59-.86-7.99.05-.08.09-.15.13-.24.24-.44.89-.31.96.18.04.29.08.58.07.87-.06,1.62.35,3.11,1.36,4.38,1.59,2.04,4.12,3.12,6.57,3.75,3.98.95,8.2.32,11.59-2.04,1.76-1.21,3.09-2.91,3.11-5.16,0-.6.05-1.2.07-1.82Z"/>
      </g>
      <g>
        <path class="cls-3" d="M684.66.08c-1.43,1.14-8.13,6.68-12.61,10.64-4.39-3.92-7.25-6.41-8.68-7.55l-.88-.71-2.93-2.37h-73.36v4.82l-1.72-1.46-3.94-3.36h-52.44l-3.94,3.36-12.16,10.37-3.75,3.19-.11,113.48.37.38,3.76,3.19,12.37,10.52,1.88,1.6h56.04l1.85-1.54,2-1.68v3.22h92.09v-1.87l.05-3.06,2.85,2.38,2.87,2.54h73.28v-1.62l1.82,1.62h101.89v-12.42l2.48,5.99,2.67,6.44h41.58V.08h-45.15v13.77l-3.01-7.22-2.74-6.56h-97.23l-2.42,1.93V.07h-72.76M809.49,84.14v-30.22h6.56v38.91h-6.56v-8.69ZM734.37,84.14v-30.22h6.51v38.91h-6.51v-8.69ZM643.83,124.7h.18-.18ZM554.09,73.61h.06-.06Z"/>
        <path class="cls-17" d="M668.74,136.02v-52.08l-11.61-9.97c3.37-2.77,7.01-5.84,10.85-9.12l.76-.66v-31.48l-.73-.64c-5.17-4.56-8.53-7.46-9.98-8.61l-.89-.71h-59.36v113.19l24.14.07.02-2.07v-49.35h22.9v51.36l23.9.07h-.01ZM621.05,64.09v-19.72h23.33v19.72h-23.33Z"/>
        <g>
          <path class="cls-17" d="M687.52,23.15c-1.43,1.14-4.91,4.13-10.04,8.67l-1.08.96v92.65l11.9,10.52h58.45v-21.12h-46.54v-30.38h23.38v-21.12h-23.38v-19.77h46.54v-21.12h-58.35l-.88.7h0Z"/>
          <path class="cls-17" d="M762.77,23.15c-1.02.82-3.6,2.98-10.03,8.66l-1.08.96v92.65l11.89,10.52h58.37v-21.12h-46.47v-30.38h23.34v-21.12h-23.34v-19.77h46.47v-21.12h-58.26l-.88.7h0Z"/>
          <polygon class="cls-17" points="565.74 53.61 565.91 53.61 567.84 53.61 589.64 53.61 589.64 32.8 577.52 22.45 531.2 22.45 519.08 32.78 518.9 33.7 518.9 125.29 531.42 136.02 577.31 136.02 589.64 125.67 589.64 63.17 554.14 63.17 554.14 65.18 553.97 65.18 553.97 81.13 553.97 82.29 553.97 84.31 554.14 84.31 555.24 84.31 565.74 84.31 565.74 114.89 542.81 114.89 542.81 43.57 565.74 43.57 565.74 51.6 565.74 53.61"/>
          <polygon class="cls-17" points="873.5 22.45 873.5 78.58 849.98 22.45 826.77 22.45 826.77 135.95 850.57 135.95 850.57 80.48 873.57 135.95 897.29 135.95 897.29 22.45 873.5 22.45"/>
        </g>
        <path class="cls-5" d="M531.61,12.16l-11.4,9.72v.79l-.18.14v90.05l.18.14v.79l11.61,9.91h45.14l11.61-9.74v-60.93h-33.18v2.01h-.18v14.74h.18v2.01h11.62v33.12h-25.43V30.93h25.43v8.05h.18v2.01h21.38v-19.12l-11.4-9.73h-45.57ZM668.05,21.95l-.67-.6c-5.11-4.57-8.43-7.47-9.85-8.62l-.56-.45h-57.29v111.54h21.38v-2.01h.18v-49.69h25.43v51.7h21.38v-2.01h.18v-47.37l-.18-.15v-.76l-12.54-10.91.87-.73c3.45-2.88,7.15-6.03,10.97-9.36l.69-.61v-.77s.12-.1.18-.15v-28.15c-.06-.06-.12-.11-.18-.15v-.75.02ZM645.43,53.33h-25.43v-22.28h25.43v22.28ZM688.9,12.27h56.7v18.77h-46.54v22.28h23.38v18.77h-23.38v32.93h46.54v18.77h-56.77l-11.15-9.9V21.97l.68-.61c5.11-4.53,8.56-7.53,9.99-8.66l.55-.44h0ZM764.06,12.27h56.7v18.77h-46.54v22.28h23.38v18.77h-23.38v32.93h46.54v18.77h-56.77l-11.15-9.9V21.97l.68-.6c6.42-5.68,8.97-7.85,9.99-8.66l.55-.44h0ZM896.14,12.27v111.54h-21.71l-25.05-60.6v60.6h-21.38V12.27h21.21l25.55,61.2V12.27h21.38Z"/>
        <g class="cls-14">
          <path class="cls-9" d="M892.2,160.78l12.06-35.4-46.19-15.74,57.52-18.7.27.4.19-.56,1.32-.43-1.05-.36,11.99-35.18-35.44-51.9-58.83,19.13,11.95-35.04-47.23-16.1-1.8-.61-47.23-16.1,35.17,51.5h0l-22.57-7.69-5.92,17.34-52.47-76.84-58.83,19.13h0l11.95-35.04-47.23-16.1.12-.36-.6.19-1.32-.45.49.73-59.3,19.28,35.17,51.5-59.3,19.28,34.67,50.78-47.23-16.1,36.09,52.84.42.61,6.04-17.7,16.75,24.51-28.7,9.34-.27-.4-.19.56-1.32.43,1.05.36-5.57,16.35-34.75-50.89-.42-.61-12.46,36.53,35.17,51.5-11.68,34.25-34.75-50.89-.42-.61-12.53,36.74,47.23,16.1-.12.36.6-.19,1.32.45-.49-.73,60.13-19.56-47.23-16.1,57.52-18.7.27.4h0l34.32,50.26-60.13,19.56,47.23,16.1,1.8.61,93.73,31.97-.12.36.6-.19,1.32.45-.49-.73,58.35-18.97,35.03,51.3.42.61,12.06-35.4,34.75,50.89.42.61,12.06-35.4.45-1.35,11.61-34.05.45-1.35,12.06-35.4-46.19-15.74,57.52-18.7.27.4.19-.56,1.32-.43-1.05-.36h0ZM466.04,173.49l11.61-34.05,33.84,49.54-45.45-15.49h0ZM820.09,215.21l-1.05-.36-44.4-15.14,57.05-18.56-11.61,34.05h.01ZM831.6,180.18l-58.48,19.02-22.1-7.54,28.33-9.22,5.97-17.5,24.67,8.41-17.58-25.75,22.1,7.54,16.6,24.31h0l.49.73h0ZM713.55,218.39l-21.83-7.44,27.4-8.91-5.57,16.35ZM690.81,210.24l5.57-16.35,21.82,7.44-27.4,8.91h.01ZM666.32,202.28l-21.83-7.44,27.4-8.91-5.57,16.35ZM638.11,54.3l-16.53-24.2,21.82,7.44-.12.36.6-.19,1.32.45-.49-.73,28.7-9.34.27.4.12-.36,21.82,7.44-27.4,8.91h0l-30.12,9.79h.01ZM585.37-21.75l21.82,7.44-27.4,8.91,5.45-15.99.12-.36h.01ZM643.81-40.94l-6.04,17.7,30.12-9.79,17.31,25.34-5.65,16.55-17.31-25.34-30.61,9.96,17.09,25.02-20.77-7.09-1.32-.45-.35-.51h0l-17.03-24.94.19-.56-.6.19-22.1-7.54,57.05-18.56h.01ZM773.91,41.43l-21.83-7.44,27.4-8.91-5.57,16.35ZM772.53,42.06l1.8.61,21.82,7.44-27.87,9.06-16.53-24.2,20.78,7.09h0ZM844.37,144.07l-34.32-50.27,28.23-9.18-5.92,17.34,23.62,8.05-11.61,34.05h.01ZM779.43,102.56l-21.82-7.44,27.4-8.91-5.57,16.35h-.01ZM778.97,103.91l-5.45,15.99-16.25-23.8,21.82,7.44-.12.36ZM785.23,163.8l-22.1-7.54,27.87-9.06,16.53,24.2-21.82-7.44.12-.36-.6.19h0ZM791.11,145.67l-16.75-24.52,28.24-9.18-11.49,33.69h0ZM790.43,146.38l-.83.27h0l-27.4,8.91h0l5.57-16.35.45-1.35,5.45-15.99h0l16.75,24.51h.01ZM725.65,183l-21.83-7.44,27.4-8.91-5.57,16.35ZM649.69,98.94l.07-.2,29.66-9.65,5.85-17.14,16.75,24.51-28.82,9.37-.27-.1-.07.2-29.18,9.49-.27-.4-.12.36-21.83-7.44,27.99-9.1.27.1h-.01ZM649.29,97.69l-21.83-7.44,27.4-8.91-5.57,16.35ZM655.8,81.03l28.71-9.34-5.65,16.55-28.71,9.34,5.65-16.55ZM608.9-13.36l16.25,23.8-21.82-7.44,5.57-16.35ZM602.58,2.75l-21.83-7.44,27.4-8.91-5.57,16.35ZM602.98,4l21.82,7.44-28.33,9.22-5.85,17.14-16.75-24.51,28.82-9.37.27.1h.01ZM597.02,21.49l28.71-9.34-5.65,16.55-28.71,9.34,5.65-16.55ZM626.48,12.41l16.25,23.8-21.82-7.44,5.57-16.35ZM627.65,12.41l21.82,7.44-5.57,16.35s-16.25-23.8-16.25-23.8ZM673.55,26.55l-16.25-23.8,21.83,7.44-5.57,16.35h-.01ZM654.79.79l17.58,25.75-22.1-7.54-17.09-25.02,28.7-9.34,16.53,24.2-23.62-8.05ZM650.22,20.09l1.05.36,20.77,7.09-27.4,8.91,5.57-16.35h.01ZM726.71,26.5l16.53,24.2-21.82-7.44-1.8-.61-20.77-7.09,27.87-9.06h-.01ZM767.84,60.19l16.6,24.31-22.1-7.54-16.6-24.31,22.1,7.54ZM714.51,139.58l-16.53-24.2,23.62,8.05-17.58-25.75,20.77,7.09,1.32.45,17.09,25.02-28.7,9.34h.01ZM708.54,157.38l-16.6-24.31,22.1,7.54,16.6,24.31-20.77-7.09-1.32-.45h-.01ZM672.5,184.21l-16.25-23.8,21.83,7.44-.12.36-5.45,15.99h-.01ZM643.54,116.96l16.25,23.8-21.82-7.44,5.57-16.35ZM644.21,116.25l28.23-9.18-5.45,15.99-.58,1.69-5.45,15.99-16.75-24.51h.01ZM686.77,70.94l27.87-9.06.27.4h0l16.25,23.8-22.57-7.69-5.92,17.34-16.75-24.52.83-.27h.01ZM732.35,87.59l22.1,7.54-27.99,9.1-22.09-7.54,27.99-9.1h-.01ZM703.43,95.99l5.57-16.35,21.82,7.44-27.4,8.91h.01ZM754.79,94.14l-20.77-7.09-1.32-.45-16.6-24.31,22.1,7.54,16.6,24.31h-.01ZM739.71,70.36l21.83,7.44-5.57,16.35-16.25-23.8h-.01ZM716.42,61.32l-1.05-.36,5.57-16.35,16.25,23.8-20.77-7.09h0ZM714.76,60.35l-16.25-23.8,21.83,7.44-5.57,16.35h-.01ZM697.34,36.56l16.25,23.8-21.82-7.44,5.57-16.35h0ZM702.59,97.3l16.53,24.2-20.77-7.09-2.85-.96-20.77-7.09,27.4-8.91h0l.46-.15h-.01ZM695.15,114.44l-27.4,8.91,5.57-16.35,21.83,7.44ZM667.18,125.05l16.25,23.8-21.83-7.44,5.57-16.35h.01ZM662.31,142.75l21.83,7.44-5.57,16.35-16.25-23.8h-.01ZM684.88,150.44l1.05.36,20.77,7.09-27.4,8.91,5.57-16.35h.01ZM684.93,149.36l-17.09-25.02,28.7-9.34,16.53,24.2-23.62-8.05,17.58,25.75-22.1-7.54h0ZM755.38,95.87l-5.57,16.35-21.83-7.44,27.4-8.91ZM762.28,78.08l1.05.36,20.77,7.09-27.4,8.91,5.57-16.35h.01ZM760.82,76.47l-22.1-7.54-16.6-24.31,22.1,7.54,16.6,24.31ZM697.92,34.87h0l-.6.19-1.32-.45-20.77-7.09,27.99-9.1,22.1,7.54-27.4,8.91h0ZM713.24,61.36l-27.87,9.06-.27-.4h0l-16.75-24.51,28.23-9.18-5.92,17.34,22.57,7.69h.01ZM683.93,70l-21.82-7.44,5.57-16.35,16.25,23.8ZM642.93,116.39l-5.57,16.35-16.25-23.8h0l21.83,7.44h-.01ZM619.31,108.34l-5.57,16.35-16.25-23.8,20.77,7.09,1.05.36ZM614.29,125.5l.19-.56,5.45-15.99,17.03,24.94-.07.2-5.57,16.35-16.25-23.8h0s-.79-1.14-.79-1.14ZM637.64,134.34l21.82,7.44-27.4,8.91,5.57-16.35h.01ZM660.86,142.34l16.53,24.2-23.62-8.05,17.58,25.75-22.1-7.54-17.09-25.02,28.7-9.34h0ZM678.85,168.15l1.05.36,20.77,7.09-27.4,8.91,5.57-16.35h.01ZM680.24,167.52l27.99-9.1,22.1,7.54-27.99,9.1-22.09-7.54h-.01ZM732.12,165.38l-17.02-24.93,28.82-9.37,22.09,7.54-29.66,9.65,23.62,8.05-27.4,8.91h0l-.46.15h.01ZM767.41,137.98l-21.82-7.44,27.4-8.91-5.57,16.35h-.01ZM761.37,155.68l-21.82-7.44,27.4-8.91-5.57,16.35h-.01ZM760.92,157.03l-5.57,16.35-21.82-7.44,27.4-8.91h-.01ZM744.19,129.99l-16.53-24.2,22.57,7.69,5.92-17.34,16.75,24.51-28.7,9.34h0ZM785.99,85.94l1.32-.43-1.32-.45-17.09-25.02,28.23-9.18-5.85,17.14,17.29,25.33-28.23,9.18,5.65-16.55h0ZM804.09,32.84l28.71-9.34-5.65,16.55-28.71,9.34h0l5.65-16.55h0ZM792.22,67.66l5.65-16.55,17.58,25.75,6.04-17.7,16.75,24.51-28.7,9.34-17.31-25.34ZM855.32,108.7l-21.83-7.44,5.57-16.35h0l16.25,23.8h.01ZM839.64,83.21l5.57-16.35,21.83,7.44-27.4,8.91h0ZM844.81,65.61l-5.92,17.34-17.58-25.75-6.04,17.7-16.75-24.51,29.17-9.48,5.85-17.14,33.84,49.55-22.57-7.69h0ZM804.47,31.71h0l-.46.15-16.53-24.2,44.4,15.14-27.4,8.91h0ZM797.58,49.5l-21.82-7.44,27.4-8.91-5.57,16.35h-.01ZM750.27,33.61l-1.32.43,1.32.45,16.6,24.31-22.1-7.54-17.09-25.02,28.23-9.18-5.65,16.55h.01ZM727.58,25.24l5.57-16.35,21.82,7.44-27.4,8.91h.01ZM703.37,17.38l-29.06,9.46,5.45-16.01.45-1.35,5.97-17.5-16.8-24.61,22.1,7.54,34.18,50.06-22.3-7.6h0ZM601.21,3.4l-27.4,8.91,5.57-16.35,21.83,7.44ZM589.97,38.52l-28.24,9.18,11.49-33.69,16.75,24.51h0ZM578.57,73.21l-16.25-23.8,21.83,7.44-5.57,16.35h-.01ZM584.89,57.1l21.82,7.44-27.4,8.91,5.57-16.35h.01ZM586.27,56.47l27.4-8.91-5.57,16.35-21.82-7.44h-.01ZM608.96,63.82l6.04-17.7-30.24,9.84-.27-.1-21.83-7.44,27.87-9.06.27.4.19-.56,29.18-9.49,17.02,24.93-28.23,9.18h0ZM666.94,45.98l-5.57,16.35-21.83-7.44,27.4-8.91ZM661.77,63.58l21.82,7.44-27.4,8.91h0l-.6.19-22.1-7.54,27.99-9.1.27.1h.02ZM653.95,80.66l-27.4,8.91,5.57-16.35,21.82,7.44h.01ZM631.26,73.31l-5.57,16.35-21.82-7.44,27.4-8.91h-.01ZM624.29,90.3l1.8.61,21.83,7.44-27.87,9.06-16.53-24.2,20.77,7.09h0ZM618.6,107.01l-23.62-8.05,17.58,25.75-21.82-7.44-.27-.1-17.09-25.02,28.7-9.34,16.53,24.2h-.01ZM584.08,134.35l-16.25-23.8,21.82,7.44-5.57,16.35ZM584.83,134.6l5.57-16.35,21.82,7.44-27.4,8.91h.01ZM613.9,126.66l16.25,23.8-21.83-7.44,5.57-16.35h.01ZM631.48,152.41l17.23,25.24,22.3,7.6-27.87,9.06-17.31-25.34,5.65-16.55h0ZM695.68,193.66l-5.57,16.35-16.25-23.8,20.77,7.09,1.05.36h0ZM719.63,200.72l-21.83-7.44,27.4-8.91-5.57,16.35ZM696.28,192.77l-22.09-7.54,27.99-9.1,22.1,7.54-27.99,9.1h-.01ZM726.52,182.93l5.57-16.35,1.05.36,20.77,7.09-27.4,8.91h.01ZM761.75,156.93l21.82,7.44-27.4,8.91,5.57-16.35h.01ZM814.62,154.1l-21.82-7.44,27.4-8.91-5.57,16.35h-.01ZM791.87,145.95l12.06-35.4-29.66,9.65h0l5.65-16.55,29.19-9.49,34.6,50.68-28.23,9.18,6.04-17.7-29.66,9.65h0ZM856.64,110.66l33.84,49.54-45.45-15.49,11.61-34.05h0ZM903.25,126.17l-11.61,34.05-33.84-49.54,45.45,15.49h0ZM856.76,109.13l-17.02-24.93,28.82-9.37,1.32.45,44.4,15.14-57.52,18.71ZM868.89,73.84l-34.18-50.06,45.72,15.59,34.18,50.06-45.72-15.59h0ZM892.57,4.08l34.9,51.09-11.68,34.25-34.75-50.89-.06-.1-45.91-15.66,57.52-18.71h-.01ZM844.99-12.22l-11.61,34.05-33.84-49.55,45.45,15.49ZM797.76-28.33l-11.61,34.05-33.84-49.55,45.45,15.49ZM798.38-27.72l33.84,49.55-44.4-15.14-1.05-.36,11.61-34.05h0ZM786.03,7.27l.27.4h0l16.75,24.51-28.23,9.18,6.04-17.7-29.66,9.65,5.57-16.35,1.05.36-.49-.73,28.7-9.34h-.01ZM762.8-.73l21.83,7.44-27.4,8.91,5.57-16.35h0ZM703.62-60.34l51.69,75.7-22.57-7.69-5.92,17.34-34.75-50.89-.06-.1-23.62-8.05-.07-.11-.12.04-22.1-7.54,57.52-18.71h0ZM666.53-33.55l-27.4,8.91,5.45-15.99.12-.36,21.82,7.44h.01ZM656.03-76.64l-11.61,34.05-33.84-49.55,45.45,15.49ZM608.68-92.4l-23.56,69.09-34.32-50.27,57.88-18.82h0ZM609.43-92.15l34.32,50.27-57.88,18.82h0l23.56-69.09h0ZM584.55-21.62l-5.65,16.55-1.32.43,1.05.36-5.76,16.91-.49.15.29.42-11.68,34.25-34.32-50.27,57.88-18.82h.01ZM554.95,65.17l-6.04,17.7-33.84-49.55,44.4,15.14,1.32.45.04.05.31.46h0l17.03,24.94-.19.56-5.45,15.99-17.58-25.75ZM578.93,74.61l28.71-9.34h0l30.24-9.84,22.1,7.54-27.4,8.91h0l-31.91,10.37h0l-27.4,8.91h0l5.65-16.55h.01ZM572.7,92.87l16.25,23.8-21.82-7.44,5.57-16.35h0ZM571.95,92.62l-5.57,16.35-1.05-.36-20.77-7.09,27.4-8.91h-.01ZM513.44,189.3l11.61-34.05,45.45,15.49-57.05,18.56h-.01ZM525.04,154.06l-34.9-51.09,11.68-34.25,34.75,50.89.42.61,6.04-17.7,17.23,25.24,22.3,7.6s-57.52,18.71-57.52,18.71ZM560.81,126.82l-16.6-24.31,22.1,7.54,16.6,24.31-22.09-7.54h-.01ZM584.92,135.6l28.23-9.18-5.92,17.34,23.62,8.05-5.97,17.5,16.8,24.61-21.82-7.44.12-.36-.46.15-34.6-50.68h0ZM561.61,206.12l57.05-18.56-11.61,34.05-45.45-15.49h.01ZM619.53,187.47l21.82,7.44,2.85.96,20.78,7.09-57.05,18.56,11.61-34.05h-.01ZM608.84,222.22l57.52-18.71,34.11,49.95-91.63-31.25h0ZM667.03,202.78l5.65-16.55,16.75,24.51-.83.27,1.32.45.35.51.12-.36,22.88,7.8-11.61,34.05-34.61-50.69h0ZM702.39,253.72l11.61-34.05,45.45,15.49-57.05,18.56h-.01ZM714.34,218.68l5.69-16.71.45-1.35,5.45-15.99,33.84,49.54-45.45-15.49h.01ZM796.11,285.69l-34.32-50.27.83-.27-1.32-.45-34.67-50.78,28.82-9.37.27.1.07-.2,28.71-9.34-5.65,16.55-30.97,10.08,23.62,8.05,1.32.45,34.18,50.06h0l.79,1.14-11.68,34.25h-.01ZM843.35,301.79l-33.84-49.54,45.45,15.49-11.61,34.05h0ZM808.54,250.81l-34.18-50.06,45.72,15.59,34.18,50.06-45.72-15.59h0ZM821.59,216.86l45.45,15.49-11.61,34.05-33.84-49.54h0ZM820.87,215.52l11.61-34.05,33.84,49.54-45.45-15.49h0ZM879.1,196.97l-11.61,34.05-33.84-49.54,45.45,15.49h0ZM833.07,179.77h0l-.46.15-17.02-24.93,28.7-9.34.27.4.12-.36,45.45,15.49-57.05,18.56h-.01Z"/>
        </g>
        <g>
          <path class="cls-15" d="M762.68,11.76c-1.02.82-3.6,2.99-10.04,8.69l-1.08.96v93.03l11.9,10.56h58.45v-21.2h-46.54v-30.5h23.38v-21.2h-23.38v-19.85h46.54V11.06h-58.35l-.88.7h0ZM764.42,13.48h55.06v16.35h-46.54v24.7h23.38v16.35h-23.38v35.36h46.54v16.35h-55.09l-10.4-9.23V22.52l.27-.24c6.41-5.67,8.94-7.81,9.94-8.62l.21-.18h0Z"/>
          <path class="cls-15" d="M873.48,11.06v56.36l-23.53-56.36h-23.22v113.97h23.81v-55.7l23.02,55.7h23.74V11.06h-23.81,0ZM894.86,122.6h-19.69l-27.07-65.49v65.49h-18.96V13.49h19.19l27.57,66.04V13.49h18.96v109.11h0Z"/>
          <path class="cls-15" d="M687.52,11.76c-1.43,1.14-4.91,4.16-10.04,8.71l-1.08.96v93.03l11.9,10.56h58.45v-21.2h-46.54v-30.5h23.38v-21.2h-23.38v-19.85h46.54V11.07h-58.35l-.88.7h0ZM689.26,13.48h55.06v16.35h-46.54v24.7h23.38v16.35h-23.38v35.36h46.54v16.35h-55.09l-10.4-9.23V22.52l.27-.24c5.11-4.53,8.54-7.5,9.94-8.62l.21-.18h0Z"/>
          <path class="cls-15" d="M518.76,21.87v16.54h.01l.13,76.07v.15l12.39,10.56h46.03l12.39-10.39v-62.72h-35.78v21.2h11.8v30.69h-23V32.44h23v10.08h23.99v-20.89l-12.16-10.39h-46.47l-12.34,10.59v.05M587.27,40.1h-19.13v-10.06h-27.85v76.41h27.85v-35.55h-11.62v-16.35h30.75v59.16l-10.84,9.09h-44.25l-11-9.41V38.42s-.01-15.48-.01-15.48l.18-.2,10.62-9.06h44.67l10.64,9.08v17.34h-.01Z"/>
          <path class="cls-15" d="M619.11,54.54h27.85v-24.7h-27.85s0,24.7,0,24.7ZM621.54,32.26h23v19.85h-23s0-19.85,0-19.85Z"/>
          <path class="cls-15" d="M667.5,20.44c-5.13-4.59-8.46-7.5-9.9-8.67l-.88-.71h-58.92v113.97h23.99v-51.7h23v51.7h23.81l.12-52.05-11.99-10.35c3.35-2.8,6.97-5.88,10.77-9.18l1.11-.96.18-.18v-30.74l-.18-.15-1.07-.96h-.02ZM666.32,23.39v27.8l-.18.18-.27.24c-3.88,3.36-7.56,6.5-10.96,9.34l-1.95,1.63,13.27,11.61.1,46.38v2.01l-.1-48.39-.08,48.39h-18.96v-51.7h-27.85v51.59h-.17l-18.96.11V13.47h55.64l.23.18c1.41,1.13,4.7,4.03,9.81,8.59l.26.24.18.14v.77Z"/>
        </g>
      </g>
    </g>
  </g>
</svg>