<?xml version="1.0" encoding="UTF-8"?>
<svg id="Layer_1" data-name="Layer 1" xmlns="http://www.w3.org/2000/svg" xmlns:xlink="http://www.w3.org/1999/xlink" viewBox="0 0 382.38 552.64">
  <defs>
    <style>
      .cls-1 {
        fill: none;
      }

      .cls-2 {
        fill: #480000;
      }

      .cls-3 {
        fill: #a00a27;
      }

      .cls-4 {
        fill: #001f7e;
      }

      .cls-5 {
        fill: #777;
      }

      .cls-6 {
        fill: url(#linear-gradient-5);
      }

      .cls-7 {
        fill: url(#linear-gradient-4);
      }

      .cls-8 {
        fill: url(#linear-gradient-3);
      }

      .cls-9 {
        fill: url(#linear-gradient-2);
      }

      .cls-10 {
        fill: #4bd133;
      }

      .cls-11 {
        fill: #001f7d;
      }

      .cls-12 {
        fill: url(#linear-gradient);
      }

      .cls-13 {
        fill: #8cc4ed;
      }

      .cls-14 {
        fill: #fff;
      }

      .cls-15 {
        fill: #44a0e3;
      }

      .cls-16 {
        fill: #3fa059;
      }

      .cls-17 {
        fill: #e06c7c;
      }

      .cls-18 {
        fill: #b3b3b3;
      }

      .cls-19 {
        fill: #840000;
      }

      .cls-20 {
        fill: #68b2e8;
      }

      .cls-21 {
        fill: #ce0c27;
      }

      .cls-22 {
        fill: #357fb0;
      }

      .cls-23 {
        clip-path: url(#clippath);
      }

      .cls-24 {
        fill: #d00c27;
      }

      .cls-25 {
        fill: #fdfdfd;
      }
    </style>
    <linearGradient id="linear-gradient" x1="57.23" y1="130.54" x2="57.23" y2="234.18" gradientTransform="translate(0 554) scale(1 -1)" gradientUnits="userSpaceOnUse">
      <stop offset="0" stop-color="#a9e1cc"/>
      <stop offset=".71" stop-color="#fff"/>
    </linearGradient>
    <linearGradient id="linear-gradient-2" x1="147.13" x2="147.13" y2="234.19" xlink:href="#linear-gradient"/>
    <linearGradient id="linear-gradient-3" x1="237.01" x2="237.01" y2="234.19" xlink:href="#linear-gradient"/>
    <linearGradient id="linear-gradient-4" x1="326.41" x2="326.41" xlink:href="#linear-gradient"/>
    <linearGradient id="linear-gradient-5" x1="191.85" y1="113.89" x2="191.85" y2="20.13" gradientTransform="translate(0 554) scale(1 -1)" gradientUnits="userSpaceOnUse">
      <stop offset="0" stop-color="#4bd133"/>
      <stop offset="1" stop-color="#3fa059"/>
    </linearGradient>
    <clipPath id="clippath">
      <path class="cls-1" d="M43.49,440.78l-9.55,8.15v.66l-.15.12v75.51l.15.12v.66l9.74,8.31h37.85l9.73-8.17v-51.09h-27.82v1.69h-.15v12.36h.15v1.69h9.75v27.77h-21.32v-62.04h21.32v6.75h.15v1.69h17.93v-16.03l-9.56-8.16h-38.22ZM156.03,473.85l.58-.51v-.64s.1-.08.15-.13v-23.61c-.05-.04-.1-.09-.15-.13v-.63l-.56-.5c-4.29-3.83-7.07-6.27-8.26-7.23l-.46-.37h-48.03v93.52h17.93v-1.69h.15v-41.66h21.32v43.35h17.93v-1.69h.15v-39.71l-.15-.13v-.64l-10.51-9.15.73-.61c2.89-2.42,5.99-5.06,9.2-7.85h-.02ZM138.68,474.52h-21.32v-18.68h21.32v18.68ZM175.39,440.1h47.55v15.74h-39.03v18.68h19.6v15.74h-19.6v27.61h39.03v15.74h-47.61l-9.35-8.3v-77.09l.57-.5c4.29-3.8,7.18-6.31,8.38-7.26l.46-.37h0ZM238.42,440.1h47.55v15.74h-39.03v18.68h19.6v15.74h-19.6v27.61h39.03v15.74h-47.61l-9.35-8.3v-77.09l.57-.5c5.38-4.76,7.52-6.58,8.38-7.26l.46-.37h0ZM349.17,440.1v93.52h-18.2l-21.01-50.81v50.81h-17.93v-93.52h17.78l21.43,51.32v-51.32h17.93Z"/>
    </clipPath>
  </defs>
  <g>
    <path class="cls-11" d="M222.97,123.44c.4-1.33-.04-1.58.57-1.93,6.48-3.75,12.29-8.3,17.17-14.05,13.09-15.38,19.13-36.75,14.22-56.53-4.8-20.85-18.73-37.44-37.49-45.63-7.26-3.17-15.09-4.84-23.01-5.2l-.5-.02c-24.8-1.13-48.42,11.68-60.2,33.53-.3.56-.59,1.12-.88,1.69-16.07,29.71-4.25,69.36,24.98,86.06.96.58,1.2,1.14,1.34,2.87.31,3.73.13,4.94.34,9.02.19,3.71.33,3.59-2.17,3.58-19.89,0-39.77,0-59.66-.01-1.49,0-2.96.23-4.38.7-6.43,2.11-12.73,4.45-17.38,9.76-2.81,2.79-5.56,5.65-7.32,9.27-2.1,4.21-3.53,8.7-5.47,12.97-10.43,23.9-21.68,47.84-27.03,73.49-.86,4.05-1.31,8.18-1.31,12.32.01,13.82,4.17,30.2,4.17,30.2,3.4,13.27,6.16,26.69,9.75,39.92,1.54,5.99,3.23,11.92,5.61,17.64,1.96,4.74,5.14,8.54,8.9,11.93,2.72,2.45,5.97,3.95,9.56,3.95,79.26.06,158.52.05,237.79.04,7.39-.47,12.46-5.93,16.12-11.6,2.42-3.7,3.92-7.86,5.18-12.1,2.05-6.88,4.93-18.26,6.56-25.26,2.87-11.64,5.69-23.3,8.25-35.01.69-3.11,1.55-6.24,1.74-9.4,1.03-10.52-.28-18.1-.28-18.1-2.61-10.32-4.21-15.87-6.85-25.14-4.74-14.56-11.25-28.48-17.06-42.63-1.84-4.33-3.71-8.65-5.63-12.95-2.29-5.14-3.94-10.54-7.63-15.06-5.08-6.22-11.28-10.62-18.92-13.21-2.76-.93-5.69-1.3-8.61-1.29-20.22.08-40.45.02-60.66.04-.96.12-1.07-.47-.88-1.13l1.07-12.73Z"/>
    <path class="cls-22" d="M336.57,268.68c-3.61,16.55-7.56,33.03-11.7,49.46-1.69,6.44-3.31,12.9-5.53,19.18-.96,2.72-2.23,5.28-4.06,7.51-1.94,2.37-4.65,3.28-7.58,3.29-33.48.07-66.97.02-100.45-.02-.6-.65-.52-1.47-.52-2.25-.01-22.04-.01-44.08,0-66.12,0-.73-.03-1.48.37-2.14.9-.84,2.02-.59,3.07-.59,28.66.11,57.33.01,85.97-.42,9.94-.31,20.11-.25,29.74-3.12,2.26-.65,4.2-1.93,5.89-3.57.52-.51.96-1.12,1.64-1.46,1.08-.26,2.16-.51,3.16.26Z"/>
    <path class="cls-22" d="M175.72,348.1c-32.97.12-65.95-.01-98.92.06-6.69,0-9.36-2.7-11.7-8.21-4.06-9.57-6.21-19.72-8.61-29.8-3.36-13.8-6.73-27.59-9.75-41.47.86-.63,1.85-.53,2.83-.56.21.05.39.14.56.27,5.48,6.88,15.78,6.83,23.82,7.61,32.92,1.17,65.87.77,98.8.99,1.05.01,2.17-.24,3.1.53.48.77.4,1.63.4,2.48,0,21.83,0,43.67,0,65.5,0,.89.15,1.83-.52,2.59Z"/>
    <path class="cls-15" d="M245.63,64.96c-1.28,31.32-22.75,53.68-55.83,54.34-29.87-2.1-52.16-22.48-52.8-56.01,1.96-27,18.9-47.88,47.25-51.94,5.99-.86,12.07-.65,17.98.62,25.07,5.35,42.09,24.47,43.41,53Z"/>
    <path class="cls-21" d="M152.95,196.99c6.2,9.47,16.39,15.08,27.3,17.26,1.64.36,3.48.89,5.19.89,2.26,0,4.18.07,6.38-.06,6.66-.4,13.2-1.01,19.56-3.5,7.47-3.09,14.12-7.96,18.63-14.58.42-.33.91-.46,1.43-.44,3.11.09,6.2-.37,9.31-.41,12.19-.29,24.37-1.19,36.54-2.02,12.68-.98,25.33-2.21,37.98-3.54.57-.06,1.13-.08,1.6.36,1.95,4.63,3.9,9.25,5.84,13.89.8,1.92,1.77,3.78,2.31,5.81-.47.52-1.12.5-1.73.57-8.42,1.05-16.85,1.92-25.3,2.71-13.67,1.3-27.36,2.36-41.08,3.06-10.05.48-20.1.78-30.16,1.08-6.34.19-12.66.08-18.99.24-1.8.04-3.61.07-5.33.7-.65.66-.44,1.49-.44,2.26-.02,16.51,0,33.01-.01,49.52-.04,2.11-.38,2.5-2.47,2.52-6.15-.04-12.32.23-18.46-.15-.17-17.31,0-34.63-.07-51.94,0-.77.21-1.6-.47-2.24-3.85-1.09-8.46-.59-12.42-.66-7.52.16-15.03-.29-22.55-.45-28.26-.79-56.46-3.22-84.54-6.43-.94-.11-1.94-.09-2.71-.8,2.49-6.66,5.29-13.19,8.15-19.69,1.2-.63,2.46-.23,3.65-.09,11.45,1.34,22.93,2.28,34.42,3.22,7.82.64,15.66,1.07,23.5,1.5,7.73.42,15.46.56,23.18.96.63.03,1.25.06,1.77.47Z"/>
    <path class="cls-25" d="M324.94,216.44c-6.4.77-12.8,1.52-19.21,2.16-14.98,1.52-29.99,2.67-45.01,3.62-4.25.29-8.5.57-12.76.55-.56,0-1.11-.05-1.65-.22,26.39,7.01,52.75,14.17,79.28,20.62,2.74.68,5.48,1.38,8.23,2.07.77.19,1.56.33,2.06,1.05.34,1.01.67,2.02,1.01,3.04-.63.53-1.3.23-1.94.07-19.27-4.8-38.54-9.59-57.74-14.66-13.86-3.5-27.56-7.7-41.33-11.41-8.78-.09-17.55.59-26.34.34-.37-.01-.79-.1-1.12.28.34.7,1.07.77,1.67,1,12.38,4.9,25.12,8.69,37.91,12.34,28.13,8.02,56.57,14.89,84.91,22.1,1.6.47,3.28.67,4.74,1.54,0,2.35-1.64,7.27-4.27,7.6-1.34.28-2.54-.28-3.78-.6-14.04-3.48-28.11-6.82-42.11-10.45-26.77-7.14-53.76-13.94-79.74-23.63,0,12.13,0,24.26-.02,36.39,0,.97.31,2.08-.72,2.81-1.76.64-3.62-.06-5.35.41.03-18.13-.08-36.25.04-54.38,0-.41.3-.76.7-.82,3.03-.46,6.08-.65,9.15-.49,14.13.08,28.24-.43,42.36-1.08,13.88-.66,27.74-1.77,41.57-3.02,5.14-.49,10.26-1.26,15.4-1.62,4.72-.34,9.37-1.32,14.11-1.41l1.73,5.17-1.8.65Z"/>
    <path class="cls-25" d="M58.29,210.63c10.66,1.1,21.29,2.58,31.98,3.34,8.79.67,17.56,1.44,26.36,2.09,13.23.69,26.51,1.03,39.74,1.46,8.05.47,16.14-.39,24.14.76.43.06.75.41.75.84.09,17.39.01,34.79.03,52.18,0,1.72-.18,1.92-1.92,1.99-1.12.04-2.26.15-3.36-.21-1.09-.68-.77-1.8-.77-2.77-.03-11.2-.02-22.4-.02-33.61,0-3.05,0-3.04-2.78-1.98-37.37,13.46-76.26,22.12-114.66,32.03-1.91.46-3.84.89-5.72,1.46-.76.23-1.53.4-2.32.18-.1-.03-.2-.06-.3-.09-1.02-.53-2.16-.99-1.69-2.52,1.88-1.15,4.11-1.19,6.12-1.93,36.25-8.99,72.55-17.86,108.14-29.26,4.03-1.3,8.04-2.71,11.92-4.42,1.23-.54,1.32-.92,1.32-2.7,0-1.98-1.51-3.69-3.49-3.86-6.21-.52-11.96,1-17.75,2.93-35.07,11.24-71,19.57-106.68,28.62-.53.04-1.07.35-1.58-.07.37-3.06,1.12-6.82,1.69-9.14.2-.83,1.39-.72,2.16-.91,14.77-3.67,29.54-7.36,44.27-11.17,13.95-3.39,27.85-7.72,41.75-11.1-17.05-.35-34.24-2.03-51.27-3.48-8.72-.84-17.47-1.59-26.13-2.86-.66-.16-1.87-.08-1.71-1.06s1.27-3.14,1.81-4.74Z"/>
    <path class="cls-19" d="M201.69,348.09c-6.8,0-13.6,0-20.41,0-.89-.65-.69-1.62-.69-2.49-.04-21.66,0-43.32,0-64.98,0-1.06-.19-2.16.43-3.14.56-.48,1.24-.5,1.92-.5,5.68-.03,11.36-.02,17.04,0,.67,0,1.36.02,1.94.45.56.73.48,1.6.48,2.44.01,21.91.01,43.82,0,65.74,0,.87.19,1.84-.7,2.49Z"/>
    <path class="cls-21" d="M229.22,232.16c34.18,10.51,68.91,19.14,103.63,27.66.84-.52,1.38-1.32,1.87-2.15,1.43-2.41,2.25-5.03,2.53-7.83l-.36-.5c-23.47-5.5-46.98-11.72-70.33-17.97-8.66-2.24-20.57-6.19-29.15-8.69l-28.88.75c-.61,0-.79.84-.22,1.08l18.1,6.67c.93.36,1.86.69,2.81.98Z"/>
    <path class="cls-15" d="M314.23,184.51c-2.12-4.77-4.25-9.54-6.31-14.34-1.73-4.01-2.73-8.35-5.53-11.85-.43.6-.93,1.08-1.59,1.46-4.92,2.83-9.81,5.71-14.73,8.55-12.93,7.33-25.75,14.85-38.6,22.32.69.29,1.25.31,1.81.28,3.86-.22,7.73-.57,11.59-.63,4.38-.21,8.73-.68,13.12-.75,1.1-.02,40.52-4.34,40.52-4.34l-.27-.69Z"/>
    <path class="cls-15" d="M326.29,215.7c-4.42.58-8.84,1.21-13.27,1.7-5.61.63-11.22,1.18-16.84,1.7-9.97,1-19.98,1.58-29.97,2.35-6.96.61-13.62.33-20.62,1.19,30.14,8.61,59.98,16.08,90.3,23.66l-9.17-30.6h-.43Z"/>
    <path class="cls-15" d="M56.48,215.37c1.31.86,2.87.77,4.31.99,6.57.96,13.2,1.55,19.82,2.08,13.63,1.47,27.3,2.4,40.97,3.36,2.35.16,4.71.09,7.07.3,2.67.24,5.39-.02,8.26.58-29.72,8.39-59.52,16.15-89.5,23.27,2.26-10.4,4.87-20.78,9.06-30.59Z"/>
    <path class="cls-25" d="M299.19,161.29c-16.99,9.79-33.51,19.37-50.7,29.3,16.74-1.03,32.86-2.02,49.45-3.64,4.84-.43,9.68-.92,14.5-1.52l2.06-.21,2.37,5.73s-.04,0-.05,0c-12.8,1.44-25.61,2.75-38.47,3.68-16.09,1.02-32.21,2.05-48.33,2.37.96-2.46,2.39-4.74,2.77-7.41,1.73-1.77,4.04-2.65,6.12-3.86,18.93-11.16,38.43-44.96,56.97-33.21,2.55,1.62,3.72,2.65,5.3,4.28l1.58,2.03-1.32.99c-.72.53-1.47,1.03-2.24,1.47Z"/>
    <path class="cls-15" d="M68.74,185.79c2.82-7.84,6.6-15.02,9.53-22.84.57-1.43,1.1-3.33,2.47-4.31.56-.16.88.51,1.31.77,17.33,10,34.66,20.02,51.99,30.03.51.32,1.42.7,1.23,1.42-.12.34-.51.43-.85.46-1.35.13-2.71.14-4.06,0-3.2-.35-6.42-.36-9.63-.58-8.95-.6-17.91-1.22-26.84-2.04-6.63-.6-13.28-1.1-19.89-1.91-1.76-.22-3.62,0-5.24-.99Z"/>
    <path class="cls-21" d="M92.18,150.14c.84-.06,1.53.33,2.22.73,14.6,8.52,29.26,16.92,43.89,25.38,3.33,1.92,6.64,3.87,9.98,5.77.65.37,2.6.21,2.86.98-.05,2.74-1.04,5.93-.61,8.63-.91.7-1.95.41-2.94.34-.62-.04-1.23-.31-1.84-.22-3.25.47-5.85-.98-8.54-2.55-17.68-10.28-35.4-20.51-53.13-30.72"/>
    <path class="cls-21" d="M295.88,152.51c-1.97,1.62-3.81,2.9-5.85,4.11-18.97,11.17-37.05,24.19-57.24,32.96.11-.05.12-1.85.24-2.78.04-.34-1.91.53-1.9.18.07-2.87-6.45-3.22-7-6,1.73-1.68,11.93-6.22,13.97-7.4,8.31-4.79,16.59-9.64,24.93-14.39,4.98-4.23,10.64-7.57,16.46-10.54.45-.24.98-.25,1.45-.44,5.52-.43,10.32,1.61,14.94,4.3Z"/>
    <path class="cls-15" d="M222.32,148.14c-.35,0-.62.06-.82.16l-1.94,32.46,11.48-5.75h0c.7.25,1.18-.24,1.7-.54,7.85-4.5,15.67-9.05,23.51-13.57,2.35-1.35,4.85-2.51,6.97-4.2,2.43-1.94,6.05-2.64,8.85-4.08,1.49-.77,3.67-2.86,4.52-4.52-17.51-.02-36.75.08-54.26.04Z"/>
    <path class="cls-25" d="M149.84,183.47c-19.13-11.26-38.38-22.31-57.66-33.33,4.97-2.47,8.88-2.12,14.17-2.03l50.84,29.45-6.07,7.43-1.29-1.52Z"/>
    <path class="cls-18" d="M181.26,277.6c0,23.5.02,47,.02,70.5-1.85,0-3.7,0-5.56,0-.02-23.52,0-47.04-.04-70.55,1.87-.87,3.73-.93,5.57.05Z"/>
    <path class="cls-18" d="M201.69,348.09c0-23.5.02-47,.02-70.5,1.85-.99,3.71-.92,5.58-.05-.03,23.52.03,47.04-.04,70.55-1.85,0-3.7,0-5.56,0Z"/>
    <path class="cls-25" d="M280.94,148.21l-15.36,9.43c-3.05,1.94-5.89,3.87-8.89,5.69-5.54,3.35-11.16,6.59-16.82,9.73-2.58,1.43-11.97,6.82-14.73,7.92-.37-.78-2.65-.03-3-1,8.54-4.96,25.93-15,34.55-19.83l19.08-12.05,5.18.11Z"/>
    <path class="cls-17" d="M55.14,264.1c-2.04.59-5.37,1.32-7.42,1.91-.16.08-.31.09-.47,0-.97-1.2-1.32-2.62-1.53-4.11,0-2.26,0-4.53,0-6.79.44-.1.89-.19,1.33-.29,1.48,2.23,2.94,4.47,4.63,6.55.75.92,3.34,1.33,3.44,2.73Z"/>
    <path class="cls-17" d="M332.85,259.82c2.23-2.92,3.3-6.36,4.39-9.79.47,3.61.47,7.23.34,10.86-1.68.09-3.14-.77-4.73-1.07Z"/>
    <path class="cls-5" d="M333.58,268.4c2.26-1.61,3.06-4.11,4.01-6.52.12,2.34-.73,4.53-1.02,6.8-1.01,0-2.01-.02-3.02-.02-.11-.07-.14-.13-.1-.19.04-.05.08-.07.13-.07Z"/>
    <path class="cls-5" d="M47.36,265.94c.12.02.24.04.36.07.64,1.1,1.29,1.42,1.7,2.3-.83.59-1.78.32-2.68.37-.07-.91-.61-1.76-.34-2.71.31-.3.63-.26.96-.03Z"/>
    <path class="cls-2" d="M47.36,265.94c-.32.01-.64.02-.96.03-.53-1.31-.86-2.65-.68-4.08.55,1.35,1.09,2.7,1.64,4.05Z"/>
    <path class="cls-13" d="M204.37,272.76c.96.01,1.92,0,2.88,0,.94-.75,2.05-.52,3.11-.53,25.06-.01,50.12.1,75.18-.07,13.34.09,27-.72,39.49-5.81,2.85.68,5.69,1.36,8.54,2.04-.01.09-.02.17-.03.26-2.23,2.91-5.14,4.68-8.7,5.62-5.34,1.41-10.76,1.92-16.26,2.27-33.76,1.17-67.54.75-101.3.99-40.28.17-80.55-.04-120.83-.44-9.75-.25-19.77-.25-29.19-3.08-3.06-.96-5.84-2.67-7.55-5.62,2.62-.68,5.24-1.36,7.87-2.04,5.03,1.9,10.13,3.54,15.49,4.27,5.33.72,10.65,1.2,16.04,1.32,28,.63,55.99.09,83.99.29.89,0,1.83-.12,2.6.53"/>
    <path class="cls-20" d="M191.16,51.4c-10.78.26-24.91-6.21-23.87-18.78,1.08-11.84,14.73-17,25.15-16.48,5.91.22,11.56,1.63,16.44,5.32,7.18,5.43,8.94,14.82,2.96,21.79-5.18,6-13.03,8.19-20.69,8.15Z"/>
    <path class="cls-15" d="M324.79,266.36c-1.06,1.21-3.21,1.51-4.61,1.99-5.19,1.77-10.63,2.61-16.07,3.44-32.51,1.98-65.15.53-97.71.97,0-13.16,0-26.33,0-39.68,16.64,6.62,33.64,11.1,50.78,15.97,22.31,6.28,45.13,11.7,67.6,17.31Z"/>
    <path class="cls-15" d="M175.71,272.77c-31-.23-62.07.55-93.04-.41-7.12-.72-14.3-1.41-21.07-4-1.38-.53-2.94-.79-4-1.99,39.63-10.26,79.66-19.07,118.12-33.34v39.74Z"/>
    <path class="cls-21" d="M170.84,231.87c-12.94,4.71-26.1,8.73-39.38,12.36-18.51,4.91-36.94,10.13-55.56,14.59-7.1,1.9-14.25,3.63-21.38,5.43-.21.05-.45-.02-.67-.03-2.41-2.67-5.15-5.3-6.52-8.69-.15-.38.08-.81.48-.92,31.72-8.22,63.68-15.67,95.09-25.04,6.44-2.04,14.26-4.41,20.58-6.86.08-.03.16-.05.25-.05h11.23c.38,0,.69.31.69.69v6.34c0,.3-.19.56-.47.66l-4.35,1.5Z"/>
    <path class="cls-15" d="M160.38,148.15c-.16-.02-.33-.03-.52-.02-17.35.09-36.14-.08-53.5-.02.04.83,1.75,1.1,2.26,1.51l53.05,30.64-1.28-32.1Z"/>
    <path class="cls-21" d="M84.49,158.3l-2.48-1.56c4.28-4.18,10.17-6.6,10.17-6.6"/>
    <path class="cls-25" d="M150.49,191.43l-2.47-.05c-.43,0-.86-.03-1.29-.06l-5.82-.46-.07-.02c-6.36-3.69-12.7-7.4-19.06-11.08-10.85-6.25-21.76-12.39-32.52-18.8-2.34-1.4-4.93-2.42-6.98-4.3-.14-.36-1.71,1.9-2.17,2.57-.06.09-.02.22.09.26l1.63.58c.59.21,1.17.48,1.71.8l51.1,29.75c.16.09.08.33-.1.33-10.26-.4-20.07-1.14-30.26-1.72-11.83-1.08-23.68-1.97-35.47-3.43-.07,0-.14.02-.17.09-.71,1.43-1.52,3.19-2.13,4.86-.04.11.03.22.14.23,5.61.73,11.22,1.29,16.86,1.72,8.33.78,16.65,1.68,25,2.29,9.72.77,19.51,1.27,29.24,1.64,3.21.02,6.41.28,9.62.39l5.75.24s-2.19-3.93-2.64-5.83Z"/>
    <ellipse class="cls-11" cx="191.63" cy="199.48" rx="45.5" ry="33.5"/>
    <path class="cls-15" d="M214.49,125.08c.49-2.82-.47-1.86-1.48-1.4-7,3.22-14.15,5.43-21.63,5.07-1.29-.06-1.44.65-1.44,2.08.04,12.01.02,24.02.02,36.03,0,11.94.05,23.87-.03,35.81-.01,1.9.43,2.53,1.81,2.26.94-.19,10.29-.65,14.64-5.03,2.4-2.42,4.59-4.82,4.61-9.09.04-6.63.66-13.2.99-19.79.39-7.84.84-15.67,1.38-23.49l1.13-22.43Z"/>
    <path class="cls-15" d="M220.5,186.17c.04-1.35,1.82-1.81,2.49-.64.15.26.3.52.45.76,5.16,7.95,2.54,17.5-4.74,23.2-5.44,4.47-11.48,7.32-18.22,8.19-4.68.6-9.03,1.04-14.27.79-2.53-.12-5.88-1.05-8.37-1.88-3.22-1.07-6.41-2.14-9.5-3.61-3-1.43-5.45-3.57-7.62-5.81-5.36-5.17-6.35-14.53-2.25-20.8.12-.2.23-.4.35-.61.62-1.14,2.33-.81,2.5.47.1.76.2,1.51.17,2.27-.15,4.22.92,8.08,3.53,11.39,4.14,5.32,10.72,8.11,17.08,9.75,10.35,2.48,21.33.83,30.15-5.32,4.59-3.14,8.03-7.57,8.09-13.43.02-1.57.12-3.12.17-4.72Z"/>
  </g>
  <rect class="cls-1" x="381.38" y="52.68" width="1.11" height="11.08"/>
  <g>
    <g>
      <path class="cls-4" d="M296.26,444.73l-14.41-9.94c-4.03,2.94-7.66,5.51-10.82,7.67l-3.33,2.27h-60.73l-7.65-5.27v5.27h-51.03v-47.19h-2.03v47.19h-51.03v-5.33l-7.87,5.33H27.03l-21.88-15.08v-120.7h51.06v84.72h2.03v-84.72h51.06v.08h36.96v37.47h2.03v-37.47h51.03v4.93l7.16-4.93h56.73c4.5,0,7.04,1.74,11.24,4.63,1.82,1.25,4.28,2.98,7.35,5.16l14.21-9.79h60.85l21.62,14.92v105.92l-21.92,14.86h-60.3Z"/>
      <path class="cls-4" d="M104.78,313.48v.08h36.96v37.47h11.08v-37.47h41.98v9l10.92-7.51,2.18-1.5h55.33c3.1,0,4.73,1.12,8.68,3.84,2.25,1.55,5.57,3.89,9.86,6.95l13.48-9.29,2.18-1.5h58.03l2.18,1.5,13.57,9.37,2.75,1.9v101.14l-2.8,1.9-13.82,9.37-2.17,1.47h-57.5l-2.18-1.5-13.72-9.46c-5.03,3.71-9.51,6.9-13.29,9.48l-2.17,1.48h-57.92l-2.18-1.5-11.41-7.85v9.35h-41.98v-47.19h-11.08v47.19h-41.98v-9.33l-11.62,7.86-2.17,1.47H28.44l-2.18-1.5-13.83-9.53-2.75-1.9v-113.79h42.01v84.72h11.09v-84.72h42.01M70.57,323.89h0v-4.07h0v4.07M186.88,323.97h.13v-4.08h-.13v4.08M133.79,323.97h.17v-4.08h-.17v4.08M276.84,331.26v-2s-.05-.03-.07-.05v2s.05.03.07.05M366.17,331.36v-2.1h0v2.1h0M276.84,368.77v-2.04c-.93-.66-1.88-1.33-2.82-1.99h0c.93.65,1.85,1.3,2.76,1.95v2.04s.05.03.07.05M187.02,378.34v-2.05l-.11-.08-.04.03h0v2l.13.09M194.8,388.86h6.65c-2.45-1.62-4.42-2.96-5.95-4.07-.23-.17-.47-.34-.7-.51v4.58M320.9,398.23h11.08v-5.38h-11.08v5.38M231.57,398.23h11.08v-5.2h-11.08v5.2M223.68,399.27h.11v-4.08h-.11v4.08M113.84,304.43H.63v127.6l3.91,2.7,2.75,1.9,13.83,9.53,2.18,1.5,2.32,1.6h63.13l1.96-1.33v1.33h113.14v-1.18l1.72,1.18h63.53l2.31-1.58,2.17-1.48c2.5-1.71,5.28-3.67,8.33-5.86l8.44,5.82,2.18,1.5,2.32,1.6h63.1l2.3-1.56,2.17-1.47,13.82-9.37,2.8-1.9,3.97-2.69v-110.69l-3.91-2.7-2.75-1.9-13.57-9.37-2.18-1.5-2.32-1.6h-63.67l-2.32,1.6-2.18,1.5-8.27,5.7c-1.92-1.36-3.53-2.48-4.81-3.36-4.41-3.04-7.9-5.44-13.81-5.44h-58.14l-1.23.85v-.85h-90.02v-.08h0Z"/>
    </g>
    <path class="cls-3" d="M371.21,334.85l-13.57-9.37-2.18-1.5h-58.03l-2.18,1.5-13.48,9.29c-4.29-3.06-7.61-5.4-9.86-6.95-3.95-2.72-5.58-3.84-8.68-3.84h-55.33l-2.18,1.5-10.92,7.51v-9h-41.98v37.47h-11.08v-37.47h-36.96v-.08h-42.01v84.72h-11.09v-84.72H9.68v103.38l2.75,1.9,13.83,9.53,2.18,1.5h57.54l2.17-1.47,11.62-7.86v9.33h41.98v-47.19h11.08v47.19h41.98v-9.35l11.41,7.85,2.18,1.5h57.92l2.17-1.48c3.78-2.58,8.26-5.77,13.29-9.48l13.72,9.46,2.18,1.5h57.5l2.17-1.47,13.82-9.37,2.8-1.9v-90.73l-2.75-1.9h-.01ZM326.44,392.85h5.54v15.79h-11.08v-15.79h5.54,0ZM320.9,361.27v-5.72h11.08v5.72h-11.08ZM278.92,370.23c-2.59-1.82-5.23-3.66-7.89-5.49h7.89v5.49ZM231.57,361.45v-5.9h11.08v5.9h-11.08ZM189.59,374.36v2.79c0,1.69.75,3.07,1.87,4.3l-6.03-4.23,4.16-2.86ZM194.8,386.69v-2.41c.23.17.47.34.7.51,2.33,1.69,5.69,3.93,10.25,6.86l2.12,1.36h34.77v15.61h-11.08v-9.37h-36.77v-12.58.02Z"/>
    <path class="cls-24" d="M96.99,319.82v94.29l-13.83,9.36H31.3l-13.83-9.53v-94.11h26.42v84.72h26.67v-84.72h26.42M104.77,313.49h-42.01v84.72h-11.09v-84.72H9.68v103.38l2.75,1.9,13.83,9.53,2.18,1.5h57.54l2.17-1.47,13.83-9.36,2.81-1.9v-103.59h-.02Z"/>
    <path class="cls-12" d="M96.99,414.1l-13.83,9.36H31.3l-13.83-9.53v-94.11h26.42v84.72h26.67v-84.72h26.42v94.29h.01Z"/>
    <path class="cls-14" d="M83.58,424.82H30.88l-14.76-10.18v-96.18h29.14v84.72h23.95v-84.72h29.14v96.37l-14.77,10h0ZM31.73,422.1h51.02l12.89-8.72v-92.21h-23.71v84.72h-29.39v-84.72h-23.71v92.04l12.89,8.89h.01Z"/>
    <path class="cls-24" d="M187.01,319.89v37.53l-13.57,9.34,13.57,9.51v47.19h-26.41v-47.19h-26.65v47.19h-26.4v-103.57h26.4v37.47h26.65v-37.47h26.41M194.8,313.56h-41.98v37.47h-11.08v-37.47h-41.98v116.24h41.98v-47.19h11.08v47.19h41.98v-56.42l-2.7-1.89-6.67-4.67,6.61-4.55,2.76-1.9v-46.8h0Z"/>
    <path class="cls-9" d="M186.88,423.46h-26.42v-47.22h-26.67v47.22h-26.42v-103.65h26.42v37.5h26.67v-37.5h26.42v37.56l-13.58,9.35,13.58,9.52v47.22Z"/>
    <path class="cls-14" d="M188.24,424.82h-29.14v-47.22h-23.95v47.22h-29.14v-106.36h29.14v37.5h23.95v-37.5h29.14v39.63l-12.56,8.64,12.56,8.8v49.29h0ZM161.82,422.1h23.71v-45.16l-14.6-10.24,14.6-10.05v-35.48h-23.71v37.5h-29.39v-37.5h-23.71v100.93h23.71v-47.22h29.39v47.22Z"/>
    <path class="cls-24" d="M263.22,319.89c.33,0,4.87,3.12,13.62,9.37v18.73h-26.41v-9.19h-26.65v18.56h39.61c4.65,3.18,9.13,6.3,13.45,9.37v47.19c-5.12,3.77-9.57,6.95-13.37,9.54h-52.23l-13.86-9.54v-18.73h26.41v9.37h26.65v-28.28h-39.85c-8.8-5.66-13.2-8.84-13.2-9.55v-37.65l13.37-9.19h52.48M263.24,313.56h-55.33l-2.18,1.5-13.37,9.19-2.76,1.9v40.58c0,3.37,3.01,5.55,5.91,7.65,2.33,1.69,5.69,3.93,10.25,6.86l2.12,1.36h34.77v15.61h-11.08v-9.37h-41.98v28l2.76,1.9,13.86,9.54,2.18,1.5h57.92l2.17-1.48c3.86-2.64,8.43-5.9,13.59-9.7l2.56-1.88v-52.88l-2.67-1.89c-3.56-2.52-7.22-5.08-10.92-7.63h13.59v-27.93l-2.65-1.89c-4.39-3.14-7.78-5.52-10.07-7.1-3.95-2.72-5.58-3.84-8.68-3.84h.01ZM231.59,345.14h11.08v5.9h-11.08v-5.9h0Z"/>
    <path class="cls-8" d="M276.77,347.94h-26.42v-9.2h-26.67v18.57h39.63c4.65,3.18,9.14,6.31,13.46,9.37v47.23c-5.12,3.77-9.58,6.96-13.38,9.55h-52.27l-13.87-9.55v-18.75h26.42v9.37h26.67v-28.3h-39.88c-8.81-5.66-13.21-8.84-13.21-9.55v-37.67l13.38-9.2h52.51c.33,0,4.87,3.13,13.63,9.38v18.75Z"/>
    <path class="cls-14" d="M263.81,424.82h-53.11l-14.81-10.19v-20.82h29.14v9.37h23.95v-25.58h-38.92l-.34-.22c-13.84-8.89-13.84-9.69-13.84-10.69v-38.39l14.31-9.84h52.94c.62,0,.93,0,14.41,9.63l.57.41v20.8h-29.14v-9.2h-23.95v15.86h38.7l.35.24c4.57,3.13,9.1,6.28,13.48,9.39l.57.41v48.61l-.55.41c-5.11,3.77-9.62,6.99-13.42,9.58l-.35.24v-.02ZM211.54,422.1h51.43c3.56-2.44,7.74-5.42,12.44-8.88v-45.84c-4.07-2.88-8.28-5.81-12.52-8.72h-40.57v-21.29h29.39v9.2h23.71v-16.69c-9.18-6.55-11.84-8.31-12.56-8.72h-51.8l-12.44,8.55v36.6c.58.62,2.93,2.55,12.25,8.55h40.84v31.01h-29.39v-9.37h-23.71v16.68l12.94,8.91h-.01Z"/>
    <path class="cls-24" d="M352.6,319.89l13.57,9.37v18.73h-26.4v-9.19h-26.65v65.75h26.65v-28.46h-13.33v-18.91h39.73v56.91l-13.82,9.37h-51.82l-13.82-9.53v-84.69l13.57-9.35h52.32M355.46,313.56h-58.03l-2.18,1.5-13.57,9.35-2.75,1.9v90.56l2.75,1.9,13.82,9.53,2.18,1.5h57.5l2.17-1.47,13.82-9.37,2.8-1.9v-90.73l-2.75-1.9-13.57-9.37-2.18-1.5h-.01ZM320.9,345.14h11.08v5.72h-11.08v-5.72h0ZM320.9,382.43h11.08v15.79h-11.08v-15.79h0Z"/>
    <path class="cls-7" d="M366.17,347.94h-26.42v-9.2h-26.67v65.8h26.67v-28.48h-13.34v-18.93h39.76v56.95l-13.83,9.38h-51.86l-13.83-9.53v-84.75l13.58-9.36h52.35l13.58,9.38v18.75h0Z"/>
    <path class="cls-14" d="M352.75,424.82h-52.7l-14.76-10.18v-86.18l14.52-10h53.2l14.52,10.02v20.82h-29.14v-9.2h-23.95v63.08h23.95v-25.76h-13.34v-21.64h42.48v59.03l-14.77,10.01h0ZM300.9,422.1h51.02l12.89-8.74v-54.87h-37.04v16.21h13.34v31.19h-29.39v-68.51h29.39v9.2h23.71v-16.68l-12.65-8.73h-51.51l-12.65,8.71v83.33l12.89,8.89h0Z"/>
  </g>
  <g>
    <path class="cls-4" d="M172.18,429.98c-1.2.96-6.83,5.61-10.59,8.93-3.69-3.29-6.09-5.38-7.29-6.34l-.74-.6-2.46-1.99h-61.6v4.05l-1.44-1.23-3.31-2.82h-44.03l-3.31,2.82-10.21,8.71-3.15,2.68-.09,95.28.31.32,3.16,2.68,10.39,8.83,1.58,1.34h47.05l1.55-1.29,1.68-1.41v2.7h77.32v-1.57l.04-2.57,2.39,2,2.41,2.13h61.53v-1.36l1.53,1.36h85.55v-10.43l2.08,5.03,2.24,5.41h34.91v-122.66h-37.91v11.56l-2.53-6.06-2.3-5.51h-81.64l-2.03,1.62v-1.62h-61.09M276.99,500.56v-25.37h5.51v32.67h-5.51v-7.3ZM213.92,500.56v-25.37h5.47v32.67h-5.47v-7.3ZM137.9,534.62h.15-.15ZM62.55,491.72h.05-.05Z"/>
    <path class="cls-16" d="M158.81,544.12v-43.73l-9.75-8.37c2.83-2.33,5.89-4.9,9.11-7.66l.64-.55v-26.43l-.61-.54c-4.34-3.83-7.16-6.26-8.38-7.23l-.75-.6h-49.84v95.04l20.27.06.02-1.74v-41.44h19.23v43.12l20.07.06h-.01ZM118.77,483.73v-16.56h19.59v16.56h-19.59Z"/>
    <g>
      <path class="cls-16" d="M174.58,449.35c-1.2.96-4.12,3.47-8.43,7.28l-.91.81v77.79l9.99,8.83h49.08v-17.73h-39.08v-25.51h19.63v-17.73h-19.63v-16.6h39.08v-17.73h-48.99l-.74.59h0Z"/>
      <path class="cls-16" d="M237.76,449.35c-.86.69-3.02,2.5-8.42,7.27l-.91.81v77.79l9.98,8.83h49.01v-17.73h-39.02v-25.51h19.6v-17.73h-19.6v-16.6h39.02v-17.73h-48.92l-.74.59h0Z"/>
      <polygon class="cls-16" points="72.33 474.93 72.47 474.93 74.09 474.93 92.4 474.93 92.4 457.45 82.22 448.76 43.33 448.76 33.15 457.44 33 458.21 33 535.11 43.51 544.12 82.04 544.12 92.4 535.43 92.4 482.95 62.59 482.95 62.59 484.64 62.45 484.64 62.45 498.03 62.45 499.01 62.45 500.7 62.59 500.7 63.51 500.7 72.33 500.7 72.33 526.38 53.08 526.38 53.08 466.5 72.33 466.5 72.33 473.24 72.33 474.93"/>
      <polygon class="cls-16" points="330.74 448.76 330.74 495.89 310.99 448.76 291.5 448.76 291.5 544.06 311.48 544.06 311.48 497.49 330.8 544.06 350.71 544.06 350.71 448.76 330.74 448.76"/>
    </g>
    <path class="cls-6" d="M43.67,440.12l-9.57,8.16v.66l-.15.12v75.61l.15.12v.66l9.75,8.32h37.9l9.75-8.18v-51.16h-27.86v1.69h-.15v12.38h.15v1.69h9.76v27.81h-21.35v-62.12h21.35v6.76h.15v1.69h17.95v-16.05l-9.57-8.17h-38.26ZM158.23,448.34l-.56-.5c-4.29-3.84-7.08-6.27-8.27-7.24l-.47-.38h-48.1v93.65h17.95v-1.69h.15v-41.72h21.35v43.41h17.95v-1.69h.15v-39.77l-.15-.13v-.64l-10.53-9.16.73-.61c2.9-2.42,6-5.06,9.21-7.86l.58-.51v-.65s.1-.08.15-.13v-23.64c-.05-.05-.1-.09-.15-.13v-.63.02ZM139.24,474.69h-21.35v-18.71h21.35v18.71ZM175.74,440.22h47.61v15.76h-39.08v18.71h19.63v15.76h-19.63v27.65h39.08v15.76h-47.67l-9.36-8.31v-77.19l.57-.51c4.29-3.8,7.19-6.32,8.39-7.27l.46-.37h0ZM238.85,440.22h47.61v15.76h-39.08v18.71h19.63v15.76h-19.63v27.65h39.08v15.76h-47.67l-9.36-8.31v-77.19l.57-.5c5.39-4.77,7.53-6.59,8.39-7.27l.46-.37h0ZM349.75,440.22v93.65h-18.23l-21.03-50.88v50.88h-17.95v-93.65h17.81l21.45,51.39v-51.39h17.95Z"/>
    <g class="cls-23">
      <path class="cls-10" d="M346.44,564.91l10.13-29.72-38.78-13.22,48.3-15.7.23.34.16-.47,1.11-.36-.88-.3,10.07-29.54-29.76-43.58-49.4,16.06,10.03-29.42-39.66-13.52-1.51-.51-39.66-13.52,29.53,43.24h0l-18.95-6.46-4.97,14.56-44.06-64.52-49.4,16.06h0l10.03-29.42-39.66-13.52.1-.3-.5.16-1.11-.38.41.61-49.79,16.19,29.53,43.24-49.79,16.19,29.11,42.64-39.66-13.52,30.3,44.37.35.51,5.07-14.86,14.06,20.58-24.1,7.84-.23-.34-.16.47-1.11.36.88.3-4.68,13.73-29.18-42.73-.35-.51-10.46,30.67,29.53,43.24-9.81,28.76-29.18-42.73-.35-.51-10.52,30.85,39.66,13.52-.1.3.5-.16,1.11.38-.41-.61,50.49-16.42-39.66-13.52,48.3-15.7.23.34h0l28.82,42.2-50.49,16.42,39.66,13.52,1.51.51,78.7,26.84-.1.3.5-.16,1.11.38-.41-.61,48.99-15.93,29.41,43.07.35.51,10.13-29.72,29.18,42.73.35.51,10.13-29.72.38-1.13,9.75-28.59.38-1.13,10.13-29.72-38.78-13.22,48.3-15.7.23.34.16-.47,1.11-.36-.88-.3h0ZM-11.38,575.58l9.75-28.59,28.41,41.6-38.16-13.01h0ZM285.89,610.61l-.88-.3-37.28-12.71,47.9-15.58-9.75,28.59h.01ZM295.56,581.2l-49.1,15.97-18.56-6.33,23.79-7.74,5.01-14.69,20.71,7.06-14.76-21.62,18.56,6.33,13.94,20.41h0l.41.61h0ZM196.44,613.28l-18.33-6.25,23.01-7.48-4.68,13.73ZM177.34,606.44l4.68-13.73,18.32,6.25-23.01,7.48h0ZM156.78,599.76l-18.33-6.25,23.01-7.48-4.68,13.73ZM133.09,475.51l-13.88-20.32,18.32,6.25-.1.3.5-.16,1.11.38-.41-.61,24.1-7.84.23.34.1-.3,18.32,6.25-23.01,7.48h0l-25.29,8.22h0ZM88.81,411.65l18.32,6.25-23.01,7.48,4.58-13.43.1-.3h.01ZM137.88,395.54l-5.07,14.86,25.29-8.22,14.53,21.28-4.74,13.9-14.53-21.28-25.7,8.36,14.35,21.01-17.44-5.95-1.11-.38-.29-.43h0l-14.3-20.94.16-.47-.5.16-18.56-6.33,47.9-15.58h0ZM247.12,464.7l-18.33-6.25,23.01-7.48-4.68,13.73ZM245.96,465.23l1.51.51,18.32,6.25-23.4,7.61-13.88-20.32,17.45,5.95h0ZM306.28,550.88l-28.82-42.21,23.7-7.71-4.97,14.56,19.83,6.76-9.75,28.59h.01ZM251.75,516.03l-18.32-6.25,23.01-7.48-4.68,13.73h-.01ZM251.37,517.16l-4.58,13.43-13.64-19.98,18.32,6.25-.1.3ZM256.62,567.45l-18.56-6.33,23.4-7.61,13.88,20.32-18.32-6.25.1-.3-.5.16h0ZM261.56,552.22l-14.06-20.59,23.71-7.71-9.65,28.29h0ZM260.99,552.82l-.7.23h0l-23.01,7.48h0l4.68-13.73.38-1.13,4.58-13.43h0l14.06,20.58h.01ZM206.6,583.57l-18.33-6.25,23.01-7.48-4.68,13.73ZM142.82,512.99l.06-.17,24.9-8.1,4.91-14.39,14.06,20.58-24.2,7.87-.23-.08-.06.17-24.5,7.97-.23-.34-.1.3-18.33-6.25,23.5-7.64.23.08h0ZM142.48,511.94l-18.33-6.25,23.01-7.48-4.68,13.73ZM147.95,497.95l24.11-7.84-4.74,13.9-24.11,7.84,4.74-13.9ZM108.57,418.7l13.64,19.98-18.32-6.25,4.68-13.73ZM103.26,432.22l-18.33-6.25,23.01-7.48-4.68,13.73ZM103.6,433.27l18.32,6.25-23.79,7.74-4.91,14.39-14.06-20.58,24.2-7.87.23.08h.01ZM98.59,447.96l24.11-7.84-4.74,13.9-24.11,7.84,4.74-13.9ZM123.33,440.33l13.64,19.98-18.32-6.25,4.68-13.73ZM124.31,440.33l18.32,6.25-4.68,13.73s-13.64-19.98-13.64-19.98ZM162.85,452.21l-13.64-19.98,18.33,6.25-4.68,13.73h-.01ZM147.1,430.58l14.76,21.62-18.56-6.33-14.35-21.01,24.1-7.84,13.88,20.32-19.83-6.76ZM143.26,446.78l.88.3,17.44,5.95-23.01,7.48,4.68-13.73h0ZM207.49,452.16l13.88,20.32-18.32-6.25-1.51-.51-17.44-5.95,23.4-7.61h0ZM242.02,480.45l13.94,20.41-18.56-6.33-13.94-20.41,18.56,6.33ZM197.24,547.11l-13.88-20.32,19.83,6.76-14.76-21.62,17.44,5.95,1.11.38,14.35,21.01-24.1,7.84h0ZM192.23,562.06l-13.94-20.41,18.56,6.33,13.94,20.41-17.44-5.95-1.11-.38h0ZM161.97,584.58l-13.64-19.98,18.33,6.25-.1.3-4.58,13.43h0ZM137.65,528.12l13.64,19.98-18.32-6.25,4.68-13.73ZM138.22,527.52l23.7-7.71-4.58,13.43-.49,1.42-4.58,13.43-14.06-20.58h.01ZM173.95,489.48l23.4-7.61.23.34h0l13.64,19.98-18.95-6.46-4.97,14.56-14.06-20.59.7-.23h.01ZM212.22,503.46l18.56,6.33-23.5,7.64-18.55-6.33,23.5-7.64h0ZM187.94,510.51l4.68-13.73,18.32,6.25-23.01,7.48h0ZM231.06,508.96l-17.44-5.95-1.11-.38-13.94-20.41,18.56,6.33,13.94,20.41h0ZM218.4,488.99l18.33,6.25-4.68,13.73-13.64-19.98h-.01ZM198.85,481.4l-.88-.3,4.68-13.73,13.64,19.98-17.44-5.95h0ZM197.45,480.59l-13.64-19.98,18.33,6.25-4.68,13.73h-.01ZM182.83,460.61l13.64,19.98-18.32-6.25,4.68-13.73h0ZM187.23,511.61l13.88,20.32-17.44-5.95-2.39-.81-17.44-5.95,23.01-7.48h0l.39-.13h0ZM180.99,526l-23.01,7.48,4.68-13.73,18.33,6.25ZM157.5,534.91l13.64,19.98-18.33-6.25,4.68-13.73h.01ZM153.41,549.77l18.33,6.25-4.68,13.73-13.64-19.98h-.01ZM172.36,556.23l.88.3,17.44,5.95-23.01,7.48,4.68-13.73h0ZM172.41,555.32l-14.35-21.01,24.1-7.84,13.88,20.32-19.83-6.76,14.76,21.62-18.56-6.33h0ZM231.56,510.41l-4.68,13.73-18.33-6.25,23.01-7.48ZM237.35,495.47l.88.3,17.44,5.95-23.01,7.48,4.68-13.73h0ZM236.13,494.12l-18.56-6.33-13.94-20.41,18.56,6.33,13.94,20.41ZM183.31,459.19h0l-.5.16-1.11-.38-17.44-5.95,23.5-7.64,18.56,6.33-23.01,7.48h0ZM196.18,481.43l-23.4,7.61-.23-.34h0l-14.06-20.58,23.7-7.71-4.97,14.56,18.95,6.46h0ZM171.57,488.69l-18.32-6.25,4.68-13.73,13.64,19.98ZM137.14,527.64l-4.68,13.73-13.64-19.98h0l18.33,6.25h-.01ZM117.31,520.88l-4.68,13.73-13.64-19.98,17.44,5.95.88.3ZM113.09,535.29l.16-.47,4.58-13.43,14.3,20.94-.06.17-4.68,13.73-13.64-19.98h0s-.66-.96-.66-.96ZM132.7,542.71l18.32,6.25-23.01,7.48,4.68-13.73h0ZM152.2,549.43l13.88,20.32-19.83-6.76,14.76,21.62-18.56-6.33-14.35-21.01,24.1-7.84h0ZM167.3,571.1l.88.3,17.44,5.95-23.01,7.48,4.68-13.73h0ZM168.47,570.57l23.5-7.64,18.56,6.33-23.5,7.64-18.55-6.33h0ZM212.03,568.77l-14.29-20.93,24.2-7.87,18.55,6.33-24.9,8.1,19.83,6.76-23.01,7.48h0l-.39.13h0ZM241.66,545.77l-18.32-6.25,23.01-7.48-4.68,13.73h-.01ZM236.59,560.63l-18.32-6.25,23.01-7.48-4.68,13.73h-.01ZM236.21,561.76l-4.68,13.73-18.32-6.25,23.01-7.48h-.01ZM222.16,539.06l-13.88-20.32,18.95,6.46,4.97-14.56,14.06,20.58-24.1,7.84h0ZM257.26,502.07l1.11-.36-1.11-.38-14.35-21.01,23.7-7.71-4.91,14.39,14.52,21.27-23.7,7.71,4.74-13.9h0ZM272.46,457.49l24.11-7.84-4.74,13.9-24.11,7.84h0l4.74-13.9h0ZM262.49,486.72l4.74-13.9,14.76,21.62,5.07-14.86,14.06,20.58-24.1,7.84-14.53-21.28ZM315.47,521.18l-18.33-6.25,4.68-13.73h0l13.64,19.98h0ZM302.31,499.78l4.68-13.73,18.33,6.25-23.01,7.48h0ZM306.65,485l-4.97,14.56-14.76-21.62-5.07,14.86-14.06-20.58,24.49-7.96,4.91-14.39,28.41,41.6-18.95-6.46h0ZM272.78,456.54h0l-.39.13-13.88-20.32,37.28,12.71-23.01,7.48h0ZM266.99,471.48l-18.32-6.25,23.01-7.48-4.68,13.73h-.01ZM227.27,458.13l-1.11.36,1.11.38,13.94,20.41-18.56-6.33-14.35-21.01,23.7-7.71-4.74,13.9h.01ZM208.22,451.11l4.68-13.73,18.32,6.25-23.01,7.48h.01ZM187.89,444.51l-24.4,7.94,4.58-13.44.38-1.13,5.01-14.69-14.11-20.66,18.56,6.33,28.7,42.03-18.72-6.38h0ZM102.11,432.77l-23.01,7.48,4.68-13.73,18.33,6.25ZM92.67,462.26l-23.71,7.71,9.65-28.29,14.06,20.58h0ZM83.1,491.38l-13.64-19.98,18.33,6.25-4.68,13.73h-.01ZM88.41,477.86l18.32,6.25-23.01,7.48,4.68-13.73h.01ZM89.57,477.33l23.01-7.48-4.68,13.73-18.32-6.25h-.01ZM108.62,483.5l5.07-14.86-25.39,8.26-.23-.08-18.33-6.25,23.4-7.61.23.34.16-.47,24.5-7.97,14.29,20.93-23.7,7.71h0ZM157.3,468.52l-4.68,13.73-18.33-6.25,23.01-7.48ZM152.96,483.3l18.32,6.25-23.01,7.48h0l-.5.16-18.56-6.33,23.5-7.64.23.08h.02ZM146.39,497.64l-23.01,7.48,4.68-13.73,18.32,6.25h.01ZM127.34,491.47l-4.68,13.73-18.32-6.25,23.01-7.48h-.01ZM121.49,505.73l1.51.51,18.33,6.25-23.4,7.61-13.88-20.32,17.44,5.95h0ZM116.71,519.76l-19.83-6.76,14.76,21.62-18.32-6.25-.23-.08-14.35-21.01,24.1-7.84,13.88,20.32h0ZM87.73,542.72l-13.64-19.98,18.32,6.25-4.68,13.73ZM88.36,542.93l4.68-13.73,18.32,6.25-23.01,7.48h.01ZM112.77,536.26l13.64,19.98-18.33-6.25,4.68-13.73h.01ZM127.53,557.88l14.47,21.19,18.72,6.38-23.4,7.61-14.53-21.28,4.74-13.9h0ZM181.43,592.52l-4.68,13.73-13.64-19.98,17.44,5.95.88.3h0ZM201.54,598.45l-18.33-6.25,23.01-7.48-4.68,13.73ZM181.94,591.77l-18.55-6.33,23.5-7.64,18.56,6.33-23.5,7.64h0ZM207.33,583.51l4.68-13.73.88.3,17.44,5.95-23.01,7.48h0ZM236.91,561.68l18.32,6.25-23.01,7.48,4.68-13.73h0ZM281.3,559.3l-18.32-6.25,23.01-7.48-4.68,13.73h-.01ZM262.2,552.46l10.13-29.72-24.9,8.1h0l4.74-13.9,24.51-7.97,29.05,42.55-23.7,7.71,5.07-14.86-24.9,8.1h0ZM316.58,522.83l28.41,41.6-38.16-13.01,9.75-28.59h0ZM355.72,535.85l-9.75,28.59-28.41-41.6,38.16,13.01h0ZM316.68,521.54l-14.29-20.93,24.2-7.87,1.11.38,37.28,12.71-48.3,15.71ZM326.87,491.91l-28.7-42.03,38.39,13.09,28.7,42.03-38.39-13.09h0ZM346.75,433.34l29.3,42.9-9.81,28.76-29.18-42.73-.05-.08-38.55-13.15,48.3-15.71h-.01ZM306.8,419.65l-9.75,28.59-28.41-41.6,38.16,13.01ZM267.14,406.13l-9.75,28.59-28.41-41.6,38.16,13.01ZM267.66,406.64l28.41,41.6-37.28-12.71-.88-.3,9.75-28.59h0ZM257.29,436.02l.23.34h0l14.06,20.58-23.7,7.71,5.07-14.86-24.9,8.1,4.68-13.73.88.3-.41-.61,24.1-7.84h-.01ZM237.79,429.3l18.33,6.25-23.01,7.48,4.68-13.73h0ZM188.1,379.25l43.4,63.56-18.95-6.46-4.97,14.56-29.18-42.73-.05-.08-19.83-6.76-.06-.09-.1.03-18.56-6.33,48.3-15.71h0ZM156.96,401.74l-23.01,7.48,4.58-13.43.1-.3,18.32,6.25h0ZM148.14,365.56l-9.75,28.59-28.41-41.6,38.16,13.01ZM108.38,352.33l-19.78,58.01-28.82-42.21,48.6-15.8h0ZM109.01,352.54l28.82,42.21-48.6,15.8h0l19.78-58.01h0ZM88.12,411.76l-4.74,13.9-1.11.36.88.3-4.84,14.2-.41.13.24.35-9.81,28.76-28.82-42.21,48.6-15.8h.01ZM63.27,484.63l-5.07,14.86-28.41-41.6,37.28,12.71,1.11.38.03.04.26.39h0l14.3,20.94-.16.47-4.58,13.43-14.76-21.62ZM83.4,492.56l24.11-7.84h0l25.39-8.26,18.56,6.33-23.01,7.48h0l-26.79,8.71h0l-23.01,7.48h0l4.74-13.9h0ZM78.17,507.89l13.64,19.98-18.32-6.25,4.68-13.73h0ZM77.54,507.68l-4.68,13.73-.88-.3-17.44-5.95,23.01-7.48h-.01ZM28.42,588.86l9.75-28.59,38.16,13.01-47.9,15.58h0ZM38.16,559.27l-29.3-42.9,9.81-28.76,29.18,42.73.35.51,5.07-14.86,14.47,21.19,18.72,6.38s-48.3,15.71-48.3,15.71ZM68.19,536.4l-13.94-20.41,18.56,6.33,13.94,20.41-18.55-6.33h-.01ZM88.43,543.77l23.7-7.71-4.97,14.56,19.83,6.76-5.01,14.69,14.11,20.66-18.32-6.25.1-.3-.39.13-29.05-42.55h0ZM68.86,602.98l47.9-15.58-9.75,28.59-38.16-13.01h0ZM117.49,587.32l18.32,6.25,2.39.81,17.45,5.95-47.9,15.58,9.75-28.59h-.01ZM108.52,616.5l48.3-15.71,28.64,41.94-76.94-26.24h0ZM157.38,600.18l4.74-13.9,14.06,20.58-.7.23,1.11.38.29.43.1-.3,19.21,6.55-9.75,28.59-29.06-42.56h0ZM187.07,642.95l9.75-28.59,38.16,13.01-47.9,15.58h0ZM197.1,613.53l4.78-14.03.38-1.13,4.58-13.43,28.41,41.6-38.16-13.01h0ZM265.76,669.79l-28.82-42.21.7-.23-1.11-.38-29.11-42.64,24.2-7.87.23.08.06-.17,24.11-7.84-4.74,13.9-26,8.46,19.83,6.76,1.11.38,28.7,42.03h0l.66.96-9.81,28.76h0ZM305.42,683.31l-28.41-41.6,38.16,13.01-9.75,28.59h0ZM276.19,640.5l-28.7-42.03,38.39,13.09,28.7,42.03-38.39-13.09h0ZM287.15,612l38.16,13.01-9.75,28.59-28.41-41.6h0ZM286.55,610.87l9.75-28.59,28.41,41.6-38.16-13.01h0ZM335.44,595.3l-9.75,28.59-28.41-41.6,38.16,13.01h0ZM296.79,580.86h0l-.39.13-14.29-20.93,24.1-7.84.23.34.1-.3,38.16,13.01-47.9,15.58h-.01Z"/>
    </g>
    <g>
      <path class="cls-14" d="M237.69,439.79c-.86.69-3.02,2.51-8.43,7.3l-.91.81v78.11l9.99,8.87h49.08v-17.8h-39.08v-25.61h19.63v-17.8h-19.63v-16.67h39.08v-17.8h-48.99l-.74.59h0ZM239.15,441.23h46.23v13.73h-39.08v20.74h19.63v13.73h-19.63v29.69h39.08v13.73h-46.26l-8.73-7.75v-76.28l.23-.2c5.38-4.76,7.51-6.56,8.35-7.24l.18-.15h0Z"/>
      <path class="cls-14" d="M330.72,439.2v47.32l-19.76-47.32h-19.5v95.69h19.99v-46.77l19.33,46.77h19.93v-95.69h-19.99,0ZM348.67,532.85h-16.53l-22.73-54.99v54.99h-15.92v-91.61h16.11l23.15,55.45v-55.45h15.92v91.61h0Z"/>
      <path class="cls-14" d="M174.58,439.79c-1.2.96-4.12,3.49-8.43,7.31l-.91.81v78.11l9.99,8.87h49.08v-17.8h-39.08v-25.61h19.63v-17.8h-19.63v-16.67h39.08v-17.8h-48.99l-.74.59h0ZM176.04,441.23h46.23v13.73h-39.08v20.74h19.63v13.73h-19.63v29.69h39.08v13.73h-46.26l-8.73-7.75v-76.28l.23-.2c4.29-3.8,7.17-6.3,8.35-7.24l.18-.15h0Z"/>
      <path class="cls-14" d="M32.88,448.28v13.89h0l.11,63.87v.13l10.4,8.87h38.65l10.4-8.72v-52.66h-30.04v17.8h9.91v25.77h-19.31v-60.08h19.31v8.46h20.14v-17.54l-10.21-8.72h-39.02l-10.36,8.89v.04M90.41,463.58h-16.06v-8.45h-23.38v64.16h23.38v-29.85h-9.76v-13.73h25.82v49.67l-9.1,7.63h-37.15l-9.24-7.9v-62.94s0-13,0-13l.15-.17,8.92-7.61h37.51l8.93,7.62v14.56h-.01Z"/>
      <path class="cls-14" d="M117.14,475.71h23.38v-20.74h-23.38s0,20.74,0,20.74ZM119.18,457h19.31v16.67h-19.31s0-16.67,0-16.67Z"/>
      <path class="cls-14" d="M157.77,447.08c-4.31-3.85-7.1-6.3-8.31-7.28l-.74-.6h-49.47v95.69h20.14v-43.41h19.31v43.41h19.99l.1-43.7-10.07-8.69c2.81-2.35,5.85-4.94,9.04-7.71l.93-.81.15-.15v-25.81l-.15-.13-.9-.81h-.02ZM156.78,449.55v23.34l-.15.15-.23.2c-3.26,2.82-6.35,5.46-9.2,7.84l-1.64,1.37,11.14,9.75.08,38.94v1.69l-.08-40.63-.07,40.63h-15.92v-43.41h-23.38v43.32h-.14l-15.92.09v-91.61h46.72l.19.15c1.18.95,3.95,3.38,8.24,7.21l.22.2.15.12v.65Z"/>
    </g>
  </g>
</svg>